<?xml version="1.0" encoding="UTF-8"?>
<svg id="_圖層_2" data-name="圖層 2" xmlns="http://www.w3.org/2000/svg" xmlns:xlink="http://www.w3.org/1999/xlink" viewBox="0 0 84.04 107.03">
  <defs>
    <style>
      .cls-1 {
        fill: #d98957;
      }

      .cls-1, .cls-2, .cls-3, .cls-4, .cls-5, .cls-6, .cls-7, .cls-8, .cls-9, .cls-10, .cls-11 {
        stroke-width: 0px;
      }

      .cls-2 {
        fill: #d1b199;
      }

      .cls-12 {
        clip-path: url(#clippath);
      }

      .cls-3 {
        fill: none;
      }

      .cls-4 {
        fill: #373737;
      }

      .cls-5 {
        fill: #000;
      }

      .cls-6 {
        fill: #eed9c6;
      }

      .cls-7 {
        fill: #549c35;
      }

      .cls-8 {
        fill: #e1a27b;
      }

      .cls-9 {
        fill: #b35b33;
      }

      .cls-10 {
        fill: #c9a063;
      }

      .cls-11 {
        fill: #fff;
      }
    </style>
    <clipPath id="clippath">
      <polygon class="cls-3" points="18.25 42.96 18.25 61.38 0 61.38 0 106.31 36.45 106.31 36.45 79.81 36.45 61.38 36.45 53.46 18.25 42.96"/>
    </clipPath>
  </defs>
  <g id="_圖層_5" data-name="圖層 5">
    <g>
      <g>
        <polygon class="cls-6" points="41.81 6.08 79.9 28.07 46.64 47.31 8.55 25.32 41.81 6.08"/>
        <path class="cls-5" d="M46.64,47.69c-.06,0-.13-.02-.19-.05L8.36,25.65c-.12-.07-.19-.19-.19-.33s.07-.26.19-.32L41.63,5.75c.12-.07.26-.07.38,0l38.09,21.99c.12.07.19.19.19.33s-.07.26-.19.32l-33.26,19.24c-.06.03-.12.05-.19.05ZM9.3,25.32l37.34,21.56,32.51-18.81L41.81,6.51,9.3,25.32Z"/>
      </g>
      <g>
        <polygon class="cls-2" points="79.9 87.43 46.6 106.66 46.6 47.29 79.9 28.07 79.9 87.43"/>
        <path class="cls-5" d="M46.6,107.03c-.06,0-.13-.02-.19-.05-.12-.07-.19-.19-.19-.33v-59.36c0-.13.07-.26.19-.33l33.3-19.22c.12-.07.26-.07.38,0,.12.07.19.19.19.33v59.36c0,.13-.07.26-.19.33l-33.3,19.22c-.06.03-.12.05-.19.05ZM46.98,47.51v58.5l32.55-18.79V28.72l-32.55,18.79ZM79.9,87.43h0,0Z"/>
      </g>
      <g>
        <polygon class="cls-6" points="8.55 84.69 46.6 106.66 46.6 47.29 8.55 25.32 8.55 84.69"/>
        <path class="cls-5" d="M46.6,107.03c-.06,0-.13-.02-.19-.05l-38.05-21.97c-.12-.07-.19-.19-.19-.33V25.32c0-.13.07-.26.19-.33.12-.07.26-.07.38,0l38.05,21.97c.12.07.19.19.19.33v59.36c0,.13-.07.26-.19.33-.06.03-.12.05-.19.05ZM8.93,84.47l37.3,21.54v-58.5L8.93,25.97v58.5Z"/>
      </g>
      <g>
        <polygon class="cls-5" points="19.3 69.31 37.5 79.81 37.5 53.46 19.3 42.96 19.3 69.31"/>
        <path class="cls-5" d="M37.5,80.19c-.06,0-.13-.02-.19-.05l-18.2-10.51c-.12-.07-.19-.19-.19-.33v-26.35c0-.13.07-.26.19-.33.12-.07.26-.07.38,0l18.2,10.51c.12.07.19.19.19.33v26.35c0,.13-.07.26-.19.33-.06.03-.12.05-.19.05ZM19.68,69.09l17.45,10.07v-25.48l-17.45-10.08v25.48Z"/>
      </g>
      <g>
        <polygon class="cls-5" points="81.42 69.07 54.69 86.88 52.63 85.69 52.63 61.72 81.42 45.1 83.47 46.29 81.42 69.07"/>
        <path class="cls-5" d="M54.69,87.25c-.06,0-.13-.02-.19-.05l-2.05-1.19c-.12-.07-.19-.19-.19-.33v-23.97c0-.13.07-.26.19-.33l28.79-16.62c.12-.07.26-.07.38,0l2.05,1.19c.13.07.2.21.19.36l-2.05,22.79c0,.11-.07.22-.17.28l-26.74,17.81c-.06.04-.14.06-.21.06ZM53.01,85.48l1.66.96,26.39-17.58,2.02-22.37-1.66-.96-28.41,16.41v23.54ZM81.42,69.07h0,0Z"/>
      </g>
      <g>
        <polygon class="cls-4" points="83.47 70.26 54.69 86.88 54.69 62.91 83.47 46.29 83.47 70.26"/>
        <path class="cls-5" d="M54.69,87.25c-.06,0-.13-.02-.19-.05-.12-.07-.19-.19-.19-.33v-23.97c0-.13.07-.26.19-.33l28.79-16.62c.12-.07.26-.07.38,0,.12.07.19.19.19.33v23.97c0,.13-.07.26-.19.33l-28.79,16.62c-.06.03-.12.05-.19.05ZM55.06,63.12v23.11l28.04-16.19v-23.11l-28.04,16.19ZM83.47,70.26h0,0Z"/>
      </g>
      <g>
        <polygon class="cls-5" points="17.46 105.12 19.89 103.19 37.5 77.99 36.92 71.83 15.23 100.95 17.46 105.12"/>
        <path class="cls-5" d="M17.46,105.5s-.05,0-.08,0c-.11-.02-.2-.09-.25-.19l-2.23-4.17c-.07-.13-.06-.28.03-.4l21.69-29.12c.09-.12.25-.18.4-.14.15.04.26.17.27.33l.58,6.16c0,.09-.01.18-.07.25l-17.61,25.2s-.05.06-.07.08l-2.43,1.94c-.07.05-.15.08-.23.08ZM15.68,100.99l1.9,3.56,2.04-1.62,17.5-25.04-.47-5.05-20.97,28.15Z"/>
      </g>
      <g class="cls-12">
        <g>
          <g>
            <polygon class="cls-9" points="30.82 50.68 47.05 60.16 42.83 62.61 26.6 53.12 30.82 50.68"/>
            <path class="cls-5" d="M42.83,62.98c-.07,0-.13-.02-.19-.05l-16.23-9.49c-.12-.07-.19-.19-.19-.33s.07-.26.19-.32l4.22-2.44c.12-.07.26-.07.38,0l16.23,9.49c.12.07.19.19.19.33s-.07.26-.19.32l-4.22,2.44c-.06.03-.12.05-.19.05ZM27.34,53.12l15.49,9.05,3.48-2.01-15.49-9.05-3.48,2.01Z"/>
          </g>
          <g>
            <polygon class="cls-5" points="26.6 57.1 42.83 66.59 42.83 62.6 26.6 53.12 26.6 57.1"/>
            <path class="cls-5" d="M42.83,66.96c-.07,0-.13-.02-.19-.05l-16.23-9.49c-.12-.07-.19-.19-.19-.32v-3.98c0-.13.07-.26.19-.33s.26-.06.38,0l16.23,9.49c.12.07.19.19.19.32v3.98c0,.13-.07.26-.19.33-.06.03-.12.05-.19.05ZM26.97,56.89l15.48,9.05v-3.11l-15.48-9.05v3.11Z"/>
          </g>
          <g>
            <polygon class="cls-9" points="26.59 57.1 42.83 66.59 38.6 69.03 22.37 59.54 26.59 57.1"/>
            <path class="cls-5" d="M38.6,69.41c-.07,0-.13-.02-.19-.05l-16.23-9.49c-.12-.07-.19-.19-.19-.33s.07-.26.19-.32l4.22-2.44c.12-.07.26-.07.38,0l16.23,9.49c.12.07.19.19.19.33s-.07.26-.19.32l-4.22,2.44c-.06.03-.12.05-.19.05ZM23.12,59.54l15.49,9.05,3.48-2.01-15.49-9.05-3.48,2.01Z"/>
          </g>
          <g>
            <polygon class="cls-5" points="22.37 63.52 38.6 73.01 38.6 69.03 22.37 59.54 22.37 63.52"/>
            <path class="cls-5" d="M38.6,73.39c-.07,0-.13-.02-.19-.05l-16.23-9.49c-.12-.07-.19-.19-.19-.32v-3.98c0-.13.07-.26.19-.33.12-.07.26-.06.38,0l16.23,9.49c.12.07.19.19.19.32v3.98c0,.13-.07.26-.19.33-.06.03-.12.05-.19.05ZM22.75,63.31l15.48,9.05v-3.11l-15.48-9.05v3.11Z"/>
          </g>
          <g>
            <polygon class="cls-1" points="22.37 63.52 38.6 73.01 34.38 75.45 18.14 65.97 22.37 63.52"/>
            <path class="cls-5" d="M34.38,75.83c-.07,0-.13-.02-.19-.05l-16.23-9.49c-.12-.07-.19-.19-.19-.33s.07-.26.19-.32l4.22-2.44c.12-.07.26-.07.38,0l16.23,9.49c.12.07.19.19.19.33s-.07.26-.19.32l-4.22,2.44c-.06.03-.12.05-.19.05ZM18.89,65.97l15.49,9.05,3.48-2.01-15.49-9.05-3.48,2.01Z"/>
          </g>
          <g>
            <polygon class="cls-5" points="18.14 69.95 34.37 79.43 34.37 75.45 18.14 65.97 18.14 69.95"/>
            <path class="cls-5" d="M34.37,79.81c-.07,0-.13-.02-.19-.05l-16.23-9.49c-.12-.07-.19-.19-.19-.32v-3.98c0-.13.07-.26.19-.33s.26-.07.38,0l16.23,9.49c.12.07.19.19.19.32v3.98c0,.13-.07.26-.19.33-.06.03-.12.05-.19.05ZM18.52,69.73l15.48,9.05v-3.11l-15.48-9.05v3.11Z"/>
          </g>
          <g>
            <polygon class="cls-1" points="18.14 69.94 34.37 79.43 30.15 81.88 13.92 72.39 18.14 69.94"/>
            <path class="cls-5" d="M30.15,82.25c-.07,0-.13-.02-.19-.05l-16.23-9.49c-.12-.07-.19-.19-.19-.33s.07-.26.19-.32l4.22-2.44c.12-.07.26-.07.38,0l16.23,9.49c.12.07.19.19.19.33s-.07.26-.19.32l-4.22,2.44c-.06.03-.12.05-.19.05ZM14.66,72.39l15.49,9.05,3.48-2.01-15.49-9.05-3.48,2.01Z"/>
          </g>
          <g>
            <polygon class="cls-5" points="13.92 76.37 30.14 85.86 30.14 81.87 13.92 72.39 13.92 76.37"/>
            <path class="cls-5" d="M30.14,86.23c-.07,0-.13-.02-.19-.05l-16.23-9.49c-.12-.07-.19-.19-.19-.32v-3.98c0-.13.07-.26.19-.33.12-.07.26-.06.38,0l16.23,9.49c.12.07.19.19.19.32v3.98c0,.13-.07.26-.19.33-.06.03-.12.05-.19.05ZM14.29,76.15l15.48,9.05v-3.11l-15.48-9.05v3.11Z"/>
          </g>
          <g>
            <polygon class="cls-8" points="13.91 76.37 30.14 85.86 25.92 88.3 9.69 78.81 13.91 76.37"/>
            <path class="cls-5" d="M25.92,88.67c-.07,0-.13-.02-.19-.05l-16.23-9.49c-.12-.07-.19-.19-.19-.33s.07-.26.19-.32l4.22-2.44c.12-.07.26-.07.38,0l16.23,9.49c.12.07.19.19.19.33s-.07.26-.19.32l-4.22,2.44c-.06.03-.12.05-.19.05ZM10.43,78.81l15.49,9.05,3.48-2.01-15.49-9.05-3.48,2.01Z"/>
          </g>
          <g>
            <polygon class="cls-5" points="9.69 82.79 25.92 92.28 25.92 88.3 9.69 78.81 9.69 82.79"/>
            <path class="cls-5" d="M25.92,92.65c-.07,0-.13-.02-.19-.05l-16.23-9.49c-.12-.07-.19-.19-.19-.32v-3.98c0-.13.07-.26.19-.33s.26-.06.38,0l16.23,9.49c.12.07.19.19.19.32v3.98c0,.13-.07.26-.19.33-.06.03-.12.05-.19.05ZM10.06,82.58l15.48,9.05v-3.11l-15.48-9.05v3.11Z"/>
          </g>
          <g>
            <polygon class="cls-8" points="9.68 82.79 25.92 92.28 21.69 94.72 5.46 85.23 9.68 82.79"/>
            <path class="cls-5" d="M21.69,95.1c-.07,0-.13-.02-.19-.05l-16.23-9.49c-.12-.07-.19-.19-.19-.33s.07-.26.19-.32l4.22-2.44c.12-.07.26-.07.38,0l16.23,9.49c.12.07.19.19.19.33s-.07.26-.19.32l-4.22,2.44c-.06.03-.12.05-.19.05ZM6.21,85.23l15.49,9.05,3.48-2.01-15.49-9.05-3.48,2.01Z"/>
          </g>
          <g>
            <polygon class="cls-5" points="5.46 89.21 21.69 98.7 21.69 94.72 5.46 85.23 5.46 89.21"/>
            <path class="cls-5" d="M21.69,99.08c-.07,0-.13-.02-.19-.05l-16.23-9.49c-.12-.07-.19-.19-.19-.32v-3.98c0-.13.07-.26.19-.33.12-.07.26-.06.38,0l16.23,9.49c.12.07.19.19.19.32v3.98c0,.13-.07.26-.19.33-.06.03-.12.05-.19.05ZM5.84,89l15.48,9.05v-3.11l-15.48-9.05v3.11Z"/>
          </g>
          <g>
            <polygon class="cls-8" points="5.46 89.21 21.69 98.7 17.47 101.14 1.23 91.66 5.46 89.21"/>
            <path class="cls-5" d="M17.47,101.52c-.07,0-.13-.02-.19-.05L1.05,91.98c-.12-.07-.19-.19-.19-.33s.07-.26.19-.32l4.22-2.44c.12-.07.26-.07.38,0l16.23,9.49c.12.07.19.19.19.33s-.07.26-.19.32l-4.22,2.44c-.06.03-.12.05-.19.05ZM1.98,91.66l15.49,9.05,3.48-2.01-15.49-9.05-3.48,2.01Z"/>
          </g>
          <g>
            <polygon class="cls-5" points="1.23 95.64 17.46 105.12 17.46 101.14 1.23 91.66 1.23 95.64"/>
            <path class="cls-5" d="M17.46,105.5c-.07,0-.13-.02-.19-.05L1.05,95.96c-.12-.07-.19-.19-.19-.32v-3.98c0-.13.07-.26.19-.33s.26-.06.38,0l16.23,9.49c.12.07.19.19.19.32v3.98c0,.13-.07.26-.19.33-.06.03-.12.05-.19.05ZM1.61,95.42l15.48,9.05v-3.11l-15.48-9.05v3.11Z"/>
          </g>
        </g>
      </g>
      <g>
        <g>
          <path class="cls-5" d="M9.17,23.07l1.21,1.87s9.49-.5,12.98,5.68l3.03,1.8,2.52,1.5c10.51.34,16.06,9.55,16.06,9.55l2.3.37-1.91-5.49-28.58-17.01-7.61,1.71Z"/>
          <path class="cls-5" d="M47.27,44.23s-.04,0-.06,0l-2.3-.37c-.11-.02-.21-.08-.26-.18-.05-.09-5.58-9.05-15.75-9.37-.06,0-.12-.02-.18-.05l-5.55-3.3c-.06-.03-.1-.08-.13-.14-3.34-5.9-12.54-5.5-12.64-5.49-.14.02-.26-.06-.33-.17l-1.21-1.87c-.07-.1-.08-.23-.03-.34.05-.11.14-.2.26-.22l7.61-1.71c.09-.02.19,0,.27.04l28.58,17c.08.04.13.12.16.2l1.91,5.49c.04.12.02.26-.07.36-.07.09-.18.13-.29.13ZM45.2,43.14l1.51.24-1.66-4.77-28.34-16.86-6.94,1.56.8,1.24c1.5-.03,9.71.03,13.06,5.79l5.39,3.2c9.78.36,15.39,8.38,16.18,9.58Z"/>
        </g>
        <g>
          <path class="cls-11" d="M27.23,31.94c-5.34-10.37-18.07-8.87-18.07-8.87l27.01-15.05s11.28-.53,16.03,9.46l-24.97,14.46Z"/>
          <path class="cls-5" d="M27.23,32.32s-.07,0-.11-.01c-.1-.03-.18-.1-.23-.19-5.16-10.01-17.57-8.68-17.69-8.67-.18.02-.35-.09-.4-.26-.06-.17.02-.36.17-.44l27.01-15.05c.05-.03.11-.04.17-.05.12,0,11.59-.43,16.39,9.67.08.18.02.39-.15.49l-24.97,14.46c-.06.03-.12.05-.19.05ZM10.75,22.63c3.61,0,12.31.87,16.63,8.79l24.33-14.09c-4.44-8.88-14.38-8.92-15.44-8.93l-25.55,14.24h.02Z"/>
        </g>
        <g>
          <path class="cls-11" d="M47.27,43.86c-5.47-12.53-20.03-11.92-20.03-11.92l24.97-14.46s14.54-1.03,20.03,11.92l-24.97,14.46Z"/>
          <path class="cls-5" d="M47.27,44.23s-.08,0-.12-.02c-.1-.03-.18-.11-.23-.21-5.3-12.14-19.53-11.71-19.67-11.69-.17.01-.33-.11-.38-.27s.02-.34.17-.43l24.97-14.46s.1-.05.16-.05c.15,0,14.87-.9,20.41,12.15.07.17,0,.38-.16.47l-24.97,14.46c-.06.03-.12.05-.19.05ZM28.58,31.6c3.75.22,14.25,1.73,18.86,11.73l24.33-14.09c-5.21-11.74-18.28-11.45-19.45-11.39l-23.74,13.75Z"/>
        </g>
        <g>
          <path class="cls-11" d="M27.24,31.94c-.98-8.95-12.41-17.2-12.41-17.2L39.64.38s11.65,8.82,12.41,17.2l-24.8,14.36Z"/>
          <path class="cls-5" d="M27.24,32.31c-.06,0-.12-.01-.17-.04-.11-.06-.19-.17-.2-.29-.95-8.69-12.14-16.85-12.26-16.94-.1-.07-.16-.2-.16-.32,0-.13.08-.24.19-.31L39.45.05c.13-.08.29-.07.41.03.48.36,11.79,9.02,12.56,17.46.01.15-.06.29-.19.36l-24.8,14.36c-.06.03-.12.05-.19.05ZM15.51,14.78c2.14,1.63,10.8,8.69,12.03,16.55l24.11-13.96c-.87-7.46-10.54-15.36-12.04-16.54L15.51,14.78Z"/>
        </g>
      </g>
      <g>
        <path class="cls-7" d="M54.46,53.43c0-1.42-1.15-2.58-2.58-2.58-.11,0-.22.02-.33.03.1-.27.16-.56.16-.87,0-.35-.07-.67-.19-.97,1.39-.04,2.51-1.17,2.51-2.57s-1.15-2.58-2.58-2.58c-.13,0-.26.02-.39.04.09-.26.15-.54.15-.83,0-1.42-1.15-2.58-2.58-2.58-1.25,0-2.29.89-2.52,2.07-.68.01-1.31.22-1.84.56-.49-1.33-1.75-2.28-3.25-2.28-1.92,0-3.48,1.56-3.48,3.48,0,.8.28,1.53.74,2.12-1.83.1-3.29,1.6-3.29,3.46,0,.74.23,1.42.62,1.98-.96.37-1.64,1.3-1.64,2.39,0,1.17.79,2.15,1.87,2.46-.2.29-.31.64-.31,1.01,0,.99.81,1.8,1.8,1.8.03,0,.06,0,.09,0-.5.18-.86.65-.86,1.21,0,.26.08.49.21.7-.68.03-1.23.59-1.23,1.28s.58,1.29,1.29,1.29,1.29-.58,1.29-1.29c0-.26-.08-.49-.21-.7.68-.03,1.23-.59,1.23-1.28s-.57-1.28-1.28-1.29c.74-.22,1.28-.9,1.28-1.71,0-.66-.36-1.23-.89-1.54.54-.47.89-1.16.89-1.93,0-.33-.07-.65-.18-.94,1.17-.16,2.15-.89,2.65-1.92.62.94,1.69,1.57,2.9,1.57.09,0,.17-.02.26-.03-.17.41-.26.85-.26,1.32,0,.78.26,1.49.69,2.06-1.2.22-2.1,1.27-2.1,2.53,0,1.11.71,2.05,1.69,2.41-.33.33-.53.78-.53,1.28,0,.76.47,1.41,1.14,1.67-.31.24-.51.6-.51,1.02,0,.71.58,1.29,1.29,1.29s1.29-.58,1.29-1.29c0-.46-.24-.86-.61-1.09.59-.3.99-.9.99-1.6,0-.63-.33-1.19-.82-1.51.73-.46,1.21-1.26,1.21-2.18,0-.14-.02-.28-.04-.41.41.77,1.18,1.31,2.1,1.37-.14.21-.22.46-.22.73,0,.71.58,1.29,1.29,1.29s1.29-.58,1.29-1.29c0-.51-.3-.95-.73-1.16.68-.46,1.13-1.24,1.13-2.13,0-.53-.16-1.02-.43-1.43,1.06-.32,1.85-1.29,1.85-2.46Z"/>
        <path class="cls-5" d="M46.18,66.96c-.92,0-1.66-.75-1.66-1.66,0-.33.1-.65.28-.92-.57-.4-.92-1.05-.92-1.77,0-.41.11-.8.32-1.14-.9-.52-1.48-1.49-1.48-2.55,0-1.23.77-2.32,1.89-2.75-.31-.57-.48-1.2-.48-1.84,0-.31.04-.62.11-.92-1-.07-1.93-.52-2.6-1.27-.53.76-1.31,1.31-2.21,1.54.05.22.08.44.08.66,0,.69-.25,1.36-.7,1.89.44.41.7.97.7,1.59s-.28,1.22-.73,1.62c.44.3.73.81.73,1.38,0,.71-.45,1.32-1.08,1.55.04.14.06.28.06.42,0,.92-.75,1.66-1.66,1.66s-1.66-.75-1.66-1.66c0-.71.45-1.32,1.08-1.55-.04-.14-.06-.28-.06-.42,0-.36.12-.71.33-.99-.79-.33-1.35-1.1-1.35-2.01,0-.28.05-.56.16-.81-1.03-.48-1.71-1.52-1.71-2.66,0-1.07.57-2.03,1.48-2.55-.3-.56-.46-1.18-.46-1.82,0-1.83,1.28-3.37,3.02-3.75-.31-.57-.48-1.19-.48-1.83,0-2.12,1.73-3.85,3.85-3.85,1.45,0,2.78.84,3.43,2.12.43-.21.89-.35,1.37-.39.37-1.23,1.52-2.09,2.82-2.09,1.63,0,2.95,1.32,2.95,2.95,0,.14-.01.28-.03.42,1.58.05,2.85,1.35,2.85,2.95,0,1.44-1.02,2.63-2.39,2.89.05.21.07.43.07.65,0,.16-.01.31-.04.47,1.55.09,2.78,1.37,2.78,2.95,0,1.15-.66,2.17-1.68,2.65.18.39.27.8.27,1.23,0,.8-.32,1.56-.89,2.11.31.31.49.72.49,1.18,0,.92-.75,1.66-1.66,1.66s-1.66-.75-1.66-1.66c0-.15.02-.29.06-.43-.45-.11-.86-.33-1.21-.62-.13.61-.45,1.15-.92,1.57.38.4.59.93.59,1.49,0,.64-.28,1.24-.76,1.64.24.29.37.66.37,1.05,0,.92-.75,1.66-1.66,1.66ZM44.77,52.64c.12,0,.23.06.3.16.08.1.09.24.04.36-.16.38-.23.77-.23,1.17,0,.66.21,1.29.62,1.84.08.1.1.24.05.36-.05.12-.15.21-.28.23-1.04.2-1.8,1.1-1.8,2.16,0,.91.58,1.74,1.44,2.06.12.04.21.15.24.27.03.13-.01.26-.1.35-.27.27-.42.63-.42,1.01,0,.59.36,1.11.91,1.32.13.05.22.16.23.3.02.13-.04.27-.14.35-.23.18-.36.44-.36.72,0,.5.41.91.91.91s.91-.41.91-.91c0-.31-.16-.6-.43-.77-.11-.07-.18-.2-.18-.33,0-.14.08-.26.21-.32.49-.25.79-.73.79-1.27,0-.48-.24-.93-.65-1.19-.11-.07-.17-.19-.17-.32,0-.13.07-.25.18-.31.65-.41,1.04-1.1,1.04-1.86,0-.12-.02-.24-.04-.35-.03-.18.08-.36.25-.41.18-.06.37.02.45.18.36.68,1.03,1.12,1.79,1.17.13,0,.25.09.31.21.06.12.05.26-.03.38-.1.15-.16.33-.16.51,0,.5.41.91.91.91s.91-.41.91-.91c0-.35-.2-.66-.52-.82-.12-.06-.2-.18-.21-.31,0-.13.05-.26.16-.34.6-.41.96-1.09.96-1.82,0-.44-.13-.86-.37-1.22-.07-.1-.08-.22-.04-.33.04-.11.13-.2.25-.23.94-.28,1.58-1.12,1.58-2.1,0-1.21-.99-2.2-2.2-2.2-.07,0-.14.01-.21.02-.13.02-.29-.03-.38-.13-.08-.1-.14-.23-.1-.36.09-.26.14-.5.14-.74,0-.28-.06-.56-.17-.83-.05-.11-.04-.24.03-.35s.18-.17.3-.17c1.2-.03,2.14-.99,2.14-2.19s-.99-2.2-2.2-2.2c-.11,0-.22.02-.33.03-.13.02-.26-.03-.34-.13-.08-.1-.11-.24-.07-.36.09-.25.13-.48.13-.71,0-1.21-.99-2.2-2.2-2.2-1.05,0-1.95.75-2.16,1.77-.03.17-.18.3-.36.3-.59,0-1.15.18-1.64.5-.1.06-.21.08-.32.04-.11-.04-.2-.12-.23-.23-.45-1.22-1.62-2.03-2.9-2.03-1.71,0-3.1,1.39-3.1,3.1,0,.68.23,1.34.66,1.89.09.11.1.26.04.39-.06.13-.18.21-.32.22-1.64.09-2.93,1.45-2.93,3.08,0,.63.19,1.24.55,1.77.07.09.08.21.05.32-.03.11-.12.2-.22.24-.85.33-1.4,1.13-1.4,2.04,0,.97.66,1.83,1.59,2.1.12.03.21.12.25.23.04.11.03.24-.04.34-.16.24-.25.52-.25.8,0,.79.67,1.41,1.45,1.42.07,0,.14.02.2.05.05-.06.11-.1.18-.12.61-.18,1.01-.73,1.01-1.35,0-.5-.26-.96-.71-1.22-.1-.06-.17-.17-.18-.29-.01-.12.04-.24.13-.32.48-.42.76-1.02.76-1.65,0-.27-.05-.54-.16-.81-.04-.11-.03-.23.03-.33.06-.1.16-.17.27-.18,1.03-.14,1.91-.78,2.36-1.71.06-.12.18-.2.31-.21.13-.02.26.05.34.17.58.88,1.55,1.4,2.59,1.4.04,0,.07,0,.1-.01.04,0,.09-.01.13-.01,0,0,.02,0,.03,0ZM37.69,59.86s-.08.07-.14.09c-.37.13-.61.47-.61.86,0,.17.05.34.15.49.07.11.08.26.02.38s-.18.2-.32.2c-.49.02-.87.42-.87.91s.41.91.91.91.91-.41.91-.91c0-.17-.05-.34-.15-.49-.07-.11-.08-.26-.02-.38s.18-.2.32-.2c.49-.02.87-.42.87-.91s-.41-.91-.91-.91c-.06,0-.12-.01-.17-.04Z"/>
      </g>
      <g>
        <g>
          <path class="cls-7" d="M12.49,28.9c.15-.43.25-.89.25-1.37,0-.55-.11-1.07-.31-1.55,1.24-.21,2.18-1.28,2.18-2.57,0-1.44-1.17-2.61-2.61-2.61s-2.61,1.17-2.61,2.61c0,0,0,.02,0,.03-.27-.05-.55-.08-.83-.08-2.31,0-4.18,1.87-4.18,4.18,0,.64.15,1.23.41,1.77-1.33.45-2.29,1.69-2.29,3.16,0,1.72,1.29,3.11,2.95,3.31-.16.39-.25.81-.25,1.25,0,1.35.81,2.51,1.96,3.04-1.13.29-1.96,1.31-1.96,2.52,0,1.39,1.09,2.52,2.46,2.6-.06.17-.09.36-.09.55,0,1,.81,1.82,1.82,1.82s1.82-.81,1.82-1.82c0-.79-.51-1.45-1.21-1.7.28-.41.44-.91.44-1.45,0-.98-.54-1.82-1.33-2.27,1.59-.26,2.81-1.63,2.81-3.3,0-.76-.26-1.45-.69-2.02,1.59-.26,2.8-1.63,2.8-3.3,0-1.18-.61-2.21-1.53-2.81Z"/>
          <path class="cls-5" d="M9.38,47.93c-1.21,0-2.19-.98-2.19-2.19,0-.08,0-.16.01-.23-1.37-.28-2.38-1.49-2.38-2.92,0-1.08.59-2.06,1.5-2.58-.93-.7-1.5-1.8-1.5-2.98,0-.32.04-.64.13-.96-1.64-.4-2.84-1.88-2.84-3.6,0-1.46.86-2.77,2.17-3.37-.19-.51-.29-1.03-.29-1.56,0-2.67,2.36-4.82,5.04-4.53.21-1.47,1.45-2.58,2.96-2.58,1.65,0,2.99,1.34,2.99,2.99,0,1.31-.85,2.44-2.07,2.84.13.42.19.85.19,1.29,0,.4-.06.8-.18,1.22.92.7,1.47,1.79,1.47,2.96,0,1.64-1.05,3.05-2.58,3.54.3.55.46,1.15.46,1.78,0,1.56-.96,2.91-2.36,3.46.56.55.88,1.31.88,2.1,0,.45-.1.88-.29,1.28.65.39,1.06,1.1,1.06,1.87,0,1.21-.98,2.19-2.19,2.19ZM8.55,23.72c-2.1,0-3.81,1.71-3.81,3.81,0,.55.12,1.09.37,1.61.05.1.05.21,0,.31-.04.1-.12.17-.22.21-1.21.41-2.03,1.54-2.03,2.81,0,1.5,1.13,2.76,2.62,2.94.12.01.22.08.28.18.06.1.07.22.03.33-.15.36-.22.74-.22,1.11,0,1.16.68,2.22,1.74,2.7.14.07.23.22.22.37-.01.16-.13.29-.28.33-.99.26-1.68,1.14-1.68,2.16,0,1.18.93,2.15,2.11,2.22.12,0,.22.07.29.16s.08.22.05.33c-.05.16-.08.3-.08.44,0,.79.65,1.44,1.44,1.44s1.44-.65,1.44-1.44c0-.6-.39-1.15-.96-1.35-.11-.04-.19-.12-.23-.24-.04-.11-.02-.23.04-.33.25-.37.38-.8.38-1.24,0-.8-.44-1.54-1.14-1.94-.14-.08-.21-.24-.18-.39.03-.16.15-.28.31-.3,1.45-.24,2.5-1.47,2.5-2.93,0-.64-.21-1.26-.61-1.79-.08-.1-.1-.24-.05-.37.05-.12.16-.21.29-.23,1.44-.24,2.49-1.47,2.49-2.93,0-1.01-.51-1.94-1.36-2.5-.14-.09-.21-.27-.15-.44.15-.44.23-.85.23-1.25,0-.48-.09-.95-.28-1.41-.04-.11-.04-.22.02-.32.06-.1.15-.17.26-.19,1.08-.18,1.87-1.11,1.87-2.2,0-1.23-1-2.24-2.24-2.24s-2.24,1-2.24,2.24c0,.11-.05.23-.14.3-.09.07-.2.12-.31.09-.25-.05-.5-.08-.75-.08Z"/>
        </g>
        <g>
          <path class="cls-7" d="M8.85,47.56c-1,0-1.82.81-1.82,1.82s.81,1.82,1.82,1.82,1.82-.81,1.82-1.82-.81-1.82-1.82-1.82Z"/>
          <path class="cls-5" d="M8.85,51.56c-1.21,0-2.19-.98-2.19-2.19s.98-2.19,2.19-2.19,2.19.98,2.19,2.19-.98,2.19-2.19,2.19ZM8.85,47.93c-.79,0-1.44.65-1.44,1.44s.65,1.44,1.44,1.44,1.44-.65,1.44-1.44-.65-1.44-1.44-1.44Z"/>
        </g>
      </g>
      <g>
        <path class="cls-10" d="M61.16,71.4c.41-.29.74-.55,1-1.04.09-.18.18-.21.3-.21.11,0,.26-.05.38-.13.37-.26.75-.57,1.12-.8.16-.1.34-.09.5-.07.21.03.4.13.62.16.22.04.34.19.4.46.03.16-.01.31-.17.42-.33.24-.67.51-1,.71-.37.22-.74.38-1.11.56-.05.03-.1,0-.16,0,.04-.07.07-.17.12-.22.15-.15.31-.29.46-.43.14-.13.29-.27.43-.4,0-.04-.01-.07-.02-.11-.27.21-.55.42-.82.63-.06.05-.13.1-.19.16-.12.11-.32.24-.34.34-.07.31-.12.65.06.79.2.15.43.24.62.4.12.1.24.22.3.4.04.12,0,.37-.08.53-.05.11-.22.17-.34.25-.1.07-.2.12-.29.22-.16.18-.3.26-.42.17-.16-.11-.31-.23-.46-.35-.15-.12-.29-.11-.51.17-.45.6-.95,1.04-1.46,1.51-.51.47-1.02.9-1.55,1.25-.2.13-.37.44-.59.38-.11-.03-.16-.08-.06-.27.11-.2.23-.45.37-.56.58-.47,1.11-1.03,1.61-1.7.15-.2.33-.38.53-.62-.36-.1-.72.04-1.09.31-.09.06-.18.12-.26.21-.55.64-1.14.89-1.72,1.22-.09.05-.25.05-.26-.02-.03-.15-.02-.37.04-.55.03-.11.19-.22.3-.31.1-.08.21-.11.3-.2.33-.32.64-.68.97-.98.32-.29.57-.61.72-1.09.07-.21.18-.46.3-.63.59-.78.72-1.61.91-2.45.07-.3.12-.59.21-.89.11-.35.23-.42.39-.27.27.25.34.69.25,1.25-.07.43-.18.88-.26,1.31-.03.15-.05.29-.09.5ZM61.72,71.83c-.2.19-.39.37-.6.56.25.17.47-.05.6-.56Z"/>
        <path class="cls-10" d="M69.91,65.45c.25.05.33.38.43.69.06.2.04.39-.12.63-.06.09-.12.18-.15.28-.03.08-.03.18,0,.23.01.03.11.01.14-.03.36-.4.67-.26,1-.44.06-.03.12,0,.17.02.16.06.32.14.49.2.21.08.23.24.11.59-.25.68-.5,1.36-.75,2.04-.07.19-.17.39-.28.56-.24.37-.34.41-.54.25-.3-.25-.69.14-1.04.37-.2.13-.4.37-.6.57-.18.18-.34.32-.47.17-.24-.26-.49-.52-.73-.79-.05-.06-.09-.14-.12-.22-.19-.56-.08-.83.48-1.23.44-.32.87-.66,1.31-.99.14-.1.24-.23.23-.41-.01-.21-.16-.05-.26,0-.04.02-.08.06-.12.07-.08.02-.21.07-.22.02-.02-.1,0-.26.06-.39.1-.23.23-.44.35-.66.04-.07.06-.14.1-.23-.04,0-.07-.03-.09-.02-.43.26-.86.52-1.3.79-.1.06-.19.18-.28.21-.08.03-.15-.01-.22-.02.05-.13.08-.3.15-.38.12-.13.27-.2.4-.31.37-.31.68-.7.88-1.23.08-.21.07-.33-.06-.39-.23-.1-.22-.21-.01-.59.06-.1.09-.22.13-.34-.09.02-.18,0-.28.05-.16.08-.32.21-.48.31-.13.08-.25.15-.26-.06-.01-.19.1-.31.23-.41.36-.27.72-.54,1.07-.81.19-.14.27-.29.24-.59-.65.65-1.28,1.28-1.91,1.9-.56.56-1.12,1.13-1.69,1.68-.08.07-.25.07-.28,0-.06-.17-.16-.4.06-.66.27-.32.56-.57.85-.86.02.02.04.05.06.07-.11.19-.22.39-.32.56,1.07-1.08,2.16-2.18,3.29-3.32-.1.05-.17.07-.24.11-.33.17-.67.36-1,.52-.17.08-.21-.06-.2-.26,0-.19.07-.35.23-.45.14-.08.27-.17.41-.24.69-.36,1.03-.95,1.08-1.84,0-.18-.06-.39.19-.54.23-.13.29.05.31.27.02.14.02.29.02.44.32-.17.64-.59.9-.43.26.16.28.5.02,1.07.22-.1.38-.19.54-.25.34-.12.68-.24,1.01-.33.08-.02.18.02.22.09.05.08.08.23.05.35-.02.09-.18.24-.26.26-.22.06-.46.13-.64.07-.32-.1-.65.24-.98.41-.2.1-.4.25-.6.38-.24.15-.4.41-.51.73-.07.2-.03.27.12.17.1-.06.2-.18.29-.2.14-.03.3-.06.38.01.16.15.09.34-.16.52-.14.1-.27.22-.4.31-.17.12-.32.22-.36.51-.04.28-.03.48.18.52.08.02.16.21.13.31-.06.17-.21.33-.35.54ZM68.17,69.46c-.37.21-.43.35-.29.67.04.1.09.18.14.27.23.44.53.45,1.02.03.07-.06.14-.13.21-.19.4-.35.8-.67,1.2-.68.17,0,.32-.18.4-.43.12-.38.22-.75.35-1.13.11-.32.07-.47-.11-.52-.3-.1-.47-.05-.64.28-.34.7-.78,1.05-1.27,1.26-.35.15-.7.3-1.03.43ZM71.08,60.47c0-.2-.18-.22-.31-.02-.22.34-.41.7-.6,1.06-.03.05-.01.12-.02.18.05-.02.12-.03.15-.07.25-.34.49-.68.74-1.02.03-.04.04-.1.04-.13Z"/>
        <path class="cls-10" d="M78.58,60.33c.38.16.77,0,1.23-.45.31-.31.52-.29.65-.09.1.16.08.35-.11.6-.32.43-.62.91-1.04,1.08,0,.04,0,.09,0,.13.07-.02.15-.02.22-.06.26-.15.53-.32.79-.45.33-.16.73.18.71.6,0,.1-.05.24-.11.35-.08.14-.17.28-.27.41-.29.4-.29.4-.04.53.08.04.15.1.19.19.13.26.02.56-.28.7-.66.3-1.32.58-1.98.86-.09.04-.19.08-.3.14,0,.11,0,.19-.02.27-.03.13-.05.31-.11.37-.1.11-.27.22-.35.19-.14-.05-.25-.19-.36-.32-.17-.19-.35-.38-.49-.61-.09-.14-.15-.34-.17-.55-.02-.21.09-.43.28-.58.18-.15.29-.14.38.04.13.25.3.45.46.66.03.04.09.05.14.02.55-.39,1.12-.66,1.59-1.39.17-.27.31-.57.46-.86-.02-.03-.03-.05-.05-.08-.08.07-.17.12-.25.2-.31.31-.62.65-.93.93-.33.29-.66.42-.95.38-.06,0-.13-.07-.13-.15,0-.07.09-.2.15-.29.03-.05.08-.07.11-.11.42-.4.45-.48.36-.95-.06-.34-.12-.67-.19-1.08-.1.24-.2.44-.26.65-.21.77-.55,1.45-1.04,2.08-.28.35-.52.77-.79,1.15-.39.54-.78,1.09-1.19,1.59-.39.47-1.21.69-1.45.44-.03-.03-.05-.09-.05-.09.82-.95,1.66-1.83,2.42-2.83.52-.68.93-1.52,1.38-2.29.01-.02,0-.06.01-.14-.09.08-.17.14-.25.21-.45.43-.91.75-1.38.96-.33.15-.53.01-.72-.24.11-.1.2-.22.27-.24.75-.23,1.45-.94,2.15-1.54.83-.71,1.65-1.45,2.47-2.2.33-.3.65-.46.93-.43.15.02.24.19.35.31.02.03-.02.18-.06.25-.23.38-.64.63-.89.57-.06-.01-.13-.01-.2.02-.48.23-.92.62-1.33,1.14Z"/>
        <path class="cls-10" d="M77.75,58.05c.2-.05.42-.15.6-.14.12,0,.19.15.28.25.07.08.12.2.2.27.15.13.15.36,0,.64-.2.37-.54.64-.8.65-.19.01-.4.09-.58.07-.09,0-.14-.15-.19-.25-.03-.06-.03-.16-.05-.23-.13-.49.07-.95.54-1.25Z"/>
        <path class="cls-10" d="M68.97,70.22c-.18,0-.39,0-.58-.04-.07-.02-.07-.18-.11-.28.09-.08.17-.19.26-.25.36-.25.71-.48,1.07-.73.06-.04.11-.09.17-.13.19-.13.39-.22.42.04.03.25-.17.38-.33.53-.16.15-.32.31-.48.47-.12.12-.24.23-.42.4Z"/>
      </g>
      <g>
        <path class="cls-7" d="M81.99,32.96c.36-.44.59-1,.59-1.61,0-.68-.27-1.3-.71-1.76.32-.49.5-1.06.5-1.69,0-1.72-1.39-3.11-3.11-3.11-1.59,0-2.89,1.21-3.07,2.75-.41-.29-.92-.47-1.46-.47-1.4,0-2.54,1.14-2.54,2.54,0,.37.09.72.23,1.04-.44-.37-1-.6-1.63-.6-1.4,0-2.54,1.14-2.54,2.54,0,.45.13.87.34,1.24-.33-.32-.77-.51-1.26-.51-1,0-1.81.81-1.81,1.81s.81,1.81,1.81,1.81,1.81-.81,1.81-1.81c0-.29-.08-.57-.2-.81.46.5,1.12.81,1.85.81.54,0,1.04-.17,1.45-.46.04.22.09.42.17.62-.07,0-.15-.02-.23-.02-1,0-1.81.81-1.81,1.81s.81,1.81,1.81,1.81c.02,0,.03,0,.05,0-.66.27-1.13.92-1.13,1.68,0,1,.81,1.81,1.81,1.81s1.81-.81,1.81-1.81-.81-1.81-1.81-1.81c-.02,0-.03,0-.05,0,.66-.27,1.13-.92,1.13-1.68,0-.02,0-.04,0-.06.44.22.92.35,1.45.35,1.02,0,1.92-.48,2.52-1.22.29.51.81.86,1.43.91-.68.26-1.16.92-1.16,1.69,0,1,.81,1.81,1.81,1.81s1.81-.81,1.81-1.81-.74-1.72-1.67-1.8c.33-.13.61-.35.81-.63.26.14.55.23.86.23,1,0,1.81-.81,1.81-1.81s-.74-1.73-1.67-1.8Z"/>
        <path class="cls-5" d="M72.92,42.76c-1.21,0-2.19-.98-2.19-2.19,0-.57.22-1.09.58-1.49-.78-.34-1.31-1.11-1.31-1.99,0-.62.26-1.18.67-1.58-.41-.02-.8-.12-1.16-.29-.04,1.17-1.01,2.11-2.18,2.11s-2.19-.98-2.19-2.19.98-2.19,2.19-2.19c.2,0,.39.03.58.08-.02-.14-.03-.29-.03-.43,0-1.61,1.31-2.92,2.91-2.92.36,0,.71.07,1.03.19,0-.09-.01-.17-.01-.26,0-1.61,1.31-2.92,2.91-2.92.42,0,.82.09,1.2.26.41-1.48,1.76-2.54,3.34-2.54,1.92,0,3.48,1.56,3.48,3.48,0,.58-.14,1.14-.42,1.65.41.51.62,1.14.62,1.8,0,.48-.12.94-.35,1.36.84.31,1.43,1.12,1.43,2.04,0,1.21-.98,2.19-2.19,2.19-.26,0-.51-.05-.75-.14-.01.01-.03.03-.04.04.7.37,1.17,1.1,1.17,1.92,0,1.21-.98,2.19-2.19,2.19s-2.19-.98-2.19-2.19c0-.6.24-1.16.65-1.56-.21-.11-.41-.26-.58-.45-.95.91-2.34,1.25-3.62.81-.09.39-.27.73-.52,1.01.78.34,1.32,1.11,1.32,2,0,1.21-.98,2.19-2.19,2.19ZM72.59,38.97c-.02.12-.09.23-.21.27-.54.22-.9.74-.9,1.33,0,.79.64,1.44,1.44,1.44s1.44-.64,1.44-1.44-.64-1.44-1.44-1.44c-.13,0-.26-.06-.33-.17ZM77.96,35.8s.02,0,.03,0c.12.01.23.08.29.19.24.41.66.68,1.13.72.17.01.32.15.34.32.03.17-.07.34-.24.4-.56.22-.92.74-.92,1.33,0,.79.64,1.44,1.44,1.44s1.44-.64,1.44-1.44c0-.74-.58-1.36-1.33-1.42-.17-.01-.32-.15-.34-.32-.03-.17.07-.34.24-.4.26-.1.48-.27.64-.5.11-.15.32-.2.48-.11.98.54,2.11-.23,2.11-1.26,0-.74-.58-1.37-1.33-1.42-.14-.01-.26-.1-.32-.23s-.03-.28.06-.39c.33-.4.5-.87.5-1.37,0-.56-.21-1.09-.61-1.5-.12-.13-.14-.32-.04-.46.29-.45.44-.96.44-1.48,0-1.51-1.23-2.73-2.73-2.73-1.38,0-2.54,1.04-2.7,2.42-.01.13-.1.25-.22.3-.12.05-.26.04-.37-.04-.37-.26-.8-.4-1.25-.4-1.19,0-2.16.97-2.16,2.17,0,.3.07.6.2.89.07.16.02.35-.12.45-.14.11-.33.1-.47-.01-.4-.34-.88-.52-1.38-.52-1.19,0-2.16.97-2.16,2.17,0,.36.1.72.29,1.06.05.09.06.2.03.29.1,0,.19.04.26.12.72.78,1.95.91,2.82.3.1-.07.24-.09.36-.04.12.05.2.16.22.28.03.19.08.38.15.55.05.12.03.26-.05.37-.08.1-.21.16-.34.14-.1-.01-.14-.02-.18-.02-.79,0-1.44.64-1.44,1.44s.64,1.44,1.44,1.44c.13,0,.26.06.33.17.02-.12.09-.22.21-.27.54-.22.9-.74.9-1.33,0-.13.05-.28.17-.35.11-.07.25-.1.37-.04,1.25.62,2.67.26,3.5-.76.07-.09.18-.14.29-.14ZM67.33,33.71c-.79,0-1.44.64-1.44,1.44s.64,1.44,1.44,1.44,1.44-.64,1.44-1.44c0-.22-.05-.43-.16-.64-.05-.09-.05-.19-.03-.28-.09,0-.18-.04-.25-.11-.27-.26-.62-.41-1-.41Z"/>
      </g>
      <path class="cls-5" d="M62.61,28.44c-.13,0-.25-.06-.32-.18-1.9-3.11-5.54-5.19-10-5.71-.21-.02-.35-.21-.33-.42.02-.21.2-.36.42-.33,4.69.54,8.54,2.75,10.56,6.06.11.18.05.41-.12.52-.06.04-.13.05-.2.05Z"/>
      <path class="cls-5" d="M57.79,31.98c-.14,0-.28-.08-.34-.22-1.38-2.94-4.59-5.21-8.59-6.07-.2-.04-.33-.24-.29-.45.04-.2.24-.33.45-.29,4.23.91,7.63,3.33,9.11,6.48.09.19,0,.41-.18.5-.05.02-.11.04-.16.04Z"/>
      <path class="cls-5" d="M53.39,34.57c-.1,0-.2-.04-.27-.12-2.96-3.14-5.77-5.4-9.85-6.24-.2-.04-.33-.24-.29-.44.04-.2.23-.34.44-.29,4.28.88,7.19,3.22,10.25,6.46.14.15.14.39-.02.53-.07.07-.16.1-.26.1Z"/>
      <path class="cls-5" d="M42.36,16.21c-.18,0-.34-.13-.37-.32-.43-2.95-2.5-5.85-5.66-7.94-.17-.11-.22-.35-.11-.52.11-.17.35-.22.52-.11,3.34,2.21,5.52,5.29,5.98,8.45.03.21-.11.4-.32.43-.02,0-.04,0-.05,0Z"/>
      <path class="cls-5" d="M37.34,20.78c-.19,0-.36-.15-.37-.35-.17-2.21-1.4-4-2.4-5.12-1.23-1.37-2.73-2.46-4.6-3.67-.17-.11-.22-.34-.11-.52.11-.17.34-.22.52-.11,1.92,1.25,3.46,2.37,4.75,3.8,1.08,1.2,2.4,3.14,2.59,5.56.02.21-.14.39-.35.4,0,0-.02,0-.03,0Z"/>
      <path class="cls-5" d="M31.96,23.74c-.16,0-.31-.1-.36-.26-.59-1.88-1.36-3.43-2.33-4.71-1.02-1.35-3.05-2.86-4.72-3.51-.19-.08-.29-.29-.21-.49s.29-.29.49-.21c1.78.69,3.95,2.31,5.05,3.75,1.03,1.36,1.83,2.97,2.45,4.94.06.2-.05.41-.25.47-.04.01-.08.02-.11.02Z"/>
    </g>
  </g>
</svg>