<?xml version="1.0" encoding="UTF-8"?>
<svg id="_圖層_2" data-name="圖層 2" xmlns="http://www.w3.org/2000/svg" xmlns:xlink="http://www.w3.org/1999/xlink" viewBox="0 0 85.21 107.03">
  <defs>
    <style>
      .cls-1 {
        clip-path: url(#clippath);
      }

      .cls-2 {
        fill: none;
      }

      .cls-2, .cls-3, .cls-4, .cls-5, .cls-6, .cls-7, .cls-8, .cls-9, .cls-10 {
        stroke-width: 0px;
      }

      .cls-3 {
        fill: #373737;
      }

      .cls-4 {
        fill: #ffff86;
      }

      .cls-5 {
        fill: #000;
      }

      .cls-6 {
        fill: #ddd;
      }

      .cls-7 {
        fill: #fecfa9;
      }

      .cls-8 {
        fill: #929292;
      }

      .cls-9 {
        fill: #fff;
      }

      .cls-10 {
        fill: #00ff86;
      }
    </style>
    <clipPath id="clippath">
      <polygon class="cls-2" points="19.04 42.96 19.04 61.38 0 86.88 0 106.66 37.24 106.66 37.24 79.81 37.24 61.38 37.24 53.46 19.04 42.96"/>
    </clipPath>
  </defs>
  <g id="_圖層_5" data-name="圖層 5">
    <g>
      <g>
        <polygon class="cls-6" points="42.61 6.08 80.7 28.07 47.43 47.31 9.35 25.32 42.61 6.08"/>
        <path class="cls-5" d="M47.43,47.69c-.06,0-.13-.02-.19-.05L9.16,25.65c-.12-.07-.19-.19-.19-.33s.07-.26.19-.32L42.42,5.75c.12-.07.26-.07.38,0l38.09,21.99c.12.07.19.19.19.33s-.07.26-.19.32l-33.26,19.24c-.06.03-.12.05-.19.05ZM10.1,25.32l37.34,21.56,32.51-18.81L42.61,6.51,10.1,25.32Z"/>
      </g>
      <g>
        <polygon class="cls-8" points="80.7 87.43 47.4 106.66 47.4 47.29 80.7 28.07 80.7 87.43"/>
        <path class="cls-5" d="M47.4,107.03c-.06,0-.13-.02-.19-.05-.12-.07-.19-.19-.19-.33v-59.36c0-.13.07-.26.19-.33l33.3-19.22c.12-.07.26-.07.38,0,.12.07.19.19.19.33v59.36c0,.13-.07.26-.19.33l-33.3,19.22c-.06.03-.12.05-.19.05ZM47.77,47.51v58.5l32.55-18.79V28.72l-32.55,18.79ZM80.7,87.43h0,0Z"/>
      </g>
      <g>
        <polygon class="cls-6" points="9.35 84.69 47.4 106.66 47.4 47.29 9.35 25.32 9.35 84.69"/>
        <path class="cls-5" d="M47.4,107.03c-.06,0-.13-.02-.19-.05l-38.05-21.97c-.12-.07-.19-.19-.19-.33V25.32c0-.13.07-.26.19-.33.12-.07.26-.07.38,0l38.05,21.97c.12.07.19.19.19.33v59.36c0,.13-.07.26-.19.33-.06.03-.12.05-.19.05ZM9.72,84.47l37.3,21.54v-58.5L9.72,25.97v58.5Z"/>
      </g>
      <g>
        <polygon class="cls-5" points="20.1 69.3 38.3 79.81 38.3 53.46 20.1 42.96 20.1 69.3"/>
        <path class="cls-5" d="M38.3,80.19c-.06,0-.13-.02-.19-.05l-18.2-10.51c-.12-.07-.19-.19-.19-.33v-26.35c0-.13.07-.26.19-.33.12-.07.26-.07.38,0l18.2,10.51c.12.07.19.19.19.33v26.35c0,.13-.07.26-.19.33-.06.03-.12.05-.19.05ZM20.47,69.09l17.45,10.08v-25.48l-17.45-10.08v25.48Z"/>
      </g>
      <g>
        <polygon class="cls-5" points="82.22 69.07 55.48 86.88 53.43 85.69 53.43 61.72 82.22 45.1 84.27 46.29 82.22 69.07"/>
        <path class="cls-5" d="M55.48,87.25c-.06,0-.13-.02-.19-.05l-2.05-1.18c-.12-.07-.19-.19-.19-.33v-23.97c0-.13.07-.26.19-.33l28.79-16.62c.12-.07.26-.07.38,0l2.05,1.18c.13.07.2.21.19.36l-2.05,22.79c0,.11-.07.22-.17.28l-26.74,17.81c-.06.04-.14.06-.21.06ZM53.81,85.48l1.66.96,26.39-17.58,2.02-22.37-1.66-.96-28.41,16.4v23.54ZM82.22,69.07h0,0Z"/>
      </g>
      <g>
        <polygon class="cls-3" points="84.27 70.26 55.48 86.88 55.48 62.91 84.27 46.29 84.27 70.26"/>
        <path class="cls-5" d="M55.48,87.25c-.06,0-.13-.02-.19-.05-.12-.07-.19-.19-.19-.33v-23.97c0-.13.07-.26.19-.33l28.79-16.62c.12-.07.26-.07.38,0,.12.07.19.19.19.33v23.97c0,.13-.07.26-.19.33l-28.79,16.62c-.06.03-.12.05-.19.05ZM55.86,63.12v23.11l28.04-16.19v-23.11l-28.04,16.19ZM84.27,70.26h0,0Z"/>
      </g>
      <g>
        <polygon class="cls-5" points="18.26 105.12 20.69 103.19 38.3 77.99 37.72 71.83 16.03 100.95 18.26 105.12"/>
        <path class="cls-5" d="M18.26,105.5s-.05,0-.08,0c-.11-.02-.2-.09-.25-.19l-2.23-4.17c-.07-.13-.06-.28.03-.4l21.69-29.12c.09-.12.25-.18.4-.14.15.04.26.17.27.33l.58,6.16c0,.09-.01.18-.07.25l-17.61,25.2s-.05.06-.07.08l-2.43,1.94c-.07.05-.15.08-.23.08ZM16.47,100.98l1.9,3.56,2.04-1.62,17.5-25.04-.47-5.05-20.97,28.15Z"/>
      </g>
      <g class="cls-1">
        <g>
          <g>
            <polygon class="cls-7" points="31.62 50.67 47.85 60.16 43.63 62.61 27.39 53.12 31.62 50.67"/>
            <path class="cls-5" d="M43.63,62.98c-.07,0-.13-.02-.19-.05l-16.23-9.49c-.12-.07-.19-.19-.19-.33s.07-.26.19-.32l4.22-2.44c.12-.07.26-.07.38,0l16.23,9.49c.12.07.19.19.19.33s-.07.26-.19.32l-4.22,2.44c-.06.03-.12.05-.19.05ZM28.14,53.12l15.49,9.05,3.48-2.01-15.49-9.05-3.48,2.01Z"/>
          </g>
          <g>
            <polygon class="cls-5" points="27.39 57.1 43.62 66.59 43.62 62.6 27.39 53.12 27.39 57.1"/>
            <path class="cls-5" d="M43.62,66.96c-.07,0-.13-.02-.19-.05l-16.23-9.49c-.12-.07-.19-.19-.19-.32v-3.98c0-.13.07-.26.19-.33.12-.07.26-.06.38,0l16.23,9.49c.12.07.19.19.19.32v3.98c0,.13-.07.26-.19.33-.06.03-.12.05-.19.05ZM27.77,56.88l15.48,9.05v-3.11l-15.48-9.05v3.11Z"/>
          </g>
          <g>
            <polygon class="cls-7" points="27.39 57.1 43.62 66.59 39.4 69.03 23.17 59.54 27.39 57.1"/>
            <path class="cls-5" d="M39.4,69.41c-.07,0-.13-.02-.19-.05l-16.23-9.49c-.12-.07-.19-.19-.19-.33s.07-.26.19-.32l4.22-2.44c.12-.07.26-.07.38,0l16.23,9.49c.12.07.19.19.19.33s-.07.26-.19.32l-4.22,2.44c-.06.03-.12.05-.19.05ZM23.91,59.54l15.49,9.05,3.48-2.01-15.49-9.05-3.48,2.01Z"/>
          </g>
          <g>
            <polygon class="cls-5" points="23.17 63.52 39.39 73.01 39.39 69.03 23.17 59.54 23.17 63.52"/>
            <path class="cls-5" d="M39.39,73.39c-.07,0-.13-.02-.19-.05l-16.23-9.49c-.12-.07-.19-.19-.19-.32v-3.98c0-.13.07-.26.19-.33s.26-.06.38,0l16.23,9.49c.12.07.19.19.19.32v3.98c0,.13-.07.26-.19.33-.06.03-.12.05-.19.05ZM23.54,63.31l15.48,9.05v-3.11l-15.48-9.05v3.11Z"/>
          </g>
          <g>
            <polygon class="cls-7" points="23.16 63.52 39.39 73.01 35.17 75.45 18.94 65.96 23.16 63.52"/>
            <path class="cls-5" d="M35.17,75.83c-.07,0-.13-.02-.19-.05l-16.23-9.49c-.12-.07-.19-.19-.19-.33s.07-.26.19-.32l4.22-2.44c.12-.07.26-.07.38,0l16.23,9.49c.12.07.19.19.19.33s-.07.26-.19.32l-4.22,2.44c-.06.03-.12.05-.19.05ZM19.69,65.97l15.49,9.05,3.48-2.01-15.49-9.05-3.48,2.01Z"/>
          </g>
          <g>
            <polygon class="cls-5" points="18.94 69.95 35.17 79.43 35.17 75.45 18.94 65.96 18.94 69.95"/>
            <path class="cls-5" d="M35.17,79.81c-.07,0-.13-.02-.19-.05l-16.23-9.49c-.12-.07-.19-.19-.19-.32v-3.98c0-.13.07-.26.19-.33.12-.07.26-.06.38,0l16.23,9.49c.12.07.19.19.19.32v3.98c0,.13-.07.26-.19.33-.06.03-.12.05-.19.05ZM19.31,69.73l15.48,9.05v-3.11l-15.48-9.05v3.11Z"/>
          </g>
          <g>
            <polygon class="cls-7" points="18.94 69.94 35.17 79.43 30.94 81.88 14.71 72.39 18.94 69.94"/>
            <path class="cls-5" d="M30.94,82.25c-.07,0-.13-.02-.19-.05l-16.23-9.49c-.12-.07-.19-.19-.19-.33s.07-.26.19-.32l4.22-2.44c.12-.07.26-.07.38,0l16.23,9.49c.12.07.19.19.19.33s-.07.26-.19.32l-4.22,2.44c-.06.03-.12.05-.19.05ZM15.46,72.39l15.49,9.05,3.48-2.01-15.49-9.05-3.48,2.01Z"/>
          </g>
          <g>
            <polygon class="cls-5" points="14.71 76.37 30.94 85.86 30.94 81.87 14.71 72.39 14.71 76.37"/>
            <path class="cls-5" d="M30.94,86.23c-.07,0-.13-.02-.19-.05l-16.23-9.49c-.12-.07-.19-.19-.19-.32v-3.98c0-.13.07-.26.19-.33s.26-.06.38,0l16.23,9.49c.12.07.19.19.19.32v3.98c0,.13-.07.26-.19.33-.06.03-.12.05-.19.05ZM15.09,76.15l15.48,9.05v-3.11l-15.48-9.05v3.11Z"/>
          </g>
          <g>
            <polygon class="cls-7" points="14.71 76.37 30.94 85.86 26.72 88.3 10.48 78.81 14.71 76.37"/>
            <path class="cls-5" d="M26.72,88.67c-.07,0-.13-.02-.19-.05l-16.23-9.49c-.12-.07-.19-.19-.19-.33s.07-.26.19-.32l4.22-2.44c.12-.07.26-.07.38,0l16.23,9.49c.12.07.19.19.19.33s-.07.26-.19.32l-4.22,2.44c-.06.03-.12.05-.19.05ZM11.23,78.81l15.49,9.05,3.48-2.01-15.49-9.05-3.48,2.01Z"/>
          </g>
          <g>
            <polygon class="cls-5" points="10.48 82.79 26.71 92.28 26.71 88.3 10.48 78.81 10.48 82.79"/>
            <path class="cls-5" d="M26.71,92.65c-.07,0-.13-.02-.19-.05l-16.23-9.49c-.12-.07-.19-.19-.19-.32v-3.98c0-.13.07-.26.19-.33s.26-.06.38,0l16.23,9.49c.12.07.19.19.19.32v3.98c0,.13-.07.26-.19.33-.06.03-.12.05-.19.05ZM10.86,82.58l15.48,9.05v-3.11l-15.48-9.05v3.11Z"/>
          </g>
          <g>
            <polygon class="cls-7" points="10.48 82.79 26.71 92.28 22.49 94.72 6.26 85.23 10.48 82.79"/>
            <path class="cls-5" d="M22.49,95.1c-.07,0-.13-.02-.19-.05l-16.23-9.49c-.12-.07-.19-.19-.19-.33s.07-.26.19-.32l4.22-2.44c.12-.07.26-.07.38,0l16.23,9.49c.12.07.19.19.19.33s-.07.26-.19.32l-4.22,2.44c-.06.03-.12.05-.19.05ZM7,85.23l15.49,9.05,3.48-2.01-15.49-9.05-3.48,2.01Z"/>
          </g>
          <g>
            <polygon class="cls-5" points="6.26 89.21 22.48 98.7 22.48 94.72 6.26 85.23 6.26 89.21"/>
            <path class="cls-5" d="M22.48,99.08c-.07,0-.13-.02-.19-.05l-16.23-9.49c-.12-.07-.19-.19-.19-.32v-3.98c0-.13.07-.26.19-.33s.26-.06.38,0l16.23,9.49c.12.07.19.19.19.32v3.98c0,.13-.07.26-.19.33-.06.03-.12.05-.19.05ZM6.63,89l15.48,9.05v-3.11l-15.48-9.05v3.11Z"/>
          </g>
          <g>
            <polygon class="cls-7" points="6.25 89.21 22.48 98.7 18.26 101.14 2.03 91.65 6.25 89.21"/>
            <path class="cls-5" d="M18.26,101.52c-.07,0-.13-.02-.19-.05L1.84,91.98c-.12-.07-.19-.19-.19-.33s.07-.26.19-.32l4.22-2.44c.12-.07.26-.07.38,0l16.23,9.49c.12.07.19.19.19.33s-.07.26-.19.32l-4.22,2.44c-.06.03-.12.05-.19.05ZM2.78,91.66l15.49,9.05,3.48-2.01-15.49-9.05-3.48,2.01Z"/>
          </g>
          <g>
            <polygon class="cls-5" points="2.03 95.64 18.26 105.12 18.26 101.14 2.03 91.65 2.03 95.64"/>
            <path class="cls-5" d="M18.26,105.5c-.07,0-.13-.02-.19-.05L1.84,95.96c-.12-.07-.19-.19-.19-.32v-3.98c0-.13.07-.26.19-.33s.26-.06.38,0l16.23,9.49c.12.07.19.19.19.32v3.98c0,.13-.07.26-.19.33-.06.03-.12.05-.19.05ZM2.4,95.42l15.48,9.05v-3.11l-15.48-9.05v3.11Z"/>
          </g>
        </g>
      </g>
      <g>
        <g>
          <path class="cls-5" d="M9.96,23.07l1.21,1.87s9.49-.5,12.98,5.68l3.03,1.8,2.52,1.5c10.51.34,16.06,9.55,16.06,9.55l2.3.37-1.91-5.49-28.58-17.01-7.61,1.71Z"/>
          <path class="cls-5" d="M48.06,44.23s-.04,0-.06,0l-2.3-.37c-.11-.02-.21-.08-.26-.18-.05-.09-5.58-9.05-15.75-9.37-.06,0-.13-.02-.18-.05l-5.55-3.3c-.06-.03-.1-.08-.13-.14-3.34-5.9-12.54-5.49-12.64-5.49-.14.02-.26-.06-.33-.17l-1.21-1.88c-.07-.1-.08-.23-.03-.34.05-.11.14-.2.26-.22l7.61-1.71c.09-.02.19,0,.27.04l28.58,17c.08.04.13.12.16.2l1.91,5.49c.04.12.02.26-.07.36-.07.09-.18.13-.29.13ZM45.99,43.14l1.51.24-1.66-4.77-28.34-16.86-6.94,1.56.8,1.24c1.49-.03,9.71.03,13.06,5.79l5.39,3.2c9.78.36,15.39,8.38,16.18,9.58Z"/>
        </g>
        <g>
          <path class="cls-9" d="M28.03,31.94c-5.34-10.37-18.07-8.87-18.07-8.87l27.01-15.05s11.28-.53,16.03,9.46l-24.97,14.46Z"/>
          <path class="cls-5" d="M28.03,32.32s-.07,0-.11-.01c-.1-.03-.18-.1-.23-.19-5.17-10.02-17.57-8.68-17.69-8.67-.18.02-.35-.09-.4-.26-.06-.17.02-.36.17-.44l27.01-15.05c.05-.03.11-.04.17-.05.12,0,11.59-.43,16.39,9.67.08.18.02.39-.15.49l-24.97,14.46c-.06.03-.12.05-.19.05ZM11.55,22.63c3.61,0,12.31.87,16.63,8.79l24.33-14.09c-4.45-8.88-14.39-8.94-15.44-8.94l-25.55,14.24h.02Z"/>
        </g>
        <g>
          <path class="cls-9" d="M48.06,43.86c-5.47-12.53-20.03-11.92-20.03-11.92l24.97-14.46s14.54-1.03,20.03,11.92l-24.97,14.46Z"/>
          <path class="cls-5" d="M48.06,44.23s-.08,0-.12-.02c-.1-.03-.18-.11-.23-.21-5.3-12.15-19.53-11.7-19.67-11.69-.17-.01-.33-.1-.38-.27-.05-.17.02-.34.17-.43l24.97-14.46s.1-.05.16-.05c.15-.01,14.87-.9,20.4,12.15.07.17,0,.38-.16.47l-24.97,14.46c-.06.03-.12.05-.19.05ZM29.37,31.6c3.75.22,14.25,1.73,18.86,11.73l24.33-14.09c-5.2-11.73-18.28-11.45-19.45-11.39l-23.74,13.75Z"/>
        </g>
        <path class="cls-5" d="M50.07,41.16c-.13,0-.26-.07-.33-.19-.1-.18-.04-.41.14-.51l22.17-12.61c.18-.1.41-.04.51.14.1.18.04.41-.14.51l-22.17,12.61c-.06.03-.12.05-.19.05Z"/>
        <g>
          <path class="cls-9" d="M47.75,31.94c-9.45-7.14-19.72,0-19.72,0l24.97-14.46s9.23-5.42,17.94.44l-23.19,14.02Z"/>
          <path class="cls-5" d="M28.03,32.32c-.12,0-.25-.06-.32-.17-.11-.17-.06-.39.1-.51.02-.02.55-.38,1.47-.85l23.53-13.63c.09-.05,9.53-5.47,18.33.45.11.07.17.19.17.32s-.07.25-.18.31l-23.19,14.02c-.13.08-.3.07-.42-.02-7.08-5.35-14.73-2.42-17.84-.82l-1.46.84c-.06.03-.12.05-.19.05ZM38.47,28.41c2.93,0,6.16.77,9.3,3.08l22.46-13.58c-8.26-5.14-16.95-.16-17.04-.11l-19.41,11.24c1.41-.37,3-.63,4.69-.63Z"/>
        </g>
        <g>
          <path class="cls-9" d="M28.04,31.94c-.98-8.95-12.41-17.2-12.41-17.2L40.43.38s11.65,8.82,12.41,17.2l-24.8,14.36Z"/>
          <path class="cls-5" d="M28.04,32.31c-.06,0-.12-.01-.17-.04-.11-.06-.19-.17-.2-.29-.95-8.68-12.14-16.85-12.26-16.94-.1-.07-.16-.2-.15-.32,0-.13.08-.24.19-.31L40.24.05c.13-.08.29-.07.41.03.48.36,11.79,9.01,12.56,17.46.01.15-.06.29-.19.36l-24.8,14.36c-.06.03-.12.05-.19.05ZM16.31,14.78c2.14,1.63,10.8,8.69,12.03,16.55l24.11-13.96c-.87-7.46-10.54-15.36-12.04-16.54l-24.09,13.95Z"/>
        </g>
        <path class="cls-5" d="M48.44,17.16c-.17,0-.33-.12-.37-.29-1.29-5.76-8.58-11.58-8.66-11.64-.16-.13-.19-.36-.06-.53.13-.16.37-.19.53-.06.31.24,7.58,6.04,8.92,12.06.04.2-.08.4-.28.45-.03,0-.06,0-.08,0Z"/>
        <path class="cls-5" d="M45.92,18.71c-.17,0-.33-.12-.37-.29-1.29-5.76-8.58-11.58-8.66-11.64-.16-.13-.19-.36-.06-.53.13-.16.37-.19.53-.06.31.24,7.58,6.04,8.92,12.06.04.2-.08.4-.28.45-.03,0-.06,0-.08,0Z"/>
        <path class="cls-5" d="M43.41,20.26c-.17,0-.33-.12-.37-.29-1.29-5.76-8.58-11.58-8.66-11.64-.16-.13-.19-.36-.06-.53.13-.16.37-.19.53-.06.31.24,7.58,6.04,8.92,12.06.04.2-.08.4-.28.45-.03,0-.06,0-.08,0Z"/>
        <path class="cls-5" d="M40.89,21.8c-.17,0-.33-.12-.37-.29-1.29-5.76-8.58-11.58-8.66-11.64-.16-.13-.19-.36-.06-.53.13-.16.37-.19.53-.06.31.24,7.58,6.04,8.92,12.06.04.2-.08.4-.28.45-.03,0-.06,0-.08,0Z"/>
        <g>
          <path class="cls-4" d="M38.01,22.67c-1.3-5.82-8.59-11.58-8.59-11.58l-6.68,3.98s6.49,6.03,7.86,11.9l7.41-4.3Z"/>
          <path class="cls-5" d="M30.6,27.34c-.05,0-.1,0-.15-.03-.11-.05-.19-.14-.22-.26-1.33-5.69-7.69-11.65-7.75-11.71-.09-.08-.13-.2-.12-.31.01-.12.08-.22.18-.28l6.68-3.98c.13-.08.3-.07.42.03.3.24,7.41,5.91,8.72,11.79.04.16-.04.32-.18.41l-7.41,4.3c-.06.03-.12.05-.19.05ZM23.35,15.13c1.36,1.33,6.09,6.24,7.48,11.26l6.74-3.91c-1.28-5-7.05-9.99-8.19-10.94l-6.03,3.59Z"/>
        </g>
      </g>
      <g>
        <path class="cls-10" d="M46.97,66.96c-.92,0-1.66-.75-1.66-1.66,0-.33.1-.65.28-.92-.57-.4-.92-1.05-.92-1.77,0-.41.11-.8.32-1.14-.9-.52-1.48-1.49-1.48-2.55,0-1.24.77-2.32,1.89-2.75-.31-.57-.48-1.2-.48-1.84,0-.31.04-.62.11-.92-1-.07-1.93-.52-2.6-1.27-.53.76-1.31,1.31-2.21,1.54.05.22.08.44.08.66,0,.69-.25,1.36-.7,1.89.44.41.7.97.7,1.59s-.28,1.22-.73,1.62c.44.3.73.81.73,1.38,0,.71-.45,1.32-1.08,1.55.04.14.06.28.06.42,0,.92-.75,1.66-1.66,1.66s-1.66-.75-1.66-1.66c0-.71.45-1.32,1.08-1.55-.04-.14-.06-.28-.06-.42,0-.36.12-.71.33-.99-.79-.33-1.35-1.1-1.35-2.01,0-.28.05-.56.16-.81-1.03-.48-1.71-1.52-1.71-2.67,0-1.07.57-2.03,1.48-2.55-.3-.56-.46-1.18-.46-1.82,0-1.82,1.28-3.37,3.02-3.75-.31-.56-.48-1.19-.48-1.83,0-2.12,1.73-3.85,3.85-3.85,1.45,0,2.78.84,3.43,2.12.42-.21.89-.34,1.36-.39.37-1.23,1.52-2.09,2.82-2.09,1.63,0,2.95,1.32,2.95,2.95,0,.14-.01.28-.03.42,1.58.05,2.85,1.35,2.85,2.95,0,1.44-1.02,2.63-2.39,2.89.05.21.07.43.07.65,0,.16-.01.31-.04.47,1.55.09,2.78,1.37,2.78,2.95,0,1.15-.66,2.17-1.68,2.65.18.38.27.8.27,1.23,0,.8-.32,1.56-.89,2.11.31.31.49.73.49,1.18,0,.92-.75,1.66-1.66,1.66s-1.66-.75-1.66-1.66c0-.15.02-.29.06-.43-.45-.11-.86-.33-1.21-.62-.13.61-.45,1.15-.92,1.57.38.4.59.93.59,1.49,0,.64-.28,1.24-.76,1.64.24.29.37.66.37,1.05,0,.92-.75,1.66-1.66,1.66Z"/>
        <path class="cls-5" d="M49.44,40.54c1.42,0,2.58,1.15,2.58,2.58,0,.29-.06.57-.15.83.13-.02.26-.04.39-.04,1.42,0,2.58,1.15,2.58,2.58s-1.12,2.53-2.51,2.57c.12.3.19.63.19.97,0,.31-.06.6-.16.87.11-.01.22-.03.33-.03,1.42,0,2.58,1.15,2.58,2.58,0,1.17-.78,2.14-1.85,2.46.27.41.43.9.43,1.43,0,.88-.45,1.66-1.13,2.13.43.21.73.65.73,1.16,0,.71-.58,1.29-1.29,1.29s-1.29-.58-1.29-1.29c0-.27.08-.52.22-.73-.92-.06-1.69-.6-2.1-1.37.02.13.04.27.04.41,0,.92-.49,1.72-1.21,2.18.49.32.82.87.82,1.51,0,.7-.41,1.3-.99,1.6.36.23.61.63.61,1.09,0,.71-.58,1.29-1.29,1.29s-1.29-.58-1.29-1.29c0-.42.2-.78.51-1.02-.67-.26-1.14-.91-1.14-1.67,0-.5.2-.95.53-1.28-.98-.36-1.69-1.3-1.69-2.41,0-1.26.91-2.3,2.1-2.53-.43-.58-.69-1.29-.69-2.06,0-.47.1-.91.26-1.32-.09,0-.17.03-.26.03-1.22,0-2.28-.63-2.9-1.57-.5,1.02-1.48,1.76-2.65,1.92.12.29.18.61.18.94,0,.77-.35,1.46-.89,1.93.53.31.89.88.89,1.54,0,.81-.54,1.49-1.28,1.71.71,0,1.28.58,1.28,1.29s-.55,1.25-1.23,1.28c.13.2.21.44.21.7,0,.71-.58,1.29-1.29,1.29s-1.29-.58-1.29-1.29.55-1.25,1.23-1.28c-.13-.2-.21-.44-.21-.7,0-.56.36-1.03.86-1.21-.03,0-.06,0-.09,0-.99,0-1.8-.81-1.8-1.8,0-.38.12-.72.31-1.01-1.07-.31-1.87-1.29-1.87-2.46,0-1.09.68-2.02,1.64-2.39-.39-.56-.62-1.24-.62-1.98,0-1.85,1.46-3.36,3.29-3.46-.46-.59-.74-1.32-.74-2.12,0-1.92,1.56-3.48,3.48-3.48,1.5,0,2.76.95,3.25,2.28.53-.35,1.16-.55,1.84-.56.23-1.18,1.27-2.07,2.52-2.07M49.44,39.79c-1.39,0-2.61.86-3.1,2.12-.32.05-.63.13-.93.25-.76-1.23-2.12-2.01-3.59-2.01-2.33,0-4.23,1.9-4.23,4.23,0,.55.11,1.09.32,1.59-1.67.57-2.86,2.15-2.86,3.99,0,.58.12,1.16.35,1.69-.85.61-1.37,1.6-1.37,2.69,0,1.18.64,2.26,1.63,2.85-.05.2-.08.41-.08.63,0,.91.48,1.71,1.2,2.16-.12.26-.18.54-.18.84,0,.07,0,.14.01.21-.62.35-1.03,1.01-1.03,1.77,0,1.12.91,2.04,2.04,2.04s2.04-.91,2.04-2.04c0-.07,0-.14-.01-.21.62-.35,1.03-1.01,1.03-1.77,0-.54-.21-1.04-.56-1.4.36-.44.56-1,.56-1.6s-.21-1.16-.58-1.61c.38-.55.58-1.2.58-1.87,0-.13,0-.26-.02-.39.71-.24,1.33-.67,1.82-1.23.59.54,1.33.89,2.12,1.03-.03.2-.04.4-.04.6,0,.58.12,1.14.35,1.66-1.06.57-1.76,1.68-1.76,2.93,0,1.07.52,2.06,1.37,2.68-.14.31-.21.66-.21,1.01,0,.73.3,1.39.81,1.86-.11.26-.18.54-.18.82,0,1.12.91,2.04,2.04,2.04s2.04-.91,2.04-2.04c0-.36-.09-.7-.26-1,.41-.46.65-1.05.65-1.69,0-.53-.17-1.04-.46-1.46.26-.29.47-.62.62-.99.18.11.38.2.58.28,0,.06,0,.11,0,.17,0,1.12.91,2.04,2.04,2.04s2.04-.91,2.04-2.04c0-.43-.13-.83-.37-1.17.49-.59.76-1.33.76-2.12,0-.36-.06-.72-.17-1.06.97-.59,1.59-1.64,1.59-2.82,0-1.64-1.19-3-2.75-3.27,0-.05,0-.09,0-.14,0-.12,0-.25-.02-.37,1.36-.42,2.34-1.67,2.34-3.17,0-1.66-1.22-3.04-2.82-3.29,0-.03,0-.05,0-.08,0-1.83-1.49-3.33-3.33-3.33h0Z"/>
      </g>
      <g>
        <g>
          <path class="cls-10" d="M10.18,47.93c-1.21,0-2.19-.98-2.19-2.19,0-.08,0-.15.01-.23-1.36-.28-2.38-1.49-2.38-2.92,0-1.09.59-2.06,1.5-2.58-.93-.7-1.5-1.8-1.5-2.98,0-.32.04-.64.13-.96-1.65-.4-2.84-1.88-2.84-3.6,0-1.46.86-2.77,2.17-3.37-.19-.51-.29-1.03-.29-1.56,0-2.51,2.04-4.56,4.56-4.56.16,0,.32,0,.49.03.21-1.47,1.45-2.58,2.96-2.58,1.65,0,2.99,1.34,2.99,2.99,0,1.31-.85,2.44-2.07,2.84.13.42.19.85.19,1.29,0,.4-.06.8-.18,1.22.92.7,1.47,1.79,1.47,2.96,0,1.64-1.06,3.05-2.58,3.54.3.55.46,1.15.46,1.78,0,1.56-.96,2.91-2.36,3.46.56.55.88,1.31.88,2.1,0,.45-.1.88-.29,1.28.65.39,1.06,1.1,1.06,1.87,0,1.21-.98,2.19-2.19,2.19Z"/>
          <path class="cls-5" d="M12.79,20.79c1.44,0,2.61,1.17,2.61,2.61,0,1.3-.94,2.36-2.18,2.57.19.48.31,1,.31,1.55,0,.48-.1.94-.25,1.37.92.6,1.53,1.63,1.53,2.81,0,1.66-1.21,3.03-2.8,3.3.43.56.69,1.26.69,2.02,0,1.67-1.22,3.04-2.81,3.3.79.45,1.33,1.29,1.33,2.27,0,.54-.16,1.03-.44,1.45.7.25,1.21.92,1.21,1.7,0,1-.81,1.82-1.82,1.82s-1.82-.81-1.82-1.82c0-.19.04-.38.09-.55-1.37-.08-2.46-1.21-2.46-2.6,0-1.22.84-2.23,1.96-2.52-1.15-.53-1.96-1.69-1.96-3.04,0-.44.09-.86.25-1.25-1.66-.2-2.95-1.6-2.95-3.31,0-1.48.96-2.72,2.29-3.16-.25-.54-.41-1.14-.41-1.77,0-2.31,1.87-4.18,4.18-4.18.28,0,.56.03.83.08,0,0,0-.02,0-.03,0-1.44,1.17-2.61,2.61-2.61M12.79,20.04c-1.58,0-2.91,1.09-3.27,2.56-.06,0-.12,0-.18,0-2.72,0-4.93,2.21-4.93,4.93,0,.47.07.93.2,1.38-1.27.72-2.08,2.07-2.08,3.56,0,1.77,1.14,3.31,2.77,3.86-.04.23-.06.46-.06.7,0,1.13.47,2.19,1.26,2.95-.78.62-1.26,1.57-1.26,2.62,0,1.5.99,2.78,2.37,3.2.03,1.39,1.17,2.51,2.57,2.51s2.57-1.15,2.57-2.57c0-.79-.37-1.52-.97-2,.13-.37.2-.75.2-1.15,0-.72-.24-1.41-.65-1.97,1.29-.7,2.13-2.05,2.13-3.59,0-.54-.11-1.08-.32-1.57,1.46-.64,2.43-2.09,2.43-3.74,0-1.2-.52-2.32-1.42-3.1.09-.37.13-.73.13-1.08s-.04-.71-.12-1.06c1.19-.53,1.99-1.71,1.99-3.07,0-1.86-1.51-3.36-3.36-3.36h0Z"/>
        </g>
        <g>
          <path class="cls-10" d="M9.65,51.56c-1.21,0-2.19-.98-2.19-2.19s.98-2.19,2.19-2.19,2.19.98,2.19,2.19-.98,2.19-2.19,2.19Z"/>
          <path class="cls-5" d="M9.65,47.56c1,0,1.82.81,1.82,1.82s-.81,1.82-1.82,1.82-1.82-.81-1.82-1.82.81-1.82,1.82-1.82M9.65,46.81c-1.41,0-2.57,1.15-2.57,2.57s1.15,2.57,2.57,2.57,2.57-1.15,2.57-2.57-1.15-2.57-2.57-2.57h0Z"/>
        </g>
      </g>
      <g>
        <path class="cls-7" d="M61.96,71.4c.41-.29.74-.55,1-1.04.09-.18.18-.21.3-.21.11,0,.26-.05.38-.13.37-.26.75-.57,1.12-.8.16-.1.34-.09.5-.07.21.03.4.13.62.16.22.04.34.19.4.46.03.16-.01.31-.17.42-.33.24-.67.51-1,.71-.37.22-.74.38-1.11.56-.05.03-.1,0-.16,0,.04-.07.07-.17.12-.22.15-.15.31-.29.46-.43.14-.13.29-.27.43-.4,0-.04-.01-.07-.02-.11-.27.21-.55.42-.82.63-.06.05-.13.1-.19.16-.12.11-.32.24-.34.34-.07.31-.12.65.06.79.2.15.43.24.62.4.12.1.24.22.3.4.04.12,0,.37-.08.53-.05.11-.22.17-.34.25-.1.07-.2.12-.29.22-.16.18-.3.26-.42.17-.16-.11-.31-.23-.46-.35-.15-.12-.29-.11-.51.17-.45.6-.95,1.04-1.46,1.51-.51.47-1.02.9-1.55,1.25-.2.13-.37.44-.59.38-.11-.03-.16-.08-.06-.27.11-.2.23-.45.37-.56.58-.47,1.11-1.03,1.61-1.7.15-.2.33-.38.53-.62-.36-.1-.72.04-1.09.31-.09.06-.18.12-.26.21-.55.64-1.14.89-1.72,1.22-.09.05-.25.05-.26-.02-.03-.15-.02-.37.04-.55.03-.11.19-.22.3-.31.1-.08.21-.11.3-.2.33-.32.64-.68.97-.98.32-.29.57-.61.72-1.09.07-.21.18-.46.3-.63.59-.78.72-1.61.91-2.45.07-.3.12-.59.21-.89.11-.35.23-.42.39-.27.27.25.34.69.25,1.25-.07.43-.18.88-.26,1.31-.03.15-.05.29-.09.5ZM62.52,71.83c-.2.19-.39.37-.6.56.25.17.47-.05.6-.56Z"/>
        <path class="cls-7" d="M70.7,65.45c.25.05.33.38.43.69.06.2.04.39-.12.63-.06.09-.12.18-.15.28-.03.08-.03.18,0,.23.01.03.11.01.14-.03.36-.4.67-.26,1-.44.06-.03.12,0,.17.02.16.06.32.14.49.2.21.08.23.24.11.59-.25.68-.5,1.36-.75,2.04-.07.19-.17.39-.28.56-.24.37-.34.41-.54.25-.3-.25-.69.14-1.04.37-.2.13-.4.37-.6.57-.18.18-.34.32-.47.17-.24-.26-.49-.52-.73-.79-.05-.06-.09-.14-.12-.22-.19-.56-.08-.83.48-1.23.44-.32.87-.66,1.31-.99.14-.1.24-.23.23-.41-.01-.21-.16-.05-.26,0-.04.02-.08.06-.12.07-.08.02-.21.07-.22.02-.02-.1,0-.26.06-.39.1-.23.23-.44.35-.66.04-.07.06-.14.1-.23-.04,0-.07-.03-.09-.02-.43.26-.86.52-1.3.79-.1.06-.19.18-.28.21-.08.03-.15-.01-.22-.02.05-.13.08-.3.15-.38.12-.13.27-.2.4-.31.37-.31.68-.7.88-1.23.08-.21.07-.33-.06-.39-.23-.1-.22-.21-.01-.59.06-.1.09-.22.13-.34-.09.02-.18,0-.28.05-.16.08-.32.21-.48.31-.13.08-.25.15-.26-.06-.01-.19.1-.31.23-.41.36-.27.72-.54,1.07-.81.19-.14.27-.29.24-.59-.65.65-1.28,1.28-1.91,1.9-.56.56-1.12,1.13-1.69,1.68-.08.07-.25.07-.28,0-.06-.17-.16-.4.06-.66.27-.32.56-.57.85-.86.02.02.04.05.06.07-.11.19-.22.39-.32.56,1.07-1.08,2.16-2.18,3.29-3.32-.1.05-.17.07-.24.11-.33.17-.67.36-1,.52-.17.08-.21-.06-.2-.26,0-.19.07-.35.23-.45.14-.08.27-.17.41-.24.69-.36,1.03-.95,1.08-1.84,0-.18-.06-.39.19-.54.23-.13.29.05.31.27.02.14.02.29.02.44.32-.17.64-.59.9-.43.26.16.28.5.02,1.07.22-.1.38-.19.54-.25.34-.12.68-.24,1.01-.33.08-.02.18.02.22.09.05.08.08.23.05.35-.02.09-.18.24-.26.26-.22.06-.46.13-.64.07-.32-.1-.65.24-.98.41-.2.1-.4.25-.6.38-.24.15-.4.41-.51.73-.07.2-.03.27.12.17.1-.06.2-.18.29-.2.14-.03.3-.06.38.01.16.15.09.34-.16.52-.14.1-.27.22-.4.31-.17.12-.32.22-.36.51-.04.28-.03.48.18.52.08.02.16.21.13.31-.06.17-.21.33-.35.54ZM68.96,69.46c-.37.21-.43.35-.29.67.04.1.09.18.14.27.23.44.53.45,1.02.03.07-.06.14-.13.21-.19.4-.35.8-.67,1.2-.68.17,0,.32-.18.4-.43.12-.38.22-.75.35-1.13.11-.32.07-.47-.11-.52-.3-.1-.47-.05-.64.28-.34.7-.78,1.05-1.27,1.26-.35.15-.7.3-1.03.43ZM71.87,60.47c0-.2-.18-.22-.31-.02-.22.34-.41.7-.6,1.06-.03.05-.01.12-.02.18.05-.02.12-.03.15-.07.25-.34.49-.68.74-1.02.03-.04.04-.1.04-.13Z"/>
        <path class="cls-7" d="M79.37,60.33c.38.16.77,0,1.23-.45.31-.31.52-.29.65-.09.1.16.08.35-.11.6-.32.43-.62.91-1.04,1.08,0,.04,0,.09,0,.13.07-.02.15-.02.22-.06.26-.15.53-.32.79-.45.33-.16.73.18.71.6,0,.1-.05.24-.11.35-.08.14-.17.28-.27.41-.29.4-.29.4-.04.53.08.04.15.1.19.19.13.26.02.56-.28.7-.66.3-1.32.58-1.98.86-.09.04-.19.08-.3.14,0,.11,0,.19-.02.27-.03.13-.05.31-.11.37-.1.11-.27.22-.35.19-.14-.05-.25-.19-.36-.32-.17-.19-.35-.38-.49-.61-.09-.14-.15-.34-.17-.55-.02-.21.09-.43.28-.58.18-.15.29-.14.38.04.13.25.3.45.46.66.03.04.09.05.14.02.55-.39,1.12-.66,1.59-1.39.17-.27.31-.57.46-.86-.02-.03-.03-.05-.05-.08-.08.07-.17.12-.25.2-.31.31-.62.65-.93.93-.33.29-.66.42-.95.38-.06,0-.13-.07-.13-.15,0-.07.09-.2.15-.29.03-.05.08-.07.11-.11.42-.4.45-.48.36-.95-.06-.34-.12-.67-.19-1.08-.1.24-.2.44-.26.65-.21.77-.55,1.45-1.04,2.08-.28.35-.52.77-.79,1.15-.39.54-.78,1.09-1.19,1.59-.39.47-1.21.69-1.45.44-.03-.03-.05-.09-.05-.09.82-.95,1.66-1.83,2.42-2.83.52-.68.93-1.52,1.38-2.29.01-.02,0-.06.01-.14-.09.08-.17.14-.25.21-.45.43-.91.75-1.38.96-.33.15-.53.01-.72-.24.11-.1.2-.22.27-.24.75-.23,1.45-.94,2.15-1.54.83-.71,1.65-1.45,2.47-2.2.33-.3.65-.46.93-.43.15.02.24.19.35.31.02.03-.02.18-.06.25-.23.38-.64.63-.89.57-.06-.01-.13-.01-.2.02-.48.23-.92.62-1.33,1.14Z"/>
        <path class="cls-7" d="M78.54,58.05c.2-.05.42-.15.6-.14.12,0,.19.15.28.25.07.08.12.2.2.27.15.13.15.36,0,.64-.2.37-.54.64-.8.65-.19.01-.4.09-.58.07-.09,0-.14-.15-.19-.25-.03-.06-.03-.16-.05-.23-.13-.49.07-.95.54-1.25Z"/>
        <path class="cls-7" d="M69.77,70.22c-.18,0-.39,0-.58-.04-.07-.02-.07-.18-.11-.28.09-.08.17-.19.26-.25.36-.25.71-.48,1.07-.73.06-.04.11-.09.17-.13.19-.13.39-.22.42.04.03.25-.17.38-.33.53-.16.15-.32.31-.48.47-.12.12-.24.23-.42.4Z"/>
      </g>
      <g>
        <path class="cls-10" d="M73.72,42.76c-1.21,0-2.19-.98-2.19-2.19,0-.57.22-1.09.58-1.49-.78-.34-1.31-1.11-1.31-1.99,0-.62.26-1.18.67-1.58-.41-.02-.8-.12-1.16-.29-.04,1.17-1.01,2.11-2.18,2.11s-2.19-.98-2.19-2.19.98-2.19,2.19-2.19c.2,0,.39.03.58.08-.02-.14-.03-.29-.03-.43,0-1.61,1.31-2.91,2.91-2.91.36,0,.71.07,1.03.19,0-.09-.01-.17-.01-.26,0-1.61,1.31-2.91,2.91-2.91.42,0,.82.09,1.19.26.41-1.48,1.76-2.54,3.34-2.54,1.92,0,3.48,1.56,3.48,3.48,0,.58-.14,1.14-.42,1.65.4.51.62,1.14.62,1.8,0,.48-.12.94-.35,1.37.84.31,1.43,1.12,1.43,2.04,0,1.21-.98,2.19-2.19,2.19-.26,0-.51-.05-.75-.14-.01.01-.03.03-.04.04.7.37,1.17,1.1,1.17,1.92,0,1.21-.98,2.19-2.19,2.19s-2.19-.98-2.19-2.19c0-.6.24-1.16.65-1.56-.22-.11-.41-.26-.58-.45-.67.64-1.56,1-2.48,1-.38,0-.76-.06-1.13-.19-.09.39-.27.73-.53,1.01.79.34,1.32,1.1,1.32,1.99,0,1.21-.98,2.19-2.19,2.19Z"/>
        <path class="cls-5" d="M80.06,24.8c1.72,0,3.11,1.39,3.11,3.11,0,.62-.19,1.2-.5,1.69.44.46.71,1.07.71,1.76,0,.61-.23,1.17-.59,1.61.93.07,1.67.84,1.67,1.8,0,1-.81,1.81-1.81,1.81-.31,0-.6-.09-.86-.23-.2.28-.48.5-.81.63.93.07,1.67.84,1.67,1.8,0,1-.81,1.81-1.81,1.81s-1.81-.81-1.81-1.81c0-.77.48-1.42,1.16-1.69-.61-.05-1.14-.4-1.43-.91-.6.74-1.5,1.22-2.52,1.22-.52,0-1.01-.13-1.45-.35,0,.02,0,.04,0,.06,0,.76-.47,1.41-1.13,1.68.02,0,.03,0,.05,0,1,0,1.81.81,1.81,1.81s-.81,1.81-1.81,1.81-1.81-.81-1.81-1.81c0-.76.47-1.41,1.13-1.68-.02,0-.03,0-.05,0-1,0-1.81-.81-1.81-1.81s.81-1.81,1.81-1.81c.08,0,.15.01.23.02-.08-.2-.13-.41-.17-.62-.41.29-.91.46-1.45.46-.73,0-1.39-.32-1.85-.81.12.25.2.52.2.81,0,1-.81,1.81-1.81,1.81s-1.81-.81-1.81-1.81.81-1.81,1.81-1.81c.49,0,.93.2,1.26.51-.21-.37-.34-.79-.34-1.24,0-1.4,1.14-2.54,2.54-2.54.62,0,1.18.23,1.63.6-.14-.32-.23-.67-.23-1.04,0-1.4,1.14-2.54,2.54-2.54.55,0,1.05.18,1.46.47.18-1.55,1.48-2.75,3.07-2.75M80.06,24.05c-1.61,0-3,.99-3.57,2.43-.31-.1-.63-.15-.96-.15-1.73,0-3.16,1.35-3.28,3.05-.22-.05-.43-.07-.66-.07-1.81,0-3.28,1.47-3.29,3.27-.06,0-.12,0-.17,0-1.41,0-2.56,1.15-2.56,2.56s1.15,2.56,2.56,2.56c1.2,0,2.22-.84,2.49-1.96.05.02.11.03.16.05-.23.38-.36.83-.36,1.3,0,.88.44,1.66,1.12,2.12-.25.4-.39.87-.39,1.36,0,1.41,1.15,2.56,2.56,2.56s2.56-1.15,2.56-2.56c0-.88-.44-1.66-1.12-2.12.08-.13.16-.27.21-.42.29.07.58.1.87.1.91,0,1.78-.31,2.48-.87,0,0,.02.01.02.02-.3.42-.47.93-.47,1.48,0,1.41,1.15,2.56,2.56,2.56s2.56-1.15,2.56-2.56c0-.54-.17-1.05-.47-1.46,1.28-.14,2.28-1.23,2.28-2.55,0-.94-.53-1.78-1.31-2.22.15-.37.22-.77.22-1.18,0-.66-.2-1.29-.56-1.83.23-.5.36-1.05.36-1.61,0-2.13-1.73-3.86-3.86-3.86h0Z"/>
      </g>
    </g>
  </g>
</svg>