<?xml version="1.0" encoding="UTF-8"?>
<svg id="_圖層_2" data-name="圖層 2" xmlns="http://www.w3.org/2000/svg" viewBox="0 0 36.48 53.27">
  <defs>
    <style>
      .cls-1 {
        fill: #78c398;
      }

      .cls-1, .cls-2, .cls-3, .cls-4, .cls-5, .cls-6 {
        stroke-width: 0px;
      }

      .cls-2 {
        fill: #000;
      }

      .cls-3 {
        fill: #c61919;
      }

      .cls-4 {
        fill: #f1c9bb;
      }

      .cls-5 {
        fill: #fff;
      }

      .cls-6 {
        fill: #ed554a;
      }
    </style>
  </defs>
  <g id="_圖層_5" data-name="圖層 5">
    <g>
      <g>
        <polygon class="cls-5" points="6.77 25.9 6.77 27.92 15.08 27.69 15.08 24.41 6.77 25.9"/>
        <path class="cls-2" d="M6.77,28.29c-.1,0-.19-.04-.26-.11-.07-.07-.11-.17-.11-.27v-2.02c0-.18.13-.34.31-.37l8.31-1.49c.11-.02.22,0,.31.08.08.07.13.18.13.29v3.28c0,.2-.16.37-.36.38l-8.31.23h-.01ZM7.14,26.21v1.32l7.56-.21v-2.46l-7.56,1.35Z"/>
      </g>
      <g>
        <path class="cls-4" d="M5.56,14.78l-.84.52c-.67.41-1.17,1.06-1.4,1.81l-1.95,7.87c-.11.43-.04.88.18,1.26l.37.64c.51.89,1.68,1.13,2.5.51l3.99-2.98-2.83-9.63Z"/>
        <path class="cls-2" d="M3.38,28.11c-.14,0-.28-.01-.42-.04-.58-.12-1.09-.48-1.38-1l-.37-.64c-.27-.47-.35-1.01-.22-1.54l1.95-7.87c.26-.86.82-1.58,1.57-2.04l.84-.52c.1-.06.22-.07.33-.03.11.04.19.13.23.24l2.83,9.63c.04.15,0,.31-.14.41l-3.99,2.98c-.36.27-.8.41-1.25.41ZM5.34,15.36l-.43.26c-.59.37-1.03.93-1.24,1.6l-1.95,7.85c-.08.33-.03.68.14.98l.37.64c.19.33.51.56.88.64.37.08.76,0,1.06-.24l3.78-2.83-2.62-8.91Z"/>
      </g>
      <g>
        <polygon class="cls-4" points="14.65 13.51 21.67 15.71 28.64 11.98 30.02 14.19 22.29 19.1 11.37 17.76 14.65 13.51"/>
        <path class="cls-2" d="M22.29,19.48s-.03,0-.05,0l-10.91-1.34c-.13-.02-.25-.1-.3-.23-.05-.12-.03-.27.05-.37l3.28-4.25c.1-.12.26-.17.41-.13l6.87,2.15,6.83-3.65c.17-.09.39-.03.5.13l1.38,2.21c.11.17.06.4-.12.51l-7.74,4.91c-.06.04-.13.06-.2.06ZM12.07,17.47l10.13,1.24,7.31-4.64-1-1.6-6.66,3.56c-.09.05-.19.06-.29.03l-6.77-2.12-2.72,3.53Z"/>
      </g>
      <g>
        <path class="cls-6" d="M8.21,13.58l-2.66,1.2s.38,1.4-.52,4.8,0,5.84,0,5.84l1.73.96,8.31-.92s1.47-1.13,1.47-2.53c0-.2-2.03-5.91-2.03-5.91l.14-3.51-6.43.07Z"/>
        <path class="cls-2" d="M6.77,26.76c-.06,0-.13-.02-.18-.05l-1.73-.96c-.08-.04-.14-.11-.17-.2-.04-.1-.93-2.59-.01-6.06.85-3.23.52-4.6.52-4.61-.04-.18.04-.36.21-.44l2.66-1.2s.1-.03.15-.03l6.43-.07h0c.1,0,.2.04.27.11.07.07.11.17.11.28l-.13,3.44c2.03,5.71,2.03,5.89,2.03,5.97,0,1.58-1.55,2.78-1.62,2.83-.05.04-.12.07-.19.08l-8.31.92s-.03,0-.04,0ZM5.35,25.17l1.5.83,8.08-.89c.28-.24,1.25-1.14,1.25-2.17-.06-.25-1.27-3.69-2.01-5.79-.02-.04-.02-.09-.02-.14l.12-3.12-5.96.07-2.32,1.05c.07.6.11,2.08-.57,4.67-.74,2.81-.21,4.96-.05,5.49Z"/>
      </g>
      <g>
        <path class="cls-4" d="M8.66,12.28l-.45,1.31s.79,2.3,2.17,2.1,1.1-3.13,1.1-3.13l-2.82-.28Z"/>
        <path class="cls-2" d="M10.21,16.07c-1.52,0-2.31-2.27-2.35-2.37-.03-.08-.03-.17,0-.24l.45-1.31c.06-.17.22-.27.39-.25l2.82.28c.18.02.32.16.34.34.03.34.27,3.29-1.42,3.53-.08.01-.15.02-.23.02ZM8.61,13.58c.17.42.83,1.87,1.72,1.74.69-.1.83-1.51.8-2.41l-2.2-.22-.31.9Z"/>
      </g>
      <g>
        <path class="cls-4" d="M15.07,7.25c-.14,3.26-2.14,5.83-5.02,5.71-2.88-.12-5.54-2.89-5.4-6.15S7.23.99,10.11,1.11c2.88.12,5.1,2.87,4.96,6.13Z"/>
        <path class="cls-2" d="M10.24,13.33c-.07,0-.14,0-.21,0-1.5-.06-2.99-.8-4.1-2.02-1.15-1.27-1.74-2.87-1.67-4.52.15-3.46,2.77-6.17,5.86-6.05,3.08.13,5.47,3.06,5.32,6.53h0c-.07,1.7-.63,3.24-1.57,4.35-.95,1.11-2.23,1.72-3.63,1.72ZM9.91,1.49c-2.59,0-4.77,2.35-4.89,5.33-.06,1.45.46,2.87,1.47,3.99.97,1.07,2.27,1.72,3.57,1.78,1.25.06,2.38-.45,3.24-1.45.83-.98,1.33-2.37,1.4-3.9h0c.13-3.05-1.93-5.63-4.6-5.74-.06,0-.12,0-.18,0ZM15.07,7.25h0,0Z"/>
      </g>
      <g>
        <path class="cls-2" d="M6.09,2.98l2.93,1.97,5.05-1.47S13.89.03,9.31.4c-2.37.19-3.21,2.57-3.21,2.57Z"/>
        <path class="cls-2" d="M9.02,5.32c-.07,0-.15-.02-.21-.06l-2.93-1.97c-.14-.09-.2-.27-.14-.44.04-.11.96-2.62,3.54-2.82,1.69-.13,3.01.21,3.93,1.02,1.15,1.01,1.23,2.36,1.24,2.42,0,.17-.1.33-.27.38l-5.05,1.47s-.07.01-.1.01ZM6.56,2.84l2.53,1.7,4.56-1.33c-.08-.38-.32-1.07-.94-1.62-.77-.67-1.9-.94-3.37-.83-1.67.13-2.5,1.48-2.78,2.06Z"/>
      </g>
      <g>
        <path class="cls-2" d="M5.73,3.46l2.19,2.53-.45,1.05s-.8-1.43-1.86-.29c-.75.8.27,2.31,1.19,2.87l-1.33.42s-1.54-2.82.27-6.58Z"/>
        <path class="cls-2" d="M5.46,10.41c-.13,0-.26-.07-.33-.2-.07-.12-1.61-3.04.26-6.92.05-.11.16-.19.29-.21.13-.01.25.03.33.13l2.19,2.53c.09.11.12.26.06.39l-.45,1.05c-.06.13-.18.22-.32.23-.14,0-.28-.07-.35-.19-.08-.14-.35-.5-.66-.54-.19-.01-.39.08-.6.32-.13.14-.18.33-.15.57.09.65.73,1.4,1.26,1.72.13.08.2.22.18.37-.02.15-.12.27-.26.31l-1.33.42s-.08.02-.11.02ZM5.4,8.73c.09.37.19.65.27.85l.34-.11c-.22-.21-.43-.47-.61-.74ZM5.83,4.15c-.36.89-.53,1.71-.59,2.43.03-.03.05-.07.08-.1.39-.42.81-.6,1.24-.55.32.04.59.21.79.38l.12-.27-1.64-1.91Z"/>
      </g>
      <g>
        <path class="cls-2" d="M3.53,2.3c-.9.56-1.52,1.49-1.83,2.5.57.22,1.13.49,1.64.82.67-1.43,1.95-2.57,3.44-3.09.17-.06-.27-.5-.35-.55-.28-.14-.66-.19-.96-.2-.68-.03-1.37.16-1.94.51Z"/>
        <path class="cls-2" d="M3.34,6c-.07,0-.14-.02-.2-.06-.49-.32-1.02-.58-1.57-.79-.19-.07-.28-.27-.23-.46.35-1.17,1.06-2.13,1.99-2.71h0c.65-.4,1.42-.6,2.16-.57.48.02.85.1,1.12.24.09.05.62.48.59.86-.01.15-.15.33-.29.38-1.39.48-2.6,1.56-3.23,2.89-.05.1-.13.17-.24.2-.03,0-.07.01-.1.01ZM2.17,4.58c.35.15.69.32,1.02.51.68-1.23,1.77-2.21,3.07-2.76-.01-.01-.02-.02-.03-.03-.14-.07-.41-.12-.78-.14-.6-.04-1.21.13-1.73.46-.68.42-1.23,1.13-1.56,1.96Z"/>
      </g>
      <g>
        <ellipse class="cls-5" cx="12.4" cy="17.26" rx=".71" ry=".73"/>
        <ellipse class="cls-5" cx="11.73" cy="17.76" rx=".71" ry=".73"/>
        <ellipse class="cls-5" cx="11.99" cy="18.58" rx=".71" ry=".73"/>
        <ellipse class="cls-5" cx="12.82" cy="18.58" rx=".71" ry=".73"/>
        <ellipse class="cls-5" cx="13.07" cy="17.76" rx=".71" ry=".73"/>
        <ellipse class="cls-5" cx="12.4" cy="17.99" rx=".71" ry=".73"/>
      </g>
      <g>
        <polygon class="cls-4" points="5.8 36.63 4.9 49.48 7.23 49.48 9.23 37.09 5.8 36.63"/>
        <path class="cls-2" d="M7.23,49.85h-2.33c-.1,0-.2-.04-.27-.12s-.11-.18-.1-.28l.91-12.84c0-.1.06-.2.14-.26s.18-.09.29-.08l3.43.45c.1.01.19.07.25.15s.09.18.07.28l-2.01,12.39c-.03.18-.19.32-.37.32ZM5.3,49.1h1.61l1.89-11.69-2.65-.35-.85,12.04Z"/>
      </g>
      <g>
        <polygon class="cls-4" points="13.52 36.76 16.55 36.76 17.92 49.35 15.44 49.35 13.52 36.76"/>
        <path class="cls-2" d="M17.92,49.72h-2.48c-.19,0-.34-.14-.37-.32l-1.92-12.58c-.02-.11.02-.22.09-.3.07-.08.17-.13.28-.13h3.02c.19,0,.35.14.37.33l1.37,12.58c.01.11-.02.21-.09.29-.07.08-.17.12-.28.12ZM15.76,48.97h1.74l-1.29-11.83h-2.25l1.8,11.83Z"/>
      </g>
      <g>
        <polygon class="cls-6" points="6.77 27.92 5.71 29.53 4.85 33.41 4.02 39.84 10.59 40.25 11.4 35.07 12.37 40.08 17.92 39.8 16.55 29.19 15.08 27.69 6.77 27.92"/>
        <path class="cls-2" d="M10.59,40.63s-.02,0-.02,0l-6.57-.42c-.1,0-.2-.06-.27-.14-.07-.08-.1-.18-.08-.29l.83-6.43.86-3.91s.03-.09.05-.12l1.06-1.61c.07-.1.18-.17.3-.17l8.31-.23c.09,0,.21.04.28.11l1.47,1.51c.06.06.09.13.1.21l1.37,10.61c.01.1-.02.21-.08.29-.07.08-.16.13-.27.13l-5.55.28c-.18.01-.35-.12-.39-.3l-.56-2.9-.48,3.05c-.03.18-.19.32-.37.32ZM4.45,39.49l5.83.37.75-4.84c.03-.18.18-.31.36-.32.19-.04.34.12.38.3l.91,4.69,4.82-.24-1.3-10.08-1.27-1.3-7.95.22-.91,1.39-.84,3.81-.77,6Z"/>
      </g>
      <g>
        <path class="cls-2" d="M4.31,47.43l3.81.19-.22,2.15.3,1.93c0,.46-.36.83-.81.86l-5.99.34c-.59.03-1.07-.47-1.02-1.05h0c.1-1.15.94-2.1,2.07-2.34l1.62-.35.24-1.71Z"/>
        <path class="cls-2" d="M1.34,53.27c-.36,0-.71-.15-.96-.41-.27-.28-.41-.67-.37-1.05.12-1.32,1.07-2.39,2.36-2.67l1.36-.3.2-1.45c.03-.19.19-.32.39-.32l3.81.19c.1,0,.2.05.27.13s.1.18.09.28l-.22,2.1.3,1.88c0,.71-.51,1.25-1.16,1.29l-5.99.33s-.05,0-.08,0ZM4.63,47.83l-.19,1.37c-.02.16-.14.28-.29.31l-1.62.35c-.97.21-1.69,1.02-1.77,2.01-.02.17.04.34.16.46s.28.18.46.18l5.99-.33c.26-.01.46-.23.46-.48l-.3-1.87s0-.07,0-.1l.18-1.76-3.07-.15ZM4.07,49.15h0,0Z"/>
      </g>
      <g>
        <path class="cls-2" d="M18.46,47.44l-3.76.62.47,2.11-.08,1.95c.05.45.45.79.9.76l5.99-.35c.59-.03,1.01-.58.89-1.16h0c-.23-1.13-1.17-1.98-2.32-2.09l-1.65-.17-.43-1.67Z"/>
        <path class="cls-2" d="M15.93,53.26c-.62,0-1.15-.47-1.22-1.09l.08-1.96-.46-2.06c-.02-.1,0-.21.06-.29.06-.09.15-.14.25-.16l3.76-.62c.19-.03.38.09.42.28l.37,1.42,1.39.14c1.32.13,2.38,1.09,2.65,2.39.08.38-.01.78-.25,1.09-.24.31-.6.5-.99.52l-5.99.34s-.05,0-.07,0ZM15.15,48.37l.38,1.72s0,.06,0,.1l-.08,1.95c.03.2.25.37.51.37l5.99-.34c.17-.01.33-.09.44-.23s.15-.31.11-.48c-.2-.97-1-1.7-1.99-1.79l-1.65-.17c-.16-.02-.29-.13-.33-.28l-.35-1.34-3.03.5Z"/>
      </g>
      <g>
        <polyline class="cls-4" points="4.85 27.06 8.39 24.41 7.41 21.82 3.43 23.45"/>
        <path class="cls-2" d="M4.85,27.43c-.11,0-.23-.05-.3-.15-.12-.17-.09-.4.08-.53l3.31-2.48-.75-1.96-3.62,1.48c-.19.08-.41-.01-.49-.21-.08-.19.01-.41.21-.49l3.98-1.63c.09-.04.2-.04.29,0,.09.04.17.12.2.21l.98,2.59c.06.16,0,.33-.13.43l-3.54,2.65c-.07.05-.15.07-.22.07Z"/>
      </g>
      <g>
        <g>
          <path class="cls-3" d="M16.26,19.7c-.96-2.16-3.18-3.27-4.96-2.48-.22.1-.48.21-.76.34-.09-.4-.37-.95-1.16-.83-1.08.17-4.56,2.27-2.42,7.09,1.75,3.94,6.03,2,7.81,1.21s2.45-3.18,1.5-5.34Z"/>
          <path class="cls-2" d="M10.52,26.59c-1.82,0-3.13-.88-3.9-2.61-1.14-2.56-.7-4.33-.14-5.37.79-1.44,2.16-2.14,2.85-2.25.64-.1,1.16.16,1.43.69.13-.06.26-.11.37-.17.99-.44,2.1-.39,3.14.13,1.02.51,1.85,1.41,2.35,2.53,1.04,2.34.28,4.96-1.69,5.84-.96.43-2.51,1.12-4.08,1.2-.11,0-.22,0-.32,0ZM9.6,17.09c-.06,0-.11,0-.17.01-.44.07-1.62.63-2.3,1.87-.71,1.29-.65,2.87.16,4.7.68,1.54,1.82,2.25,3.5,2.16,1.43-.08,2.9-.73,3.78-1.12,1.63-.72,2.22-2.9,1.34-4.86h0c-.43-.96-1.14-1.73-2-2.16-.84-.42-1.71-.46-2.47-.12-.24.1-.48.21-.75.34l-.42.2-.11-.45c-.11-.46-.34-.56-.57-.56Z"/>
        </g>
        <g>
          <rect class="cls-3" x="3.4" y="22.6" width="6.15" height="2.14" rx=".75" ry=".75" transform="translate(25.48 8.16) rotate(66.09)"/>
          <path class="cls-2" d="M7.12,27.05c-.14,0-.27-.03-.4-.08-.28-.11-.5-.32-.62-.59l-1.89-4.25c-.25-.57,0-1.23.57-1.48l.59-.26c.27-.12.58-.13.86-.02.28.11.5.32.62.59l1.89,4.25c.12.27.13.58.02.86s-.32.5-.59.62l-.59.26c-.15.06-.3.1-.45.1ZM5.82,21.04c-.05,0-.1.01-.15.03l-.59.26c-.19.08-.27.3-.19.49l1.89,4.25c.04.09.11.16.21.2.09.04.19.03.29,0l.59-.26c.09-.04.16-.11.2-.21.04-.09.03-.19,0-.29l-1.89-4.25c-.04-.09-.11-.16-.21-.2-.04-.02-.09-.02-.13-.02Z"/>
        </g>
        <g>
          <path class="cls-1" d="M10.54,17.56s-1.15.56-2.2,1.38"/>
          <path class="cls-2" d="M8.35,19.31c-.11,0-.22-.05-.3-.14-.13-.16-.1-.4.06-.53,1.06-.83,2.21-1.39,2.26-1.42.19-.09.41-.01.5.17.09.19.01.41-.17.5-.01,0-1.13.56-2.13,1.33-.07.05-.15.08-.23.08Z"/>
        </g>
      </g>
      <g>
        <g>
          <path class="cls-3" d="M35.36,9.34c-1.23-2.01-3.58-2.82-5.25-1.8-.2.13-.45.27-.71.44-.15-.39-.49-.9-1.26-.67-1.05.31-4.22,2.85-1.47,7.35,2.25,3.67,6.24,1.19,7.9.17s2.01-3.48.78-5.49Z"/>
          <path class="cls-2" d="M29.9,16.97c-1.49,0-2.67-.71-3.54-2.12-1.46-2.39-1.27-4.21-.84-5.31.59-1.53,1.86-2.41,2.52-2.6.63-.18,1.17,0,1.51.5.13-.08.25-.16.37-.23.9-.55,2-.65,3.1-.27,1.07.37,2.02,1.15,2.66,2.2h0c.64,1.05.91,2.24.75,3.37-.16,1.15-.75,2.09-1.65,2.64-.9.55-2.34,1.44-3.89,1.73-.34.07-.68.1-.99.1ZM28.51,7.62c-.09,0-.17.02-.25.04-.42.12-1.53.84-2.03,2.15-.53,1.37-.27,2.93.78,4.64.88,1.44,2.11,1.99,3.75,1.68,1.41-.27,2.78-1.11,3.6-1.61.74-.45,1.2-1.2,1.34-2.13.14-.95-.09-1.97-.65-2.87h0c-.55-.9-1.35-1.57-2.26-1.88-.88-.3-1.76-.23-2.47.2-.2.12-.44.27-.7.44l-.39.25-.17-.44c-.15-.38-.35-.49-.55-.49Z"/>
        </g>
        <g>
          <rect class="cls-3" x="23.1" y="13.5" width="6.15" height="2.14" rx=".75" ry=".75" transform="translate(24.92 -15.37) rotate(58.52)"/>
          <path class="cls-2" d="M27.12,17.84c-.09,0-.18-.01-.26-.03-.29-.07-.54-.25-.69-.5l-2.43-3.97c-.32-.53-.16-1.22.37-1.54l.55-.33c.53-.32,1.22-.16,1.54.37l2.43,3.97c.16.26.2.56.13.85-.07.29-.25.54-.51.69l-.55.33c-.18.11-.38.17-.58.17ZM26.8,16.91c.05.08.13.14.23.17.1.02.2,0,.28-.04l.55-.33c.09-.05.15-.13.17-.23.02-.1,0-.2-.04-.28l-2.43-3.97c-.11-.17-.34-.23-.51-.12l-.55.33c-.17.11-.23.34-.12.51l2.43,3.97Z"/>
        </g>
        <g>
          <path class="cls-1" d="M29.41,7.98s-1.07.71-2,1.65"/>
          <path class="cls-2" d="M27.42,10c-.09,0-.19-.04-.26-.11-.15-.14-.15-.38,0-.53.94-.96,2.01-1.67,2.06-1.7.17-.11.4-.07.52.11.11.17.07.41-.11.52-.01,0-1.05.7-1.93,1.6-.07.07-.17.11-.27.11Z"/>
        </g>
      </g>
    </g>
  </g>
</svg>