<?xml version="1.0" encoding="UTF-8"?>
<svg id="_圖層_2" data-name="圖層 2" xmlns="http://www.w3.org/2000/svg" xmlns:xlink="http://www.w3.org/1999/xlink" viewBox="0 0 135.33 133.06">
  <defs>
    <style>
      .cls-1 {
        fill: #ffffc0;
      }

      .cls-1, .cls-2, .cls-3, .cls-4, .cls-5, .cls-6, .cls-7, .cls-8, .cls-9, .cls-10, .cls-11, .cls-12, .cls-13, .cls-14, .cls-15, .cls-16 {
        stroke-width: 0px;
      }

      .cls-2 {
        fill: #d2d2d2;
      }

      .cls-3 {
        fill: #5ce886;
      }

      .cls-17 {
        clip-path: url(#clippath);
      }

      .cls-4 {
        fill: none;
      }

      .cls-5 {
        fill: #da7e48;
      }

      .cls-6 {
        fill: #b8b8b8;
      }

      .cls-7 {
        fill: #0064d9;
      }

      .cls-8 {
        fill: #000;
      }

      .cls-9 {
        fill: #ffb15f;
      }

      .cls-10 {
        fill: #d9d9d9;
      }

      .cls-11 {
        fill: #6fa3c7;
      }

      .cls-12 {
        fill: #63a1e8;
      }

      .cls-13 {
        fill: #df534d;
      }

      .cls-14 {
        fill: #fff;
      }

      .cls-15 {
        fill: #bfbfbf;
      }

      .cls-16 {
        fill: #ffd06d;
      }
    </style>
    <clipPath id="clippath">
      <polygon class="cls-4" points="107.53 110.34 78.62 127.03 78.62 98.12 107.53 81.43 107.53 110.34"/>
    </clipPath>
  </defs>
  <g id="_圖層_5" data-name="圖層 5">
    <g>
      <g>
        <g>
          <g>
            <polygon class="cls-14" points="36.12 67.32 3.59 89.78 .38 87.93 .38 44.23 36.12 23.62 39.33 25.47 36.12 67.32"/>
            <path class="cls-8" d="M3.6,90.22l-3.6-2.08v-44.13l36.12-20.83,3.6,2.08-.02.24-3.22,42.03L3.6,90.22ZM.75,87.71l2.82,1.63,32.19-22.23,3.18-41.43-2.82-1.63L.75,44.44v43.27Z"/>
          </g>
          <g>
            <polygon class="cls-8" points="39.33 69.17 3.59 89.78 3.59 46.08 39.33 25.47 39.33 69.17"/>
            <path class="cls-8" d="M3.58,90.16c-.06,0-.13-.02-.19-.05-.12-.07-.19-.19-.19-.32v-43.7c0-.13.07-.26.19-.33l35.74-20.61c.12-.07.26-.07.38,0,.12.07.19.19.19.33v43.7c0,.13-.07.26-.19.33L3.77,90.11c-.06.03-.12.05-.19.05ZM3.96,46.3v42.83l34.99-20.18V26.12L3.96,46.3ZM39.33,69.17h0,0Z"/>
          </g>
        </g>
        <g>
          <g>
            <polygon class="cls-8" points="64.44 121.59 59.12 124.66 29.07 101.17 23.76 71.39 29.07 68.31 64.44 88.73 64.44 121.59"/>
            <path class="cls-8" d="M59.12,125.04c-.08,0-.16-.03-.23-.08l-30.05-23.49c-.07-.06-.12-.14-.14-.23l-5.32-29.78c-.03-.16.04-.31.18-.39l5.32-3.08c.12-.07.26-.07.38,0l35.37,20.42c.12.07.19.19.19.33v32.85c0,.13-.07.26-.19.32l-5.32,3.08c-.06.03-.12.05-.19.05ZM29.42,100.96l29.74,23.25,4.91-2.84v-32.42l-34.99-20.2-4.9,2.84,5.25,29.38ZM64.44,121.59h0,0Z"/>
          </g>
          <g>
            <polygon class="cls-14" points="59.12 124.66 23.76 104.24 23.76 71.39 59.12 91.81 59.12 124.66"/>
            <path class="cls-8" d="M59.12,125.04c-.06,0-.13-.02-.19-.05l-35.37-20.42c-.12-.07-.19-.19-.19-.33v-32.85c0-.13.07-.26.19-.33.12-.07.26-.07.38,0l35.37,20.42c.12.07.19.19.19.33v32.85c0,.13-.07.26-.19.33-.06.03-.12.05-.19.05ZM24.13,104.03l34.62,19.99v-31.99l-34.62-19.99v31.99Z"/>
          </g>
        </g>
        <g>
          <g>
            <polygon class="cls-8" points="102.27 97.73 97.41 100.5 37.64 60.42 32.78 3.15 37.64 .37 102.27 37.69 102.27 97.73"/>
            <path class="cls-8" d="M97.41,100.88c-.07,0-.15-.02-.21-.06l-59.78-40.09c-.09-.06-.16-.17-.17-.28L32.4,3.18c-.01-.15.06-.28.19-.36L37.45.05c.12-.06.26-.07.37,0l64.63,37.32c.12.07.19.19.19.33v60.04c0,.13-.07.26-.19.33l-4.86,2.77c-.06.03-.12.05-.19.05ZM37.99,60.2l59.43,39.86,4.47-2.55v-59.61L37.63.81l-4.46,2.54,4.82,56.85ZM102.27,97.73h0,0Z"/>
          </g>
          <g>
            <polygon class="cls-10" points="97.41 100.5 32.78 63.19 32.78 3.15 97.41 40.46 97.41 100.5"/>
            <path class="cls-8" d="M97.41,100.88c-.06,0-.13-.02-.19-.05L32.59,63.51c-.12-.07-.19-.19-.19-.33V3.15c0-.13.07-.26.19-.33.12-.07.26-.07.38,0l64.63,37.32c.12.07.19.19.19.33v60.04c0,.13-.07.26-.19.33-.06.03-.12.05-.19.05ZM33.15,62.97l63.88,36.88v-59.17L33.15,3.79v59.17Z"/>
          </g>
          <g>
            <g>
              <polygon class="cls-14" points="88.45 75.81 38.72 47.1 38.72 13.2 88.45 41.91 88.45 75.81"/>
              <path class="cls-8" d="M88.83,76.46l-50.49-29.15V12.55l50.49,29.15v34.77ZM39.09,46.88l48.99,28.28v-33.03L39.09,13.85v33.03Z"/>
            </g>
            <g>
              <polygon class="cls-12" points="88.45 92.15 38.72 63.44 38.72 50.63 88.45 79.34 88.45 92.15"/>
              <path class="cls-8" d="M88.83,92.8l-50.49-29.15v-13.67l50.49,29.15v13.67ZM39.09,63.22l48.99,28.28v-11.94l-48.99-28.28v11.94Z"/>
            </g>
            <g>
              <path class="cls-6" d="M46.38,23.83c0,1.15-.93,1.54-2.07.88s-2.07-2.13-2.07-3.27.93-1.54,2.07-.88,2.07,2.13,2.07,3.27Z"/>
              <path class="cls-6" d="M62.29,35.09l-11.57-6.68c-1.15-.66-2.07-2.13-2.07-3.27h0c0-1.15.93-1.54,2.07-.88l11.57,6.68c1.15.66,2.07,2.13,2.07,3.27h0c0,1.15-.93,1.54-2.07.88Z"/>
            </g>
            <path class="cls-8" d="M84.48,52.81c-.06,0-.13-.02-.19-.05l-41.24-23.81c-.18-.1-.24-.33-.14-.51.1-.18.34-.24.51-.14l41.24,23.81c.18.1.24.33.14.51-.07.12-.2.19-.33.19Z"/>
            <path class="cls-8" d="M84.48,56.66c-.06,0-.13-.02-.19-.05l-41.24-23.81c-.18-.1-.24-.33-.14-.51.1-.18.34-.24.51-.14l41.24,23.81c.18.1.24.33.14.51-.07.12-.2.19-.33.19Z"/>
            <path class="cls-8" d="M84.48,60.51c-.06,0-.13-.02-.19-.05l-41.24-23.81c-.18-.1-.24-.33-.14-.51.1-.18.34-.24.51-.14l41.24,23.81c.18.1.24.33.14.51-.07.12-.2.19-.33.19Z"/>
            <g>
              <path class="cls-7" d="M43.62,44.47l-.97-.56v-.6l1.04.6.14-1.06-1.02-.59v-.61l1.09.63.15-1.06.55.32-.14,1.07,1.08.62.15-1.06.55.32-.14,1.07,1,.58v.61l-1.08-.62-.13,1.07,1.04.6v.6l-1.11-.64-.16,1.21-.57-.33.17-1.21-1.08-.62-.16,1.21-.57-.33.16-1.21ZM45.33,44.85l.14-1.07-1.07-.62-.14,1.06,1.07.62Z"/>
              <path class="cls-7" d="M48.09,43.64l1.06.61.81,2.69c.1.35.19.72.29,1.09l.03.02c.1-.25.19-.52.29-.75l.79-1.77,1.06.61v4.75l-.87-.5v-1.98c0-.45.07-1.07.12-1.49l-.03-.02-.39.9-.73,1.57-.55-.32-.74-2.42-.38-1.34h-.03c.04.46.12,1.17.12,1.62v1.99l-.86-.49v-4.75Z"/>
              <path class="cls-7" d="M53.28,49.6c0-1.17.82-1.42,1.68-.93.99.57,1.5,1.6,1.5,2.59,0,.17-.02.34-.04.4l-2.22-1.28c.08.64.46,1.17,1,1.47.3.17.55.23.81.22l.32.76c-.35.04-.81-.07-1.26-.33-1-.58-1.79-1.73-1.79-2.91ZM55.65,50.6c0-.49-.22-.92-.68-1.19-.38-.22-.71-.14-.79.34l1.47.85Z"/>
              <path class="cls-7" d="M57.3,52.45v-1.59l-.51-.29v-.7l.55.27.11-.9.79.46v.96l.89.51v.75l-.89-.51v1.59c0,.41.17.7.49.89.12.07.26.11.35.13l.15.78c-.19-.05-.44-.12-.76-.3-.86-.49-1.18-1.22-1.18-2.03Z"/>
              <path class="cls-7" d="M59.52,53.2c0-1.2.83-1.42,1.73-.9.9.52,1.73,1.69,1.73,2.89s-.83,1.4-1.73.88c-.9-.52-1.73-1.69-1.73-2.88ZM62.01,54.64c0-.68-.28-1.28-.77-1.57-.49-.28-.77,0-.77.68s.28,1.27.77,1.55.77,0,.77-.67Z"/>
              <path class="cls-7" d="M63.54,55.52c0-1.2.83-1.42,1.73-.9.9.52,1.73,1.69,1.73,2.89s-.83,1.4-1.73.88c-.9-.52-1.73-1.69-1.73-2.88ZM66.04,56.97c0-.68-.28-1.28-.76-1.57-.49-.28-.77,0-.77.68s.28,1.27.77,1.55c.49.28.76,0,.76-.67Z"/>
            </g>
          </g>
        </g>
        <g>
          <g>
            <polygon class="cls-8" points="125.43 98.63 74.29 132.69 70.36 130.42 70.36 94.68 125.43 62.88 129.36 65.15 125.43 98.63"/>
            <path class="cls-8" d="M74.29,133.06c-.06,0-.13-.02-.19-.05l-3.93-2.27c-.12-.07-.19-.19-.19-.33v-35.74c0-.13.07-.26.19-.33l55.07-31.79c.12-.07.26-.07.38,0l3.93,2.27c.13.08.2.22.18.37l-3.93,33.48c-.01.11-.07.21-.16.27l-51.14,34.06c-.06.04-.14.06-.21.06ZM70.73,130.2l3.54,2.04,50.8-33.84,3.88-33.06-3.53-2.04-54.69,31.58v35.31ZM125.43,98.63h0,0Z"/>
          </g>
          <g>
            <polygon class="cls-14" points="129.36 100.89 74.29 132.69 74.29 96.94 129.36 65.15 129.36 100.89"/>
            <path class="cls-8" d="M74.29,133.06c-.06,0-.13-.02-.19-.05-.12-.07-.19-.19-.19-.33v-35.74c0-.13.07-.26.19-.33l55.07-31.79c.12-.07.26-.07.38,0,.12.07.19.19.19.33v35.74c0,.13-.07.26-.19.33l-55.07,31.79c-.06.03-.12.05-.19.05ZM74.66,97.16v34.88l54.32-31.36v-34.88l-54.32,31.36ZM129.36,100.89h0,0Z"/>
          </g>
        </g>
        <g>
          <g>
            <polygon class="cls-14" points="131 49.76 90.97 77.4 87.02 75.12 87.02 39.16 131 13.79 134.96 16.07 131 49.76"/>
            <path class="cls-8" d="M90.97,77.78c-.06,0-.13-.02-.19-.05l-3.95-2.28c-.12-.07-.19-.19-.19-.33v-35.96c0-.13.07-.26.19-.33l43.99-25.36c.12-.07.26-.07.38,0l3.95,2.28c.13.08.2.22.18.37l-3.95,33.68c-.01.11-.07.2-.16.26l-40.04,27.64c-.06.04-.14.07-.21.07ZM87.39,74.9l3.56,2.05,39.7-27.41,3.9-33.27-3.55-2.05-43.61,25.15v35.53ZM131,49.76h0,0Z"/>
          </g>
          <g>
            <polygon class="cls-8" points="134.96 52.04 90.97 77.4 90.97 41.44 134.96 16.07 134.96 52.04"/>
            <path class="cls-8" d="M90.97,77.78c-.06,0-.13-.02-.19-.05-.12-.07-.19-.19-.19-.33v-35.96c0-.13.07-.26.19-.33l43.99-25.36c.12-.07.26-.07.38,0,.12.07.19.19.19.33v35.96c0,.13-.07.26-.19.33l-43.99,25.36c-.06.03-.12.05-.19.05ZM91.34,41.66v35.1l43.24-24.93V16.72l-43.24,24.93ZM134.96,52.04h0,0Z"/>
          </g>
        </g>
      </g>
      <g>
        <g>
          <polygon class="cls-5" points="130.23 44.86 96.46 64.35 96.46 42.87 130.23 23.38 130.23 44.86"/>
          <path class="cls-8" d="M96.09,65v-22.34l34.52-19.93v22.34l-34.52,19.93ZM96.84,43.09v20.61l33.02-19.06v-20.61l-33.02,19.06Z"/>
        </g>
        <path class="cls-8" d="M117.88,41.21c0,2.66-1.95,5.94-4.35,7.33s-4.35.35-4.35-2.31,1.95-5.94,4.35-7.33,4.35-.35,4.35,2.31Z"/>
        <path class="cls-13" d="M123.24,52.94c0,1.02-.74,2.27-1.66,2.8s-1.66.13-1.66-.88.74-2.27,1.66-2.8,1.66-.13,1.66.88Z"/>
        <polygon class="cls-14" points="116.47 42.24 111.96 41.96 111.96 47.73 116.47 42.24"/>
        <path class="cls-13" d="M117.45,57.18l-19.34,11.17c-.58.33-1.05.14-1.05-.44v-.11c0-.58.47-1.32,1.05-1.65l19.34-11.17c.58-.33,1.05-.14,1.05.44v.11c0,.58-.47,1.32-1.05,1.65Z"/>
      </g>
      <g>
        <g>
          <g>
            <polygon class="cls-2" points="125.92 99.72 109.7 109.08 109.7 80.18 125.92 70.81 125.92 99.72"/>
            <path class="cls-8" d="M109.32,109.73v-29.77l16.98-9.8v29.77l-16.98,9.8ZM110.07,80.39v28.04l15.48-8.94v-28.04l-15.48,8.94Z"/>
          </g>
          <path class="cls-8" d="M112.99,81.84c0,.47-.38,1.08-.86,1.35s-.86.11-.86-.36.38-1.08.86-1.35.86-.11.86.36Z"/>
          <path class="cls-8" d="M120.72,78.24l-6.2,3.58c-.47.27-.86.11-.86-.36h0c0-.47.38-1.08.86-1.35l6.2-3.58c.47-.27.86-.11.86.36h0c0,.47-.38,1.08-.86,1.35Z"/>
          <path class="cls-8" d="M112.99,91.33c0,.47-.38,1.08-.86,1.35s-.86.11-.86-.36.38-1.08.86-1.35.86-.11.86.36Z"/>
          <path class="cls-8" d="M120.72,87.73l-6.2,3.58c-.47.27-.86.11-.86-.36h0c0-.47.38-1.08.86-1.35l6.2-3.58c.47-.27.86-.11.86.36h0c0,.47-.38,1.08-.86,1.35Z"/>
          <polygon class="cls-14" points="124.5 81.81 111.27 89.45 111.27 85.11 124.5 77.47 124.5 81.81"/>
          <polygon class="cls-14" points="124.5 97.01 111.27 104.65 111.27 94.63 124.5 86.99 124.5 97.01"/>
        </g>
        <g>
          <g class="cls-17">
            <polygon class="cls-1" points="107.53 110.34 78.62 127.03 78.62 98.12 107.53 81.43 107.53 110.34"/>
            <path class="cls-11" d="M87.62,107.69c.94-.9,1.86-1.89,2.64-2.97.67-.93,1.29-2.05,1.21-2.87-.11-1.18-1.49-1.03-2.3-1.51-.7-.42-.99-1.41-.75-2.6.17-.86.59-1.79.86-2.68.39-1.3.39-2.61-.37-3.03-.37-.2-.88-.17-1.38-.1-3.09.42-6.63,2.17-9.9,4.89-1,.83-1.99,1.77-2.8,2.88-1.11,1.52-1.78,3.25-2.11,4.82s-.33,3.01-.32,4.42c.03,2.59.18,4.65,2.48,4.78s5.21-.75,8.01-2.42c1.61-.96,3.21-2.18,4.72-3.61Z"/>
            <path class="cls-16" d="M88.64,100.47c2.21-3.17,5.5-5.41,8.23-5.99,1.08-.23,2.11-.22,2.87.22s1.2,1.35,1.07,2.57c-.09.8-.41,1.69-.82,2.56-1.38,2.93-3.91,5.8-6.44,7.04-1.15.56-2.25.78-3.25.78-.94,0-1.81-.2-2.37-.82-.98-1.1-.76-4.25.72-6.38Z"/>
            <path class="cls-9" d="M86.49,113.75c.61-1.91,1.36-3.87,2.53-5.74s2.83-3.63,4.49-4.38c.3-.13.6-.24.84-.21.47.06.64.58.63,1.16-.03,1.45-.97,3.22-1.67,4.88-1.23,2.88-1.98,5.97-4.1,8.51-.77.92-1.72,1.72-2.58,1.97-2.8.81-.8-4.11-.13-6.19Z"/>
            <path class="cls-7" d="M85.55,114.96c1.59-.42,3.03-.33,4.63-.77,1.85-.51,3.88-1.73,5.7-3.44,1.69-1.59,3.3-3.65,5.09-4.55,1.73-.87,3.22-.33,3.69,1.06s.02,3.51-.98,5.5-2.48,3.87-4.07,5.48c-2.72,2.74-5.74,4.73-8.7,6.43-3.01,1.73-6.04,3.23-8.9,3.96-3.61.93-8.98,1.08-7.96-4.1.51-2.57,2.38-3.98,4.35-5.51,2.35-1.82,4.83-3.46,7.15-4.07Z"/>
            <path class="cls-9" d="M96.61,97.15c.4.88,1.39,1.08,2.08,1.63.62.5,1,1.3,1.1,2.29.07.7.02,1.55.48,1.87.57.39,1.67-.23,2.56-.99.88-.76,1.73-1.74,2.24-2.8.65-1.34.68-2.61.54-3.68-.19-1.57-.67-2.93-1.15-4.28-.64-1.82-2.25-3.26-4.88-1.63-2.3,1.42-3.65,6.14-2.99,7.6Z"/>
          </g>
          <path class="cls-8" d="M78.24,127.68v-29.77l29.66-17.12v29.77l-29.66,17.12ZM78.99,98.34v28.04l28.16-16.26v-28.04l-28.16,16.26Z"/>
        </g>
        <g>
          <path class="cls-14" d="M81.73,122.75l-.69.4v-.37l.74-.42.1-.76-.72.42v-.37l.77-.44.1-.77.39-.23-.1.76.76-.44.1-.76.39-.23-.1.76.71-.41v.37l-.76.44-.1.76.73-.42v.37l-.78.45-.11.87-.4.23.12-.87-.76.44-.11.87-.4.23.11-.87ZM82.94,121.68l.1-.76-.75.44-.1.76.76-.44Z"/>
          <path class="cls-14" d="M84.89,118.84l.75-.43.57,1.03c.07.14.14.3.2.45h.02c.07-.24.13-.47.2-.69l.56-1.68.75-.43v2.91l-.61.35v-1.22c0-.28.05-.71.08-1h-.02s-.27.85-.27.85l-.52,1.52-.39.22-.52-.92-.27-.53h-.02c.03.27.09.64.09.92v1.22l-.6.35v-2.91Z"/>
          <path class="cls-14" d="M88.55,118.53c0-.72.58-1.49,1.19-1.85.7-.4,1.06-.17,1.06.44,0,.11-.01.22-.03.28l-1.57.91c.05.33.33.36.7.14.21-.12.39-.28.57-.48l.23.22c-.25.29-.57.58-.89.76-.71.41-1.26.3-1.26-.42ZM90.23,117.34c0-.3-.15-.4-.48-.21-.27.15-.5.46-.55.81l1.04-.6Z"/>
          <path class="cls-14" d="M91.39,117.22v-.98l-.36.21v-.43l.39-.25.08-.63.56-.32v.59l.63-.36v.46l-.63.36v.98c0,.25.12.3.35.17.08-.05.18-.13.25-.19l.11.36c-.14.12-.31.26-.54.39-.6.35-.84.15-.84-.34Z"/>
          <path class="cls-14" d="M92.96,115.99c0-.74.59-1.5,1.22-1.87.64-.37,1.22-.28,1.22.46s-.59,1.49-1.22,1.86c-.64.37-1.22.28-1.22-.45ZM94.72,114.97c0-.42-.2-.58-.54-.38-.34.2-.54.58-.54,1s.2.57.54.37c.35-.2.54-.58.54-.99Z"/>
          <path class="cls-14" d="M95.8,114.35c0-.74.59-1.5,1.22-1.87.64-.37,1.22-.28,1.22.46s-.59,1.49-1.22,1.86c-.64.37-1.22.28-1.22-.45ZM97.57,113.33c0-.42-.2-.58-.54-.38s-.54.58-.54,1,.2.57.54.37c.35-.2.54-.58.54-.99Z"/>
        </g>
      </g>
      <g>
        <g>
          <path class="cls-3" d="M54,116.79c-.29,0-.59-.09-.9-.27l-16.72-9.65c-.91-.52-1.62-1.66-1.62-2.58v-7.71c0-.72.44-1.2,1.09-1.2.29,0,.59.09.9.27l16.72,9.66c.91.52,1.62,1.66,1.62,2.58v.7l1.81,1.04c.12.07.19.2.19.33s-.08.26-.2.32l-1.79.96v4.35c0,.35-.1.65-.29.86-.2.22-.48.34-.8.34h0Z"/>
          <path class="cls-8" d="M35.85,95.75c.21,0,.45.07.71.22l16.72,9.66c.79.46,1.43,1.46,1.43,2.25v.92l1.99,1.15-1.99,1.07v4.57c0,.53-.29.83-.72.83-.21,0-.45-.07-.71-.22l-16.72-9.66c-.79-.46-1.43-1.46-1.43-2.25v-7.71c0-.53.29-.83.72-.83M35.85,95c-.86,0-1.47.65-1.47,1.58v7.71c0,1.06.78,2.31,1.8,2.9l16.72,9.66c.37.21.74.32,1.09.32.86,0,1.47-.65,1.47-1.58v-4.12l1.6-.86c.24-.13.39-.38.4-.65s-.14-.53-.37-.66l-1.62-.93v-.48c0-1.06-.78-2.31-1.8-2.9l-16.72-9.66c-.37-.21-.74-.32-1.09-.32h0Z"/>
        </g>
        <g>
          <path class="cls-15" d="M44.43,96.47c-.29,0-.59-.09-.9-.27l-14.12-8.15c-.91-.52-1.62-1.66-1.62-2.58v-2.23l-1.94-3.28c-.09-.15-.06-.33.06-.46.07-.07.17-.11.27-.11.06,0,.13.02.19.05l1.43.83v-.27c0-.72.44-1.2,1.09-1.2.29,0,.59.09.9.27l14.12,8.15c.91.52,1.62,1.66,1.62,2.58v5.47c0,.72-.44,1.2-1.09,1.2Z"/>
          <path class="cls-8" d="M28.88,79.17c.21,0,.45.07.71.22l14.12,8.15c.79.46,1.43,1.46,1.43,2.25v5.47c0,.53-.29.83-.72.83-.21,0-.45-.07-.71-.22l-14.12-8.15c-.79-.46-1.43-1.46-1.43-2.25v-2.34l-1.99-3.37,1.99,1.15v-.92c0-.53.29-.83.72-.83M28.88,78.42c-.75,0-1.3.48-1.43,1.21l-.9-.52c-.12-.07-.25-.1-.37-.1-.2,0-.39.08-.53.22-.24.24-.29.62-.11.91l1.89,3.19v2.13c0,1.06.78,2.31,1.8,2.9l14.12,8.15c.37.21.74.32,1.09.32.86,0,1.47-.65,1.47-1.58v-5.47c0-1.06-.78-2.31-1.8-2.9l-14.12-8.15c-.37-.21-.74-.32-1.09-.32h0Z"/>
        </g>
      </g>
    </g>
  </g>
</svg>