<?xml version="1.0" encoding="UTF-8"?>
<svg id="_圖層_2" data-name="圖層 2" xmlns="http://www.w3.org/2000/svg" viewBox="0 0 28.37 54.75">
  <defs>
    <style>
      .cls-1 {
        fill: #000;
      }

      .cls-1, .cls-2, .cls-3, .cls-4, .cls-5 {
        stroke-width: 0px;
      }

      .cls-2 {
        fill: #fecfa9;
      }

      .cls-3 {
        fill: #fff;
      }

      .cls-4 {
        fill: #5476ff;
      }

      .cls-5 {
        fill: #fd8453;
      }
    </style>
  </defs>
  <g id="_圖層_5" data-name="圖層 5">
    <g>
      <g>
        <polygon class="cls-2" points="10.83 13.63 10.86 21.9 15.01 21.96 14.96 13.23 14.96 9.54 10.83 9.93 10.83 13.63"/>
        <path class="cls-1" d="M15.01,22.33h0l-4.15-.06c-.2,0-.37-.17-.37-.37l-.03-8.28h0v-3.7c0-.19.15-.35.34-.37l4.13-.39c.1-.01.21.02.29.1s.12.17.12.28v3.7l.05,8.72c0,.1-.04.2-.11.27-.07.07-.17.11-.26.11ZM11.23,21.53l3.4.05-.05-11.63-3.38.32.03,11.26Z"/>
      </g>
      <g>
        <path class="cls-2" d="M8.56,7.38c-.09,2.95,1.55,5.4,4.15,5.48s5.19-2.24,5.28-5.19-1.95-5.41-4.56-5.49-4.79,2.25-4.88,5.21Z"/>
        <path class="cls-1" d="M12.84,13.23s-.09,0-.14,0c-1.35-.04-2.55-.68-3.38-1.81-.78-1.07-1.19-2.51-1.14-4.05.1-3.16,2.46-5.66,5.26-5.57,1.37.04,2.63.68,3.56,1.8.92,1.11,1.4,2.55,1.35,4.07-.04,1.5-.69,2.92-1.81,3.99-1.05,1-2.39,1.57-3.71,1.57ZM13.31,2.54c-2.34,0-4.29,2.15-4.37,4.84-.04,1.38.31,2.65.99,3.58.7.95,1.66,1.47,2.8,1.51,1.16.01,2.37-.46,3.31-1.36.98-.94,1.54-2.17,1.58-3.47.04-1.34-.38-2.61-1.18-3.57-.79-.95-1.86-1.5-3.01-1.53-.04,0-.08,0-.12,0Z"/>
      </g>
      <path class="cls-1" d="M12.46,7.99s-.01,0-.02,0l-.88-.05c-.21-.01-.37-.19-.35-.39.01-.21.19-.4.39-.35l.88.05c.21.01.37.19.35.39-.01.2-.18.36-.37.36Z"/>
      <g>
        <g>
          <path class="cls-1" d="M10.38,48.42l-3.12,4.3s1.8.32,2.65-.19c.86-.51,2.38-1.65,2.38-1.65l.15,1.91h.64l.12-3.57-.73-1.73-2.09.92Z"/>
          <path class="cls-1" d="M8.44,53.2c-.62,0-1.14-.09-1.24-.11-.13-.02-.23-.11-.28-.23s-.03-.26.04-.36l3.12-4.3c.04-.05.09-.1.15-.12l2.09-.92c.09-.04.2-.04.29,0,.09.04.17.11.21.2l.73,1.73s.03.1.03.16l-.12,3.57c0,.2-.17.36-.38.36h-.64c-.2,0-.36-.15-.37-.35l-.1-1.24c-.53.38-1.32.94-1.87,1.27-.46.27-1.1.34-1.67.34ZM7.94,52.43c.59.04,1.36.03,1.78-.22.83-.49,2.33-1.61,2.35-1.62.11-.08.26-.1.38-.04.12.06.21.18.22.31l.07.9.08-2.46-.55-1.3-1.65.73-2.68,3.71Z"/>
        </g>
        <g>
          <polygon class="cls-2" points="12.61 49.49 8.72 51.7 9.76 49.49 9.16 32.19 13.21 32.19 12.61 49.49"/>
          <path class="cls-1" d="M8.72,52.07c-.09,0-.18-.03-.25-.1-.12-.11-.15-.29-.08-.43l1-2.13-.6-17.21c0-.1.03-.2.11-.27.07-.07.17-.11.27-.11h4.05c.1,0,.2.04.27.11.07.07.11.17.11.27l-.6,17.3c0,.13-.08.25-.19.31l-3.88,2.21c-.06.03-.12.05-.19.05ZM9.55,32.56l.59,16.91c0,.06-.01.12-.04.17l-.54,1.14,2.67-1.52.58-16.7h-3.27ZM12.61,49.48h0,0Z"/>
        </g>
      </g>
      <g>
        <g>
          <path class="cls-1" d="M13.67,49.97l-3.12,4.3s1.8.32,2.65-.19,2.38-1.65,2.38-1.65l.15,1.91h.64l.12-3.57-.73-1.73-2.09.92Z"/>
          <path class="cls-1" d="M11.74,54.75c-.62,0-1.14-.09-1.24-.11-.13-.02-.23-.11-.28-.23s-.03-.26.04-.36l3.12-4.3c.04-.05.09-.1.15-.12l2.09-.92c.09-.04.2-.04.29,0,.09.04.17.11.21.2l.73,1.73s.03.1.03.16l-.12,3.57c0,.2-.17.36-.38.36h-.64c-.2,0-.36-.15-.37-.35l-.1-1.24c-.53.38-1.32.94-1.87,1.27-.46.27-1.1.34-1.67.34ZM11.23,53.98c.59.04,1.36.03,1.78-.22.83-.49,2.33-1.61,2.35-1.62.11-.08.26-.1.38-.04.12.06.21.18.22.31l.07.9.08-2.46-.55-1.3-1.65.73-2.68,3.71Z"/>
        </g>
        <g>
          <polygon class="cls-2" points="15.9 51.04 12.01 53.25 13.05 51.04 12.45 33.74 16.5 33.74 15.9 51.04"/>
          <path class="cls-1" d="M12.01,53.63c-.09,0-.18-.03-.25-.1-.12-.11-.15-.29-.08-.43l1-2.13-.6-17.21c0-.1.03-.2.11-.27.07-.07.17-.11.27-.11h4.05c.1,0,.2.04.27.11.07.07.11.17.11.27l-.6,17.3c0,.13-.08.25-.19.31l-3.88,2.21c-.06.03-.12.05-.19.05ZM12.84,34.12l.59,16.91c0,.06-.01.12-.04.17l-.54,1.14,2.67-1.52.58-16.7h-3.27ZM15.9,51.04h0,0Z"/>
        </g>
      </g>
      <g>
        <polygon class="cls-2" points="5.93 20.11 6.37 28.82 17.89 29.26 20.28 25.84 19.71 20.11 5.93 20.11"/>
        <path class="cls-1" d="M17.89,29.63h-.01l-11.53-.44c-.19,0-.35-.16-.36-.36l-.43-8.71c0-.1.03-.2.1-.28s.17-.12.27-.12h13.78c.19,0,.35.15.37.34l.57,5.72c0,.09-.01.18-.07.25l-2.39,3.42c-.07.1-.19.16-.31.16ZM6.72,28.46l10.98.41,2.19-3.14-.52-5.25H6.33l.4,7.97Z"/>
      </g>
      <g>
        <path class="cls-5" d="M5.08,31.37c-1.5,3.08-3.35,6.18-4.57,9.38-.93,2.45,3.44,4.27,5.26,5,2.24.9,4.78,1.22,7.1.55.93-.27,1.82-.7,2.77-.87.9-.17,1.83-.1,2.74-.12,2-.03,4.11-.53,5.74-1.72.55-.4,4.27-4.61,3.83-4.98-3.76-3.23-7.12-6.92-9.97-10.98-.48-.69-.95-1.39-1.58-1.94-1.55-1.38-3.75-1.61-5.74-1.4s-2.84,2.02-3.74,3.56c-.68,1.15-1.26,2.34-1.84,3.54Z"/>
        <path class="cls-1" d="M10.25,47.04c-1.5,0-3.08-.31-4.62-.93-1.79-.72-6.55-2.63-5.47-5.48.82-2.17,1.94-4.31,3.02-6.37.53-1.02,1.06-2.03,1.56-3.04h0c.57-1.17,1.16-2.38,1.86-3.56l.19-.32c.88-1.51,1.87-3.21,3.84-3.42,1.77-.19,4.26-.08,6.03,1.5.61.54,1.08,1.21,1.53,1.86l.11.15c2.83,4.03,6.17,7.71,9.91,10.91.07.06.18.19.17.41-.04.98-3.56,4.83-4.02,5.16-1.96,1.43-4.32,1.77-5.96,1.79-.24,0-.48,0-.71,0-.69,0-1.33,0-1.97.11-.56.1-1.09.29-1.65.5-.36.13-.72.26-1.09.37-.86.25-1.78.37-2.72.37ZM5.41,31.54c-.5,1.02-1.03,2.04-1.57,3.07-1.07,2.04-2.18,4.16-2.99,6.29-.82,2.16,3.6,3.93,5.05,4.52,2.35.95,4.79,1.14,6.85.53.35-.1.7-.23,1.04-.35.57-.21,1.15-.42,1.77-.53.71-.13,1.42-.13,2.11-.12.23,0,.46,0,.7,0,1.53-.03,3.73-.33,5.53-1.65.51-.37,3.38-3.67,3.69-4.5-3.74-3.22-7.08-6.9-9.92-10.95l-.11-.15c-.43-.61-.87-1.24-1.42-1.73-1.57-1.39-3.83-1.48-5.45-1.31-1.59.17-2.45,1.63-3.27,3.05l-.19.32c-.68,1.15-1.26,2.35-1.83,3.51h0Z"/>
      </g>
      <g>
        <path class="cls-5" d="M14.72,13.77l-2.11.91-1.73-1.08-4.17.93-2.37,5.92,2.77,1.88,1.08,3.08s5.55,2.15,9.34.73l.48-3.37,3.07-1.47-.47-4.88-5.87-2.65Z"/>
        <path class="cls-1" d="M14.46,27c-3.16,0-6.25-1.17-6.42-1.24-.1-.04-.18-.12-.22-.23l-1.04-2.96-2.67-1.81c-.15-.1-.2-.29-.14-.45l2.37-5.92c.05-.12.15-.2.27-.23l4.17-.93c.09-.02.2,0,.28.05l1.57.97,1.93-.83c.1-.04.21-.04.3,0l5.87,2.65c.12.06.21.17.22.31l.47,4.88c.02.16-.07.31-.21.38l-2.89,1.38-.45,3.17c-.02.14-.11.25-.24.3-.99.37-2.09.51-3.18.51ZM8.47,25.12c.91.32,5.46,1.83,8.7.74l.45-3.15c.02-.12.1-.23.21-.29l2.83-1.35-.42-4.4-5.52-2.5-1.96.85c-.11.05-.24.04-.35-.03l-1.6-1-3.83.85-2.19,5.46,2.52,1.71c.07.05.12.11.14.19l1.02,2.91Z"/>
      </g>
      <g>
        <path class="cls-2" d="M11.3,7.87c0,.76-.59,1.38-1.38,1.38s-1.38-.62-1.38-1.38.37-1.38,1.38-1.38,1.38.62,1.38,1.38Z"/>
        <path class="cls-1" d="M9.92,9.63c-.98,0-1.75-.77-1.75-1.75,0-1.1.66-1.75,1.75-1.75s1.75.67,1.75,1.75c0,.98-.77,1.75-1.75,1.75ZM9.92,6.87c-.43,0-1,.1-1,1,0,.58.42,1,1,1s1-.43,1-1c0-.67-.34-1-1-1Z"/>
      </g>
      <g>
        <path class="cls-2" d="M15.37,7.87c0,.76-.59,1.38-1.38,1.38s-1.38-.62-1.38-1.38.37-1.38,1.38-1.38,1.38.62,1.38,1.38Z"/>
        <path class="cls-1" d="M13.99,9.63c-.98,0-1.75-.77-1.75-1.75,0-1.1.66-1.75,1.75-1.75s1.75.67,1.75,1.75c0,.98-.77,1.75-1.75,1.75ZM13.99,6.87c-.43,0-1,.1-1,1,0,.58.42,1,1,1s1-.43,1-1c0-.67-.34-1-1-1Z"/>
      </g>
      <g>
        <path class="cls-1" d="M13.78,2.95c.37.42.43,1.02.44,1.58s-.02,1.14.22,1.64c.34.73,1.18,1.14,1.98,1.15.63,0,1.31-.25,1.61-.8.11.91.02,1.84-.26,2.7.34-.29.67-.58.94-.93.34-.45.5-.93.44-1.49-.04-.35-.11-.69-.09-1.04.02-.29.11-.58.15-.87.05-.34.02-.7-.07-1.03-.09-.33-.26-.66-.55-.84-.27-.17-.62-.22-.83-.45-.1-.11-.15-.24-.21-.38-.14-.33-.31-.65-.56-.89-.18-.18-.41-.31-.63-.42-.56-.28-1.18-.47-1.81-.48s-1.27.15-1.78.51c-.25.17-.48.42-.78.52-.31.11-.65-.07-.98-.05-.46.02-.89.31-1.17.67s-.44.82-.56,1.27c-.07.28-.14.56-.26.82-.12.23-.29.43-.42.66-.21.37-.3.81-.27,1.23,0,.09.04.92.24.83.13-.06.09-.68.11-.82.17-.94,1.15-1.38,1.95-1.69.33-.13.7-.24.89-.54s.07-.75.33-.97c.53-.48,1.47-.39,1.93.14Z"/>
        <path class="cls-1" d="M17.77,9.59c-.07,0-.14-.02-.21-.06-.14-.09-.2-.27-.15-.43.18-.56.28-1.15.29-1.74-.4.24-.86.31-1.28.33-1.01,0-1.95-.56-2.32-1.37-.24-.52-.24-1.07-.25-1.6v-.19c0-.47-.06-1-.35-1.34h0c-.16-.18-.42-.3-.7-.32-.28-.02-.53.06-.7.21-.04.04-.06.19-.08.3-.03.18-.06.39-.17.58-.23.38-.65.54-.98.66l-.09.04c-.81.31-1.59.7-1.71,1.4,0,.03,0,.09,0,.16,0,.4-.02.79-.31.93-.11.06-.31.05-.42-.02-.19-.11-.32-.34-.36-1.12-.03-.54.09-1.05.33-1.46.06-.1.12-.2.19-.29.08-.11.15-.22.21-.34.09-.18.15-.39.2-.62l.03-.13c.11-.42.28-.95.62-1.4.38-.5.91-.8,1.45-.82.18,0,.34.02.49.05.15.03.3.06.38.02.14-.05.29-.17.44-.29.08-.07.17-.13.25-.19C13.12.19,13.84-.03,14.57,0c.65.02,1.31.19,1.97.52.2.1.49.26.73.49.31.3.5.68.64,1.02.05.12.09.22.14.28.07.08.2.13.35.19.14.06.28.11.4.19.33.21.58.58.71,1.06.11.38.13.79.08,1.18-.02.13-.05.26-.07.39-.03.15-.07.3-.08.46-.01.21.02.43.05.66.01.1.03.21.04.31.06.64-.1,1.21-.52,1.76-.29.39-.67.71-1,.99-.07.06-.16.09-.24.09ZM18.03,6.14s.05,0,.07,0c.16.03.28.16.3.32.07.53.07,1.07,0,1.6,0,0,0,0,.01-.01.3-.4.42-.78.37-1.23,0-.1-.02-.19-.04-.29-.04-.26-.07-.53-.05-.81.01-.19.05-.38.09-.56.02-.11.05-.22.06-.34.04-.29.02-.6-.06-.88-.06-.21-.17-.49-.4-.63-.08-.05-.18-.09-.28-.13-.21-.08-.44-.18-.63-.39-.13-.15-.2-.31-.26-.46-.12-.28-.27-.58-.49-.79-.13-.12-.3-.24-.54-.36-.56-.28-1.11-.43-1.65-.44-.59-.04-1.13.14-1.56.44-.07.05-.14.11-.21.16-.18.15-.39.31-.65.41-.28.1-.55.05-.77,0-.12-.02-.22-.05-.32-.04-.31.01-.65.21-.89.53-.26.34-.4.79-.49,1.13l-.03.12c-.06.25-.13.51-.26.77-.07.15-.17.29-.26.42.47-.38,1.05-.6,1.41-.74l.1-.04c.26-.1.5-.19.6-.35.04-.06.06-.18.07-.3.04-.24.08-.54.32-.75.32-.29.77-.44,1.25-.4.48.03.93.24,1.22.58h0c.45.52.52,1.21.53,1.82v.2c0,.47,0,.92.18,1.29.29.64,1.04.93,1.65.93h.02c.44,0,1.02-.16,1.26-.6.07-.12.19-.2.33-.2Z"/>
      </g>
      <g>
        <circle class="cls-3" cx="17.89" cy="9.35" r="1.06"/>
        <path class="cls-1" d="M17.89,10.78c-.79,0-1.43-.64-1.43-1.43s.64-1.43,1.43-1.43,1.43.64,1.43,1.43-.64,1.43-1.43,1.43ZM17.89,8.67c-.38,0-.68.31-.68.68s.31.68.68.68.68-.31.68-.68-.31-.68-.68-.68Z"/>
      </g>
      <g>
        <g>
          <path class="cls-4" d="M9.04,13.85s.04.08.06.12c.1.19.21.37.37.51.16.14.36.22.56.28.78.23,1.63.28,2.45.36.13.01,1.42.23,1.48.08.43-1.08-.67-1.8-1.49-2.19-.62-.29-1.29-.52-1.96-.69-.25-.06-.54-.15-.73.11-.07.1-.05.23-.08.33-.13.38-.74.45-.71.92,0,.06.02.12.04.17Z"/>
          <path class="cls-1" d="M13.69,15.62c-.26,0-.62-.04-1.13-.11l-.48-.05c-.71-.07-1.45-.13-2.15-.34-.19-.06-.47-.15-.7-.35-.22-.18-.35-.42-.46-.63-.03-.05-.05-.1-.07-.15-.04-.1-.06-.19-.07-.28-.04-.47.29-.71.51-.87.09-.06.19-.14.21-.19.02-.15.04-.3.14-.43.32-.45.83-.33,1.1-.26.75.19,1.44.43,2.05.72,1.9.91,1.96,1.95,1.67,2.67-.08.21-.25.29-.62.29ZM10.14,12.62s-.03,0-.03,0c0,.1-.02.17-.04.25-.09.28-.31.43-.48.56-.18.13-.21.17-.21.21,0,0,.02.06.02.06l.04.09c.07.14.16.29.28.39.1.08.23.15.43.2.63.19,1.33.25,2.01.31l.52.06c.55.08.84.1,1,.11.09-.54-.36-1.06-1.35-1.53-.57-.27-1.21-.5-1.89-.67-.09-.02-.22-.06-.29-.06Z"/>
        </g>
        <g>
          <path class="cls-4" d="M15.27,12.39c.24-.18.86-.12,1.11.05s.4.46.47.76c.04.16.05.33-.01.48-.06.14-.19.25-.31.34-.37.29-.78.53-1.21.73-.36.16-.96.48-1.37.45l-.14-1.03c.41-1.11,1.34-1.69,1.46-1.78Z"/>
          <path class="cls-1" d="M14.02,15.57s-.06,0-.09,0c-.17-.02-.32-.15-.34-.32l-.14-1.03c0-.06,0-.12.02-.18.19-.52.61-1.27,1.55-1.93l.26.28-.23-.3c.41-.31,1.21-.19,1.55.04.3.21.52.56.62.98.06.28.05.51-.03.72-.09.22-.26.37-.43.49-.39.3-.83.56-1.28.77l-.14.07c-.38.18-.89.42-1.32.42ZM14.2,14.21l.08.57c.25-.07.54-.21.74-.3l.15-.07c.4-.19.79-.42,1.14-.68.06-.04.16-.12.19-.19.02-.04.03-.11,0-.25-.06-.24-.17-.43-.32-.54-.15-.1-.57-.13-.67-.06,0,0-.05.04-.05.04-.6.42-1.01.91-1.24,1.48Z"/>
        </g>
        <g>
          <path class="cls-4" d="M12.39,16.81c.38.28.77.57,1.15.85.14.1.28.21.43.29.11.06.25.12.37.08.13-.04.22-.16.29-.28.2-.34.52-.87.52-1.27s-.24-.96-.36-1.34c-.11-.32-.24-.63-.38-.94-.19-.42-.39-.87-.78-1.12-.11-.07-.23-.12-.36-.11s-.25.1-.27.22c-.06.35-.05.7-.13,1.05s-.19.7-.32,1.04-.26.69-.38,1.03c-.08.23-.05.29.15.44l.06.05Z"/>
          <path class="cls-1" d="M14.26,18.42c-.22,0-.4-.1-.47-.14-.17-.09-.32-.2-.47-.32l-1.15-.86s-.03-.02-.03-.02c-.31-.23-.46-.45-.31-.89.08-.22.16-.45.24-.67l.14-.37c.11-.31.23-.65.3-.99.04-.17.05-.35.07-.53.01-.17.03-.34.06-.51.05-.28.31-.51.61-.53.19-.02.39.04.59.17.5.32.74.88.92,1.28.15.33.28.65.39.98l.09.26c.14.38.29.82.29,1.2,0,.5-.34,1.07-.56,1.45-.07.12-.23.38-.52.46-.06.02-.13.03-.19.03ZM12.62,16.51l1.15.86c.13.09.25.19.39.26.05.03.08.04.1.04,0,0,.02-.04.06-.11.18-.3.47-.78.47-1.08,0-.25-.14-.63-.25-.94l-.1-.28c-.1-.31-.23-.6-.36-.9-.19-.44-.36-.78-.64-.96-.03-.02-.06-.03-.08-.04-.02.11-.03.23-.04.35-.02.21-.04.41-.08.62-.08.39-.21.75-.33,1.09l-.14.38c-.08.21-.16.43-.24.64h0s.01.01.02.02l-.16.35.22-.3Z"/>
        </g>
      </g>
      <circle class="cls-1" cx="12.38" cy="19.7" r=".75"/>
      <circle class="cls-1" cx="12.38" cy="22.33" r=".75"/>
      <path class="cls-1" d="M7.48,21.29s-.05,0-.07,0c-.2-.04-.34-.23-.3-.44l.57-3.05c.04-.2.24-.34.44-.3.2.04.34.23.3.44l-.57,3.05c-.03.18-.19.31-.37.31Z"/>
    </g>
  </g>
</svg>