<?xml version="1.0" encoding="UTF-8"?>
<svg id="_圖層_2" data-name="圖層 2" xmlns="http://www.w3.org/2000/svg" viewBox="0 0 109.62 99.82">
  <defs>
    <style>
      .cls-1 {
        fill: #6fb7ff;
      }

      .cls-1, .cls-2, .cls-3, .cls-4, .cls-5, .cls-6, .cls-7, .cls-8, .cls-9 {
        stroke-width: 0px;
      }

      .cls-2 {
        fill: #ffff86;
      }

      .cls-3 {
        fill: #fda87e;
      }

      .cls-4 {
        fill: #000;
      }

      .cls-5 {
        fill: #fecfa9;
      }

      .cls-6 {
        fill: #ff98c3;
      }

      .cls-7 {
        fill: #fff;
      }

      .cls-8 {
        fill: #5476ff;
      }

      .cls-9 {
        fill: #00ff86;
      }
    </style>
  </defs>
  <g id="_圖層_5" data-name="圖層 5">
    <g>
      <g>
        <g>
          <path class="cls-5" d="M66.69,15.05l.09-1.6,4.1-.1.3,2.11s-.68,1.98-2.25,2.03-2.22-1.07-2.25-2.44Z"/>
          <path class="cls-4" d="M68.84,17.87c-.7,0-1.28-.21-1.72-.63-.52-.5-.8-1.25-.81-2.18,0,0,0-.02,0-.03l.09-1.6c.01-.19.17-.35.37-.35l4.1-.1c.21.03.35.13.38.32l.3,2.11c0,.06,0,.12-.02.17-.03.09-.79,2.23-2.59,2.28-.03,0-.07,0-.1,0ZM67.06,15.06c.01.51.12,1.19.58,1.64.31.29.74.43,1.28.42,1.12-.03,1.73-1.36,1.87-1.7l-.24-1.68-3.42.08-.07,1.25Z"/>
        </g>
        <g>
          <path class="cls-5" d="M64.02,7.94c-.1,3.2,1.68,5.85,4.5,5.93s5.62-2.43,5.72-5.63c.1-3.2-2.11-5.86-4.94-5.95s-5.19,2.44-5.28,5.64Z"/>
          <path class="cls-4" d="M68.67,14.25c-.05,0-.1,0-.15,0-2.93-.09-4.97-2.75-4.87-6.32h.38s-.38,0-.38,0c.05-1.64.66-3.17,1.72-4.3,1.07-1.14,2.48-1.72,3.95-1.71,3.02.09,5.4,2.93,5.3,6.33-.1,3.23-2.86,5.99-5.95,5.99ZM69.17,2.67c-1.21,0-2.36.52-3.25,1.47-.94,1-1.48,2.35-1.52,3.81h0c-.09,3.14,1.65,5.47,4.14,5.55.04,0,.09,0,.13,0,2.7,0,5.11-2.43,5.2-5.27.09-2.99-1.96-5.48-4.57-5.56-.04,0-.08,0-.13,0Z"/>
        </g>
        <g>
          <path class="cls-4" d="M64.41,6.12s4.43.81,8.67-.12l-.43-2.86-7.64-.21-.6,3.19Z"/>
          <path class="cls-4" d="M68.58,6.83c-2.35,0-4.12-.32-4.24-.34-.1-.02-.19-.07-.24-.16-.06-.08-.08-.18-.06-.28l.6-3.19c.03-.18.17-.33.38-.31l7.64.21c.18,0,.33.14.36.32l.43,2.86c.03.2-.1.38-.29.42-1.58.35-3.19.46-4.58.46ZM64.85,5.81c1.1.16,4.49.55,7.8-.1l-.33-2.2-7.01-.2-.47,2.5Z"/>
        </g>
        <g>
          <path class="cls-2" d="M72.6,1.18c1.06.77,1.69,1.91,2.45,3.99.39,1.06,1.23,1.59,1.85,1.59-.32.29-2.11,3.16-5.57.16-1.59-1.38-1.42-4.26-3.59-2.91-1.97-1.28-2.01,1.8-2.32,2.56-.27.65-.72.91-1.4,1.1s-1.44.06-2.01-.35c.54-.11.92-.62,1.08-1.15s.16-1.09.24-1.64c.18-1.26.83-2.46,1.85-3.22.51-.38,1.12-.64,1.75-.75.67-.12,1.29.12,1.94.06s1.17-.31,1.87-.21,1.31.38,1.86.78Z"/>
          <path class="cls-4" d="M74.27,8.66c-1.01,0-2.08-.49-3.18-1.45-.63-.55-.99-1.28-1.32-1.93-.3-.6-.56-1.12-.91-1.22-.22-.06-.53.03-.92.27-.12.08-.28.07-.4,0-.34-.22-.61-.29-.8-.22-.44.18-.63,1.16-.77,1.81-.06.32-.12.6-.2.79-.35.85-1,1.14-1.64,1.32-.79.23-1.67.07-2.34-.41-.12-.09-.18-.24-.15-.38.03-.15.15-.26.29-.29.41-.09.69-.53.8-.89.1-.32.13-.66.16-1.02.02-.19.04-.38.06-.56.2-1.41.93-2.67,1.99-3.47.56-.42,1.22-.7,1.91-.82.42-.07.8-.03,1.17.01.28.03.54.06.8.04.22-.02.42-.07.61-.11.41-.09.83-.18,1.35-.09.71.11,1.41.4,2.02.85h0c1.22.89,1.87,2.2,2.58,4.17.32.88,1.01,1.39,1.49,1.34.17.01.3.09.35.24.06.15.02.31-.1.41-.02.02-.06.07-.11.12-.35.41-1.18,1.38-2.55,1.48-.08,0-.15,0-.23,0ZM68.72,3.28c.12,0,.24.02.35.05.67.19,1.01.88,1.37,1.61.29.58.62,1.25,1.14,1.7,1.04.9,2,1.34,2.86,1.26.81-.06,1.38-.53,1.75-.91-.58-.25-1.17-.79-1.5-1.69-.78-2.13-1.38-3.13-2.32-3.82-.51-.37-1.1-.62-1.69-.71-.39-.06-.71,0-1.08.09-.22.05-.45.1-.69.12-.34.04-.65,0-.96-.04-.33-.04-.64-.07-.95-.02-.58.1-1.13.34-1.59.69-.91.68-1.53,1.76-1.7,2.97-.02.17-.04.35-.06.53-.04.38-.07.78-.19,1.17-.11.35-.32.74-.63,1.02.36.11.75.11,1.1.01.67-.19.96-.41,1.15-.89.05-.12.1-.38.16-.65.17-.85.41-2.02,1.21-2.36.38-.16.81-.1,1.3.16.36-.19.68-.29.98-.29Z"/>
        </g>
        <g>
          <path class="cls-5" d="M59.21,18.8l-4.54,1.93v-6.32l1.42-2.07-.91-1.8.52-3.89-1.37-.34-.86,2.8-1.23-4.08-1.42.68.66,4.4-1.28,2.23,1.47,2.39-.88,8.38c-.09.85.27,1.68.95,2.2h0c.69.53,1.62.66,2.43.33l8.95-3.66-3.91-3.17Z"/>
          <path class="cls-4" d="M53.24,26.19c-.62,0-1.23-.2-1.73-.59-.79-.6-1.19-1.55-1.09-2.54l.86-8.25-1.41-2.28c-.07-.12-.07-.26,0-.38l1.22-2.11-.64-4.27c-.02-.16.06-.32.21-.39l1.42-.68c.1-.05.21-.05.31,0,.1.04.18.13.21.23l.88,2.9.5-1.62c.06-.19.25-.3.45-.25l1.37.34c.19.05.31.22.28.41l-.51,3.77.86,1.7c.06.12.05.27-.02.38l-1.35,1.97v5.64l4.02-1.7c.13-.06.27-.03.38.05l3.9,3.17c.1.08.15.21.13.35-.02.13-.11.24-.23.29l-8.95,3.66c-.34.14-.71.21-1.07.21ZM50.64,12.33l1.36,2.2c.04.07.06.15.05.24l-.88,8.38c-.08.73.22,1.42.8,1.87.59.45,1.38.56,2.06.28l8.36-3.42-3.24-2.63-4.33,1.84c-.12.05-.25.04-.35-.03-.1-.07-.17-.19-.17-.31v-6.32c0-.08.02-.15.07-.21l1.29-1.89-.81-1.6c-.03-.07-.05-.14-.04-.22l.48-3.55-.7-.17-.76,2.46c-.05.16-.19.26-.36.26h0c-.17,0-.31-.11-.36-.27l-1.11-3.66-.77.37.62,4.12c.01.08,0,.17-.05.24l-1.17,2.03Z"/>
        </g>
        <g>
          <path class="cls-7" d="M61.63,24.37l-.22,12.5,15.49-.45.64-14.35-1.52-5.6-4.72-1.42s-1.26,1.86-2.74,1.75c-1.48-.11-1.86-1.75-1.86-1.75l-4.31.7-6.19,3.22,1.43,6.66,4.01-1.27Z"/>
          <path class="cls-4" d="M61.41,37.24c-.1,0-.19-.04-.26-.11-.07-.07-.11-.17-.11-.27l.21-11.98-3.52,1.11c-.1.03-.21.02-.3-.03-.09-.05-.16-.14-.18-.25l-1.43-6.66c-.04-.17.04-.33.19-.41l6.19-3.22s.07-.03.11-.04l4.31-.7c.2-.03.38.09.43.28.01.06.34,1.38,1.53,1.47,1.24.13,2.39-1.57,2.4-1.59.09-.14.26-.2.42-.15l4.72,1.42c.12.04.22.14.25.26l1.52,5.6s.01.08.01.12l-.64,14.35c0,.2-.17.35-.36.36l-15.49.45h-.01ZM61.63,23.99c.08,0,.16.03.22.07.1.07.15.19.15.31l-.21,12.1,14.74-.43.62-13.94-1.45-5.35-4.27-1.28c-.42.53-1.55,1.79-2.91,1.69-1.3-.1-1.88-1.15-2.09-1.71l-3.94.64-5.89,3.06,1.29,5.98,3.62-1.14s.08-.02.11-.02Z"/>
        </g>
        <g>
          <path class="cls-5" d="M75.33,24.69l-.49,3.74-6.62-4.19-4.2.94,10.39,7.21c.86.6,2,.64,2.9.1h0c.72-.43,1.19-1.17,1.29-2l.65-5.67-3.92-.14Z"/>
          <path class="cls-4" d="M75.93,33.25c-.61,0-1.22-.18-1.74-.54l-10.39-7.21c-.12-.08-.18-.23-.15-.38.03-.15.14-.26.29-.29l4.2-.94c.1-.02.2,0,.28.05l6.12,3.87.41-3.16c.03-.19.2-.31.39-.33l3.92.14c.1,0,.2.05.27.13.07.08.1.18.09.29l-.65,5.67c-.11.94-.66,1.79-1.47,2.28-.48.29-1.02.43-1.56.43ZM64.93,25.36l9.69,6.73c.74.51,1.72.55,2.5.08.61-.37,1.03-1.01,1.11-1.72l.6-5.27-3.17-.11-.44,3.4c-.02.13-.1.24-.21.29-.12.05-.25.04-.36-.02l-6.49-4.1-3.22.72Z"/>
        </g>
        <g>
          <polyline class="cls-7" points="74.58 23.66 74.24 27.43 79.56 28.86 79.49 19.2 76.01 16.47 74.59 16.04"/>
          <path class="cls-4" d="M79.56,29.24s-.07,0-.1-.01l-5.32-1.43c-.18-.05-.29-.21-.28-.4l.34-3.77c.02-.21.2-.38.41-.34.21.02.36.2.34.41l-.31,3.45,4.54,1.22-.06-8.99-3.28-2.58-1.35-.41c-.2-.06-.31-.27-.25-.47.06-.2.27-.31.47-.25l1.42.43s.09.04.12.06l3.48,2.73c.09.07.14.18.14.29l.07,9.66c0,.12-.05.23-.15.3-.07.05-.15.08-.23.08Z"/>
        </g>
      </g>
      <g>
        <g>
          <path class="cls-5" d="M19.55,34.45l.63.2c.96.3,1.79.9,2.39,1.7l3.36,4.5,9.64,1.54-1.37,2.23-9.76-.47-5.63-4.62.74-5.09Z"/>
          <path class="cls-4" d="M34.2,45h-.02l-9.76-.47c-.08,0-.16-.03-.22-.08l-5.63-4.62c-.1-.08-.15-.21-.13-.34l.74-5.09c.02-.11.08-.21.17-.26s.21-.07.31-.04l.63.2c1.04.33,1.93.96,2.58,1.83l3.27,4.38,9.49,1.52c.12.02.23.1.28.21s.04.25-.02.35l-1.37,2.23c-.07.11-.19.18-.32.18ZM24.58,43.78l9.41.45.96-1.56-9.08-1.46c-.1-.02-.18-.07-.24-.15l-3.36-4.5c-.56-.75-1.32-1.29-2.2-1.57l-.21-.07-.64,4.44,5.37,4.4Z"/>
        </g>
        <g>
          <path class="cls-4" d="M12.34,48.74l-3.45,2.07-6.41.36s-1.06,3.63.89,4.68c1.95,1.06,4.03,6,4.03,6l10.48,2.69,7.8-8.62-6.5-8.03-6.85.86Z"/>
          <path class="cls-4" d="M17.88,64.91s-.06,0-.09-.01l-10.48-2.69c-.11-.03-.21-.11-.25-.22-.02-.05-2.05-4.83-3.86-5.81-2.19-1.19-1.12-4.96-1.07-5.12.04-.15.18-.26.34-.27l6.32-.35,3.37-2.02s.09-.04.15-.05l6.85-.86c.13-.01.26.04.34.14l6.5,8.03c.12.14.11.35-.01.49l-7.8,8.62c-.07.08-.17.12-.28.12ZM7.67,61.53l10.09,2.58,7.43-8.21-6.16-7.61-6.57.82-3.38,2.03c-.05.03-.11.05-.17.05l-6.14.34c-.18.8-.61,3.24.78,3.99,1.85,1,3.72,5.1,4.12,6.01ZM8.89,50.81h0,0Z"/>
        </g>
        <g>
          <path class="cls-4" d="M14.95,34.02l-2.42,1.15c-1.8,1.01-2.74,3.07-2.3,5.09,0,0,1.52,4.07,2.12,8.48,1.53,1.64,5.6,1.84,7.77-.3,0,0-.47-1.39.78-3.51,1.34-2.27,2.13-3.08-.33-6.96l-1-3.53-4.61-.42Z"/>
          <path class="cls-4" d="M15.93,50.38c-.05,0-.1,0-.15,0-1.54-.03-2.93-.55-3.71-1.39-.05-.06-.09-.13-.1-.21-.58-4.31-2.08-8.35-2.1-8.4-.49-2.25.51-4.46,2.47-5.55l2.44-1.16c.06-.03.13-.04.19-.03l4.61.42c.15.01.28.12.33.27l.99,3.48c2.3,3.65,1.83,4.76.54,6.91l-.23.39c-1.13,1.92-.75,3.19-.75,3.2.04.13,0,.28-.09.38-1.08,1.07-2.69,1.68-4.44,1.68ZM12.69,48.57c.66.64,1.81,1.04,3.1,1.07,1.54.05,2.93-.45,3.9-1.32-.09-.52-.16-1.83.87-3.57l.24-.4c1.15-1.92,1.63-2.72-.56-6.17-.02-.03-.03-.06-.04-.1l-.93-3.28-4.25-.39-2.33,1.1c-1.65.92-2.5,2.81-2.1,4.68h0s1.5,4.03,2.1,8.38Z"/>
        </g>
        <g>
          <path class="cls-5" d="M18.35,34.02l-.09-1.6-4.1-.1-.3,2.11s.68,1.98,2.25,2.03c1.56.05,2.22-1.07,2.25-2.44Z"/>
          <path class="cls-4" d="M16.2,36.83s-.07,0-.11,0c-1.8-.05-2.56-2.19-2.59-2.28-.02-.06-.03-.12-.02-.17l.3-2.11c.03-.19.2-.3.38-.32l4.1.1c.2,0,.35.16.37.35l.09,1.6s0,.02,0,.03c-.02.93-.3,1.69-.81,2.18-.44.42-1.01.63-1.71.63ZM14.24,34.38c.14.34.75,1.67,1.87,1.7.53,0,.97-.12,1.28-.42.46-.44.57-1.13.58-1.64l-.07-1.25-3.42-.08-.24,1.68Z"/>
        </g>
        <g>
          <path class="cls-5" d="M21.02,28.13c.1,3.2-1.68,5.85-4.5,5.93-2.82.08-5.62-2.43-5.72-5.63-.1-3.2,2.11-5.86,4.94-5.95,2.82-.08,5.19,2.44,5.28,5.64Z"/>
          <path class="cls-4" d="M16.38,34.44c-1.42,0-2.87-.61-4-1.69-1.21-1.16-1.9-2.69-1.95-4.3-.05-1.64.47-3.2,1.46-4.39,1-1.21,2.37-1.9,3.84-1.94,1.48-.04,2.88.56,3.95,1.71,1.06,1.13,1.67,2.66,1.72,4.3.05,1.67-.39,3.22-1.23,4.37-.89,1.21-2.18,1.91-3.64,1.95-.05,0-.1,0-.15,0ZM15.87,22.87s-.08,0-.13,0c-1.26.04-2.42.63-3.29,1.67-.87,1.05-1.33,2.43-1.29,3.89.04,1.42.65,2.77,1.72,3.79,1.02.98,2.34,1.51,3.61,1.48,1.24-.04,2.29-.61,3.05-1.65.74-1.02,1.13-2.4,1.08-3.9-.04-1.46-.58-2.81-1.52-3.81-.89-.95-2.04-1.47-3.25-1.47Z"/>
        </g>
        <g>
          <path class="cls-5" d="M10.12,39.53l.31,5.42c.08,1.36.9,2.57,2.13,3.14l6.58,3.07,2.95-1.5-7.71-4.73-.28-5.55c-.06-1.09-.34-2.08-1.43-2.23h0c-1.41-.18-2.63.96-2.55,2.38Z"/>
          <path class="cls-4" d="M19.14,51.54c-.05,0-.11-.01-.16-.04l-6.58-3.07c-1.36-.64-2.26-1.96-2.35-3.46l-.31-5.42c-.04-.79.26-1.55.84-2.08.58-.54,1.36-.79,2.14-.69,1.64.21,1.73,1.99,1.76,2.58l.27,5.36,7.54,4.63c.12.07.18.2.18.33,0,.13-.08.26-.2.32l-2.95,1.5c-.05.03-.11.04-.17.04ZM12.38,37.51c-.48,0-.93.18-1.29.51-.41.38-.63.93-.6,1.49h0l.31,5.42c.07,1.22.8,2.31,1.92,2.83l6.41,2.99,2.19-1.11-7.14-4.38c-.11-.06-.17-.18-.18-.3l-.28-5.55c-.08-1.53-.6-1.81-1.1-1.87-.08-.01-.16-.02-.24-.02Z"/>
        </g>
        <path class="cls-4" d="M18.31,26.86c-.58-.19-1.06-.66-1.28-1.23,1.31.59,2.73.94,4.17,1.02.67-.94,1.29-1.91,1.86-2.92-1.05.11-2.11-.19-3.09-.57s-1.94-.86-2.96-1.15c-.77-.22-1.66-.32-2.32.14-.48.33-.76.92-.71,1.49.18,2.02,2.65,2.95,4.32,3.21Z"/>
        <path class="cls-4" d="M11.87,22.93c-1.42,1-2.37,2.59-2.66,4.3-.09.56-.12,1.14,0,1.7.17.88.65,1.68,1.23,2.37.15.17.31.36.32.59.02.47-.59.68-1.06.74.76.32,1.52.63,2.34.74.64.09,1.26.06,1.84-.24.26-.14.51-.32.71-.54.16-.17.3-.54.47-.67-.26.19-.61.21-.91.11s-.56-.31-.76-.55c-.57-.67-.8-1.59-.72-2.47.1-1.08.65-1.87,1.17-2.77.51-.88.98-1.76,1.8-2.41.93-.73,1.87-1.87.06-1.99-1.34-.09-2.72.31-3.82,1.08Z"/>
      </g>
      <g>
        <g>
          <g>
            <path class="cls-2" d="M79.81,45.81c2.16-1.57,4.33-3.2,6.35-4.96-2.92-2.42-5.71-4.79-8.26-7-1.82,1.54-3.74,2.97-5.66,4.36-10.69,7.79-21.67,15.16-32.96,22.04-8.69,5.29-17.65,10.32-27.18,13.79,2.48,2.57,5.08,5.12,7.66,7.56,9.5-3.47,18.42-8.49,27.08-13.76,11.29-6.88,22.28-14.25,32.96-22.04Z"/>
            <path class="cls-4" d="M19.78,81.98c-.09,0-.19-.04-.26-.1-2.78-2.62-5.36-5.17-7.68-7.57-.09-.09-.12-.22-.1-.34.03-.12.12-.22.24-.27,9.9-3.6,19.26-8.98,27.11-13.76,10.97-6.68,22.05-14.09,32.94-22.02,1.85-1.35,3.81-2.8,5.63-4.35.14-.12.35-.12.49,0,2.79,2.41,5.56,4.77,8.25,6.99.08.07.13.17.14.28s-.05.21-.13.29c-1.92,1.68-3.94,3.21-6.38,4.98-10.91,7.95-22,15.37-32.99,22.06-7.86,4.79-17.23,10.17-27.14,13.79-.04.01-.09.02-.13.02ZM12.78,74.2c2.15,2.22,4.53,4.56,7.08,6.97,9.77-3.6,19.02-8.92,26.79-13.65,10.97-6.68,22.05-14.09,32.94-22.02h0c2.28-1.66,4.19-3.1,5.99-4.65-2.51-2.08-5.09-4.27-7.68-6.51-1.77,1.48-3.65,2.88-5.43,4.17-10.9,7.94-22,15.36-32.99,22.06-7.74,4.72-16.95,10.01-26.7,13.63Z"/>
          </g>
          <g>
            <path class="cls-6" d="M66.73,31.96c1.63-1.19,3.26-2.4,4.84-3.68-3.91-3.49-6.38-5.79-6.38-5.79-8.09,6.48-24.14,17.52-43.05,27.32-6.95,3.6-14.29,7.04-21.76,10.02,1.6,2.52,6.73,4.76,9.11,7.54,9.59-3.47,15.55-8.06,24.28-13.37,11.29-6.88,22.28-14.25,32.96-22.04Z"/>
            <path class="cls-4" d="M9.49,67.75c-.11,0-.21-.05-.28-.13-1.09-1.28-2.82-2.46-4.48-3.6-1.94-1.33-3.78-2.59-4.66-3.98-.06-.09-.07-.21-.04-.32.03-.11.11-.19.22-.23,6.99-2.79,14.3-6.16,21.73-10,18.67-9.68,34.83-20.75,42.99-27.28.15-.12.35-.11.49.02.02.02,2.51,2.33,6.37,5.78.08.07.13.18.13.29,0,.11-.05.21-.14.28-1.6,1.3-3.28,2.54-4.85,3.69h0c-10.91,7.95-22.01,15.37-32.99,22.06-2.02,1.23-3.88,2.41-5.68,3.56-6.04,3.84-11.25,7.16-18.66,9.84-.04.02-.08.02-.13.02ZM.96,60.01c.89,1.13,2.5,2.23,4.19,3.39,1.62,1.11,3.3,2.26,4.46,3.54,7.21-2.64,12.34-5.91,18.28-9.69,1.81-1.15,3.67-2.34,5.69-3.57,10.96-6.68,22.05-14.09,32.94-22.02h0c1.45-1.06,2.99-2.2,4.48-3.39-3.01-2.69-5.13-4.65-5.82-5.28-8.27,6.58-24.33,17.56-42.86,27.16-7.29,3.78-14.47,7.09-21.35,9.86ZM66.73,31.96h0,0Z"/>
          </g>
          <g>
            <path class="cls-3" d="M72.25,38.22c1.91-1.39,3.84-2.83,5.66-4.36-2.37-2.05-4.51-3.94-6.34-5.57-1.57,1.28-3.21,2.49-4.84,3.68-10.69,7.79-21.67,15.16-32.96,22.04-8.73,5.32-14.69,9.9-24.28,13.37,1.76,2.05.63,4.6,2.62,6.68,9.53-3.47,18.49-8.5,27.18-13.79,11.29-6.88,22.28-14.25,32.96-22.04Z"/>
            <path class="cls-4" d="M12.11,74.42c-.1,0-.2-.04-.27-.11-1.12-1.16-1.32-2.44-1.52-3.68-.17-1.08-.34-2.11-1.11-3.01-.08-.09-.11-.22-.08-.34.03-.12.12-.21.24-.26,7.33-2.66,12.52-5.95,18.52-9.77,1.81-1.15,3.67-2.34,5.69-3.57,10.96-6.68,22.05-14.09,32.94-22.02,1.57-1.14,3.23-2.38,4.82-3.67.14-.12.35-.11.49.01,2.09,1.86,4.22,3.74,6.34,5.57.08.07.13.18.13.29,0,.11-.05.21-.13.29-1.84,1.56-3.82,3.02-5.68,4.38h0c-10.9,7.94-22,15.36-32.99,22.06-7.88,4.8-17.29,10.2-27.25,13.83-.04.01-.09.02-.13.02ZM10.09,67.55c.64.95.8,1.97.96,2.96.18,1.11.35,2.16,1.16,3.1,9.81-3.6,19.09-8.93,26.88-13.68,10.97-6.68,22.05-14.09,32.94-22.02,1.73-1.26,3.57-2.63,5.3-4.06-1.93-1.67-3.87-3.38-5.78-5.08-1.52,1.23-3.11,2.4-4.6,3.49-10.91,7.95-22.01,15.37-32.99,22.06-2.02,1.23-3.88,2.41-5.68,3.56-5.91,3.76-11.03,7.02-18.19,9.67ZM72.25,38.22h0,0Z"/>
          </g>
          <g>
            <path class="cls-8" d="M109.25,58.06c-2.5-1.55-5.19-3.39-7.95-5.39-5.3,5.59-11.52,10.4-17.77,14.95-15.15,11.05-31.33,21.31-49.09,27.01,3.54,2.98,5.84,4.81,5.84,4.81,33.22-8.87,68.97-41.39,68.97-41.39Z"/>
            <path class="cls-4" d="M40.27,99.82c-.08,0-.17-.03-.23-.08-.02-.02-2.35-1.87-5.85-4.81-.1-.09-.15-.23-.13-.36.03-.13.12-.24.25-.29,19.01-6.1,36.17-17.61,48.99-26.96,6.02-4.39,12.34-9.23,17.72-14.91.13-.14.34-.16.49-.05,2.91,2.11,5.58,3.92,7.93,5.37.1.06.17.17.18.28s-.03.23-.12.31c-.36.33-36.21,32.68-69.13,41.47-.03,0-.06.01-.1.01ZM35.19,94.78c2.72,2.28,4.64,3.82,5.17,4.25,30.9-8.33,64.38-37.47,68.27-40.92-2.19-1.37-4.63-3.03-7.28-4.95-5.37,5.61-11.63,10.41-17.59,14.76-12.72,9.27-29.7,20.67-48.56,26.86Z"/>
          </g>
          <g>
            <path class="cls-1" d="M101.29,52.67c-2.41-1.74-4.87-3.61-7.33-5.54-2.08,1.84-4.33,3.52-6.57,5.15-10.69,7.79-21.67,15.16-32.96,22.04-8.77,5.34-17.81,10.41-27.44,13.89,2.77,2.46,5.32,4.65,7.44,6.43,17.77-5.7,33.94-15.97,49.09-27.01,6.25-4.56,12.47-9.36,17.77-14.95Z"/>
            <path class="cls-4" d="M34.43,95.01c-.09,0-.17-.03-.24-.09-2.52-2.12-5.02-4.28-7.44-6.44-.1-.09-.14-.22-.12-.35.02-.13.12-.24.24-.28,10-3.61,19.45-9.03,27.37-13.85,10.97-6.68,22.05-14.09,32.94-22.02,2.03-1.48,4.38-3.21,6.54-5.13.14-.12.34-.13.48-.01,2.56,2.01,5.03,3.87,7.32,5.53.09.06.14.16.15.27,0,.11-.03.21-.1.29-5.42,5.72-11.77,10.59-17.82,15-12.87,9.38-30.08,20.93-49.2,27.07-.04.01-.08.02-.11.02ZM27.71,88.34c2.22,1.96,4.5,3.94,6.8,5.87,18.93-6.12,36.01-17.58,48.79-26.89,5.91-4.31,12.11-9.06,17.42-14.6-2.13-1.55-4.4-3.26-6.75-5.1-2.12,1.85-4.39,3.53-6.36,4.96-10.91,7.95-22,15.37-32.99,22.06-7.8,4.75-17.07,10.08-26.91,13.7Z"/>
          </g>
          <g>
            <path class="cls-9" d="M87.39,52.28c2.23-1.63,4.49-3.31,6.57-5.15-2.64-2.06-5.26-4.19-7.8-6.28-2.02,1.76-4.19,3.39-6.35,4.96-10.69,7.79-21.67,15.16-32.96,22.04-8.66,5.27-17.58,10.29-27.08,13.76,2.47,2.33,4.92,4.56,7.22,6.6,9.63-3.47,18.67-8.55,27.44-13.89,11.29-6.88,22.28-14.25,32.96-22.04Z"/>
            <path class="cls-4" d="M26.99,88.58c-.09,0-.18-.03-.25-.09-2.51-2.23-4.94-4.45-7.23-6.61-.09-.09-.14-.22-.11-.35.03-.13.12-.23.24-.28,9.85-3.6,19.18-8.96,27.01-13.73,10.97-6.68,22.05-14.09,32.94-22.02,2.42-1.76,4.42-3.28,6.32-4.94.14-.12.34-.12.49,0,2.68,2.22,5.3,4.33,7.79,6.28.09.07.14.17.14.28,0,.11-.04.22-.13.29-2.19,1.93-4.55,3.68-6.59,5.17-10.91,7.95-22,15.37-32.99,22.06-7.96,4.85-17.44,10.29-27.51,13.92-.04.02-.08.02-.13.02ZM20.47,81.75c2.1,1.97,4.31,4,6.6,6.03,9.92-3.61,19.29-8.98,27.16-13.78,10.97-6.68,22.05-14.09,32.94-22.02h0c1.92-1.4,4.13-3.04,6.2-4.83-2.31-1.81-4.73-3.77-7.2-5.81-1.85,1.6-3.8,3.07-6.14,4.77-10.91,7.95-22,15.37-32.99,22.06-7.71,4.7-16.87,9.96-26.57,13.58Z"/>
          </g>
        </g>
        <path class="cls-4" d="M45.28,63.42c-.19,0-.35-.14-.37-.34-.02-.21.13-.39.34-.41,5.17-.52,10.09-3.33,13.15-7.53,2.21-3.03,3.64-6.93,4.24-11.58.54-4.16.37-8.44.21-12.57,0-.21.15-.38.36-.39.2.03.38.15.39.36.16,4.17.33,8.47-.22,12.7-.62,4.78-2.09,8.79-4.37,11.93-3.19,4.37-8.3,7.3-13.68,7.84-.01,0-.02,0-.04,0Z"/>
        <path class="cls-4" d="M18.46,67.43c-.06,0-.12-.01-.17-.04-.18-.09-.26-.32-.16-.5,1.86-3.63,3.58-7.39,5.11-11.19.08-.19.3-.29.49-.21.19.08.29.29.21.49-1.53,3.81-3.26,7.6-5.14,11.25-.07.13-.2.2-.33.2Z"/>
      </g>
      <g>
        <path class="cls-5" d="M68.92,24.31l-1.49-2.57h-3.22s-1.02,1.51.08,1.78,1.72.33,1.72.33l.34,1.56.08.03c1,.37,2.11-.14,2.49-1.14h0Z"/>
        <path class="cls-4" d="M67.1,25.94c-.27,0-.54-.05-.8-.14-.12-.04-.29-.18-.32-.3l-.29-1.3c-.29-.04-.8-.13-1.5-.3-.46-.11-.65-.39-.73-.6-.26-.68.31-1.58.43-1.75.07-.1.19-.17.31-.17h3.22s0,0,0,0c.13,0,.26.07.32.19l1.49,2.57c.06.1.07.21.03.32-.35.93-1.23,1.5-2.17,1.5ZM66.67,25.12c.76.2,1.51-.14,1.83-.79l-1.29-2.22h-2.8c-.17.3-.32.71-.25.9.01.03.04.1.21.14,1.06.26,1.66.32,1.66.32.16.02.3.13.33.29l.3,1.35Z"/>
      </g>
      <g>
        <path class="cls-5" d="M23.75,48.86c.24.09.49.19.67.37s.27.48.15.7c-.18.34-.69.34-.96.61-.26.26-.25.72-.52.97-.17.16-.43.21-.66.24-.37.06-.74.11-1.11.13-.59.03-1.27-.1-1.52-.7-.22-.51-.06-.92.33-1.27.44-.4.94-.94,1.48-1.19.69-.33,1.48-.12,2.16.13Z"/>
        <path class="cls-4" d="M21.17,52.27c-.86,0-1.47-.33-1.73-.93-.19-.43-.26-1.08.42-1.7l.28-.26c.38-.36.82-.77,1.29-1,.82-.39,1.74-.14,2.45.12h0c.28.1.57.22.81.46.31.32.4.79.21,1.14-.17.31-.47.44-.71.53-.13.05-.26.1-.32.17-.07.07-.12.2-.17.34-.08.21-.16.45-.36.64-.26.25-.61.3-.86.34-.38.06-.76.11-1.15.13-.05,0-.11,0-.16,0ZM22.38,48.94c-.22,0-.43.04-.63.13-.37.18-.76.54-1.1.87l-.29.27c-.36.33-.35.57-.24.85.18.42.73.49,1.16.47.36-.02.71-.07,1.07-.12.16-.02.37-.06.46-.14.07-.07.12-.2.17-.34.07-.2.15-.43.34-.62.17-.17.38-.26.57-.33.15-.06.29-.12.33-.19.03-.05,0-.18-.09-.27-.12-.13-.32-.2-.52-.28h0c-.4-.14-.83-.28-1.24-.28Z"/>
      </g>
      <g>
        <path class="cls-5" d="M35.29,41.44c.55-.35,1.25-.34,1.9-.31.43.02.89.04,1.25.29.18.12.34.35.26.56-.08.22-.36.28-.6.31-.21.02-.42.04-.63.07-.19.02-.38.04-.54.15-.17.12-.27.32-.41.48-.31.34-.81.42-1.27.45-.46.04-1.26-.08-1.13-.75.08-.42.82-1.02,1.16-1.24Z"/>
        <path class="cls-4" d="M35.1,43.81c-.31,0-.84-.06-1.15-.4-.13-.15-.27-.41-.2-.8.14-.71,1.32-1.48,1.33-1.49h0c.67-.43,1.51-.39,2.12-.37.42.02.99.04,1.45.36.3.21.54.6.4.99-.17.47-.73.53-.91.55l-.62.07c-.13.01-.28.03-.37.09-.05.04-.11.12-.17.2-.05.08-.11.15-.17.22-.39.43-.96.53-1.52.58-.04,0-.11,0-.19,0ZM35.49,41.75c-.41.26-.95.78-1,1-.02.11,0,.14.02.15.1.11.41.18.71.15.4-.03.81-.1,1.02-.33.04-.05.08-.1.12-.15.09-.13.19-.27.36-.38.24-.16.51-.19.71-.21l.62-.07c.24-.02.29-.07.29-.07,0,0-.05-.05-.13-.1-.26-.18-.62-.21-1.05-.22-.66-.03-1.25-.03-1.68.25h0Z"/>
      </g>
      <g>
        <g>
          <polygon class="cls-5" points="100.22 53.41 93.7 52.2 95.04 48.77 99.84 48.77 100.22 53.41"/>
          <path class="cls-4" d="M100.22,53.79s-.05,0-.07,0l-6.52-1.21c-.11-.02-.21-.09-.26-.19-.05-.1-.06-.21-.02-.32l1.34-3.43c.06-.14.19-.24.35-.24h4.79c.19,0,.36.15.37.34l.39,4.64c0,.12-.04.23-.12.31-.07.06-.16.1-.25.1ZM94.22,51.91l5.59,1.04-.32-3.81h-4.19l-1.08,2.77Z"/>
        </g>
        <g>
          <path class="cls-5" d="M102.38,43.75c.1,3.2-1.68,5.85-4.5,5.93-2.82.08-5.62-2.43-5.72-5.63s2.11-5.86,4.94-5.95,5.19,2.44,5.28,5.64Z"/>
          <path class="cls-4" d="M97.74,50.06c-1.42,0-2.88-.61-4-1.69-1.21-1.16-1.9-2.69-1.95-4.31-.1-3.4,2.28-6.24,5.3-6.33,1.47-.02,2.88.56,3.95,1.71,1.06,1.13,1.67,2.66,1.72,4.3h0c.11,3.58-1.94,6.23-4.86,6.32-.05,0-.1,0-.15,0ZM97.23,38.48s-.08,0-.13,0c-2.61.08-4.66,2.57-4.57,5.56.04,1.42.65,2.77,1.72,3.79,1.02.98,2.34,1.51,3.61,1.48,2.49-.08,4.23-2.41,4.14-5.55h0c-.04-1.46-.58-2.81-1.52-3.81-.89-.95-2.04-1.47-3.25-1.47Z"/>
        </g>
        <g>
          <path class="cls-7" d="M102.87,87.85l-.03,2.04,1.21.34c1.07.3,1.75,1.35,1.58,2.45l-.17,1.12-7.56-2.42,1.26-4.22,3.71.69Z"/>
          <path class="cls-4" d="M105.47,94.17s-.08,0-.11-.02l-7.56-2.42c-.19-.06-.3-.27-.25-.46l1.26-4.22c.05-.18.24-.29.43-.26l3.71.69c.18.03.31.19.31.38l-.03,1.75.93.26c1.26.35,2.05,1.58,1.85,2.87l-.17,1.12c-.02.11-.08.2-.17.26-.06.04-.13.06-.2.06ZM98.37,91.13l6.79,2.17.11-.69c.14-.91-.42-1.79-1.31-2.04l-1.21-.34c-.16-.05-.28-.2-.27-.37l.03-1.72-3.06-.57-1.06,3.55Z"/>
        </g>
        <g>
          <path class="cls-7" d="M78.91,76.06l-2.72-.18-.49,1.04c-.47,1-1.66,1.45-2.68,1l-1.19-.53,2.72-6.5,5.11,1.39-.76,3.78Z"/>
          <path class="cls-4" d="M73.85,78.46c-.32,0-.65-.07-.97-.2l-1.19-.53c-.19-.08-.27-.3-.19-.49l2.72-6.5c.07-.17.26-.27.44-.22l5.11,1.4c.19.05.31.24.27.44l-.76,3.78c-.04.18-.21.32-.39.3l-2.46-.17-.38.8c-.41.87-1.29,1.39-2.2,1.39ZM72.33,77.19l.86.38c.82.36,1.8,0,2.18-.82l.49-1.04c.07-.14.2-.23.36-.21l2.39.16.62-3.11-4.46-1.22-2.45,5.86Z"/>
        </g>
        <g>
          <path class="cls-1" d="M103.13,63.5l1.34,1.89c1.13,1.61,1.75,3.52,1.75,5.49l.22,6.54-3.56,10.42-3.71-.69-.62-8.51-2.86-3-6.44,3.59-10.69-3.18.94-3.83,6.43-.87,1.33-2.67c1.19-2.24,2.2-4.04,4.41-5.28l2.62.44"/>
          <path class="cls-4" d="M102.87,88.22s-.05,0-.07,0l-3.71-.69c-.17-.03-.29-.17-.31-.34l-.61-8.37-2.56-2.69-6.18,3.44c-.09.05-.19.06-.29.03l-10.69-3.18c-.19-.06-.31-.25-.26-.45l.94-3.83c.04-.15.16-.26.31-.28l6.23-.85,1.25-2.5c1.13-2.12,2.19-4.11,4.56-5.44.08-.04.16-.06.25-.04l2.62.44c.2.03.34.23.31.43s-.23.33-.43.31l-2.48-.42c-2.1,1.22-3.05,3.01-4.15,5.07l-1.33,2.66c-.06.11-.16.19-.29.2l-6.17.84-.8,3.24,10.2,3.03,6.3-3.51c.15-.08.34-.06.45.07l2.86,3c.06.06.1.14.1.23l.6,8.22,3.1.58,3.43-10.04-.22-6.47c0-1.91-.59-3.74-1.68-5.29l-1.34-1.89c-.12-.17-.08-.4.09-.52.17-.12.4-.08.52.09l1.34,1.89c1.18,1.68,1.81,3.65,1.82,5.71l.22,6.53s0,.09-.02.13l-3.56,10.42c-.05.15-.2.25-.35.25Z"/>
        </g>
        <g>
          <polyline class="cls-5" points="90.31 51.82 86.02 55.28 81.91 56.09 78.21 55.75 75.67 58.67 78.35 59.67 80.69 59.11 87.03 60.52 93.29 58.97"/>
          <path class="cls-4" d="M87.03,60.89s-.05,0-.08,0l-6.25-1.38-2.26.54c-.07.02-.15.01-.22-.01l-2.69-1c-.12-.04-.2-.14-.23-.26s0-.25.08-.34l2.54-2.92c.08-.09.2-.14.32-.13l3.65.34,3.96-.79,4.22-3.4c.16-.13.4-.1.53.06.13.16.1.4-.06.53l-4.29,3.46s-.1.06-.16.08l-4.11.82s-.07,0-.11,0l-3.51-.33-2.06,2.37,2.07.77,2.23-.53c.06-.01.11-.01.17,0l6.25,1.38,6.18-1.53c.2-.04.4.07.45.27.05.2-.07.4-.27.45l-6.26,1.55s-.06.01-.09.01Z"/>
        </g>
        <g>
          <path class="cls-9" d="M90.31,51.82l4.35-1.6s2.61,1.79,5.39.08l4.62,1.42,1,8.01s.32,2.64-2.22,4.1c-4.44,2.52-12.25,0-12.25,0,0,0-2.51-1.46-2.18-5.14.37-3.05.98-5.27,1.28-6.87Z"/>
          <path class="cls-4" d="M98.28,65.33c-3.59,0-6.98-1.08-7.19-1.15-.18-.1-2.79-1.65-2.43-5.53.27-2.21.66-3.98.97-5.4.12-.56.23-1.06.32-1.51.02-.13.12-.24.24-.28l4.35-1.6c.11-.04.24-.03.34.04.1.07,2.46,1.63,4.99.07.09-.06.2-.07.31-.04l4.62,1.42c.14.04.24.17.26.31l1,8.01c.01.12.32,2.91-2.4,4.47-1.56.88-3.48,1.18-5.35,1.18ZM91.39,63.51s7.64,2.4,11.87,0c2.28-1.31,2.04-3.63,2.03-3.73l-.97-7.77-4.23-1.3c-2.52,1.45-4.85.31-5.49-.07l-3.98,1.46c-.08.4-.18.84-.28,1.32-.31,1.41-.69,3.15-.95,5.32-.31,3.4,1.97,4.76,1.99,4.77h0Z"/>
        </g>
        <g>
          <path class="cls-5" d="M104.67,51.72c1.56.16,2.54,1.81,3.18,3.08.86,1.71,1.34,3.58,1.28,5.5-.02.57-.09,1.17-.43,1.63-.43.58-1.21.82-1.93.74-.64-.07-1.48-.37-1.95-.83s-1.09-4-1.09-4l.93-6.13Z"/>
          <path class="cls-4" d="M107.06,63.07c-.11,0-.21,0-.32-.02-.68-.07-1.62-.39-2.17-.93-.51-.5-1.01-3.11-1.2-4.21,0-.04,0-.08,0-.12l.93-6.13c.03-.2.21-.33.41-.32,1.7.17,2.75,1.85,3.48,3.29.94,1.85,1.38,3.76,1.32,5.68-.02.6-.09,1.29-.5,1.84-.42.57-1.15.91-1.95.91ZM104.12,57.84c.28,1.61.73,3.48.98,3.74.42.41,1.19.66,1.73.72.65.07,1.27-.16,1.59-.59.29-.39.34-.94.36-1.42.05-1.79-.37-3.58-1.24-5.32-.58-1.16-1.39-2.48-2.54-2.81l-.86,5.68Z"/>
        </g>
        <path class="cls-4" d="M95.05,74.86c-.09,0-.18-.03-.26-.1-.11-.1-2.71-2.61-1.69-7.35.04-.2.25-.33.45-.29.2.04.33.24.29.45-.93,4.33,1.45,6.62,1.47,6.65.15.14.16.38.02.53-.07.08-.17.12-.27.12Z"/>
        <g>
          <polygon class="cls-1" points="97.22 68.71 102.13 68.71 101.97 72.67 98.89 73.86 97.22 72.35 97.22 68.71"/>
          <path class="cls-4" d="M98.89,74.23c-.09,0-.18-.03-.25-.1l-1.67-1.5c-.08-.07-.12-.17-.12-.28v-3.64c0-.21.17-.38.38-.38h4.91c.1,0,.2.04.27.12s.11.17.1.27l-.16,3.96c0,.15-.1.28-.24.33l-3.09,1.19s-.09.03-.13.03ZM97.59,72.19l1.37,1.24,2.64-1.02.13-3.32h-4.15v3.1Z"/>
        </g>
        <g>
          <path class="cls-4" d="M93.27,39.11c-.92,1.07-1.45,2.53-1.48,3.85-.04,1.4.36,2.79.98,4.05.25.5.54,1.02.52,1.58,0,.13-.02.26.05.37.05.07.13.12.22.15.9.38,1.94.19,2.84-.2s1.69-.97,2.55-1.43c.99-.52,2.11-.9,2.84-1.76,1.09-1.28,1.17-3.02.73-4.57-.32-1.11-.94-2.17-1.9-2.81s-2.29-.79-3.28-.19c-.56-.53-1.44-.61-2.17-.37s-1.38.72-1.9,1.32Z"/>
          <path class="cls-4" d="M94.63,49.69c-.44,0-.85-.08-1.23-.23-.12-.05-.28-.13-.38-.29-.13-.19-.12-.4-.11-.54.02-.46-.19-.87-.4-1.3l-.07-.15c-.71-1.45-1.05-2.87-1.02-4.22.04-1.46.63-2.99,1.57-4.09.59-.69,1.29-1.17,2.06-1.43.83-.28,1.71-.17,2.33.27,1.04-.5,2.38-.37,3.44.33.95.63,1.68,1.71,2.05,3.02.54,1.89.24,3.68-.81,4.91-.61.72-1.44,1.12-2.25,1.5-.23.11-.47.22-.7.34-.34.18-.67.38-1,.58-.5.3-1.02.62-1.57.86-.66.29-1.31.43-1.91.43ZM95.96,38.04c-.22,0-.45.04-.68.11-.64.22-1.23.62-1.73,1.21h0c-.82.96-1.36,2.34-1.39,3.62-.03,1.23.28,2.53.94,3.87l.07.14c.24.48.51,1.02.48,1.62,0,.09,0,.15,0,.17.97.38,2.03.03,2.58-.21.51-.22.98-.51,1.49-.81.34-.21.69-.41,1.04-.6.24-.12.48-.24.72-.36.77-.37,1.5-.72,2.01-1.31.89-1.04,1.13-2.58.66-4.22-.32-1.14-.94-2.07-1.75-2.6-.9-.6-2.06-.68-2.88-.18-.14.09-.33.07-.45-.05-.27-.26-.68-.4-1.11-.4ZM93.27,39.12h0,0Z"/>
        </g>
        <g>
          <path class="cls-4" d="M90.47,49.41c-.34-.56-1.1-.74-1.74-.6s-1.18.55-1.69.96c.17-.42-.11-.93-.51-1.13s-.89-.18-1.34-.1c-.59.11-1.16.31-1.68.59.02,1.22.93,2.36,2.11,2.67.52.13,1.25-.03,1.3-.56.63.37,1.33.62,2.06.73.45.07.94.08,1.34-.15s.65-.76.44-1.16c.63.1,1.27.13,1.91.07,1.29-.11,2.64-1.52,1.41-2.7-1.33-1.27-2.96.16-3.6,1.38Z"/>
          <path class="cls-4" d="M89.48,52.38c-.21,0-.41-.02-.57-.05-.63-.1-1.25-.3-1.82-.58-.06.08-.13.14-.22.2-.35.24-.88.32-1.35.2-1.34-.35-2.36-1.65-2.39-3.02,0-.14.07-.27.2-.34.56-.3,1.17-.52,1.79-.63.41-.07,1.03-.15,1.58.14.29.15.55.42.68.74.38-.26.8-.49,1.27-.6.64-.14,1.3,0,1.75.35.51-.75,1.31-1.46,2.19-1.6.63-.1,1.23.09,1.73.57.55.53.73,1.17.51,1.8-.28.8-1.2,1.46-2.15,1.54-.5.04-1,.04-1.49,0-.04.43-.33.84-.7,1.05-.33.19-.68.24-1.01.24ZM86.91,50.85c.07,0,.13.02.19.05.58.34,1.25.58,1.92.69.49.07.84.04,1.09-.1.23-.13.4-.45.29-.66-.07-.13-.06-.28.03-.39.08-.12.22-.17.37-.15.6.1,1.21.12,1.81.07.66-.06,1.32-.51,1.51-1.04.12-.35.02-.69-.32-1.01-.33-.32-.69-.44-1.09-.37-.76.12-1.54.93-1.92,1.65-.06.12-.18.2-.32.2-.13,0-.26-.06-.33-.18-.26-.42-.86-.54-1.33-.43-.57.13-1.07.51-1.53.89-.13.11-.32.11-.46,0-.14-.1-.19-.29-.12-.44.09-.23-.1-.53-.34-.66-.26-.13-.61-.16-1.1-.07-.47.09-.93.24-1.36.45.12.97.86,1.84,1.81,2.08.25.07.57.03.73-.08.08-.05.09-.11.1-.15.01-.13.09-.24.2-.3.05-.03.11-.04.17-.04Z"/>
        </g>
        <g>
          <path class="cls-4" d="M80.78,45.7c-.59.42-1.18.89-1.5,1.55s-.27,1.54.29,2c.36.3.86.37,1.3.53-.58.34-1.22.58-1.88.71.77.48,1.72.65,2.62.49.6-.11,1.35-.38,1.77-.84.61-.66.04-.86-.51-1.26-1.04-.76-1.81-1.91-2.09-3.18Z"/>
          <path class="cls-4" d="M80.96,51.41c-.76,0-1.52-.21-2.17-.61-.13-.08-.2-.23-.17-.38.03-.15.14-.27.29-.3.33-.07.64-.16.95-.28-.19-.08-.37-.17-.54-.31-.74-.61-.75-1.69-.39-2.45.36-.74,1.02-1.26,1.61-1.69.1-.07.23-.09.35-.05.12.04.21.15.23.27.25,1.15.96,2.23,1.95,2.95.08.06.15.11.23.16.32.21.64.43.69.82.03.27-.08.54-.36.84-.62.67-1.67.9-1.98.96-.23.04-.47.06-.71.06ZM80.1,50.55c.47.12.97.14,1.44.06.52-.09,1.19-.33,1.56-.73.16-.17.16-.24.16-.24-.02-.06-.23-.2-.36-.29-.08-.05-.17-.11-.25-.17-.97-.71-1.71-1.73-2.08-2.85-.39.31-.74.65-.95,1.08-.24.49-.23,1.2.19,1.54.2.16.47.25.77.33.14.04.29.09.43.14.14.05.23.18.24.32.01.14-.06.28-.19.36-.31.18-.63.33-.95.45Z"/>
        </g>
      </g>
    </g>
  </g>
</svg>