<?xml version="1.0" encoding="UTF-8"?>
<svg id="_圖層_2" data-name="圖層 2" xmlns="http://www.w3.org/2000/svg" viewBox="0 0 92.76 92.47">
  <defs>
    <style>
      .cls-1 {
        fill: #000;
      }

      .cls-1, .cls-2, .cls-3, .cls-4 {
        stroke-width: 0px;
      }

      .cls-2 {
        fill: #fecfa9;
      }

      .cls-3 {
        fill: #383838;
      }

      .cls-4 {
        fill: #fff;
      }
    </style>
  </defs>
  <g id="_圖層_5" data-name="圖層 5">
    <g>
      <g>
        <g>
          <polygon class="cls-2" points="42.9 43.27 43.26 52.06 45.1 59.81 47.78 59.44 47.2 51.65 48.09 42 42.9 43.27"/>
          <path class="cls-1" d="M45.1,60.18c-.17,0-.32-.12-.37-.29l-1.84-7.75-.36-8.87c0-.18.11-.34.29-.38l5.19-1.26c.12-.03.24,0,.33.08.09.08.14.2.13.32l-.89,9.65.58,7.73c.01.2-.13.37-.32.4l-2.69.36s-.03,0-.05,0ZM43.29,43.56l.34,8.49,1.75,7.34,2-.27-.55-7.44.84-9.19-4.38,1.07Z"/>
        </g>
        <g>
          <polygon class="cls-4" points="47.4 54.43 44.06 54.88 45.01 58.78 47.62 58.36 47.4 54.43"/>
          <path class="cls-1" d="M45.01,59.15c-.17,0-.32-.12-.36-.29l-.95-3.9c-.03-.1,0-.21.05-.3.06-.09.15-.15.26-.16l3.34-.45c.11-.01.21.02.29.08.08.07.13.16.13.27l.22,3.93c.01.19-.12.36-.31.39l-2.61.42s-.04,0-.06,0ZM44.52,55.19l.77,3.16,1.94-.31-.18-3.18-2.52.34Z"/>
        </g>
        <g>
          <path class="cls-4" d="M47.58,58.15l-3.18.51-.47,1.48-2.89,1.37c-.59.3-.96.9-.98,1.56v.33c-.02.58.49,1.02,1.06.93l6.23-1.03c.67-.11,1.11-.75.97-1.41l-.76-3.73Z"/>
          <path class="cls-1" d="M40.98,64.71c-.31,0-.61-.11-.85-.32-.29-.25-.46-.62-.45-1.01v-.33c.03-.8.48-1.52,1.19-1.88l2.75-1.31.42-1.32c.04-.13.16-.23.3-.26l3.18-.51c.21-.03.39.1.43.3l.76,3.74c.08.42,0,.85-.25,1.2-.24.35-.61.59-1.03.66l-6.23,1.03c-.07.01-.14.02-.21.02ZM44.69,58.99l-.4,1.26c-.03.1-.1.18-.2.22l-2.89,1.37c-.45.23-.75.71-.76,1.23v.33c-.01.16.06.32.18.42.12.11.29.15.45.13l6.23-1.03c.22-.04.41-.16.54-.34.13-.18.17-.41.13-.63l-.69-3.38-2.59.42ZM43.93,60.14h0,0Z"/>
        </g>
        <g>
          <polygon class="cls-2" points="33.39 41.79 31.21 50.32 30.75 58.27 33.43 58.69 35.11 51.06 38.73 42.07 33.39 41.79"/>
          <path class="cls-1" d="M33.43,59.06s-.04,0-.06,0l-2.68-.42c-.19-.03-.33-.2-.32-.39l.46-7.95,2.19-8.6c.04-.17.18-.31.38-.28l5.33.28c.12,0,.23.07.3.17.06.1.08.23.03.34l-3.62,8.99-1.66,7.57c-.04.17-.19.29-.37.29ZM31.15,57.95l2,.31,1.6-7.29,3.44-8.56-4.5-.23-2.11,8.23-.43,7.54Z"/>
        </g>
        <g>
          <polygon class="cls-4" points="34.5 53.78 31.18 53.25 30.97 57.26 33.59 57.6 34.5 53.78"/>
          <path class="cls-1" d="M33.59,57.98s-.03,0-.05,0l-2.62-.34c-.19-.03-.34-.2-.33-.39l.21-4.01c0-.11.06-.21.14-.27.08-.07.19-.1.29-.08l3.33.53c.1.02.2.08.25.16.06.09.08.19.05.29l-.91,3.83c-.04.17-.19.29-.37.29ZM31.36,56.93l1.95.25.74-3.1-2.51-.4-.17,3.25Z"/>
        </g>
        <g>
          <path class="cls-4" d="M33.61,57.39l-3.19-.42-.88,1.28-3.16.49c-.65.12-1.18.59-1.38,1.21l-.1.31c-.18.55.19,1.13.76,1.2l6.27.8c.67.09,1.28-.4,1.34-1.07l.34-3.8Z"/>
          <path class="cls-1" d="M32.09,62.65c-.07,0-.14,0-.2-.01l-6.27-.8c-.38-.05-.72-.26-.93-.59s-.26-.73-.14-1.09l.1-.31c.25-.76.89-1.32,1.67-1.47l3.01-.46.79-1.15c.08-.12.22-.18.36-.16l3.19.42c.2.03.34.21.32.41l-.34,3.8c-.04.43-.24.81-.58,1.08-.28.23-.62.34-.98.34ZM30.6,57.37l-.75,1.09c-.06.09-.15.14-.25.16l-3.16.49c-.5.09-.92.46-1.08.96l-.1.31c-.05.16-.03.32.06.46.09.14.23.23.39.25l6.27.8c.22.03.44-.03.61-.17s.28-.34.3-.56l.31-3.44-2.6-.34Z"/>
        </g>
        <g>
          <path class="cls-1" d="M45.9,28.23l1.71,2.89c1.12,1.89,1.72,4.03,1.75,6.23l.09,6.08-7.53.78-1.06-5.18-2.04,4.81-6.65-1.41,5.53-14.51,8.2.32Z"/>
          <path class="cls-1" d="M41.93,44.59c-.18,0-.33-.12-.37-.3l-.82-4-1.57,3.7c-.07.17-.24.26-.42.22l-6.65-1.41c-.11-.02-.2-.09-.25-.19-.05-.1-.06-.21-.02-.31l5.53-14.51c.06-.15.21-.26.37-.24l8.2.32c.13,0,.24.07.31.18l1.71,2.89c1.15,1.94,1.77,4.16,1.8,6.41l.09,6.08c0,.19-.14.36-.34.38l-7.53.78s-.03,0-.04,0ZM40.86,38.65s.02,0,.04,0c.16.02.3.14.33.3l.99,4.85,6.85-.71-.08-5.74c-.03-2.12-.62-4.21-1.7-6.04l-1.61-2.72-7.72-.3-5.28,13.85,5.92,1.26,1.92-4.52c.06-.14.2-.23.35-.23Z"/>
        </g>
        <g>
          <path class="cls-2" d="M39.56,13.4l.55-2.54,3.96-.09.29,2.04s-.47,2.66-1.98,2.7-2.8-.78-2.82-2.1Z"/>
          <path class="cls-1" d="M42.26,15.88c-.94,0-1.79-.31-2.36-.85-.46-.44-.71-1-.72-1.62,0-.03,0-.06,0-.09l.55-2.54c.04-.17.18-.29.36-.3l3.96-.09c.18-.04.35.13.38.32l.29,2.04s0,.08,0,.12c-.02.12-.55,2.96-2.34,3.01-.04,0-.09,0-.13,0ZM39.94,13.44c.02.41.18.76.48,1.05.45.43,1.17.66,1.95.64.96-.03,1.48-1.64,1.62-2.33l-.24-1.65-3.33.08-.48,2.21Z"/>
        </g>
        <g>
          <polygon class="cls-4" points="36.05 20.73 37.2 29.59 47.32 29.64 50.5 19.2 49.03 13.78 44.57 12.03 41.39 15.25 39.69 12.03 34.83 13.89 32.09 23.58 37.21 25.25 36.05 20.73"/>
          <path class="cls-1" d="M47.32,30.01h0l-10.12-.04c-.19,0-.35-.14-.37-.33l-.56-4.3-4.3-1.41c-.19-.06-.3-.27-.24-.46l2.74-9.68c.03-.11.12-.21.23-.25l4.85-1.86c.18-.07.38,0,.46.17l1.46,2.76,2.82-2.85c.11-.11.27-.14.4-.09l4.46,1.75c.11.04.19.14.23.25l1.47,5.42c.02.07.02.14,0,.21l-3.18,10.44c-.05.16-.19.27-.36.27ZM37.53,29.22l9.51.04,3.07-10.07-1.39-5.13-4.05-1.59-3.01,3.04c-.08.09-.21.12-.32.11-.12-.02-.22-.09-.28-.2l-1.55-2.92-4.37,1.67-2.59,9.16,3.61,1.19-.49-3.74c-.03-.2.11-.38.3-.42.19-.04.38.08.43.28l1.16,4.53c.03.13,0,.27-.11.37-.1.09-.24.12-.37.08h-.03s.47,3.61.47,3.61Z"/>
        </g>
        <g>
          <path class="cls-2" d="M47.94,21.73l-.47,3.62-6.4-4.05-4.06.91,10.04,6.97c.83.58,1.93.62,2.8.1h0c.69-.41,1.15-1.13,1.25-1.93l.63-5.48-3.79-.13Z"/>
          <path class="cls-1" d="M48.53,30.01c-.59,0-1.19-.18-1.69-.53l-10.04-6.97c-.12-.08-.18-.23-.15-.38.03-.15.14-.26.29-.29l4.06-.91c.1-.02.2,0,.28.05l5.9,3.73.4-3.04c.02-.19.17-.33.38-.33l3.79.13c.1,0,.2.05.27.13.07.08.1.18.09.29l-.63,5.48c-.1.91-.64,1.74-1.43,2.21-.47.28-.99.42-1.52.42ZM37.92,22.38l9.34,6.49c.71.49,1.65.53,2.4.08.59-.35.99-.97,1.07-1.65l.58-5.08-3.04-.11-.43,3.28c-.02.13-.1.24-.21.29-.12.05-.25.05-.36-.02l-6.26-3.96-3.08.69Z"/>
        </g>
        <g>
          <polyline class="cls-4" points="47.65 20.73 47.32 24.37 52.34 24.64 51.24 14.89 49.03 13.78 47.62 13.23"/>
          <path class="cls-1" d="M52.34,25.01s-.01,0-.02,0l-5.01-.26c-.1,0-.2-.05-.26-.13-.07-.08-.1-.18-.09-.28l.33-3.64c.02-.21.2-.37.41-.34.21.02.36.2.34.41l-.29,3.25,4.18.22-1.02-9.11-2.03-1.01-1.38-.54c-.19-.08-.29-.29-.21-.49.08-.19.29-.29.49-.21l1.41.55,2.24,1.12c.11.06.19.17.21.29l1.09,9.75c.01.11-.02.22-.1.3-.07.08-.17.12-.27.12Z"/>
        </g>
        <g>
          <g>
            <polygon class="cls-3" points="23 27.01 20.51 23.93 31.22 16.44 32.65 18.21 23 27.01"/>
            <path class="cls-1" d="M23,27.38s-.02,0-.03,0c-.1,0-.2-.06-.26-.14l-2.49-3.08c-.07-.08-.09-.18-.08-.29.01-.1.07-.2.16-.25l10.71-7.49c.16-.11.38-.08.51.07l1.43,1.77c.12.15.11.38-.04.51l-9.65,8.8c-.07.06-.16.1-.25.1ZM21.05,24.01l1.98,2.46,9.1-8.29-.99-1.23-10.09,7.06Z"/>
          </g>
          <g>
            <polygon class="cls-3" points="24.94 30.65 23.19 27.17 32.26 17.74 33.98 19.23 24.94 30.65"/>
            <path class="cls-1" d="M24.94,31.03s-.03,0-.04,0c-.13-.01-.24-.09-.3-.21l-1.75-3.48c-.07-.14-.05-.31.06-.43l9.07-9.44c.14-.14.37-.15.52-.02l1.72,1.5c.15.13.17.36.05.51l-9.04,11.42c-.07.09-.18.14-.29.14ZM23.64,27.24l1.36,2.72,8.46-10.68-1.18-1.03-8.64,8.99Z"/>
          </g>
          <g>
            <polygon class="cls-3" points="28.54 32.82 25.15 30.78 33.51 18.83 35.47 20 28.54 32.82"/>
            <path class="cls-1" d="M28.54,33.2c-.07,0-.13-.02-.19-.05l-3.39-2.04c-.09-.05-.15-.14-.17-.24s0-.21.06-.29l8.36-11.95c.11-.16.33-.21.5-.11l1.95,1.18c.17.1.23.32.14.5l-6.92,12.82c-.05.09-.13.16-.23.18-.03,0-.07.01-.1.01ZM25.69,30.67l2.71,1.63,6.57-12.16-1.34-.81-7.93,11.34Z"/>
          </g>
          <g>
            <polygon class="cls-3" points="32.47 34.33 28.78 32.91 34.94 19.69 37.06 20.51 32.47 34.33"/>
            <path class="cls-1" d="M32.47,34.71s-.09,0-.13-.03l-3.69-1.42c-.1-.04-.17-.11-.21-.21-.04-.1-.04-.21,0-.3l6.16-13.22c.08-.18.29-.27.47-.19l2.13.82c.19.07.28.28.22.47l-4.59,13.83c-.03.1-.1.18-.2.22-.05.02-.11.04-.16.04ZM29.29,32.71l2.95,1.14,4.36-13.11-1.46-.56-5.84,12.54Z"/>
          </g>
          <g>
            <polygon class="cls-3" points="36.6 35.14 32.72 34.38 36.49 20.29 38.73 20.73 36.6 35.14"/>
            <path class="cls-1" d="M36.6,35.51s-.05,0-.07,0l-3.88-.76c-.1-.02-.19-.08-.25-.17-.05-.09-.07-.19-.04-.29l3.77-14.09c.05-.19.23-.31.43-.27l2.24.44c.2.04.33.22.3.42l-2.12,14.41c-.01.1-.07.19-.15.25-.06.05-.14.07-.22.07ZM33.19,34.09l3.1.61,2.01-13.67-1.54-.3-3.58,13.36Z"/>
          </g>
          <g>
            <polygon class="cls-3" points="40.81 35.21 36.86 35.14 38.12 20.61 40.4 20.65 40.81 35.21"/>
            <path class="cls-1" d="M40.81,35.59h0l-3.96-.07c-.1,0-.2-.05-.27-.12-.07-.08-.1-.18-.1-.28l1.27-14.53c.02-.2.19-.36.38-.34l2.28.04c.2,0,.36.16.37.36l.41,14.56c0,.1-.04.2-.11.27-.07.07-.17.11-.27.11ZM37.26,34.77l3.16.06-.39-13.81-1.57-.03-1.2,13.78Z"/>
          </g>
        </g>
        <g>
          <path class="cls-2" d="M42.18,21.36l-1.44-2.48h-3.12s-.99,1.46.08,1.72,1.66.32,1.66.32l.33,1.51.08.03c.97.36,2.04-.13,2.41-1.1h0Z"/>
          <path class="cls-1" d="M40.42,22.95c-.26,0-.52-.04-.78-.14-.12-.04-.29-.18-.32-.3l-.27-1.25c-.28-.04-.77-.13-1.44-.29-.45-.11-.63-.38-.71-.58-.26-.67.3-1.54.41-1.71.07-.1.19-.17.31-.17h3.12c.13,0,.26.07.32.18l1.44,2.48c.06.1.07.21.03.32-.34.9-1.2,1.46-2.11,1.46ZM40.01,22.14c.73.18,1.43-.14,1.75-.75l-1.24-2.13h-2.69c-.16.29-.3.68-.23.86,0,.02.03.09.19.12,1.02.25,1.6.31,1.61.31.16.02.3.13.33.29l.28,1.3Z"/>
        </g>
        <path class="cls-1" d="M43.94,17.98c-.09,0-.18-.04-.25-.1l-2.33-2.16-2.47,1.71c-.11.08-.25.09-.37.03s-.2-.17-.21-.3l-.43-4.55c-.02-.21.13-.39.34-.41.2-.01.39.13.41.34l.37,3.91,2.19-1.52c.14-.1.34-.09.47.03l2.2,2.03,2.41-4.37c.1-.18.33-.25.51-.15.18.1.25.33.15.51l-2.64,4.79c-.06.1-.15.17-.27.19-.02,0-.04,0-.06,0Z"/>
        <g>
          <path class="cls-1" d="M48.91,12.36c.24,1.12.15,2.27-.43,3.32-.61,1.09-1.68,1.91-2.89,2.22.63-1.06.84-2.32.83-3.55s-.21-2.45-.34-3.67c-.04-.38-.07-.79.1-1.13s.62-.6,1-.46c.36.13.59.62.78.93.44.72.79,1.52.96,2.34Z"/>
          <path class="cls-1" d="M45.58,18.28c-.12,0-.23-.05-.3-.15-.09-.12-.1-.29-.02-.42.52-.87.79-2,.78-3.35,0-.87-.11-1.75-.22-2.61-.04-.34-.08-.68-.12-1.02-.04-.44-.07-.91.13-1.33.23-.48.88-.86,1.46-.65.43.15.69.6.88.93l.09.15c.49.79.84,1.64,1.01,2.46h0c.27,1.3.11,2.54-.47,3.58-.66,1.17-1.83,2.07-3.13,2.4-.03,0-.06.01-.09.01ZM46.95,9.43c-.17,0-.37.14-.44.29-.12.25-.1.58-.06.93.04.34.08.67.12,1.01.11.88.22,1.79.22,2.7,0,1.09-.15,2.05-.47,2.87.76-.38,1.41-.99,1.83-1.73.5-.9.63-1.93.39-3.06h0c-.15-.74-.47-1.5-.91-2.22l-.1-.17c-.13-.22-.32-.54-.49-.6-.03,0-.06-.01-.09-.01Z"/>
        </g>
        <g>
          <path class="cls-2" d="M37.44,6.15c-.09,3.09,1.62,5.65,4.35,5.74s5.43-2.35,5.53-5.44-2.04-5.67-4.77-5.75c-2.73-.08-5.01,2.36-5.11,5.45Z"/>
          <path class="cls-1" d="M41.92,12.27s-.1,0-.14,0c-2.83-.08-4.82-2.66-4.71-6.12.05-1.59.64-3.06,1.67-4.16,1.04-1.11,2.39-1.68,3.83-1.65,2.93.09,5.23,2.84,5.13,6.14-.05,1.57-.72,3.05-1.89,4.17-1.09,1.04-2.5,1.63-3.88,1.63ZM37.82,6.17c-.09,3.03,1.59,5.28,3.99,5.35,1.2.03,2.49-.48,3.48-1.43,1.03-.98,1.62-2.28,1.66-3.65.09-2.88-1.89-5.29-4.41-5.36-1.17-.04-2.37.47-3.26,1.42-.9.96-1.42,2.27-1.46,3.67h0Z"/>
        </g>
        <g>
          <path class="cls-1" d="M39.6,4.38c.7-.64,1.29-1.39,1.87-2.15.36,1.34,1.21,2.51,2.29,3.39,1.07.88,2.05,1.67,3.38,2.07.4-.7,1.04-5.5-2.07-6.99-.93-.45-2.82-.51-3.59.24-.49-.38-1.17-.43-1.74-.22-.58.21-1.48,1.27-1.77,1.81-.98,1.84-.52,3.61-.52,3.61.57-.26,1.7-1.35,2.16-1.77Z"/>
          <path class="cls-1" d="M47.14,8.07s-.07,0-.11-.02c-1.41-.42-2.43-1.25-3.5-2.13-.99-.81-1.75-1.82-2.18-2.9-.48.6-.95,1.15-1.49,1.64l-.23.21c-.75.69-1.53,1.39-2.02,1.62-.1.05-.22.05-.32,0-.1-.05-.17-.14-.2-.25-.02-.08-.48-1.94.55-3.88.28-.54,1.24-1.72,1.97-1.99.63-.23,1.31-.19,1.85.11,1.01-.69,2.87-.56,3.78-.12,1.11.54,1.89,1.49,2.3,2.84.61,1.97.23,4.17-.07,4.68-.07.12-.19.19-.32.19ZM41.47,1.86s.05,0,.07,0c.14.03.25.13.29.27.32,1.18,1.08,2.32,2.16,3.2.93.76,1.81,1.48,2.91,1.88.18-.67.37-2.28-.1-3.8-.35-1.14-.99-1.94-1.91-2.38-.88-.42-2.57-.41-3.17.18-.13.13-.34.14-.49.03-.36-.28-.89-.34-1.38-.16-.43.16-1.27,1.09-1.57,1.64-.58,1.1-.61,2.18-.56,2.8.46-.34,1.03-.88,1.39-1.2l.23-.21h0c.66-.6,1.22-1.3,1.83-2.1.07-.09.18-.15.3-.15Z"/>
        </g>
        <g>
          <path class="cls-2" d="M33.19,16.14c.13.08.25.18.32.31.09.16.1.35.1.54,0,.32.02.63.02.95,0,.05,0,.11-.03.14-.03.03-.07.05-.12.06-.99.26-2.09.13-2.98.62-.13.07-.26.16-.41.18-.3.04-.58-.21-.67-.51s-.02-.61.07-.9c.1-.34.08-.84.27-1.12.21-.31.74-.51,1.08-.6.78-.22,1.65-.12,2.33.33Z"/>
          <path class="cls-1" d="M30.03,19.33c-.46,0-.84-.38-.96-.79-.11-.39-.03-.78.07-1.11.03-.11.05-.24.07-.37.04-.28.08-.6.26-.86.27-.39.85-.62,1.29-.75.91-.26,1.89-.12,2.64.38h0c.14.09.32.23.44.44.14.25.15.52.15.71l.02.95c0,.07,0,.24-.11.39-.11.13-.24.17-.31.18-.41.11-.82.15-1.22.19-.61.07-1.19.13-1.67.4-.19.11-.34.2-.54.23-.04,0-.08,0-.12,0ZM31.67,16.07c-.24,0-.48.03-.71.1-.43.12-.77.3-.88.46-.07.1-.1.33-.13.54-.02.17-.05.34-.09.48-.07.23-.13.49-.07.69.04.13.14.27.25.24.05,0,.13-.05.21-.1.69-.38,1.37-.46,2.03-.53.34-.04.66-.07.97-.14l-.02-.81c0-.13,0-.28-.05-.36-.04-.07-.13-.13-.2-.18-.38-.25-.84-.38-1.31-.38Z"/>
        </g>
      </g>
      <g>
        <g>
          <g>
            <polygon class="cls-3" points="9.77 40.44 1.79 37.42 4.48 34.45 9.67 39.25 9.77 40.44"/>
            <path class="cls-1" d="M9.77,40.81s-.09,0-.13-.02l-7.98-3.01c-.12-.04-.2-.14-.23-.26-.03-.12,0-.25.09-.34l2.69-2.97c.07-.07.16-.12.26-.12.1,0,.2.03.27.1l5.19,4.79c.07.06.11.15.12.24l.1,1.19c.01.13-.04.25-.15.33-.07.05-.15.08-.23.08ZM2.44,37.27l6.91,2.61-.04-.45-4.81-4.44-2.06,2.28Z"/>
          </g>
          <g>
            <polygon class="cls-3" points="1.49 41.5 1.79 37.42 15.17 39.35 15 41.7 1.49 41.5"/>
            <path class="cls-1" d="M15,42.08h0l-13.51-.2c-.1,0-.2-.05-.27-.12-.07-.08-.1-.18-.1-.28l.3-4.08c0-.1.06-.2.14-.26.08-.06.18-.1.29-.08l13.38,1.93c.19.03.33.2.32.4l-.17,2.35c-.01.2-.18.35-.37.35ZM1.89,41.13l12.76.19.12-1.65-12.64-1.82-.24,3.28Z"/>
          </g>
          <g>
            <polygon class="cls-3" points=".37 45.63 1.52 41.76 15.05 41.07 15.28 43.41 .37 45.63"/>
            <path class="cls-1" d="M.37,46c-.11,0-.21-.05-.28-.13-.08-.1-.11-.23-.08-.35l1.14-3.86c.04-.15.18-.26.34-.27l13.53-.7c.18-.04.37.14.39.34l.24,2.34c.02.2-.12.38-.32.41L.43,46s-.04,0-.06,0ZM1.8,42.13l-.9,3.04,13.97-2.07-.16-1.63-12.9.66Z"/>
          </g>
          <g>
            <polygon class="cls-3" points="1.56 49.82 .45 45.88 15.22 42.78 15.86 45.05 1.56 49.82"/>
            <path class="cls-1" d="M1.56,50.19c-.06,0-.12-.01-.18-.04-.09-.05-.16-.13-.19-.23l-1.11-3.94c-.03-.1-.01-.21.04-.3s.14-.15.24-.17l14.77-3.1c.19-.03.38.07.44.27l.64,2.27c.05.19-.05.39-.24.46l-14.3,4.77s-.08.02-.12.02ZM.92,46.16l.9,3.17,13.58-4.53-.45-1.59-14.03,2.94Z"/>
          </g>
          <g>
            <polygon class="cls-3" points="3.45 53.74 1.68 50.05 15.68 44.44 16.71 46.56 3.45 53.74"/>
            <path class="cls-1" d="M3.45,54.11s-.08,0-.12-.02c-.1-.03-.18-.1-.22-.19l-1.78-3.69c-.04-.09-.05-.2-.01-.3s.11-.17.21-.21l14.01-5.61c.18-.07.39,0,.48.18l1.02,2.12c.09.18.02.4-.16.49l-13.25,7.18c-.06.03-.12.04-.18.04ZM2.19,50.25l1.43,2.97,12.59-6.82-.72-1.48-13.31,5.33Z"/>
          </g>
          <g>
            <polygon class="cls-3" points="6 57.27 3.61 53.95 16.43 45.99 17.8 47.9 6 57.27"/>
            <path class="cls-1" d="M6,57.64s-.03,0-.05,0c-.1-.01-.19-.07-.25-.15l-2.39-3.32c-.06-.08-.08-.19-.06-.29.02-.1.08-.19.17-.25l12.82-7.96c.17-.11.39-.06.5.1l1.38,1.91c.12.16.09.39-.07.51l-11.8,9.37c-.07.05-.15.08-.23.08ZM4.15,54.05l1.93,2.68,11.22-8.9-.96-1.34-12.18,7.56Z"/>
          </g>
          <g>
            <polygon class="cls-3" points="9.12 60.31 6.19 57.45 17.43 47.39 19.12 49.03 9.12 60.31"/>
            <path class="cls-1" d="M9.12,60.68c-.1,0-.19-.04-.26-.11l-2.93-2.86c-.07-.07-.12-.17-.11-.28,0-.1.05-.2.12-.27l11.24-10.07c.15-.13.37-.13.51.01l1.69,1.64c.14.14.15.37.02.52l-10,11.28c-.07.08-.16.12-.27.13h-.01ZM6.74,57.46l2.36,2.3,9.5-10.71-1.18-1.15-10.68,9.56Z"/>
          </g>
        </g>
        <g>
          <g>
            <g>
              <rect class="cls-2" x="26.75" y="45.93" width="3.73" height="4.38"/>
              <path class="cls-1" d="M30.47,50.68h-3.73c-.21,0-.38-.17-.38-.38v-4.38c0-.21.17-.38.38-.38h3.73c.21,0,.38.17.38.38v4.38c0,.21-.17.38-.38.38ZM27.12,49.93h2.98v-3.63h-2.98v3.63Z"/>
            </g>
            <g>
              <path class="cls-2" d="M33.5,41.66c.1,3.2-1.68,5.85-4.5,5.93-2.82.08-5.62-2.43-5.72-5.63-.1-3.2,2.11-5.86,4.94-5.95s5.19,2.44,5.28,5.64Z"/>
              <path class="cls-1" d="M28.86,47.97c-3.09,0-5.85-2.76-5.95-5.99-.1-3.4,2.28-6.24,5.3-6.33,1.49-.03,2.88.56,3.95,1.71,1.06,1.13,1.67,2.66,1.72,4.3.05,1.66-.39,3.21-1.23,4.37-.89,1.22-2.18,1.91-3.64,1.95-.05,0-.1,0-.15,0ZM28.36,36.4s-.08,0-.13,0c-2.61.08-4.66,2.57-4.57,5.56.09,2.89,2.6,5.38,5.33,5.26,1.24-.04,2.29-.61,3.05-1.65.74-1.02,1.13-2.4,1.08-3.9h0c-.04-1.46-.58-2.81-1.52-3.81-.89-.95-2.04-1.47-3.25-1.47Z"/>
            </g>
            <g>
              <path class="cls-4" d="M10.15,69.86l-1.65.3-.81,1.46c-.55.98-1.87,1.2-2.7.44l-.59-.53,2.25-5.68,4.23,1.7-.72,2.32Z"/>
              <path class="cls-1" d="M6.15,72.89c-.52,0-1.03-.19-1.42-.55l-.59-.54c-.12-.1-.15-.27-.1-.42l2.25-5.68c.04-.09.11-.17.2-.21.09-.04.2-.04.29,0l4.23,1.7c.18.07.28.27.22.46l-.72,2.32c-.04.13-.15.23-.29.26l-1.48.27-.73,1.31c-.32.57-.87.96-1.51,1.06-.12.02-.23.03-.35.03ZM4.84,71.42l.4.36c.31.28.73.4,1.14.34.42-.07.77-.32.98-.69l.81-1.46c.05-.1.15-.17.26-.19l1.43-.26.55-1.77-3.56-1.43-2.01,5.09ZM10.15,69.86h0,0Z"/>
            </g>
            <g>
              <polygon class="cls-2" points="18.74 67.98 15.8 69.8 10.87 67.54 10.15 69.86 15.1 73.54 21.42 71.35 18.74 67.98"/>
              <path class="cls-1" d="M15.1,73.91c-.08,0-.16-.03-.22-.07l-4.95-3.68c-.13-.09-.18-.26-.13-.41l.72-2.32c.03-.1.11-.19.21-.23.1-.04.21-.04.31,0l4.75,2.18,2.76-1.71c.16-.1.37-.06.49.09l2.68,3.37c.08.1.1.22.07.34-.03.12-.12.21-.24.25l-6.32,2.18s-.08.02-.12.02ZM10.59,69.71l4.58,3.4,5.63-1.94-2.14-2.69-2.65,1.64c-.11.07-.24.07-.35.02l-4.54-2.08-.52,1.66Z"/>
            </g>
            <g>
              <path class="cls-4" d="M30.62,86.17l.25,1.57,2.04,1.19c.66.38.96,1.17.74,1.9l-.4,1.28-6.27-2.33,1.45-4.32,2.18.72Z"/>
              <path class="cls-1" d="M33.26,92.47s-.09,0-.13-.02l-6.27-2.33c-.19-.07-.29-.28-.22-.47l1.45-4.32c.07-.2.28-.31.47-.24l2.18.72c.13.04.23.16.25.3l.22,1.39,1.89,1.1c.81.47,1.19,1.43.91,2.33l-.4,1.28c-.03.1-.1.18-.19.23-.05.03-.11.04-.17.04ZM27.46,89.54l5.55,2.07.28-.9c.17-.56-.06-1.16-.57-1.46l-2.04-1.19c-.1-.06-.16-.15-.18-.26l-.22-1.34-1.61-.53-1.22,3.63Z"/>
            </g>
            <g>
              <polygon class="cls-2" points="33.26 73.52 33.02 79.12 30.62 86.17 28.44 85.44 29.35 78.81 28.13 73.33 33.26 73.52"/>
              <path class="cls-1" d="M30.62,86.54s-.08,0-.12-.02l-2.18-.72c-.17-.06-.28-.23-.25-.41l.9-6.57-1.2-5.41c-.03-.11,0-.23.08-.32.07-.09.18-.12.3-.13l5.12.18c.1,0,.19.05.26.12s.1.17.1.27l-.24,5.61s0,.07-.02.11l-2.4,7.04c-.05.16-.2.25-.35.25ZM28.86,85.18l1.53.51,2.26-6.64.22-5.18-4.26-.15,1.11,5s.01.09,0,.13l-.86,6.33Z"/>
            </g>
            <g>
              <path class="cls-1" d="M31.78,60.64c-3.1.94-5.94,0-5.94,0h0c-1.95,1.03-3.54,2.57-4.59,4.43l-3.14,2.79,3.73,5.26,4.82-4.71.35,5.44h7.52l-.03-7.07c0-1.63-.55-3.23-1.54-4.56l-1.17-1.57Z"/>
              <path class="cls-1" d="M34.53,74.21h-7.52c-.2,0-.36-.15-.37-.35l-.3-4.62-4.23,4.14c-.08.08-.18.12-.3.1-.11,0-.21-.07-.27-.16l-3.73-5.25c-.11-.16-.09-.37.06-.5l3.09-2.75c1.09-1.9,2.72-3.47,4.71-4.52.09-.05.2-.06.29-.03.03,0,2.78.89,5.72,0,.15-.05.31,0,.41.13l1.17,1.57c1.05,1.41,1.61,3.06,1.62,4.78l.03,7.07c0,.1-.04.2-.11.27s-.17.11-.27.11ZM27.36,73.46h6.79l-.03-6.69c0-1.56-.51-3.06-1.47-4.34l-1.02-1.37c-2.69.74-5.12.15-5.76-.03-1.83,1-3.31,2.45-4.31,4.21-.02.04-.05.07-.08.1l-2.89,2.56,3.28,4.62,4.5-4.41c.11-.1.26-.13.4-.08.14.05.23.18.24.33l.33,5.09Z"/>
            </g>
            <g>
              <polyline class="cls-2" points="24.91 48.87 19.73 48.34 16.79 42.61 16.17 40.19 13.22 38.01 12.16 40.61 14.95 43.74 16.99 50.88 25.89 54.93"/>
              <path class="cls-1" d="M25.89,55.3c-.05,0-.1-.01-.16-.03l-8.9-4.05c-.1-.05-.18-.13-.21-.24l-2.02-7.06-2.73-3.06c-.1-.11-.12-.26-.07-.39l1.05-2.6c.04-.11.13-.19.25-.22.11-.03.23,0,.32.06l2.96,2.18c.07.05.12.12.14.21l.62,2.42,2.82,5.48,4.98.51c.21.02.36.21.33.41-.02.21-.21.34-.41.33l-5.18-.53c-.13-.01-.24-.09-.3-.2l-2.94-5.74-.61-2.37-2.46-1.81-.79,1.94,2.63,2.95s.07.09.08.15l1.99,6.97,8.74,3.98c.19.09.27.31.19.5-.06.14-.2.22-.34.22Z"/>
            </g>
            <g>
              <path class="cls-2" d="M34.53,49.52l1.8.79,2.04,5.62,2.77-4.37,1.91-1.34.69-1.9,1.36-.49.81,3.76-2.86,1.64-3.68,5.96c-.39.63-1.11.96-1.83.85h0c-.63-.09-1.17-.51-1.42-1.1l-1.57-3.67v-5.75Z"/>
              <path class="cls-1" d="M37.8,60.43c-.11,0-.22,0-.33-.02-.77-.11-1.41-.61-1.71-1.32l-1.57-3.67s-.03-.1-.03-.15v-5.75c0-.13.06-.25.16-.31.11-.07.24-.08.36-.03l1.79.79c.09.04.17.12.2.21l1.78,4.9,2.36-3.73s.06-.08.1-.11l1.81-1.27.65-1.79c.04-.1.12-.19.23-.22l1.36-.49c.1-.04.21-.03.31.02.09.05.16.14.18.25l.81,3.76c.04.16-.04.32-.18.4l-2.78,1.59-3.63,5.88c-.41.66-1.12,1.05-1.88,1.05ZM34.91,55.19l1.54,3.6c.2.47.62.8,1.13.87.58.09,1.15-.18,1.46-.68l3.68-5.96c.03-.05.08-.1.13-.13l2.62-1.5-.66-3.07-.79.28-.63,1.74c-.03.07-.07.13-.14.18l-1.85,1.3-2.73,4.31c-.08.12-.21.18-.36.17-.14-.02-.26-.11-.31-.25l-1.99-5.47-1.12-.49v5.1Z"/>
            </g>
            <g>
              <path class="cls-4" d="M20.15,53.28l1.15-5.34,5.45-.12s1.86,1.66,3.73,0l5.73,1.66,2.25,5.53-3.66,3.02-.81-1.04s-1.1,2.64-1.98,3.52c-3.62,1.28-6.75,0-6.75,0,0,0-.84-1.54-1.26-5.39l-3.86-1.84Z"/>
              <path class="cls-1" d="M28.64,61.47c-2.02,0-3.44-.57-3.53-.6-.08-.03-.15-.09-.19-.17-.04-.06-.85-1.59-1.28-5.32l-3.67-1.75c-.16-.07-.24-.25-.21-.42l1.15-5.34c.04-.17.18-.29.36-.3l5.45-.12c.09,0,.19.03.26.09.07.06,1.64,1.41,3.23,0,.1-.08.23-.11.35-.08l5.73,1.66c.11.03.2.11.24.22l2.25,5.53c.06.15.02.33-.11.43l-3.66,3.02c-.08.06-.18.09-.28.08-.1-.01-.19-.06-.25-.14l-.42-.54c-.39.85-1.14,2.39-1.81,3.06-.04.04-.09.07-.14.09-1.26.45-2.46.59-3.49.59ZM25.53,60.22c.61.21,3.28,1,6.27-.02.81-.88,1.83-3.32,1.84-3.34.05-.12.16-.21.3-.23.13-.01.26.04.35.14l.57.73,3.15-2.6-2.08-5.11-5.37-1.56c-1.54,1.23-3.18.57-3.95-.04l-5.02.11-1.02,4.76,3.59,1.72c.12.06.2.17.21.3.34,3.13.96,4.71,1.15,5.13Z"/>
            </g>
            <g>
              <path class="cls-1" d="M24.39,37.37c-.65.75-.74,1.46-1.09,2.31-.38.92-1.16,1.74-1.92,2.35-.95.78-2.05,1.36-3.16,1.9,1.22.4,2.4.95,3.5,1.63,1.52.94,2.68,1.7,4.48,1.91,1.95.23,3.9.45,5.84.68.09.01.19.02.27-.02.07-.03.11-.1.15-.16,1.25-1.81,1.75-4.09,1.45-6.26-.27-1.9-.41-3.93-2.17-5.11-.96-.64-2.29-.79-3.28-.19-.56-.53-1.44-.61-2.17-.37s-1.38.72-1.9,1.32Z"/>
              <path class="cls-1" d="M32.16,48.54c-.06,0-.12,0-.17-.01l-5.84-.68c-1.8-.21-2.96-.93-4.43-1.84l-.2-.12c-1.07-.66-2.22-1.2-3.42-1.59-.15-.05-.25-.18-.26-.33s.07-.3.21-.36c1.05-.51,2.15-1.09,3.09-1.85.91-.74,1.52-1.48,1.81-2.21.09-.23.17-.45.24-.66.2-.59.39-1.15.91-1.75.58-.68,1.3-1.17,2.06-1.43.83-.28,1.71-.17,2.33.27,1.04-.5,2.38-.38,3.44.33,1.77,1.18,2.03,3.08,2.28,4.92l.06.44c.32,2.29-.23,4.67-1.51,6.53-.05.07-.13.2-.29.28-.11.06-.22.07-.32.07ZM19.17,43.88c.96.37,1.88.83,2.74,1.37l.2.12c1.39.86,2.49,1.54,4.12,1.73l5.84.68c1.24-1.72,1.75-3.91,1.45-6.01l-.06-.45c-.24-1.75-.46-3.41-1.95-4.4-.9-.6-2.06-.68-2.88-.18-.14.09-.33.07-.45-.05-.42-.39-1.14-.5-1.79-.28-.65.22-1.23.63-1.73,1.21h0c-.42.49-.58.96-.77,1.51-.08.22-.16.46-.26.7-.34.84-1.03,1.68-2.03,2.5-.76.62-1.6,1.11-2.44,1.55ZM24.39,37.37h0,0Z"/>
            </g>
          </g>
          <path class="cls-1" d="M37.95,55.33c-.12,0-.23-.05-.31-.16l-1.41-1.98c-.12-.17-.08-.4.09-.52.17-.12.4-.08.52.09l1.41,1.98c.12.17.08.4-.09.52-.07.05-.14.07-.22.07Z"/>
        </g>
      </g>
      <g>
        <g>
          <g>
            <polygon class="cls-3" points="83.61 41.81 91.87 39.69 89.52 36.44 83.84 40.64 83.61 41.81"/>
            <path class="cls-1" d="M83.61,42.19c-.09,0-.19-.04-.26-.1-.09-.09-.13-.22-.11-.34l.23-1.17c.02-.09.07-.17.15-.23l5.68-4.2c.08-.06.18-.08.28-.07.1.01.19.07.25.15l2.35,3.25c.07.1.09.23.05.35-.04.12-.14.21-.26.24l-8.26,2.12s-.06.01-.09.01ZM84.18,40.86l-.09.44,7.15-1.84-1.8-2.49-5.26,3.89Z"/>
          </g>
          <g>
            <polygon class="cls-3" points="91.72 43.78 91.87 39.69 78.36 40.15 78.27 42.5 91.72 43.78"/>
            <path class="cls-1" d="M91.72,44.15s-.02,0-.04,0l-13.45-1.28c-.2-.02-.35-.19-.34-.39l.08-2.36c0-.2.17-.35.36-.36l13.51-.46c.09,0,.21.04.28.11.07.07.11.17.11.28l-.14,4.09c0,.1-.05.2-.13.27-.07.06-.16.09-.25.09ZM78.66,42.16l12.7,1.21.12-3.29-12.76.43-.06,1.65Z"/>
          </g>
          <g>
            <polygon class="cls-3" points="92.38 48 91.67 44.03 78.3 41.86 77.81 44.17 92.38 48"/>
            <path class="cls-1" d="M92.38,48.37s-.06,0-.1-.01l-14.58-3.83c-.19-.05-.31-.24-.27-.44l.49-2.3c.04-.2.23-.33.43-.29l13.37,2.17c.16.03.28.15.31.3l.72,3.96c.02.13-.02.25-.11.34-.07.06-.16.1-.25.1ZM78.25,43.9l13.66,3.59-.56-3.12-12.75-2.07-.34,1.61Z"/>
          </g>
          <g>
            <polygon class="cls-3" points="90.75 52.03 92.28 48.24 77.94 43.55 77.06 45.73 90.75 52.03"/>
            <path class="cls-1" d="M90.75,52.41c-.05,0-.11-.01-.16-.03l-13.69-6.3c-.18-.08-.27-.3-.19-.48l.88-2.19c.07-.18.28-.28.46-.22l14.34,4.69c.1.03.18.1.22.2.04.09.05.2,0,.3l-1.54,3.79c-.04.09-.11.17-.21.21-.04.02-.09.03-.14.03ZM77.54,45.54l13.01,5.99,1.24-3.06-13.63-4.46-.62,1.53Z"/>
          </g>
          <g>
            <polygon class="cls-3" points="88.44 55.72 90.61 52.25 77.3 45.14 76.05 47.14 88.44 55.72"/>
            <path class="cls-1" d="M88.44,56.1c-.08,0-.15-.02-.21-.07l-12.39-8.58c-.16-.11-.21-.34-.1-.51l1.25-2c.11-.17.32-.22.5-.13l13.31,7.11c.09.05.16.13.19.23s.01.21-.04.3l-2.17,3.47c-.05.09-.14.15-.24.17-.02,0-.05,0-.08,0ZM76.56,47.04l11.77,8.15,1.75-2.8-12.65-6.75-.87,1.4Z"/>
          </g>
          <g>
            <polygon class="cls-3" points="85.52 58.96 88.26 55.92 76.39 46.6 74.81 48.35 85.52 58.96"/>
            <path class="cls-1" d="M85.52,59.33c-.1,0-.19-.04-.26-.11l-10.71-10.6c-.14-.14-.15-.37-.01-.52l1.58-1.75c.13-.15.36-.17.51-.04l11.87,9.31c.08.06.13.16.14.26,0,.1-.03.21-.1.28l-2.74,3.04c-.07.08-.17.12-.27.12h-.01ZM75.33,48.34l10.18,10.07,2.21-2.45-11.28-8.85-1.1,1.23Z"/>
          </g>
          <g>
            <polygon class="cls-3" points="82.09 61.63 85.31 59.12 75.24 47.88 73.38 49.33 82.09 61.63"/>
            <path class="cls-1" d="M82.09,62.01s-.04,0-.05,0c-.1-.01-.19-.07-.25-.15l-8.71-12.3c-.12-.16-.08-.39.08-.51l1.86-1.45c.15-.12.38-.1.51.05l10.08,11.23c.07.08.1.18.09.28,0,.1-.06.2-.14.26l-3.23,2.52c-.07.05-.15.08-.23.08ZM73.89,49.41l8.27,11.69,2.6-2.03-9.57-10.67-1.3,1.01Z"/>
          </g>
        </g>
        <g>
          <polygon class="cls-2" points="69.87 62.57 71.6 67.33 63.68 73.52 62.01 72.19 67.28 66.87 65.71 63.71 69.87 62.57"/>
          <path class="cls-1" d="M63.68,73.89c-.08,0-.16-.03-.23-.08l-1.67-1.33c-.08-.07-.14-.17-.14-.27,0-.11.03-.21.11-.29l5.09-5.13-1.46-2.92c-.05-.1-.05-.22,0-.32.05-.1.14-.18.24-.21l4.17-1.14c.19-.06.38.05.45.23l1.73,4.76c.06.15,0,.32-.12.42l-7.92,6.19c-.07.05-.15.08-.23.08ZM62.57,72.16l1.12.88,7.48-5.84-1.52-4.18-3.39.92,1.37,2.75c.07.14.04.32-.07.43l-4.98,5.03Z"/>
        </g>
        <g>
          <polygon class="cls-4" points="64.59 69.57 66.31 71.47 63.84 73.27 62.53 71.74 64.59 69.57"/>
          <path class="cls-1" d="M63.84,73.65c-.11,0-.21-.04-.29-.13l-1.31-1.53c-.12-.15-.12-.36.01-.5l2.06-2.17c.07-.08.19-.09.28-.12.1,0,.2.05.27.12l1.72,1.9c.07.08.11.18.09.29-.01.11-.07.2-.15.26l-2.47,1.8c-.07.05-.14.07-.22.07ZM63.03,71.76l.87,1.01,1.85-1.35-1.17-1.29-1.55,1.63Z"/>
        </g>
        <g>
          <path class="cls-4" d="M62.31,71.42l1.74,2.17-.55,1.22,1.05,2.56c.2.53.09,1.14-.28,1.57l-.18.21c-.33.38-.92.37-1.23-.03l-3.4-4.28c-.36-.46-.27-1.12.2-1.47l2.66-1.95Z"/>
          <path class="cls-1" d="M63.48,79.81s-.02,0-.03,0c-.35,0-.67-.17-.89-.44l-3.4-4.28c-.24-.3-.34-.68-.29-1.06.05-.38.25-.72.56-.95l2.66-1.95c.16-.12.39-.09.51.07l1.74,2.17c.09.11.11.26.05.39l-.49,1.07.99,2.41c.25.67.12,1.42-.34,1.95l-.19.21c-.22.26-.55.41-.89.41ZM62.24,71.94l-2.37,1.74c-.14.11-.24.26-.26.44-.02.18.02.35.14.5l3.4,4.28c.08.1.2.16.32.16.13,0,.25-.05.33-.15l.18-.21c.28-.33.37-.78.21-1.19l-1.05-2.55c-.04-.1-.04-.2,0-.3l.46-1.01-1.37-1.71Z"/>
        </g>
        <g>
          <polygon class="cls-2" points="62.01 63.38 60.66 72.07 57.96 79.56 55.33 78.9 56.79 71.22 57 61.53 62.01 63.38"/>
          <path class="cls-1" d="M57.96,79.94s-.06,0-.09-.01l-2.63-.67c-.19-.05-.31-.24-.28-.43l1.46-7.68.2-9.62c0-.12.06-.23.16-.3.1-.07.23-.08.34-.04l5.01,1.84c.17.06.27.23.24.41l-1.34,8.7-2.72,7.56c-.05.15-.2.25-.35.25ZM55.76,78.62l1.96.5,2.59-7.17,1.28-8.32-4.23-1.55-.2,9.16-1.4,7.39Z"/>
        </g>
        <g>
          <path class="cls-2" d="M64.61,36.45l.66.05c1,.08,1.95.47,2.71,1.12l4.29,3.64,5.33-.95,1.79-2.42,3.49.87.24,1.7-2.24.31-2.58,1.63-6.75,2.41-6.52-3.24-.42-5.12Z"/>
          <path class="cls-1" d="M71.55,45.19c-.06,0-.11-.01-.17-.04l-6.52-3.24c-.12-.06-.2-.17-.21-.3l-.42-5.12c0-.11.03-.22.11-.3.08-.08.18-.13.3-.11l.66.05c1.08.09,2.1.51,2.92,1.21l4.15,3.52,5.01-.89,1.71-2.3c.09-.12.25-.17.39-.14l3.49.87c.15.04.26.16.28.31l.24,1.7c.01.1-.01.2-.07.28-.06.08-.15.13-.25.15l-2.15.3-2.51,1.58-6.83,2.45s-.08.02-.13.02ZM65.39,41.33l6.19,3.07,6.6-2.36,2.5-1.59s.1-.05.15-.05l1.86-.26-.15-1.08-3-.75-1.65,2.22c-.06.08-.14.13-.24.15l-5.33.95c-.11.02-.22-.01-.31-.08l-4.28-3.64c-.71-.6-1.57-.96-2.5-1.03l-.22-.02.37,4.47Z"/>
        </g>
        <g>
          <path class="cls-4" d="M61.73,34.42l-2.95,1.85c-1.8,1.01-2.74,3.07-2.3,5.09,0,0,1.52,4.07,2.12,8.48,1.53,1.64,5.6,1.84,7.77-.3l1.54-5.67,1.86.79,2.47-4.32-5.29-4.52-5.21-1.39Z"/>
          <path class="cls-1" d="M62.19,51.48c-.05,0-.1,0-.15,0-1.54-.03-2.93-.55-3.71-1.38-.05-.06-.09-.13-.1-.21-.58-4.32-2.08-8.36-2.1-8.4-.49-2.25.51-4.46,2.47-5.55l2.93-1.84c.09-.06.19-.07.3-.04l5.21,1.39c.05.01.1.04.15.08l5.29,4.53c.14.12.17.31.08.47l-2.47,4.32c-.09.16-.3.23-.47.16l-1.46-.62-1.43,5.26c-.02.06-.05.12-.1.17-1.08,1.07-2.69,1.68-4.44,1.68ZM58.95,49.66c.66.64,1.81,1.04,3.1,1.07,1.56.05,3.01-.48,3.98-1.39l1.52-5.58c.03-.1.1-.19.2-.24.09-.05.21-.05.31,0l1.55.66,2.15-3.76-4.99-4.27-4.97-1.33-2.81,1.76c-1.69.94-2.54,2.83-2.14,4.7h0s1.5,4.03,2.1,8.38Z"/>
        </g>
        <g>
          <path class="cls-2" d="M64.61,35.11l-.09-1.6-4.1-.1v1.6s3.41,2.29,3.41,2.29c0,0,.76-.81.79-2.19Z"/>
          <path class="cls-1" d="M63.82,37.67c-.07,0-.15-.02-.21-.06l-3.4-2.29c-.1-.07-.17-.19-.17-.31v-1.6c0-.1.03-.2.1-.27s.17-.09.27-.11l4.1.1c.2,0,.35.16.37.35l.09,1.6s0,.02,0,.03c-.02,1.5-.85,2.4-.89,2.44-.07.08-.17.12-.27.12ZM60.8,34.81l2.94,1.98c.2-.31.48-.89.5-1.67l-.07-1.25-3.37-.08v1.02Z"/>
        </g>
        <g>
          <path class="cls-2" d="M67.28,29.23c.1,3.2-1.68,5.85-4.5,5.93-2.82.08-5.62-2.43-5.72-5.63-.1-3.2,2.11-5.86,4.94-5.95,2.82-.08,5.19,2.44,5.28,5.64Z"/>
          <path class="cls-1" d="M62.63,35.54c-3.09,0-5.85-2.76-5.95-5.99-.1-3.4,2.28-6.24,5.3-6.33,1.49-.04,2.88.56,3.95,1.71,1.06,1.13,1.67,2.66,1.72,4.3.05,1.66-.39,3.22-1.23,4.37-.89,1.22-2.18,1.91-3.64,1.95-.05,0-.1,0-.16,0ZM62.13,23.96s-.08,0-.13,0c-2.61.08-4.66,2.57-4.57,5.56.09,2.89,2.58,5.39,5.33,5.26,1.24-.04,2.29-.61,3.05-1.65.74-1.02,1.13-2.4,1.08-3.9h0c-.04-1.46-.58-2.81-1.52-3.81-.89-.95-2.04-1.47-3.25-1.47Z"/>
        </g>
        <g>
          <path class="cls-1" d="M58.6,49.84l-1.62,2.74c-1.06,1.79-1.63,3.82-1.66,5.9l-.09,5.77,7.13.74,1.01-4.91,1.93,4.56,6.31-1.34-5.24-13.75-7.77.3Z"/>
          <path class="cls-1" d="M62.36,65.36s-.03,0-.04,0l-7.13-.74c-.19-.02-.34-.18-.34-.38l.08-5.77c.03-2.14.62-4.24,1.71-6.08l1.62-2.74c.07-.11.18-.18.31-.18l7.77-.3c.15,0,.31.09.37.24l5.24,13.75c.04.1.03.22-.02.31-.05.1-.14.16-.25.19l-6.31,1.34c-.18.04-.35-.06-.42-.22l-1.46-3.45-.77,3.73c-.04.18-.19.3-.37.3ZM55.61,63.91l6.46.67.94-4.58c.03-.16.17-.28.33-.3.17-.02.32.08.38.23l1.81,4.27,5.57-1.18-4.99-13.09-7.29.29-1.52,2.57c-1.02,1.73-1.58,3.71-1.61,5.72l-.08,5.42Z"/>
        </g>
        <g>
          <path class="cls-2" d="M57.09,42.34l2.08,5.02c.52,1.26,1.69,2.13,3.05,2.27l7.22.73,2.99-.68,2.83.49.5-1.67-1.11-1.37-2.41-.1-1.9.64-7.44-1.62-2.09-5.15c-.41-1.01-1.01-1.86-2.08-1.63h0c-1.39.29-2.17,1.77-1.63,3.08Z"/>
          <path class="cls-1" d="M69.44,50.73s-.03,0-.04,0l-7.22-.73c-1.5-.15-2.78-1.11-3.35-2.5l-2.08-5.02h0c-.3-.73-.26-1.55.1-2.24.37-.7,1.02-1.19,1.79-1.35,1.62-.33,2.29,1.31,2.51,1.86l2.02,4.97,7.14,1.56,1.8-.6s.09-.02.13-.02l2.41.1c.11,0,.21.05.28.14l1.11,1.37c.08.1.1.22.07.34l-.5,1.67c-.05.18-.23.3-.42.26l-2.75-.47-2.92.67s-.06,0-.08,0ZM57.44,42.19l2.08,5.02c.47,1.13,1.52,1.91,2.74,2.04l7.16.73,2.93-.67s.1-.01.15,0l2.5.43.35-1.16-.88-1.08-2.17-.09-1.84.62c-.06.02-.13.03-.2.01l-7.44-1.62c-.12-.03-.22-.11-.27-.22l-2.09-5.15c-.58-1.42-1.16-1.51-1.66-1.4-.55.12-1.02.47-1.28.97-.26.5-.29,1.09-.07,1.61h0Z"/>
        </g>
        <path class="cls-1" d="M64.57,27.96c-.58-.19-1.06-.66-1.28-1.23,1.31.59,2.73.94,4.17,1.02.67-.94,1.29-1.91,1.86-2.92-1.05.11-2.11-.19-3.09-.57-.99-.38-1.94-.86-2.96-1.15-.77-.22-1.66-.32-2.32.14-.48.33-.76.92-.71,1.49.18,2.02,2.65,2.95,4.32,3.21Z"/>
        <g>
          <path class="cls-4" d="M56.8,39.02h0c.54-.89,1.65-1.26,2.62-.87h0c.56.23,1,.68,1.21,1.26l1.91,5.3-5.15,1.94-1.08-4.44c-.27-1.09-.09-2.24.5-3.2Z"/>
          <path class="cls-1" d="M57.38,47.03c-.06,0-.12-.01-.17-.04-.1-.05-.16-.14-.19-.24l-1.08-4.44c-.29-1.18-.09-2.45.54-3.49h0c.64-1.05,1.94-1.48,3.08-1.02.66.27,1.18.81,1.42,1.48l1.91,5.3c.07.19-.03.41-.22.48l-5.16,1.94s-.09.02-.13.02ZM57.12,39.22c-.53.87-.69,1.93-.45,2.92l.98,4.02,4.41-1.66-1.78-4.96c-.17-.47-.53-.85-1-1.04-.8-.32-1.71-.02-2.16.72h0Z"/>
        </g>
        <path class="cls-1" d="M67.28,42.96c-.19,0-.35-.14-.37-.33l-.31-2.38c-.03-.21.12-.39.32-.42.2-.02.39.12.42.32l.31,2.38c.03.21-.12.39-.32.42-.02,0-.03,0-.05,0Z"/>
        <path class="cls-1" d="M62.01,40.05s-.02,0-.03,0c-.13,0-.24-.08-.3-.19l-2.16-3.87c-.1-.18-.04-.41.14-.51.18-.1.41-.04.51.14l1.88,3.37,1.47-1.92c.07-.09.17-.14.29-.15.11-.01.22.04.29.13.4.45.83.93,1.15,1.29.06-.53.17-1.4.34-2.84.03-.21.2-.36.42-.33.21.03.35.21.33.42-.17,1.38-.42,3.48-.43,3.61-.01.14-.11.28-.24.33-.27.1-.28.11-1.82-1.64l-1.54,2.01c-.07.09-.18.15-.3.15Z"/>
        <g>
          <polygon class="cls-4" points="56.28 73.96 59.54 74.78 58.16 78.55 55.61 77.84 56.28 73.96"/>
          <path class="cls-1" d="M58.16,78.92s-.07,0-.1-.01l-2.55-.71c-.18-.05-.3-.24-.27-.42l.67-3.88c.02-.1.08-.19.16-.25.09-.06.2-.07.3-.05l3.27.82c.1.03.19.09.24.19.05.09.06.21.02.3l-1.38,3.77c-.05.15-.2.25-.35.25ZM56.04,77.57l1.89.53,1.12-3.05-2.47-.62-.54,3.14Z"/>
        </g>
        <g>
          <path class="cls-4" d="M55.68,77.63l3.1.87.3,1.52,2.71,1.69c.55.37.85,1,.79,1.66l-.03.32c-.05.58-.61.96-1.17.8l-6.08-1.73c-.65-.18-1.02-.87-.81-1.51l1.18-3.63Z"/>
          <path class="cls-1" d="M61.64,84.91c-.12,0-.24-.02-.36-.05l-6.08-1.73c-.41-.12-.75-.39-.95-.77-.2-.38-.24-.81-.11-1.22l1.18-3.62c.06-.19.26-.3.46-.25l3.1.87c.14.04.24.15.27.29l.27,1.36,2.58,1.6c.67.45,1.04,1.22.97,2.01l-.03.33c-.03.38-.24.73-.56.95-.22.15-.48.23-.73.23ZM55.92,78.09l-1.07,3.28c-.07.21-.05.44.06.64s.28.34.5.4l6.08,1.73c.16.04.33.02.46-.08.13-.09.22-.24.23-.4l.03-.33c.05-.52-.19-1.02-.63-1.31l-2.7-1.68c-.09-.05-.15-.14-.17-.25l-.26-1.29-2.53-.71Z"/>
        </g>
        <g>
          <path class="cls-1" d="M56.93,25.3c-.99,1.5-1.21,3.38-1.12,5.18.09,1.79.45,3.57.49,5.36.91.25,1.83.5,2.77.5s1.92-.31,2.55-1.01c-1.32-.86-2.27-2.25-2.59-3.79-.32-1.54,0-3.2.85-4.51.39-.59.88-1.11,1.25-1.72.22-.36.79-1.44.47-1.89-.24-.34-1.22-.22-1.57-.17-1.26.18-2.41,1-3.1,2.04Z"/>
          <path class="cls-1" d="M59.03,36.71c-.99,0-1.92-.26-2.83-.51-.16-.04-.27-.19-.28-.35-.02-.95-.14-1.92-.25-2.85-.1-.82-.2-1.66-.24-2.5-.11-2.27.28-4.04,1.18-5.4h0c.79-1.19,2.04-2.01,3.36-2.21,1.03-.15,1.66-.04,1.92.33.48.67-.23,1.93-.45,2.3-.21.34-.46.66-.7.96-.2.25-.39.5-.56.76-.81,1.24-1.1,2.78-.8,4.23.3,1.45,1.19,2.74,2.43,3.55.09.06.15.16.17.26s-.02.22-.09.3c-.64.71-1.67,1.13-2.82,1.14h-.04ZM56.67,35.55c.79.22,1.57.4,2.4.41.77,0,1.46-.22,1.95-.6-1.2-.92-2.05-2.26-2.37-3.75-.34-1.64-.01-3.39.91-4.79.19-.28.39-.55.6-.81.24-.3.46-.59.65-.89.4-.65.59-1.32.48-1.47-.04-.04-.38-.14-1.21-.02-1.11.16-2.17.87-2.84,1.88h0c-.81,1.23-1.16,2.85-1.06,4.95.04.82.14,1.65.24,2.45.1.86.21,1.75.25,2.64Z"/>
        </g>
      </g>
    </g>
  </g>
</svg>