<?xml version="1.0" encoding="UTF-8"?>
<svg id="_圖層_2" data-name="圖層 2" xmlns="http://www.w3.org/2000/svg" viewBox="0 0 109.2 92.48">
  <defs>
    <style>
      .cls-1 {
        fill: #000;
      }

      .cls-1, .cls-2, .cls-3, .cls-4 {
        stroke-width: 0px;
      }

      .cls-2 {
        fill: #fecfa9;
      }

      .cls-3 {
        fill: #383838;
      }

      .cls-4 {
        fill: #fff;
      }
    </style>
  </defs>
  <g id="_圖層_5" data-name="圖層 5">
    <g>
      <g>
        <g>
          <polygon class="cls-2" points="56.34 43.27 56.69 52.06 58.53 59.81 61.22 59.44 60.64 51.65 61.53 42 56.34 43.27"/>
          <path class="cls-1" d="M58.53,60.18c-.17,0-.32-.12-.37-.29l-1.84-7.75-.36-8.87c0-.18.11-.34.29-.38l5.19-1.26c.12-.03.24,0,.33.08.09.08.14.2.13.32l-.89,9.65.58,7.73c.01.2-.13.37-.32.4l-2.69.36s-.03,0-.05,0ZM56.73,43.56l.34,8.49,1.75,7.34,2-.27-.55-7.44.84-9.19-4.38,1.07Z"/>
        </g>
        <g>
          <polygon class="cls-4" points="60.84 54.43 57.5 54.88 58.45 58.78 61.06 58.36 60.84 54.43"/>
          <path class="cls-1" d="M58.45,59.16c-.17,0-.32-.12-.36-.29l-.95-3.9c-.03-.1,0-.21.05-.3.06-.09.15-.15.26-.16l3.34-.45c.1-.01.21.02.29.08.08.07.13.16.13.27l.22,3.93c.01.19-.12.36-.31.39l-2.61.42s-.04,0-.06,0ZM57.96,55.19l.77,3.16,1.94-.31-.18-3.19-2.52.34Z"/>
        </g>
        <g>
          <path class="cls-4" d="M61.02,58.15l-3.18.51-.47,1.48-2.89,1.37c-.59.3-.96.9-.98,1.56v.33c-.02.58.49,1.02,1.06.93l6.23-1.03c.67-.11,1.11-.75.97-1.41l-.76-3.73Z"/>
          <path class="cls-1" d="M54.42,64.71c-.31,0-.61-.11-.85-.32-.29-.25-.46-.62-.45-1.01v-.33c.02-.8.48-1.52,1.19-1.88l2.75-1.31.42-1.32c.04-.13.16-.23.3-.26l3.18-.51c.21-.02.39.1.43.3l.76,3.73c.09.42,0,.85-.24,1.2s-.61.59-1.03.66l-6.23,1.03c-.07.01-.14.02-.21.02ZM58.13,58.99l-.4,1.26c-.03.1-.1.18-.2.22l-2.89,1.37c-.45.23-.75.71-.76,1.23v.33c-.01.16.06.32.18.43.12.11.28.15.45.13l6.23-1.03c.22-.04.41-.16.54-.34.13-.18.17-.41.13-.62l-.69-3.38-2.59.42ZM57.37,60.14h0,0Z"/>
        </g>
        <g>
          <polygon class="cls-2" points="46.83 41.8 44.65 50.32 44.19 58.27 46.87 58.69 48.55 51.06 52.16 42.07 46.83 41.8"/>
          <path class="cls-1" d="M46.87,59.07s-.04,0-.06,0l-2.68-.42c-.19-.03-.33-.2-.32-.39l.46-7.95,2.19-8.6c.04-.17.18-.3.38-.28l5.33.28c.12,0,.23.07.3.17.06.1.08.23.03.34l-3.62,8.99-1.66,7.57c-.04.17-.19.29-.37.29ZM44.58,57.95l1.99.31,1.6-7.29,3.44-8.56-4.5-.23-2.11,8.23-.43,7.54Z"/>
        </g>
        <g>
          <polygon class="cls-4" points="47.94 53.78 44.61 53.25 44.4 57.26 47.03 57.61 47.94 53.78"/>
          <path class="cls-1" d="M47.03,57.98s-.03,0-.05,0l-2.62-.35c-.19-.03-.34-.2-.33-.39l.21-4.01c0-.11.06-.21.14-.27.08-.07.19-.1.29-.08l3.33.53c.1.02.2.08.25.16.06.09.08.19.05.29l-.91,3.83c-.04.17-.19.29-.37.29ZM44.79,56.93l1.95.26.74-3.1-2.51-.4-.17,3.25Z"/>
        </g>
        <g>
          <path class="cls-4" d="M47.05,57.39l-3.19-.42-.88,1.28-3.16.49c-.65.12-1.18.59-1.38,1.21l-.1.31c-.18.55.19,1.13.76,1.2l6.27.8c.67.09,1.28-.4,1.34-1.07l.34-3.8Z"/>
          <path class="cls-1" d="M45.52,62.65c-.07,0-.13,0-.2-.01l-6.27-.8c-.38-.05-.72-.27-.93-.59-.21-.33-.26-.73-.14-1.09l.1-.31c.25-.76.88-1.32,1.67-1.47l3.01-.46.79-1.14c.08-.12.22-.18.36-.16l3.19.42c.2.03.34.21.32.41l-.34,3.8c-.04.43-.25.81-.58,1.08-.28.22-.62.34-.97.34ZM44.04,57.37l-.75,1.09c-.06.09-.15.14-.25.16l-3.16.49c-.5.09-.92.46-1.08.96l-.1.31c-.05.16-.03.32.06.46.09.14.23.23.39.25l6.27.8c.22.03.44-.03.61-.17.17-.14.28-.34.3-.56l.31-3.44-2.6-.34Z"/>
        </g>
        <g>
          <path class="cls-1" d="M59.34,28.23l1.71,2.89c1.12,1.89,1.72,4.03,1.75,6.23l.09,6.08-7.53.78-1.06-5.18-2.04,4.81-6.65-1.41,5.53-14.51,8.2.32Z"/>
          <path class="cls-1" d="M55.36,44.59c-.18,0-.33-.12-.37-.3l-.82-4-1.57,3.7c-.07.17-.24.25-.42.22l-6.65-1.41c-.11-.02-.2-.09-.25-.19-.05-.1-.06-.21-.02-.31l5.53-14.51c.06-.15.2-.24.37-.24l8.2.32c.13,0,.24.07.31.18l1.71,2.89c1.15,1.94,1.77,4.16,1.8,6.41l.09,6.08c0,.19-.14.36-.34.38l-7.53.78s-.03,0-.04,0ZM54.3,38.66s.02,0,.04,0c.16.02.3.14.33.3l.99,4.85,6.85-.71-.08-5.74c-.03-2.12-.62-4.21-1.7-6.04l-1.61-2.72-7.72-.3-5.28,13.85,5.92,1.26,1.92-4.52c.06-.14.2-.23.35-.23Z"/>
        </g>
        <g>
          <path class="cls-2" d="M53,13.41l.55-2.54,3.96-.09.29,2.04s-.47,2.66-1.98,2.7-2.8-.78-2.82-2.1Z"/>
          <path class="cls-1" d="M55.7,15.88c-.94,0-1.79-.31-2.36-.85-.46-.44-.71-1-.71-1.62,0-.03,0-.06,0-.08l.55-2.54c.04-.17.18-.29.36-.3l3.96-.09c.16-.02.35.13.38.32l.29,2.04s0,.08,0,.12c-.02.12-.55,2.96-2.34,3.01-.04,0-.09,0-.13,0ZM53.38,13.44c.02.41.18.76.48,1.05.45.43,1.16.66,1.95.64.96-.03,1.48-1.64,1.62-2.33l-.24-1.65-3.33.08-.48,2.21Z"/>
        </g>
        <g>
          <polygon class="cls-4" points="49.49 20.73 50.64 29.6 60.76 29.64 63.94 19.2 62.47 13.78 58.01 12.04 54.83 15.25 53.13 12.04 48.27 13.9 45.53 23.58 50.64 25.26 49.49 20.73"/>
          <path class="cls-1" d="M60.76,30.01h0l-10.12-.04c-.19,0-.35-.14-.37-.33l-.56-4.3-4.3-1.41c-.19-.06-.3-.26-.24-.46l2.74-9.68c.03-.11.12-.21.23-.25l4.85-1.86c.18-.07.38,0,.46.17l1.46,2.76,2.82-2.85c.11-.11.27-.14.4-.09l4.46,1.75c.11.04.19.14.23.25l1.47,5.42c.02.07.02.14,0,.21l-3.18,10.44c-.05.16-.19.27-.36.27ZM50.97,29.22l9.51.04,3.07-10.07-1.39-5.13-4.05-1.59-3.01,3.04c-.08.09-.2.13-.32.11-.12-.02-.22-.09-.28-.2l-1.55-2.92-4.37,1.67-2.59,9.16,3.61,1.19-.49-3.74c-.03-.2.11-.38.3-.42.19-.04.38.08.43.28l1.16,4.53c.03.13,0,.27-.11.37-.1.09-.24.12-.37.08h-.03s.47,3.61.47,3.61Z"/>
        </g>
        <g>
          <path class="cls-2" d="M61.37,21.73l-.47,3.62-6.4-4.05-4.06.91,10.04,6.97c.83.58,1.93.62,2.8.1h0c.69-.41,1.15-1.13,1.25-1.93l.63-5.48-3.79-.13Z"/>
          <path class="cls-1" d="M61.96,30.01c-.59,0-1.19-.18-1.69-.53l-10.04-6.97c-.12-.08-.18-.23-.15-.38.03-.15.14-.26.29-.29l4.06-.91c.1-.02.2,0,.28.05l5.9,3.73.4-3.04c.02-.19.19-.35.38-.33l3.79.13c.1,0,.2.05.27.13.07.08.1.18.09.29l-.63,5.48c-.1.91-.64,1.74-1.43,2.21-.47.28-.99.42-1.52.42ZM51.36,22.38l9.34,6.49c.71.49,1.65.53,2.4.08.59-.35.99-.97,1.06-1.65l.58-5.08-3.04-.11-.43,3.28c-.02.13-.1.24-.21.29-.12.05-.25.05-.36-.02l-6.26-3.96-3.08.69Z"/>
        </g>
        <g>
          <polyline class="cls-4" points="61.09 20.73 60.76 24.37 65.77 24.64 64.68 14.89 62.47 13.78 61.06 13.23"/>
          <path class="cls-1" d="M65.77,25.01s-.01,0-.02,0l-5.01-.26c-.1,0-.2-.05-.26-.13-.07-.08-.1-.18-.09-.28l.33-3.64c.02-.21.21-.37.41-.34.21.02.36.2.34.41l-.29,3.25,4.18.22-1.02-9.11-2.03-1.01-1.38-.54c-.19-.08-.29-.29-.21-.49.08-.19.29-.29.49-.21l1.41.55,2.24,1.12c.11.06.19.17.21.29l1.09,9.75c.01.11-.02.22-.1.3-.07.08-.17.12-.27.12Z"/>
        </g>
        <g>
          <polygon class="cls-3" points="54.25 49.54 48.18 50.35 45.61 37.3 46.17 27.91 43.11 36.95 41.15 50.91 34.85 49.54 38.07 35.92 43.91 17.33 53.84 20.65 52.64 36.46 54.25 49.54"/>
          <path class="cls-1" d="M41.15,51.28s-.05,0-.08,0l-6.3-1.37c-.1-.02-.18-.08-.24-.17-.05-.09-.07-.19-.05-.29l3.22-13.62,5.84-18.62c.03-.1.1-.18.19-.22.09-.05.19-.05.29-.02l9.93,3.33c.16.05.27.21.25.38l-1.19,15.8,1.61,13.01c.03.2-.12.39-.32.42l-6.07.82c-.19.02-.38-.11-.42-.3l-2.57-13.05s0-.06,0-.09l.39-6.6-2.16,6.39-1.94,13.89c-.01.1-.07.2-.16.26-.06.04-.14.07-.21.07ZM35.31,49.25l5.53,1.2,1.9-13.55,3.08-9.11c.06-.18.24-.29.43-.25.18.04.31.2.3.39l-.56,9.34,2.49,12.66,5.36-.72-1.56-12.71,1.17-15.58-9.29-3.11-5.72,18.23-3.12,13.22Z"/>
        </g>
        <path class="cls-1" d="M53,31.24c-.06,0-.12-.01-.18-.04l-2.36-1.27c-.1-.05-.17-.15-.19-.25l-.79-3.85c-.04-.2.09-.4.29-.44.21-.04.4.09.44.29l.76,3.68,2.21,1.19c.18.1.25.33.15.51-.07.13-.2.2-.33.2Z"/>
        <path class="cls-1" d="M40.95,27.12c-.1,0-.2-.04-.27-.12-.14-.15-.13-.39.02-.53l2.25-2.11c.15-.14.39-.13.53.02.14.15.13.39-.02.53l-2.25,2.11c-.07.07-.17.1-.26.1Z"/>
        <path class="cls-1" d="M46.58,26.36s-.05,0-.08,0c-.2-.04-.33-.24-.29-.45l1.56-7.24c.04-.2.25-.33.45-.29.2.04.33.24.29.45l-1.56,7.24c-.04.18-.19.3-.37.3Z"/>
        <g>
          <path class="cls-2" d="M55.61,21.36l-1.44-2.48h-3.12s-.99,1.46.08,1.72,1.66.32,1.66.32l.33,1.51.08.03c.97.36,2.04-.13,2.41-1.1h0Z"/>
          <path class="cls-1" d="M53.85,22.95c-.26,0-.52-.05-.78-.14-.12-.04-.29-.18-.32-.3l-.27-1.25c-.28-.04-.77-.13-1.44-.29-.45-.11-.64-.38-.71-.59-.26-.67.3-1.54.41-1.71.07-.1.19-.16.31-.16h3.12c.13,0,.26.07.32.18l1.44,2.48c.06.1.07.21.03.32-.34.9-1.2,1.46-2.11,1.46ZM53.44,22.14c.74.18,1.44-.14,1.75-.75l-1.24-2.13h-2.69c-.16.29-.3.68-.23.86,0,.02.03.08.19.12,1.02.25,1.6.31,1.61.31.16.02.3.13.33.29l.28,1.3Z"/>
        </g>
        <path class="cls-1" d="M57.38,17.98c-.09,0-.18-.04-.25-.1l-2.33-2.16-2.47,1.71c-.11.08-.25.09-.37.03s-.2-.17-.21-.3l-.43-4.55c-.02-.21.13-.39.34-.41.2-.02.39.13.41.34l.37,3.91,2.19-1.52c.14-.1.34-.09.47.03l2.2,2.03,2.41-4.37c.1-.18.33-.25.51-.15.18.1.25.33.15.51l-2.64,4.79c-.06.1-.15.17-.27.19-.02,0-.04,0-.06,0Z"/>
        <g>
          <path class="cls-1" d="M62.34,12.36c.24,1.12.15,2.27-.43,3.32-.61,1.09-1.68,1.91-2.89,2.22.63-1.06.84-2.32.83-3.55s-.21-2.45-.34-3.67c-.04-.38-.07-.79.1-1.13s.62-.6,1-.46c.36.13.59.62.78.93.44.72.79,1.52.96,2.34Z"/>
          <path class="cls-1" d="M59.01,18.28c-.12,0-.23-.05-.3-.15-.09-.12-.1-.29-.02-.42.52-.87.79-2,.78-3.35,0-.86-.11-1.75-.22-2.6-.04-.35-.08-.69-.12-1.04-.05-.44-.07-.9.13-1.33.23-.48.88-.86,1.46-.65.43.15.69.6.88.93l.09.15c.49.79.84,1.64,1.01,2.46h0c.27,1.3.11,2.54-.47,3.58-.66,1.17-1.83,2.07-3.13,2.4-.03,0-.06.01-.09.01ZM60.39,9.43c-.17,0-.37.14-.44.29-.12.25-.1.58-.06.93.04.34.08.68.12,1.02.11.88.22,1.78.22,2.69,0,1.09-.15,2.05-.47,2.87.76-.38,1.41-.99,1.83-1.73.5-.9.63-1.93.39-3.06h0c-.16-.73-.47-1.5-.91-2.22l-.1-.17c-.13-.22-.32-.54-.49-.61-.03,0-.06-.01-.09-.01Z"/>
        </g>
        <g>
          <path class="cls-2" d="M50.88,6.16c-.09,3.09,1.62,5.65,4.35,5.74s5.43-2.35,5.53-5.44-2.04-5.67-4.77-5.75-5.01,2.36-5.11,5.45Z"/>
          <path class="cls-1" d="M55.36,12.27s-.1,0-.14,0c-2.84-.08-4.82-2.66-4.71-6.12.05-1.59.64-3.07,1.67-4.16,1.04-1.11,2.4-1.7,3.83-1.65,2.93.09,5.23,2.84,5.13,6.14-.05,1.57-.72,3.05-1.89,4.17-1.09,1.04-2.5,1.63-3.88,1.63ZM55.85,1.08c-1.17,0-2.28.5-3.13,1.42-.9.96-1.42,2.27-1.46,3.67-.09,3.03,1.59,5.28,3.99,5.35,1.21.04,2.49-.48,3.48-1.43,1.03-.98,1.62-2.28,1.66-3.65.09-2.88-1.89-5.29-4.41-5.36-.04,0-.08,0-.12,0ZM50.88,6.16h0,0Z"/>
        </g>
        <g>
          <path class="cls-1" d="M53.04,4.39c.7-.64,1.29-1.39,1.87-2.15.36,1.34,1.21,2.51,2.29,3.39s2.05,1.67,3.38,2.07c.4-.7,1.04-5.5-2.07-6.99-.93-.45-2.82-.51-3.59.24-.49-.38-1.17-.43-1.74-.22-.58.21-1.48,1.27-1.77,1.81-.98,1.84-.52,3.61-.52,3.61.57-.26,1.7-1.35,2.16-1.77Z"/>
          <path class="cls-1" d="M60.57,8.07s-.07,0-.11-.02c-1.41-.42-2.43-1.25-3.5-2.13-.99-.81-1.75-1.82-2.18-2.9-.48.6-.95,1.15-1.49,1.64l-.23.21c-.75.69-1.53,1.39-2.03,1.62-.1.05-.22.05-.32,0-.1-.05-.17-.14-.2-.25-.02-.08-.48-1.94.55-3.88.29-.54,1.24-1.72,1.97-1.99.63-.23,1.31-.19,1.85.11,1.01-.69,2.87-.56,3.78-.12,1.11.54,1.89,1.49,2.3,2.84.61,1.96.23,4.17-.07,4.68-.07.12-.19.19-.32.19ZM54.91,1.87s.05,0,.07,0c.14.03.25.13.29.27.32,1.18,1.08,2.32,2.16,3.2.93.76,1.81,1.48,2.91,1.88.18-.67.37-2.28-.1-3.8-.35-1.14-.99-1.94-1.91-2.38-.87-.42-2.57-.41-3.17.18-.13.13-.34.14-.49.03-.36-.28-.89-.34-1.38-.16-.46.17-1.3,1.14-1.57,1.64-.58,1.1-.61,2.18-.56,2.81.46-.35,1.03-.88,1.39-1.21l.23-.21h0c.66-.6,1.22-1.3,1.83-2.1.07-.09.18-.15.3-.15Z"/>
        </g>
        <g>
          <path class="cls-2" d="M46.62,16.14c.13.08.25.18.32.31.09.16.1.35.1.54,0,.32.02.63.02.95,0,.05,0,.11-.03.14-.03.03-.07.05-.12.06-.99.26-2.09.13-2.98.62-.13.07-.26.16-.41.18-.3.04-.58-.21-.67-.51s-.02-.61.07-.9c.1-.34.08-.84.27-1.12.21-.31.74-.51,1.08-.6.78-.22,1.65-.12,2.33.33Z"/>
          <path class="cls-1" d="M43.46,19.33c-.46,0-.84-.38-.96-.79-.11-.39-.03-.78.07-1.11.03-.11.05-.24.07-.37.04-.28.08-.61.26-.86.27-.39.85-.62,1.29-.75.9-.26,1.89-.12,2.64.38.14.09.32.23.44.44.14.25.14.51.15.71l.02.95c0,.08,0,.25-.12.39-.11.13-.26.17-.31.18-.4.1-.81.15-1.21.19-.61.07-1.19.13-1.67.4-.19.11-.35.2-.54.23-.04,0-.08,0-.12,0ZM45.1,16.07c-.24,0-.47.03-.71.1-.43.12-.77.3-.88.45-.07.11-.11.34-.13.54-.02.17-.05.33-.09.48-.07.23-.13.49-.07.69.04.13.14.25.25.24.05,0,.13-.05.21-.1.69-.39,1.37-.46,2.03-.53.34-.04.66-.07.97-.14l-.02-.81c0-.13,0-.28-.05-.36-.04-.07-.13-.14-.2-.18h0c-.38-.25-.84-.38-1.31-.38Z"/>
        </g>
      </g>
      <g>
        <g>
          <polygon class="cls-3" points="13.31 79.75 9.27 74.57 17.45 64.34 21.53 55.43 13.89 60.64 .37 58.69 1.35 50.91 13.55 51.61 26.65 38.01 29.22 54.46 24.31 67.54 13.31 79.75"/>
          <path class="cls-1" d="M13.31,80.12h-.01c-.11,0-.21-.06-.28-.14l-4.04-5.18c-.11-.14-.11-.33,0-.46l8.18-10.23,3.47-7.61-6.52,4.45c-.08.05-.17.08-.27.06l-13.52-1.95c-.2-.03-.34-.21-.32-.42l.98-7.78c.02-.2.18-.36.39-.33l12.03.7,12.98-13.48c.1-.1.25-.14.38-.1.14.04.24.16.26.3l2.57,16.45c.01.06,0,.13-.02.19l-4.91,13.08s-.04.08-.07.12l-11,12.21c-.07.08-.17.12-.28.12ZM9.75,74.57l3.58,4.59,10.65-11.82,4.85-12.92-2.43-15.6-12.58,13.06c-.08.08-.19.13-.29.11l-11.85-.69-.89,7.07,13.01,1.88,7.51-5.13c.14-.1.33-.09.45.02.13.11.17.29.1.44l-4.08,8.91-8.04,10.08Z"/>
        </g>
        <path class="cls-1" d="M21.42,46.85h-2.92c-.21,0-.38-.17-.38-.38s.17-.38.38-.38h2.81l2.66-1.63c.18-.11.41-.05.52.12.11.18.05.41-.12.52l-2.75,1.68c-.06.04-.13.05-.2.05Z"/>
        <path class="cls-1" d="M27.01,60.72c-.2,0-.36-.15-.37-.35l-.33-4.46c-.02-.21.14-.39.35-.4.21-.02.39.14.4.35l.33,4.46c.02.21-.14.39-.35.4,0,0-.02,0-.03,0Z"/>
        <path class="cls-1" d="M23.01,54.09c-.09,0-.17-.03-.24-.09-.16-.13-.18-.37-.05-.53l5.14-6.12c.13-.16.37-.18.53-.05.16.13.18.37.05.53l-5.14,6.12c-.07.09-.18.13-.29.13Z"/>
        <g>
          <g>
            <g>
              <rect class="cls-2" x="40.18" y="45.93" width="3.73" height="4.38"/>
              <path class="cls-1" d="M43.91,50.68h-3.73c-.21,0-.38-.17-.38-.38v-4.38c0-.21.17-.38.38-.38h3.73c.21,0,.38.17.38.38v4.38c0,.21-.17.38-.38.38ZM40.56,49.93h2.98v-3.63h-2.98v3.63Z"/>
            </g>
            <g>
              <path class="cls-2" d="M46.94,41.66c.1,3.2-1.68,5.85-4.5,5.93-2.82.08-5.62-2.43-5.72-5.63-.1-3.2,2.11-5.86,4.94-5.95s5.19,2.44,5.28,5.64Z"/>
              <path class="cls-1" d="M42.29,47.98c-3.09,0-5.85-2.76-5.95-5.99-.05-1.64.47-3.2,1.46-4.39,1-1.21,2.37-1.9,3.84-1.94,3.03-.07,5.57,2.6,5.67,6h0c.11,3.58-1.94,6.23-4.87,6.32-.05,0-.1,0-.15,0ZM41.79,36.4s-.08,0-.13,0c-1.26.04-2.42.63-3.29,1.67-.87,1.05-1.33,2.43-1.29,3.89.09,2.89,2.6,5.39,5.33,5.26,2.49-.08,4.23-2.41,4.14-5.55h0c-.09-2.94-2.22-5.28-4.77-5.28Z"/>
            </g>
            <g>
              <path class="cls-4" d="M23.59,69.86l-1.65.3-.81,1.46c-.55.98-1.87,1.2-2.7.44l-.59-.53,2.25-5.68,4.23,1.7-.72,2.32Z"/>
              <path class="cls-1" d="M19.59,72.89c-.52,0-1.03-.19-1.42-.55l-.59-.54c-.12-.1-.15-.27-.1-.42l2.25-5.68c.04-.09.11-.17.2-.21.09-.04.2-.04.29,0l4.23,1.7c.18.07.28.27.22.46l-.72,2.32c-.04.13-.15.23-.29.26l-1.48.27-.73,1.31c-.32.57-.87.96-1.51,1.06-.12.02-.23.03-.35.03ZM18.27,71.42l.4.36c.31.28.73.4,1.14.34.42-.07.77-.32.98-.69l.81-1.46c.05-.1.15-.17.26-.19l1.43-.26.55-1.77-3.56-1.43-2.01,5.09ZM23.59,69.86h0,0Z"/>
            </g>
            <g>
              <polygon class="cls-2" points="32.18 67.99 29.24 69.8 24.31 67.54 23.59 69.86 28.54 73.54 34.85 71.36 32.18 67.99"/>
              <path class="cls-1" d="M28.54,73.91c-.08,0-.16-.03-.22-.07l-4.95-3.68c-.13-.09-.18-.26-.13-.41l.72-2.32c.03-.1.11-.19.21-.23.1-.04.21-.04.31,0l4.75,2.18,2.76-1.71c.16-.1.37-.06.49.09l2.68,3.37c.08.1.1.22.07.34-.03.12-.12.21-.24.25l-6.32,2.18s-.08.02-.12.02ZM24.02,69.71l4.58,3.4,5.63-1.94-2.14-2.7-2.65,1.64c-.11.07-.24.07-.35.02l-4.54-2.08-.52,1.66Z"/>
            </g>
            <g>
              <path class="cls-4" d="M44.06,86.17l.25,1.57,2.04,1.19c.66.38.96,1.17.74,1.9l-.4,1.28-6.27-2.33,1.45-4.32,2.18.72Z"/>
              <path class="cls-1" d="M46.69,92.48s-.09,0-.13-.02l-6.27-2.33c-.19-.07-.29-.28-.22-.47l1.45-4.32c.07-.2.28-.31.47-.24l2.18.72c.13.04.23.16.25.3l.22,1.39,1.89,1.1c.81.47,1.19,1.43.91,2.33l-.4,1.28c-.03.1-.1.18-.19.23-.05.03-.11.04-.17.04ZM40.9,89.54l5.55,2.07.28-.9c.17-.56-.06-1.17-.57-1.46l-2.04-1.19c-.1-.06-.16-.15-.18-.26l-.22-1.34-1.61-.53-1.22,3.63Z"/>
            </g>
            <g>
              <polygon class="cls-2" points="46.69 73.52 46.45 79.12 44.06 86.17 41.88 85.44 42.79 78.81 41.57 73.33 46.69 73.52"/>
              <path class="cls-1" d="M44.06,86.54s-.08,0-.12-.02l-2.18-.72c-.17-.06-.28-.23-.25-.41l.9-6.57-1.2-5.41c-.03-.11,0-.23.08-.32.07-.09.19-.14.3-.13l5.12.18c.1,0,.19.05.26.12s.1.17.1.27l-.24,5.61s0,.07-.02.11l-2.4,7.04c-.05.16-.2.25-.35.25ZM42.29,85.19l1.53.51,2.26-6.64.22-5.18-4.26-.15,1.11,5s.01.09,0,.13l-.86,6.33Z"/>
            </g>
            <g>
              <path class="cls-1" d="M45.22,60.64c-3.1.94-5.94,0-5.94,0h0c-1.95,1.03-3.54,2.57-4.59,4.43l-3.14,2.79,3.73,5.26,4.82-4.71.35,5.44h7.52l-.03-7.07c0-1.63-.55-3.23-1.54-4.56l-1.17-1.57Z"/>
              <path class="cls-1" d="M47.97,74.21h-7.52c-.2,0-.36-.15-.37-.35l-.3-4.62-4.23,4.14c-.08.08-.18.12-.3.11-.11,0-.21-.07-.27-.16l-3.73-5.25c-.11-.16-.09-.37.06-.5l3.09-2.75c1.09-1.9,2.72-3.46,4.71-4.52.09-.05.2-.06.29-.03.03,0,2.78.89,5.72,0,.15-.05.31,0,.41.13l1.17,1.57c1.05,1.41,1.61,3.06,1.62,4.78l.03,7.06c0,.1-.04.2-.11.27s-.17.11-.27.11ZM40.8,73.46h6.79l-.03-6.69c0-1.56-.51-3.06-1.47-4.34l-1.02-1.37c-2.69.74-5.12.15-5.76-.03-1.83,1-3.31,2.45-4.31,4.21-.02.04-.05.07-.08.1l-2.89,2.56,3.28,4.62,4.5-4.41c.11-.1.26-.13.4-.08.14.05.23.18.24.33l.33,5.09Z"/>
            </g>
            <g>
              <polyline class="cls-2" points="38.35 48.87 33.17 48.34 30.23 42.61 29.61 40.19 26.65 38.01 25.6 40.61 28.39 43.74 30.43 50.88 39.32 54.93"/>
              <path class="cls-1" d="M39.32,55.31c-.05,0-.1-.01-.16-.03l-8.9-4.05c-.1-.05-.17-.13-.21-.24l-2.02-7.06-2.73-3.06c-.1-.11-.12-.26-.07-.39l1.05-2.6c.04-.11.13-.19.25-.22.11-.03.23,0,.33.06l2.96,2.18c.07.05.12.12.14.21l.62,2.42,2.82,5.48,4.98.51c.21.02.36.21.33.41-.02.21-.21.34-.41.33l-5.18-.53c-.13-.01-.24-.09-.3-.2l-2.94-5.74-.61-2.37-2.46-1.81-.79,1.94,2.63,2.95s.06.09.08.15l1.99,6.97,8.74,3.98c.19.09.27.31.19.5-.06.14-.2.22-.34.22Z"/>
            </g>
            <g>
              <path class="cls-2" d="M47.97,49.52l1.8.79,2.04,5.62,2.77-4.37,1.91-1.34.69-1.9,1.36-.49.81,3.76-2.86,1.64-3.68,5.96c-.39.63-1.11.96-1.83.85h0c-.63-.09-1.17-.51-1.42-1.1l-1.57-3.67v-5.75Z"/>
              <path class="cls-1" d="M51.23,60.43c-.11,0-.22,0-.33-.02-.75-.11-1.41-.62-1.71-1.32l-1.57-3.67s-.03-.1-.03-.15v-5.75c0-.13.06-.24.16-.31.11-.07.24-.08.36-.03l1.8.79c.09.04.17.12.2.21l1.78,4.91,2.36-3.73s.06-.08.1-.11l1.81-1.27.65-1.79c.04-.1.12-.19.23-.22l1.36-.49c.1-.04.21-.03.31.02.09.05.16.14.18.25l.81,3.76c.04.16-.04.32-.18.4l-2.78,1.59-3.63,5.88c-.41.66-1.12,1.05-1.88,1.05ZM48.35,55.19l1.54,3.6c.2.46.63.8,1.13.87.57.08,1.15-.18,1.46-.68l3.68-5.96c.03-.05.08-.1.13-.13l2.62-1.5-.67-3.07-.79.28-.63,1.74c-.03.07-.07.13-.14.18l-1.85,1.3-2.73,4.31c-.08.12-.23.18-.36.17-.14-.02-.26-.11-.31-.25l-1.99-5.47-1.12-.49v5.1Z"/>
            </g>
            <g>
              <path class="cls-4" d="M33.58,53.29l1.15-5.34,5.45-.12s1.86,1.66,3.73,0l5.73,1.66,2.25,5.53-3.66,3.02-.81-1.04s-1.1,2.64-1.98,3.52c-3.62,1.28-6.75,0-6.75,0,0,0-.84-1.54-1.26-5.39l-3.86-1.84Z"/>
              <path class="cls-1" d="M42.08,61.47c-2.02,0-3.44-.57-3.53-.6-.08-.03-.15-.09-.19-.17-.04-.06-.85-1.59-1.28-5.32l-3.67-1.75c-.16-.07-.24-.25-.2-.42l1.14-5.34c.04-.17.18-.29.36-.3l5.45-.12c.1,0,.19.03.26.09.07.06,1.64,1.41,3.23,0,.1-.08.23-.11.35-.08l5.73,1.66c.11.03.2.11.24.22l2.25,5.53c.06.15.02.33-.11.43l-3.66,3.02c-.08.06-.18.09-.28.08-.1-.01-.19-.06-.25-.14l-.42-.54c-.39.85-1.14,2.39-1.8,3.06-.04.04-.09.07-.14.09-1.26.45-2.46.59-3.49.59ZM38.96,60.22c.61.21,3.28,1,6.27-.02.81-.88,1.83-3.32,1.84-3.34.05-.12.16-.21.3-.23.13-.01.26.04.35.14l.57.73,3.15-2.6-2.08-5.11-5.37-1.56c-1.54,1.23-3.18.57-3.95-.04l-5.02.11-1.02,4.76,3.59,1.72c.12.06.2.17.21.3.34,3.13.96,4.71,1.15,5.13Z"/>
            </g>
            <g>
              <path class="cls-1" d="M37.83,37.37c-.65.75-.74,1.46-1.09,2.31-.38.92-1.16,1.74-1.92,2.35-.95.78-2.05,1.36-3.16,1.9,1.22.4,2.4.95,3.5,1.63,1.52.94,2.68,1.7,4.48,1.91,1.95.23,3.9.45,5.84.68.09.01.19.02.27-.02.07-.03.11-.1.15-.16,1.25-1.81,1.75-4.09,1.45-6.26-.27-1.9-.41-3.93-2.17-5.11-.96-.64-2.29-.79-3.28-.19-.56-.53-1.44-.61-2.17-.37s-1.38.72-1.9,1.32Z"/>
              <path class="cls-1" d="M45.6,48.54c-.06,0-.12,0-.17-.01l-5.84-.68c-1.79-.21-2.96-.93-4.43-1.84l-.2-.13c-1.07-.66-2.22-1.2-3.42-1.59-.14-.05-.25-.18-.26-.33-.01-.15.07-.3.21-.36,1.05-.51,2.15-1.09,3.09-1.85.91-.74,1.52-1.48,1.81-2.21.09-.23.17-.45.24-.66.2-.59.39-1.16.91-1.76h0c.59-.69,1.29-1.17,2.06-1.43.83-.28,1.71-.17,2.33.27,1.04-.5,2.39-.37,3.44.33,1.77,1.18,2.03,3.08,2.28,4.92l.06.44c.32,2.29-.23,4.67-1.51,6.53-.05.08-.14.2-.29.28-.11.06-.22.07-.31.07ZM32.61,43.88c.95.37,1.87.83,2.74,1.37l.2.13c1.39.86,2.49,1.54,4.12,1.73l5.84.68c1.24-1.72,1.75-3.91,1.45-6.01l-.06-.45c-.24-1.75-.46-3.41-1.95-4.4-.9-.6-2.06-.68-2.88-.18-.14.09-.33.07-.45-.05-.42-.39-1.13-.5-1.79-.28-.64.22-1.23.62-1.73,1.21h0c-.42.49-.58.96-.77,1.51-.08.22-.16.46-.25.7-.34.84-1.03,1.68-2.03,2.5-.76.62-1.6,1.11-2.44,1.55ZM37.83,37.37h0,0Z"/>
            </g>
          </g>
          <path class="cls-1" d="M51.38,55.33c-.12,0-.23-.05-.31-.16l-1.41-1.98c-.12-.17-.08-.4.09-.52.17-.12.4-.08.52.09l1.41,1.98c.12.17.08.4-.09.52-.07.05-.14.07-.22.07Z"/>
        </g>
      </g>
      <g>
        <g>
          <path class="cls-3" d="M92.65,76.55l4.13-4.17-4.03-9.33,1.8-6.53,3.65,4.75,10.62-2.18-.59-5.02-6.66,1.35-2.17-7.67-4.35-8.07c-1.22,3.09-8.25,9.66-8.25,9.66l-.05,15.28,5.88,11.93Z"/>
          <path class="cls-1" d="M92.65,76.92s-.04,0-.06,0c-.12-.02-.22-.1-.28-.2l-5.88-11.93c-.03-.05-.04-.11-.04-.17l.05-15.28c0-.1.04-.2.12-.27.07-.06,6.99-6.55,8.16-9.53.05-.14.18-.23.33-.24.17-.03.28.07.35.2l4.35,8.07,2.1,7.41,6.32-1.28c.1-.02.21,0,.29.06s.14.16.15.26l.59,5.02c.02.19-.11.37-.3.41l-10.62,2.18c-.13.03-.29-.02-.37-.14l-3.2-4.16-1.57,5.67,3.98,9.21c.06.14.03.3-.08.41l-4.13,4.17c-.07.07-.17.11-.27.11ZM87.14,64.53l5.61,11.38,3.58-3.62-3.93-9.1c-.03-.08-.04-.17-.02-.25l1.8-6.53c.04-.14.15-.24.29-.27.15-.03.28.03.37.14l3.51,4.57,10.05-2.07-.5-4.28-6.26,1.27c-.19.04-.38-.08-.44-.27l-2.17-7.67-3.96-7.35c-1.69,3.08-7,8.16-7.9,9l-.05,15.03Z"/>
        </g>
        <path class="cls-1" d="M86.79,59.22c-.12,0-.23-.05-.3-.15-.12-.17-.09-.4.08-.52l2.31-1.69.52-4.02c.03-.21.2-.36.42-.32.21.03.35.21.32.42l-.54,4.18c-.01.1-.07.19-.15.25l-2.44,1.78c-.07.05-.14.07-.22.07Z"/>
        <path class="cls-1" d="M99.85,50.4c-.06,0-.12-.01-.18-.04l-2.78-1.48c-.18-.1-.25-.32-.16-.51.1-.18.33-.25.51-.16l2.78,1.48c.18.1.25.32.16.51-.07.13-.2.2-.33.2Z"/>
        <path class="cls-1" d="M94.51,54.95c-.19,0-.36-.15-.37-.34l-.42-5.23-2.15-5.13c-.08-.19,0-.41.2-.49.19-.08.41,0,.49.2l2.17,5.18s.03.08.03.12l.42,5.29c.02.21-.14.39-.34.4-.01,0-.02,0-.03,0Z"/>
        <g>
          <polygon class="cls-2" points="83.31 62.57 85.04 67.33 77.12 73.52 75.44 72.19 80.72 66.87 79.14 63.71 83.31 62.57"/>
          <path class="cls-1" d="M77.12,73.9c-.08,0-.16-.03-.23-.08l-1.67-1.33c-.08-.07-.14-.17-.14-.27,0-.11.03-.21.11-.29l5.09-5.13-1.46-2.92c-.05-.1-.05-.22,0-.32.05-.1.14-.18.24-.21l4.17-1.14c.19-.06.38.05.45.23l1.73,4.76c.06.15,0,.32-.12.42l-7.92,6.19c-.07.05-.15.08-.23.08ZM76,72.16l1.12.88,7.48-5.84-1.52-4.18-3.39.92,1.37,2.75c.07.14.04.32-.07.43l-4.98,5.03Z"/>
        </g>
        <g>
          <polygon class="cls-4" points="78.02 69.57 79.74 71.47 77.27 73.27 75.96 71.74 78.02 69.57"/>
          <path class="cls-1" d="M77.27,73.65c-.11,0-.21-.04-.29-.13l-1.31-1.53c-.12-.15-.12-.36.01-.5l2.06-2.17c.07-.08.21-.1.28-.12.1,0,.2.05.27.12l1.72,1.9c.07.08.11.18.09.29-.01.11-.07.2-.15.26l-2.47,1.8c-.07.05-.14.07-.22.07ZM76.47,71.76l.87,1.01,1.85-1.35-1.17-1.29-1.55,1.63Z"/>
        </g>
        <g>
          <path class="cls-4" d="M75.74,71.42l1.74,2.17-.55,1.22,1.05,2.56c.2.53.09,1.14-.28,1.57l-.18.21c-.33.38-.92.37-1.23-.03l-3.4-4.28c-.36-.46-.27-1.12.2-1.47l2.66-1.95Z"/>
          <path class="cls-1" d="M76.92,79.81h-.02c-.35,0-.68-.17-.9-.44l-3.4-4.28c-.24-.3-.34-.68-.29-1.06.05-.38.25-.72.56-.95l2.66-1.95c.16-.12.39-.09.51.07l1.74,2.17c.09.11.11.26.05.39l-.49,1.07.99,2.41c.25.67.12,1.42-.34,1.95l-.19.21c-.22.26-.54.41-.89.41ZM75.68,71.94l-2.37,1.74c-.14.11-.24.26-.26.44-.02.18.02.35.14.5l3.4,4.28c.08.1.2.16.32.16.14.01.25-.05.33-.15l.19-.21c.28-.33.36-.78.21-1.19l-1.05-2.55c-.04-.1-.04-.2,0-.3l.46-1.01-1.37-1.71Z"/>
        </g>
        <g>
          <polygon class="cls-2" points="75.44 63.38 74.1 72.07 71.39 79.56 68.77 78.9 70.22 71.22 70.43 61.54 75.44 63.38"/>
          <path class="cls-1" d="M71.39,79.94s-.06,0-.09-.01l-2.63-.67c-.19-.05-.31-.24-.28-.43l1.46-7.68.2-9.62c0-.12.06-.23.16-.3.1-.07.23-.08.34-.04l5.01,1.84c.17.06.27.23.24.41l-1.34,8.7-2.72,7.56c-.05.15-.2.25-.35.25ZM69.2,78.62l1.96.5,2.59-7.17,1.28-8.32-4.23-1.55-.2,9.16-1.4,7.39Z"/>
        </g>
        <g>
          <path class="cls-2" d="M78.05,36.46l.66.05c1,.08,1.95.47,2.71,1.12l4.29,3.64,5.33-.95,1.79-2.42,3.49.87.24,1.7-2.24.31-2.58,1.63-6.75,2.41-6.52-3.24-.42-5.12Z"/>
          <path class="cls-1" d="M84.99,45.19c-.06,0-.11-.01-.17-.04l-6.52-3.24c-.12-.06-.2-.17-.21-.3l-.42-5.12c0-.11.03-.22.11-.3s.19-.12.3-.11l.66.05c1.08.09,2.1.51,2.92,1.21l4.15,3.52,5-.89,1.71-2.3c.09-.12.25-.17.39-.14l3.49.87c.15.04.26.16.28.31l.24,1.7c.01.1-.01.2-.07.28-.06.08-.15.13-.25.15l-2.16.3-2.51,1.58-6.83,2.45s-.08.02-.13.02ZM78.83,41.34l6.19,3.07,6.6-2.36,2.5-1.59s.1-.05.15-.05l1.86-.26-.15-1.08-3-.75-1.65,2.22c-.06.08-.14.13-.23.15l-5.33.95c-.11.02-.22-.01-.31-.08l-4.29-3.64c-.71-.6-1.57-.96-2.5-1.03l-.22-.02.37,4.47Z"/>
        </g>
        <g>
          <path class="cls-4" d="M75.16,34.42l-2.95,1.85c-1.8,1.01-2.74,3.07-2.3,5.09,0,0,1.52,4.07,2.12,8.48,1.53,1.64,5.6,1.84,7.77-.3l1.54-5.67,1.86.79,2.47-4.32-5.29-4.52-5.21-1.39Z"/>
          <path class="cls-1" d="M75.62,51.48s-.1,0-.15,0c-1.54-.03-2.93-.55-3.71-1.39-.05-.06-.09-.13-.1-.21-.58-4.31-2.08-8.36-2.09-8.4-.49-2.25.51-4.46,2.47-5.55l2.93-1.84c.09-.06.19-.07.3-.04l5.21,1.39c.05.01.1.04.15.08l5.29,4.52c.14.12.17.31.08.47l-2.47,4.32c-.09.16-.3.23-.47.16l-1.46-.62-1.43,5.26c-.02.06-.05.12-.1.17-1.08,1.07-2.69,1.68-4.44,1.68ZM72.39,49.67c.66.64,1.81,1.04,3.1,1.07,1.6.04,3.01-.48,3.98-1.39l1.52-5.58c.03-.1.1-.19.2-.24.1-.05.21-.05.31,0l1.55.66,2.15-3.76-4.99-4.27-4.97-1.33-2.81,1.76c-1.69.94-2.54,2.83-2.14,4.7h0s1.5,4.03,2.1,8.38Z"/>
        </g>
        <g>
          <path class="cls-2" d="M78.05,35.12l-.09-1.6-4.1-.1v1.6s3.41,2.29,3.41,2.29c0,0,.76-.81.79-2.19Z"/>
          <path class="cls-1" d="M77.26,37.68c-.07,0-.15-.02-.21-.06l-3.4-2.29c-.1-.07-.17-.19-.17-.31v-1.6c0-.1.03-.2.1-.27s.16-.12.27-.11l4.1.1c.2,0,.35.16.37.35l.09,1.6s0,.02,0,.03c-.02,1.5-.85,2.4-.89,2.44-.07.08-.17.12-.27.12ZM74.24,34.81l2.94,1.98c.2-.31.48-.89.5-1.67l-.07-1.25-3.37-.08v1.02Z"/>
        </g>
        <g>
          <path class="cls-2" d="M80.71,29.23c.1,3.2-1.68,5.85-4.5,5.93-2.82.08-5.62-2.43-5.72-5.63-.1-3.2,2.11-5.86,4.94-5.95,2.82-.08,5.19,2.44,5.28,5.64Z"/>
          <path class="cls-1" d="M76.07,35.54c-1.42,0-2.87-.61-4-1.69-1.21-1.16-1.9-2.69-1.95-4.31-.05-1.64.47-3.2,1.46-4.39,1-1.21,2.37-1.9,3.84-1.94.05,0,.1,0,.15,0,2.96,0,5.42,2.66,5.52,6.01h0c.11,3.58-1.94,6.23-4.87,6.32-.05,0-.1,0-.15,0ZM75.57,23.96s-.08,0-.13,0c-1.26.04-2.42.63-3.29,1.67-.87,1.05-1.33,2.44-1.29,3.89.04,1.42.65,2.77,1.72,3.79,1.02.98,2.37,1.5,3.61,1.48,2.49-.08,4.23-2.41,4.14-5.55h0c-.09-2.94-2.22-5.28-4.77-5.28Z"/>
        </g>
        <g>
          <path class="cls-1" d="M72.03,49.84l-1.62,2.74c-1.06,1.79-1.63,3.82-1.66,5.9l-.09,5.77,7.13.74,1.01-4.91,1.93,4.56,6.31-1.34-5.24-13.75-7.77.3Z"/>
          <path class="cls-1" d="M75.8,65.36s-.03,0-.04,0l-7.13-.74c-.19-.02-.34-.18-.34-.38l.09-5.77c.03-2.14.62-4.24,1.71-6.09l1.62-2.74c.07-.11.18-.18.31-.18l7.77-.3c.16,0,.31.09.37.24l5.24,13.75c.04.1.03.22-.02.31-.05.1-.14.16-.25.19l-6.31,1.34c-.18.04-.35-.06-.42-.22l-1.46-3.45-.77,3.73c-.04.18-.19.3-.37.3ZM69.04,63.91l6.46.67.94-4.58c.03-.16.17-.28.33-.3.17-.02.32.08.38.23l1.81,4.27,5.57-1.18-4.99-13.09-7.29.29-1.52,2.57c-1.02,1.73-1.58,3.71-1.61,5.72l-.08,5.42Z"/>
        </g>
        <g>
          <path class="cls-2" d="M70.53,42.34l2.08,5.02c.52,1.26,1.69,2.13,3.05,2.27l7.22.73,2.99-.68,2.83.49.5-1.67-1.11-1.37-2.41-.1-1.9.64-7.44-1.62-2.09-5.15c-.41-1.01-1.01-1.86-2.08-1.63h0c-1.39.29-2.17,1.77-1.63,3.08Z"/>
          <path class="cls-1" d="M82.88,50.73s-.03,0-.04,0l-7.22-.73c-1.49-.15-2.78-1.11-3.36-2.5l-2.08-5.02c-.3-.73-.26-1.54.1-2.24.37-.7,1.02-1.19,1.79-1.35,1.62-.33,2.29,1.31,2.51,1.86l2.02,4.97,7.14,1.56,1.8-.6s.09-.02.13-.02l2.41.1c.11,0,.21.05.28.14l1.11,1.37c.08.1.1.22.07.34l-.5,1.67c-.05.18-.23.3-.42.26l-2.76-.47-2.92.67s-.06,0-.08,0ZM72.51,39.59c-.09,0-.18.01-.27.03-.55.12-1.02.47-1.28.97-.26.5-.29,1.08-.07,1.6h0l2.08,5.02c.47,1.13,1.52,1.91,2.74,2.04l7.16.73,2.93-.67s.1-.01.15,0l2.5.43.35-1.16-.88-1.08-2.17-.09-1.84.61c-.06.02-.13.03-.2.01l-7.44-1.62c-.12-.03-.22-.11-.27-.22l-2.09-5.15c-.47-1.17-.95-1.44-1.38-1.44Z"/>
        </g>
        <path class="cls-1" d="M78.01,27.96c-.58-.19-1.06-.66-1.28-1.23,1.31.59,2.73.94,4.17,1.02.67-.94,1.29-1.91,1.86-2.92-1.05.11-2.11-.19-3.09-.57s-1.94-.86-2.96-1.15c-.77-.22-1.66-.32-2.32.14-.48.33-.76.92-.71,1.49.18,2.02,2.65,2.95,4.32,3.21Z"/>
        <g>
          <path class="cls-4" d="M70.24,39.02h0c.54-.89,1.65-1.26,2.62-.87h0c.56.23,1,.68,1.21,1.26l1.91,5.3-5.15,1.94-1.08-4.44c-.27-1.09-.09-2.24.5-3.2Z"/>
          <path class="cls-1" d="M70.82,47.03c-.06,0-.12-.01-.17-.04-.09-.05-.16-.14-.19-.24l-1.08-4.44c-.29-1.18-.09-2.45.54-3.49h0c.64-1.05,1.94-1.48,3.08-1.02.66.27,1.18.81,1.42,1.48l1.91,5.3c.07.19-.03.41-.22.48l-5.16,1.94s-.09.02-.13.02ZM72.05,38.37c-.6,0-1.17.31-1.5.84h0c-.53.87-.7,1.93-.46,2.92l.98,4.02,4.41-1.66-1.78-4.96c-.17-.47-.53-.85-1-1.04-.22-.09-.44-.13-.66-.13ZM70.24,39.02h0,0Z"/>
        </g>
        <path class="cls-1" d="M80.72,42.97c-.19,0-.35-.14-.37-.33l-.31-2.38c-.03-.21.12-.39.32-.42.2-.02.39.12.42.32l.31,2.38c.03.21-.12.39-.32.42-.02,0-.03,0-.05,0Z"/>
        <path class="cls-1" d="M75.44,40.05s-.02,0-.03,0c-.13,0-.24-.08-.3-.19l-2.16-3.87c-.1-.18-.04-.41.14-.51.18-.1.41-.04.51.14l1.88,3.37,1.47-1.92c.07-.09.17-.14.29-.15.11,0,.22.04.29.13.4.45.83.93,1.15,1.29.06-.53.17-1.4.35-2.84.03-.21.2-.36.42-.33.21.03.35.21.33.42-.17,1.38-.42,3.48-.44,3.61-.01.14-.11.28-.24.33-.27.1-.28.11-1.82-1.64l-1.54,2.01c-.07.09-.18.15-.3.15Z"/>
        <g>
          <polygon class="cls-4" points="69.71 73.96 72.98 74.78 71.6 78.55 69.05 77.84 69.71 73.96"/>
          <path class="cls-1" d="M71.6,78.93s-.07,0-.1-.01l-2.55-.71c-.18-.05-.3-.24-.27-.42l.67-3.88c.02-.1.08-.19.16-.25.09-.06.2-.08.3-.05l3.27.82c.1.03.19.09.24.19.05.09.06.21.02.3l-1.38,3.77c-.05.15-.2.25-.35.25ZM69.47,77.57l1.89.53,1.12-3.05-2.47-.62-.54,3.14Z"/>
        </g>
        <g>
          <path class="cls-4" d="M69.11,77.63l3.1.87.3,1.52,2.71,1.69c.55.37.85,1,.79,1.66l-.03.32c-.05.58-.61.96-1.17.8l-6.08-1.73c-.65-.18-1.02-.87-.81-1.51l1.18-3.63Z"/>
          <path class="cls-1" d="M75.07,84.91c-.12,0-.24-.02-.36-.05l-6.08-1.73c-.41-.12-.75-.39-.95-.77-.2-.38-.24-.81-.11-1.22l1.18-3.62c.06-.19.26-.3.46-.25l3.1.87c.14.04.24.15.27.29l.27,1.36,2.58,1.6c.67.45,1.04,1.22.97,2.01l-.03.32c-.04.39-.24.73-.56.95-.22.15-.47.23-.73.23ZM69.36,78.09l-1.07,3.28c-.07.21-.05.44.06.64s.28.34.5.4l6.08,1.73c.16.04.33.02.46-.08.13-.09.22-.24.24-.4l.03-.32c.05-.52-.19-1.02-.63-1.31l-2.71-1.68c-.09-.05-.15-.14-.17-.25l-.26-1.29-2.53-.71Z"/>
        </g>
        <g>
          <path class="cls-1" d="M70.36,25.3c-.99,1.5-1.21,3.38-1.12,5.18.09,1.79.45,3.57.49,5.36.91.25,1.83.5,2.77.5s1.92-.31,2.55-1.01c-1.32-.86-2.27-2.25-2.59-3.79-.32-1.54,0-3.2.85-4.51.39-.59.88-1.11,1.25-1.72.22-.36.79-1.44.47-1.89-.24-.34-1.22-.22-1.57-.17-1.26.18-2.41,1-3.1,2.04Z"/>
          <path class="cls-1" d="M72.46,36.71c-.99,0-1.92-.26-2.83-.51-.16-.04-.27-.19-.27-.35-.02-.95-.14-1.91-.25-2.85-.1-.82-.2-1.67-.24-2.51-.11-2.27.27-4.04,1.18-5.4h0c.79-1.19,2.04-2.01,3.36-2.21,1.03-.15,1.66-.04,1.92.33.48.67-.22,1.93-.45,2.3-.21.34-.46.66-.69.96-.2.25-.39.5-.56.76-.81,1.24-1.1,2.78-.8,4.23s1.19,2.74,2.43,3.55c.09.06.15.16.17.26s-.02.22-.09.3c-.64.71-1.66,1.13-2.82,1.14h-.04ZM70.1,35.55c.79.22,1.59.43,2.4.41.77,0,1.46-.22,1.95-.6-1.2-.92-2.05-2.26-2.37-3.75-.34-1.64-.01-3.39.91-4.79.18-.28.39-.55.6-.81.24-.3.46-.59.65-.89.39-.64.59-1.33.48-1.47-.04-.04-.38-.14-1.21-.02-1.09.16-2.18.88-2.84,1.88h0c-.81,1.23-1.16,2.85-1.06,4.95.04.82.14,1.65.24,2.46.1.86.21,1.75.25,2.64ZM70.36,25.3h0,0Z"/>
        </g>
      </g>
    </g>
  </g>
</svg>