<?xml version="1.0" encoding="UTF-8"?>
<svg id="_圖層_2" data-name="圖層 2" xmlns="http://www.w3.org/2000/svg" viewBox="0 0 142.03 115.42">
  <defs>
    <style>
      .cls-1 {
        fill: #db572e;
      }

      .cls-1, .cls-2, .cls-3, .cls-4, .cls-5, .cls-6 {
        stroke-width: 0px;
      }

      .cls-2 {
        fill: #e37d5d;
      }

      .cls-3 {
        fill: #000;
      }

      .cls-4 {
        fill: #643a36;
      }

      .cls-5 {
        fill: #549c35;
      }

      .cls-6 {
        fill: #fff;
      }
    </style>
  </defs>
  <g id="_圖層_5" data-name="圖層 5">
    <g>
      <g>
        <polygon class="cls-3" points="139.98 52.46 116.42 66.06 116.42 105.38 139.98 91.77 139.98 52.46"/>
        <path class="cls-3" d="M116.42,105.75c-.06,0-.13-.02-.19-.05-.12-.07-.19-.19-.19-.33v-39.31c0-.13.07-.26.19-.33l23.56-13.6c.12-.07.26-.07.38,0,.12.07.19.19.19.33v39.31c0,.13-.07.26-.19.33l-23.56,13.6c-.06.03-.12.05-.19.05ZM116.8,66.28v38.44l22.81-13.17v-38.44l-22.81,13.17Z"/>
      </g>
      <g>
        <polygon class="cls-4" points="116.42 100.88 29.94 50.96 29.94 19.5 116.42 69.25 116.42 100.88"/>
        <path class="cls-3" d="M116.42,101.25c-.06,0-.13-.02-.19-.05L29.75,51.29c-.12-.07-.19-.19-.19-.33v-31.46c0-.13.07-.26.19-.32.12-.07.26-.07.38,0l86.48,49.75c.12.07.19.19.19.33v31.62c0,.13-.07.26-.19.33-.06.03-.12.05-.19.05ZM30.31,50.74l85.73,49.48v-30.76L30.31,20.15v30.59Z"/>
      </g>
      <g>
        <path class="cls-1" d="M25.33,27.7v13.24l.9.52v-1.65c0-3.12,1.88-4.56,4.2-3.22s4.2,4.96,4.2,8.08v1.65l3.69,2.13v-1.65c0-3.12,1.88-4.56,4.2-3.22s4.2,4.96,4.2,8.08v1.65l3.78,2.18v-1.65c0-3.12,1.88-4.56,4.2-3.22s4.2,4.96,4.2,8.08v1.65l3.83,2.21c.75-3.75,3.54-5.24,6.88-3.32s6.13,6.65,6.88,11.26l3.83,2.21v-1.65c0-3.12,1.88-4.56,4.2-3.22s4.2,4.96,4.2,8.08v1.65l3.78,2.18v-1.65c0-3.12,1.88-4.56,4.2-3.22s4.2,4.96,4.2,8.08v1.65l3.69,2.13v-1.65c0-3.12,1.88-4.56,4.2-3.22s4.2,4.96,4.2,8.08v1.65l1.77,1.02v-13.24L25.33,27.7Z"/>
        <path class="cls-3" d="M114.78,92.96c-.06,0-.13-.02-.19-.05l-1.77-1.02c-.12-.07-.19-.19-.19-.33v-1.65c0-3-1.8-6.47-4.02-7.75-.88-.51-1.72-.59-2.36-.22-.81.47-1.28,1.6-1.28,3.12v1.65c0,.13-.07.26-.19.33-.12.07-.26.07-.38,0l-3.69-2.13c-.12-.07-.19-.19-.19-.33v-1.65c0-3-1.8-6.47-4.02-7.75-.88-.51-1.72-.59-2.36-.22-.81.47-1.28,1.6-1.28,3.12v1.65c0,.13-.07.26-.19.33-.12.07-.26.07-.38,0l-3.78-2.18c-.12-.07-.19-.19-.19-.33v-1.65c0-3-1.8-6.47-4.02-7.75-.88-.51-1.72-.59-2.36-.22-.81.47-1.28,1.6-1.28,3.12v1.65c0,.13-.07.26-.19.33-.12.07-.26.07-.38,0l-3.83-2.21c-.1-.06-.16-.15-.18-.27-.75-4.63-3.5-9.15-6.69-10.99-1.46-.84-2.82-1.02-3.95-.51-1.17.53-2.02,1.8-2.37,3.57-.02.12-.1.22-.21.27-.11.05-.24.04-.34-.02l-3.83-2.21c-.12-.07-.19-.19-.19-.33v-1.65c0-3-1.8-6.47-4.02-7.75-.88-.51-1.72-.59-2.36-.22-.81.47-1.28,1.6-1.28,3.12v1.65c0,.13-.07.26-.19.33-.12.07-.26.07-.38,0l-3.78-2.18c-.12-.07-.19-.19-.19-.33v-1.65c0-2.99-1.8-6.47-4.02-7.75-.88-.51-1.72-.59-2.36-.22-.81.47-1.28,1.6-1.28,3.12v1.65c0,.13-.07.26-.19.33-.12.07-.26.07-.38,0l-3.69-2.13c-.12-.07-.19-.19-.19-.33v-1.65c0-3-1.8-6.47-4.02-7.75-.88-.51-1.72-.59-2.36-.22-.81.47-1.28,1.6-1.28,3.12v1.65c0,.13-.07.26-.19.33-.12.07-.26.07-.38,0l-.9-.52c-.12-.07-.19-.19-.19-.33v-13.24c0-.13.07-.26.19-.33.12-.07.26-.07.38,0l89.45,51.64c.12.07.19.19.19.33v13.24c0,.13-.07.26-.19.33-.06.03-.12.05-.19.05ZM113.39,91.34l1.02.59v-12.38L25.71,28.35v12.38l.15.08v-1c0-1.79.6-3.16,1.65-3.76.88-.51,1.99-.43,3.11.22,2.42,1.4,4.39,5.17,4.39,8.4v1.43l2.94,1.7v-1c0-1.79.6-3.16,1.65-3.77.88-.51,1.99-.43,3.11.22,2.42,1.4,4.39,5.17,4.39,8.4v1.43l3.03,1.75v-1c0-1.79.6-3.16,1.65-3.76.88-.51,1.99-.43,3.11.22,2.42,1.4,4.39,5.17,4.39,8.4v1.43l3.21,1.85c.46-1.75,1.4-3.02,2.68-3.6,1.35-.61,2.96-.43,4.64.54,3.33,1.92,6.2,6.57,7.03,11.35l3.12,1.8v-1c0-1.79.6-3.16,1.65-3.77.88-.51,1.99-.43,3.11.22,2.42,1.4,4.39,5.17,4.39,8.4v1.43l3.03,1.75v-1c0-1.79.6-3.16,1.65-3.76.88-.51,1.99-.43,3.11.22,2.42,1.4,4.39,5.17,4.39,8.4v1.43l2.94,1.7v-1c0-1.79.6-3.16,1.65-3.77.88-.51,1.99-.43,3.11.22,2.42,1.4,4.39,5.17,4.39,8.4v1.43Z"/>
      </g>
      <g>
        <path class="cls-3" d="M22.13,12.29v37.47l3.24,2.94,1.02-.47v-27.85c0-3.12,1.88-4.56,4.2-3.22s4.2,4.96,4.2,8.08v27.85l2.66,2.6,1.02-.47v-27.85c0-3.12,1.88-4.56,4.2-3.22s4.2,4.96,4.2,8.08v27.85l2.75,2.65,1.02-.47v-27.85c0-3.12,1.88-4.56,4.2-3.22s4.2,4.96,4.2,8.08v27.85l2.6,2.57,1.02-.47v-37.47L22.13,12.29Z"/>
        <path class="cls-3" d="M61.68,74.04c-.1,0-.19-.04-.26-.11l-2.6-2.57c-.07-.07-.11-.17-.11-.27v-27.85c0-3-1.8-6.47-4.02-7.75-.88-.51-1.72-.59-2.36-.22-.81.47-1.28,1.6-1.28,3.12v27.85c0,.15-.08.28-.22.34l-1.02.47c-.14.06-.31.04-.42-.07l-2.75-2.65c-.07-.07-.11-.17-.11-.27v-27.85c0-2.99-1.8-6.47-4.02-7.75-.88-.51-1.72-.59-2.36-.22-.81.47-1.28,1.6-1.28,3.12v27.85c0,.15-.08.28-.22.34l-1.02.47c-.14.06-.31.04-.42-.07l-2.66-2.6c-.07-.07-.11-.17-.11-.27v-27.85c0-3-1.8-6.47-4.02-7.75-.88-.51-1.72-.59-2.36-.22-.81.47-1.28,1.6-1.28,3.12v27.85c0,.15-.08.28-.22.34l-1.02.47c-.14.06-.3.04-.41-.06l-3.24-2.94c-.08-.07-.12-.17-.12-.28V12.29c0-.13.07-.26.19-.33.12-.07.26-.07.38,0l40.58,23.43c.12.07.19.19.19.33v37.47c0,.15-.08.28-.22.34l-1.02.47c-.05.02-.1.03-.16.03ZM59.46,70.94l2.31,2.28.57-.26v-37.02L22.51,12.94v36.66l2.93,2.66.58-.27v-27.61c0-1.79.6-3.16,1.65-3.76.88-.51,1.99-.43,3.11.22,2.42,1.4,4.39,5.17,4.39,8.4v27.69l2.37,2.31.57-.26v-27.61c0-1.79.6-3.16,1.65-3.77.88-.51,1.99-.43,3.11.22,2.42,1.4,4.39,5.17,4.39,8.4v27.69l2.45,2.37.57-.27v-27.61c0-1.79.6-3.16,1.65-3.76.88-.51,1.99-.43,3.11.22,2.42,1.4,4.39,5.17,4.39,8.4v27.69Z"/>
      </g>
      <g>
        <path class="cls-3" d="M117.43,67.29v37.47s-1.01.5-1.01.5l-3.26-2.96v-27.85c0-3.12-1.88-6.74-4.2-8.08s-4.2.1-4.2,3.22v27.85s-1.01.5-1.01.5l-2.68-2.63v-27.85c0-3.12-1.88-6.74-4.2-8.08s-4.2.1-4.2,3.22v27.85s-1.01.5-1.01.5l-2.77-2.68v-27.85c0-3.12-1.88-6.74-4.2-8.08s-4.2.1-4.2,3.22v27.85s-1.01.5-1.01.5l-2.62-2.59v-37.47s40.58,23.43,40.58,23.43Z"/>
        <path class="cls-3" d="M116.42,105.64c-.09,0-.18-.03-.25-.1l-3.26-2.96c-.08-.07-.12-.17-.12-.28v-27.85c0-3-1.8-6.47-4.02-7.75-.88-.51-1.72-.59-2.36-.22-.81.47-1.28,1.6-1.28,3.12v27.85c0,.14-.08.27-.21.34l-1.01.5c-.14.07-.32.04-.43-.07l-2.68-2.63c-.07-.07-.11-.17-.11-.27v-27.85c0-3-1.8-6.47-4.02-7.75-.88-.51-1.72-.59-2.36-.22-.81.47-1.28,1.6-1.28,3.12v27.85c0,.14-.08.27-.21.34l-1.01.5c-.14.07-.31.04-.43-.07l-2.77-2.68c-.07-.07-.11-.17-.11-.27v-27.85c0-3-1.8-6.47-4.02-7.75-.88-.51-1.72-.59-2.36-.22-.81.47-1.28,1.6-1.28,3.12v27.85c0,.14-.08.27-.21.34l-1.01.5c-.14.07-.32.04-.43-.07l-2.62-2.59c-.07-.07-.11-.17-.11-.27v-37.47c0-.13.07-.26.19-.33.12-.07.26-.07.38,0l40.58,23.43c.12.07.19.19.19.33v37.47c0,.14-.08.27-.21.34l-1.01.5c-.05.03-.11.04-.17.04ZM113.54,102.14l2.95,2.68.57-.28v-37.03l-39.83-22.99v36.67l2.32,2.29.56-.28v-27.62c0-1.79.6-3.16,1.65-3.76.88-.51,1.99-.43,3.11.22,2.42,1.4,4.39,5.17,4.39,8.4v27.69l2.47,2.38.56-.28v-27.62c0-1.79.6-3.16,1.65-3.77.88-.51,1.99-.43,3.11.22,2.42,1.4,4.39,5.17,4.39,8.4v27.69l2.38,2.33.56-.28v-27.62c0-1.79.6-3.16,1.65-3.76.88-.51,1.99-.43,3.11.22,2.42,1.4,4.39,5.17,4.39,8.4v27.68Z"/>
      </g>
      <g>
        <path class="cls-1" d="M21.11,12.76v37.47l4.27,2.46v-27.85c0-3.12,1.88-4.56,4.2-3.22s4.2,4.96,4.2,8.08v27.85l3.69,2.13v-27.85c0-3.12,1.88-4.56,4.2-3.22s4.2,4.96,4.2,8.08v27.85l3.78,2.18v-27.85c0-3.12,1.88-4.56,4.2-3.22s4.2,4.96,4.2,8.08v27.85l3.63,2.09v-37.47L21.11,12.76Z"/>
        <path class="cls-3" d="M61.68,74.04c-.06,0-.13-.02-.19-.05l-3.63-2.09c-.12-.07-.19-.19-.19-.33v-27.85c0-2.99-1.8-6.47-4.02-7.75-.88-.51-1.72-.59-2.36-.22-.81.47-1.28,1.6-1.28,3.12v27.85c0,.13-.07.26-.19.33-.12.07-.26.07-.38,0l-3.78-2.18c-.12-.07-.19-.19-.19-.33v-27.85c0-3-1.8-6.47-4.02-7.75-.88-.51-1.73-.59-2.36-.22-.81.47-1.28,1.6-1.28,3.12v27.85c0,.13-.07.26-.19.33-.12.07-.26.07-.38,0l-3.69-2.13c-.12-.07-.19-.19-.19-.33v-27.85c0-3-1.8-6.47-4.02-7.75-.88-.51-1.72-.59-2.36-.22-.81.47-1.28,1.6-1.28,3.12v27.85c0,.13-.07.26-.19.33-.12.07-.26.07-.38,0l-4.27-2.46c-.12-.07-.19-.19-.19-.33V12.76c0-.13.07-.26.19-.33.12-.07.26-.07.38,0l40.58,23.43c.12.07.19.19.19.33v37.47c0,.13-.07.26-.19.33-.06.03-.12.05-.19.05ZM58.43,71.35l2.88,1.66v-36.61L21.48,13.41v36.61l3.52,2.03v-27.2c0-1.79.6-3.16,1.65-3.77.88-.51,1.99-.43,3.11.22,2.42,1.4,4.39,5.17,4.39,8.4v27.63l2.94,1.7v-27.2c0-1.79.6-3.16,1.65-3.76.88-.51,1.99-.43,3.11.22,2.42,1.4,4.39,5.17,4.39,8.4v27.63l3.03,1.75v-27.2c0-1.79.6-3.16,1.65-3.77.88-.51,1.99-.43,3.11.22,2.42,1.4,4.39,5.17,4.39,8.4v27.63Z"/>
      </g>
      <g>
        <path class="cls-1" d="M116.42,67.79v37.47s-4.27-2.46-4.27-2.46v-27.85c0-3.12-1.88-6.74-4.2-8.08s-4.2.1-4.2,3.22v27.85s-3.69-2.13-3.69-2.13v-27.85c0-3.12-1.88-6.74-4.2-8.08s-4.2.1-4.2,3.22v27.85s-3.78-2.18-3.78-2.18v-27.85c0-3.12-1.88-6.74-4.2-8.08s-4.2.1-4.2,3.22v27.85s-3.63-2.09-3.63-2.09v-37.47s40.58,23.43,40.58,23.43Z"/>
        <path class="cls-3" d="M116.42,105.64c-.06,0-.13-.02-.19-.05l-4.27-2.46c-.12-.07-.19-.19-.19-.33v-27.85c0-3-1.8-6.47-4.02-7.75-.88-.51-1.72-.59-2.36-.22-.81.47-1.28,1.6-1.28,3.12v27.85c0,.13-.07.26-.19.33-.12.07-.26.07-.38,0l-3.69-2.13c-.12-.07-.19-.19-.19-.33v-27.85c0-3-1.8-6.47-4.02-7.75-.88-.51-1.72-.59-2.36-.22-.81.47-1.28,1.6-1.28,3.12v27.85c0,.13-.07.26-.19.33-.12.07-.26.07-.38,0l-3.78-2.18c-.12-.07-.19-.19-.19-.33v-27.85c0-3-1.8-6.47-4.02-7.75-.88-.51-1.72-.59-2.36-.22-.81.47-1.28,1.6-1.28,3.12v27.85c0,.13-.07.26-.19.33-.12.07-.26.07-.38,0l-3.63-2.09c-.12-.07-.19-.19-.19-.33v-37.48c0-.13.07-.26.19-.33.12-.07.26-.07.38,0l40.58,23.43c.12.07.19.19.19.33v37.47c0,.13-.07.26-.19.33-.06.03-.12.05-.19.05ZM112.53,102.59l3.52,2.03v-36.61l-39.83-23v36.61l2.88,1.66v-27.2c0-1.79.6-3.16,1.65-3.76.88-.51,1.99-.43,3.11.22,2.42,1.4,4.39,5.17,4.39,8.4v27.63l3.03,1.75v-27.2c0-1.79.6-3.16,1.65-3.77.88-.51,1.99-.43,3.11.22,2.42,1.4,4.39,5.17,4.39,8.4v27.63l2.94,1.7v-27.2c0-1.79.6-3.16,1.65-3.76.88-.51,1.99-.43,3.11.22,2.42,1.4,4.39,5.17,4.39,8.4v27.63Z"/>
      </g>
      <g>
        <polygon class="cls-2" points="51.3 3.37 65.07 .38 106.77 20.99 141.65 54.04 117.43 67.44 97.14 36.34 51.3 3.37"/>
        <path class="cls-3" d="M117.43,67.82c-.12,0-.24-.06-.31-.17l-20.25-31.04L51.08,3.68c-.12-.09-.18-.24-.15-.38s.14-.26.29-.29L64.99,0c.08-.02.17,0,.25.03l41.7,20.62s.06.04.09.06l34.88,33.05c.09.08.13.2.11.32-.02.12-.09.22-.19.28l-24.22,13.4c-.06.03-.12.05-.18.05ZM52.21,3.56l45.15,32.48s.07.06.1.1l20.1,30.81,23.47-12.98-34.47-32.66L65.02.77l-12.81,2.79Z"/>
      </g>
      <g>
        <polygon class="cls-2" points="117.43 67.44 96.13 27.7 51.3 3.37 20.33 11.66 117.43 67.44"/>
        <path class="cls-3" d="M117.43,67.82c-.06,0-.13-.02-.19-.05L20.14,11.98c-.13-.08-.2-.22-.19-.37.02-.15.13-.27.28-.31L51.21,3.01c.09-.03.19-.01.28.03l44.83,24.32c.06.04.12.09.15.15l21.3,39.74c.08.15.05.33-.07.45-.07.07-.17.11-.26.11ZM21.3,11.78l95.18,54.68-20.62-38.49L51.26,3.77l-29.95,8.01Z"/>
      </g>
      <g>
        <polygon class="cls-3" points="58.64 32.92 57.01 32.92 57.01 23.89 58.64 24.63 58.64 32.92"/>
        <path class="cls-3" d="M58.64,33.29h-1.62c-.21,0-.38-.17-.38-.38v-9.03c0-.13.06-.25.17-.32s.24-.08.36-.03l1.62.74c.13.06.22.19.22.34v8.29c0,.21-.17.38-.38.38ZM57.39,32.54h.87v-7.67l-.87-.4v8.07Z"/>
      </g>
      <g>
        <polygon class="cls-3" points="79.21 42.44 77.59 42.44 77.59 33.41 79.21 34.15 79.21 42.44"/>
        <path class="cls-3" d="M79.21,42.81h-1.62c-.21,0-.38-.17-.38-.38v-9.03c0-.13.06-.25.17-.32.11-.07.24-.08.36-.03l1.62.74c.13.06.22.19.22.34v8.29c0,.21-.17.38-.38.38ZM77.96,42.06h.87v-7.67l-.87-.4v8.07Z"/>
      </g>
      <g>
        <path class="cls-3" d="M77.44,40.97c0-2.57-1.68-5.63-3.75-6.83v-1.56l-1.17-.68c-.15-2.7-1.77-5.69-3.75-6.83s-3.6-.02-3.75,2.5l-6.96,4.54v39.41l1.74,2.92,1.89-.82v-27.57c0-5.26,3.17-7.69,7.08-5.43,3.91,2.26,7.08,8.35,7.08,13.6v27.57l1.74,2.92,1.89-.82v-41.75l-2.04-1.18Z"/>
        <path class="cls-3" d="M77.59,85.1c-.13,0-.25-.07-.32-.18l-1.74-2.92c-.03-.06-.05-.12-.05-.19v-27.57c0-5.13-3.09-11.08-6.89-13.28-1.57-.91-3.08-1.04-4.24-.37-1.45.84-2.28,2.83-2.28,5.47v27.57c0,.15-.09.28-.23.34l-1.89.82c-.17.08-.38.01-.47-.15l-1.74-2.92c-.03-.06-.05-.12-.05-.19v-39.41c0-.13.06-.25.17-.31l6.81-4.44c.12-1.37.66-2.37,1.53-2.84.79-.43,1.77-.35,2.76.23,2.04,1.18,3.7,4.13,3.92,6.93l1,.58c.12.07.19.19.19.33v1.35c2.03,1.29,3.65,4.26,3.74,6.82l1.86,1.07c.12.07.19.19.19.33v41.75c0,.15-.09.28-.23.34l-1.89.82s-.1.03-.15.03ZM76.23,81.7l1.51,2.54,1.36-.59v-41.29l-1.85-1.07c-.12-.07-.19-.19-.19-.33,0-2.45-1.6-5.36-3.56-6.51-.12-.07-.19-.19-.19-.32v-1.34l-.98-.57c-.11-.06-.18-.18-.19-.3-.14-2.59-1.71-5.46-3.56-6.53-.77-.44-1.47-.52-2.03-.22-.66.36-1.08,1.24-1.15,2.42,0,.12-.07.23-.17.29l-6.79,4.43v39.11l1.51,2.54,1.36-.59v-27.32c0-2.92.97-5.15,2.66-6.12,1.4-.81,3.17-.68,4.99.37,4.01,2.31,7.27,8.56,7.27,13.93v27.46ZM77.82,40.97h0,0Z"/>
      </g>
      <g>
        <path class="cls-1" d="M75.55,41.8c0-2.57-1.68-5.63-3.75-6.83v-1.56l-1.17-.68c-.15-2.7-1.77-5.69-3.75-6.83s-3.6-.02-3.75,2.5l-1.17-.68v1.56c-2.08-1.2-3.76-.08-3.76,2.5l-2.03-1.17v41.75l3.63,2.09v-27.57c0-5.26,3.17-7.69,7.08-5.43,3.91,2.26,7.08,8.35,7.08,13.6v27.57l3.63,2.09v-41.75l-2.04-1.18Z"/>
        <path class="cls-3" d="M77.59,85.1c-.06,0-.13-.02-.19-.05l-3.63-2.09c-.12-.07-.19-.19-.19-.33v-27.57c0-5.13-3.09-11.08-6.89-13.28-1.57-.91-3.08-1.04-4.24-.37-1.45.84-2.28,2.83-2.28,5.47v27.57c0,.13-.07.26-.19.33-.12.07-.26.07-.38,0l-3.63-2.09c-.12-.07-.19-.19-.19-.33V30.61c0-.13.07-.26.19-.33.12-.07.26-.07.38,0l1.5.87c.12-1.13.59-1.98,1.35-2.42.68-.39,1.5-.4,2.38-.05v-.95c0-.13.07-.26.19-.33.12-.07.26-.07.38,0l.67.39c.18-1.16.7-2.02,1.48-2.44.79-.42,1.77-.34,2.76.23,2.04,1.17,3.7,4.13,3.92,6.93l1,.58c.12.07.19.19.19.33v1.35c2.03,1.29,3.65,4.26,3.74,6.82l1.86,1.07c.12.07.19.19.19.33v41.75c0,.13-.07.26-.19.33-.06.03-.12.05-.19.05ZM74.33,82.41l2.88,1.66v-40.88l-1.85-1.07c-.12-.07-.19-.19-.19-.33,0-2.44-1.6-5.36-3.56-6.51-.12-.07-.19-.19-.19-.32v-1.34l-.98-.57c-.11-.06-.18-.18-.19-.3-.14-2.59-1.71-5.46-3.56-6.53-.77-.44-1.47-.52-2.03-.22-.66.36-1.08,1.24-1.15,2.42,0,.13-.08.25-.2.31-.11.06-.25.06-.37,0l-.61-.35v.91c0,.13-.07.26-.19.33-.12.07-.26.07-.38,0-.83-.48-1.61-.56-2.19-.23-.64.37-1.01,1.25-1.01,2.4,0,.13-.07.26-.19.33-.12.07-.26.07-.38,0l-1.46-.85v40.88l2.88,1.66v-26.92c0-2.92.97-5.15,2.66-6.12,1.4-.81,3.17-.68,4.99.37,4.01,2.31,7.27,8.56,7.27,13.93v27.35ZM75.92,41.79h0,0Z"/>
      </g>
      <path class="cls-3" d="M98.35,26.29c-.14,0-.27-.07-.33-.2-.1-.18-.02-.41.16-.51l6.7-3.48c.18-.09.41-.02.51.16.1.18.02.41-.16.51l-6.7,3.48c-.06.03-.11.04-.17.04Z"/>
      <g>
        <g>
          <path class="cls-6" d="M17.92,67.82c-.62,0-1.13-.52-1.17-1.18-.82-14.46-.7-29.17-.58-43.39,0-.73.53-1.29,1.17-1.29.66,0,1.18.58,1.17,1.27-.12,14.2-.24,28.88.58,43.25.04.69-.45,1.29-1.09,1.34,0,0-.07,0-.08,0Z"/>
          <path class="cls-3" d="M17.35,22.33c.44,0,.79.41.79.9-.12,14.2-.24,28.88.58,43.28.03.49-.31.91-.74.94-.02,0-.03,0-.05,0-.42,0-.77-.36-.79-.83-.82-14.46-.7-29.17-.58-43.41,0-.49.36-.88.8-.88h0M17.35,21.58h0c-.85,0-1.54.73-1.55,1.62-.12,14.26-.24,28.98.58,43.45.05.86.73,1.54,1.54,1.54.03,0,.07,0,.1,0,.85-.06,1.49-.84,1.44-1.73-.82-14.37-.7-29.04-.58-43.22,0-.91-.68-1.65-1.53-1.66,0,0,0,0,0,0h0Z"/>
        </g>
        <g>
          <path class="cls-5" d="M36.13,17.42c-1.16-5.21-5.97-9.63-11.48-9.56-3.62-.06-6.75,1.98-7.97,4.82-1.12-2.8-3.49-5.29-6.68-5.12C3.13,8.09,1.15,16.16.38,21.73c.11.11.26.03.34-.07,1.97-1.99,3.14-4.26,4.36-5.96,1.4-2.01,2.86-3.61,5.1-4.34,2.14-.59,3.99.92,5.64,2.5-1.64-1.2-3.87-1.57-5.84-.9-4.76,1.83-6.43,7.4-6.75,12.03-.02.16.2.26.31.14,2.85-3.01,4.36-5.95,7.22-8.2.54-.5,1.01-.77,1.82-1.06.88-.31,2-.54,3.59-.1.05.72.22,1.47.52,2.22-.2.85-.16,1.74.21,2.64,0,.05.04.09.07.12-1.81-1.82-4.85-2.1-7.14-1.02C1.92,23.81,1.18,34.09,1.82,41.96c0,.19.29.23.36.06,1.28-2.81,2.01-5.51,2.83-7.96,1.85-5.37,5.11-15.16,12.22-12.4.03.02.06.03.1.04-.16.28-.3.58-.39.93-.03.08-.02.15.01.21-.27-.27-1.91.05-2.14.23-4.35,2.55-4.1,8.55-3.56,12.91.01.14.2.19.29.09,2.62-3.02,3.81-6.1,4.11-9.68.01-1.19.09-2.14,1.17-3.21.13-.12.17-.21.16-.28.06.06.16.08.25,0,1.54-1.57,4.26-1.17,5.76.25,3.1,3.17,3.3,8.23,3.32,12.47-.06,2.24-.26,4.49-.43,6.74.02.28.3.23.4.04,4.81-6.12,5.61-16.61-1.16-21.66-2.16-1.58-6.02-1.56-7.61.65-.16-.23-.35-.44-.54-.64.11.09.29.07.31-.13.1-3.03,3.43-4.95,6.19-4.19,2.88.71,4.83,3.27,5.91,5.93,2.38,5.54,3.13,11.75,3.67,17.64.14.07.25-.05.29-.17,1.37-3.05,1.77-6.29,1.7-9.5-.14-7.24-3.59-17.46-12.5-17.04-1.63.08-3.28.92-4.44,2.14,1.46-3.76,5.79-4.97,10.02-2.65,2.28,1.27,4.03,3.41,5.04,5.86,1.02,2.45,1.47,5.13,1.71,7.81.01.19.29.23.36.06,1.26-2.81,1.62-5.9.88-9.09Z"/>
          <path class="cls-3" d="M26.07,42.94s-.08,0-.12-.01c-.19-.04-.4-.2-.42-.54l.08-1.03c.15-1.89.3-3.84.36-5.75-.03-4.53-.3-9.21-3.22-12.2-1.34-1.26-3.83-1.68-5.23-.25-.09.08-.19.13-.29.15-.05.07-.1.11-.13.14-.96.95-1.04,1.79-1.06,2.95-.33,3.85-1.66,7-4.2,9.92-.14.16-.36.22-.57.16-.21-.07-.35-.25-.37-.46-.6-4.8-.71-10.67,3.74-13.27.17-.14,1.26-.43,2-.38.04-.15.1-.3.17-.46-1.47-.51-2.81-.46-4.08.13-3.78,1.75-5.89,7.88-7.28,11.94l-.07.22c-.2.59-.39,1.21-.59,1.83-.63,1.97-1.28,4.01-2.25,6.16-.09.23-.35.36-.62.32-.26-.05-.45-.26-.46-.52-.57-6.96.18-12.48,2.24-16.5-.15.09-.34.1-.51.02-.22-.1-.35-.33-.32-.56.21-2.96,1.31-10.14,6.99-12.33,1.17-.4,2.44-.46,3.65-.19-1-.64-2.07-1.01-3.21-.7-2.25.73-3.68,2.45-4.9,4.19-.36.51-.72,1.06-1.09,1.64-.89,1.38-1.9,2.95-3.31,4.38-.09.12-.27.23-.45.24-.16.01-.31-.05-.42-.17-.08-.08-.11-.2-.1-.31C1.28,12.47,4.63,7.6,9.97,7.19c3.21-.16,5.52,2.15,6.73,4.61,1.5-2.67,4.59-4.39,7.96-4.32.04,0,.08,0,.12,0,5.43,0,10.46,4.22,11.72,9.86h0c.74,3.21.43,6.35-.91,9.33-.08.18-.24.3-.43.33.17,1.16.26,2.29.28,3.34.08,3.73-.49,6.89-1.74,9.66-.05.15-.18.3-.35.37-.14.06-.31.05-.45-.02-.12-.06-.19-.17-.21-.3-.54-5.83-1.26-11.99-3.64-17.53-.73-1.8-2.43-4.92-5.65-5.71-1.34-.37-2.89-.06-4.06.8-1.04.76-1.63,1.84-1.67,3.03v.02c.69-.68,1.65-1.14,2.77-1.31,1.73-.28,3.61.14,4.91,1.1,2.75,2.05,4.45,5.07,4.94,8.76.61,4.6-.81,9.75-3.7,13.44-.09.17-.3.3-.53.3ZM25.98,42.21s-.01.01-.01.02c0,0,0-.01.01-.02ZM2.19,41.92s0,0,0,.01c0,0,0,0,0-.01ZM1.84,41.87s0,0,0,.01c0,0,0,0,0-.01ZM19.78,21.52c1.28,0,2.6.52,3.49,1.36,3.13,3.2,3.42,8.05,3.44,12.75-.06,1.94-.21,3.9-.36,5.8l-.03.34c2.57-3.54,3.79-8.24,3.23-12.46-.46-3.48-2.07-6.33-4.64-8.25-1.14-.84-2.81-1.2-4.35-.96-1.19.19-2.15.73-2.73,1.53-.03.04-.07.08-.11.1,0,.06-.03.12-.06.17-.06.1-.11.2-.15.3.67-.46,1.47-.67,2.28-.67ZM12.69,19.45c-.92,0-1.86.2-2.71.6-5.96,3.09-8.59,10.2-7.84,21.14.8-1.87,1.37-3.66,1.92-5.4.2-.63.4-1.24.6-1.84l.08-.22c1.44-4.18,3.61-10.49,7.68-12.38,1.37-.63,2.85-.71,4.4-.23-.04-.04-.07-.07-.1-.11,0,0-.02-.02-.03-.03-1.01-1.01-2.48-1.54-4-1.54ZM22.24,15.91c.46,0,.91.06,1.34.18,3.54.87,5.38,4.23,6.15,6.15,2.28,5.31,3.07,11.16,3.6,16.75.95-2.49,1.4-5.32,1.34-8.63-.08-4.36-1.5-10.68-5.21-14.16-1.92-1.8-4.23-2.65-6.89-2.52-1.49.08-3.06.83-4.19,2.02-.12.13-.32.16-.47.06-.15-.1-.21-.29-.15-.45.67-1.74,1.98-3.04,3.68-3.66,2.08-.76,4.52-.47,6.87.82,2.27,1.27,4.12,3.41,5.2,6.05.82,1.97,1.35,4.27,1.66,7.18,1.03-2.63,1.22-5.38.58-8.18,0,0,0,0,0,0-1.17-5.22-5.99-9.27-11-9.27-.09,0-.17,0-.25,0-3.31,0-6.29,1.83-7.48,4.6-.06.14-.19.23-.34.23h0c-.15,0-.29-.09-.34-.24-.99-2.47-3.15-5.05-6.31-4.88-4.85.37-7.85,4.64-9.16,13.06,1.13-1.28,2.01-2.64,2.8-3.86.38-.59.74-1.15,1.11-1.66,1.28-1.85,2.82-3.67,5.29-4.48,2.37-.66,4.35.99,6.02,2.58.14.14.16.36.03.51-.13.15-.35.18-.51.06-1.57-1.15-3.68-1.47-5.5-.85-4.95,1.91-6.16,8.05-6.46,11.14.97-1.07,1.78-2.12,2.57-3.14,1.32-1.71,2.57-3.32,4.31-4.69.55-.51,1.06-.81,1.92-1.12.85-.31,2.06-.6,3.81-.11.15.04.26.18.27.33.05.72.22,1.43.5,2.1.03.07.04.15.02.23-.14.58-.14,1.15-.02,1.71.24-1.08.88-2.05,1.87-2.77.97-.72,2.17-1.1,3.35-1.1ZM11.63,35.93s0,0,0,0c0,0,0,0,0,0ZM16.4,23.1c-.44.03-1.19.18-1.36.28-3.96,2.33-3.98,7.6-3.46,12.09,2.26-2.73,3.41-5.55,3.71-9.1.01-1.17.11-2.18,1.11-3.27ZM35.25,26.41s0,0,0,0c0,0,0,0,0,0ZM3.6,24.99s0,.01,0,.02c0,0,0-.01,0-.02ZM3.26,24.86s0,0,0,0c0,0,0,0,0,0ZM23.09,12.91c2.64,0,4.96.92,6.9,2.73,1.62,1.52,2.82,3.51,3.68,5.66-.24-.9-.51-1.74-.84-2.51-1.02-2.48-2.75-4.49-4.87-5.68-2.15-1.18-4.37-1.45-6.25-.77-.9.33-1.66.86-2.26,1.56.97-.58,2.04-.92,3.09-.98.18,0,.36-.01.54-.01ZM14.46,15.89c-.73,0-1.31.16-1.76.32-.76.28-1.19.53-1.69.99-1.27,1-2.28,2.15-3.25,3.36.59-.44,1.22-.84,1.89-1.18,2.15-1.02,4.74-.86,6.59.3-.09-.54-.07-1.1.05-1.67-.25-.63-.41-1.29-.48-1.95-.5-.12-.95-.17-1.35-.17Z"/>
        </g>
      </g>
      <g>
        <g>
          <path class="cls-6" d="M104.15,115.04c-.62,0-1.13-.52-1.17-1.18-.82-14.46-.7-29.17-.58-43.39,0-.73.53-1.29,1.17-1.29.66,0,1.18.58,1.17,1.27-.12,14.2-.24,28.88.58,43.25.04.69-.45,1.29-1.09,1.34,0,0-.07,0-.08,0Z"/>
          <path class="cls-3" d="M103.58,69.55c.44,0,.79.41.79.9-.12,14.2-.24,28.88.58,43.28.03.49-.31.91-.74.94-.02,0-.03,0-.05,0-.42,0-.77-.36-.79-.83-.82-14.46-.7-29.17-.58-43.41,0-.49.36-.88.8-.88h0M103.58,68.8h0c-.85,0-1.54.73-1.55,1.62-.12,14.26-.24,28.98.58,43.45.05.86.73,1.54,1.54,1.54.03,0,.07,0,.1,0,.85-.06,1.49-.84,1.44-1.73-.82-14.37-.7-29.04-.58-43.22,0-.91-.68-1.65-1.53-1.66,0,0,0,0,0,0h0Z"/>
        </g>
        <g>
          <path class="cls-5" d="M122.36,64.65c-1.16-5.21-5.97-9.63-11.48-9.56-3.62-.06-6.75,1.98-7.97,4.82-1.12-2.8-3.49-5.29-6.68-5.12-6.87.52-8.85,8.6-9.62,14.16.11.11.26.03.34-.07,1.97-1.99,3.14-4.26,4.36-5.96,1.4-2.01,2.86-3.61,5.1-4.34,2.14-.59,3.99.92,5.64,2.5-1.64-1.2-3.87-1.57-5.84-.9-4.76,1.83-6.43,7.4-6.75,12.03-.02.16.2.26.31.14,2.85-3.01,4.36-5.95,7.22-8.2.54-.5,1.01-.77,1.82-1.06.88-.31,2-.54,3.59-.1.05.72.22,1.47.52,2.22-.2.85-.16,1.74.21,2.64,0,.05.04.09.07.12-1.81-1.82-4.85-2.1-7.14-1.02-7.9,4.09-8.64,14.38-8,22.25,0,.19.29.23.36.06,1.28-2.81,2.01-5.51,2.83-7.96,1.85-5.37,5.11-15.16,12.22-12.4.03.02.06.03.1.04-.16.28-.3.58-.39.93-.03.08-.02.15.01.21-.27-.27-1.91.05-2.14.23-4.35,2.55-4.1,8.55-3.56,12.91.01.14.2.19.29.09,2.62-3.02,3.81-6.1,4.11-9.68.01-1.19.09-2.14,1.17-3.21.13-.12.17-.21.16-.28.06.06.16.08.25,0,1.54-1.57,4.26-1.17,5.76.25,3.1,3.17,3.3,8.23,3.32,12.47-.06,2.24-.26,4.49-.43,6.74.02.28.3.23.4.04,4.81-6.12,5.61-16.61-1.16-21.66-2.16-1.58-6.02-1.56-7.61.65-.16-.23-.35-.44-.54-.64.11.09.29.07.31-.13.1-3.03,3.43-4.95,6.19-4.19,2.88.71,4.83,3.27,5.91,5.93,2.38,5.54,3.13,11.75,3.67,17.64.14.07.25-.05.29-.17,1.37-3.05,1.77-6.29,1.7-9.5-.14-7.24-3.59-17.46-12.5-17.04-1.63.08-3.28.92-4.44,2.14,1.46-3.76,5.79-4.97,10.02-2.65,2.28,1.27,4.03,3.41,5.04,5.86,1.02,2.45,1.47,5.13,1.71,7.81.01.19.29.23.36.06,1.26-2.81,1.62-5.9.88-9.09Z"/>
          <path class="cls-3" d="M112.3,90.16s-.08,0-.12-.01c-.19-.04-.4-.2-.42-.54l.07-1c.15-1.9.3-3.86.36-5.78-.03-4.53-.29-9.21-3.22-12.2-1.34-1.26-3.83-1.68-5.23-.25-.09.08-.19.13-.29.16-.05.07-.1.11-.13.14-.96.95-1.04,1.79-1.06,2.95-.33,3.85-1.66,7-4.2,9.92-.14.16-.36.22-.57.16-.21-.07-.35-.25-.37-.46-.6-4.8-.71-10.67,3.74-13.27.17-.14,1.26-.44,2-.38.04-.15.1-.31.18-.47-1.43-.49-2.79-.46-4.08.14-3.78,1.75-5.89,7.88-7.28,11.94l-.08.22c-.2.59-.39,1.2-.59,1.82-.63,1.97-1.28,4.02-2.25,6.16-.09.23-.35.37-.61.32-.26-.05-.45-.26-.46-.52-.57-6.96.18-12.48,2.24-16.5-.15.09-.34.1-.51.02-.22-.1-.35-.33-.32-.57.21-2.96,1.31-10.14,6.99-12.33,1.17-.4,2.44-.46,3.65-.2-1-.64-2.07-1.01-3.21-.7-2.25.73-3.68,2.45-4.9,4.19-.36.51-.72,1.06-1.09,1.63-.89,1.38-1.9,2.95-3.31,4.38-.09.12-.27.23-.45.24-.16.02-.31-.05-.42-.17-.08-.08-.11-.2-.1-.31,1.27-9.21,4.63-14.08,9.97-14.49,3.21-.16,5.52,2.15,6.73,4.61,1.5-2.67,4.61-4.37,7.96-4.32.04,0,.08,0,.12,0,5.43,0,10.46,4.22,11.72,9.86.74,3.21.43,6.34-.91,9.32-.08.18-.24.3-.43.33.17,1.16.26,2.29.28,3.34.08,3.73-.49,6.89-1.74,9.66-.05.15-.18.3-.35.37-.15.06-.31.05-.45-.02-.12-.06-.19-.17-.21-.3-.54-5.83-1.26-11.99-3.64-17.53-.73-1.8-2.43-4.92-5.65-5.71-1.34-.37-2.89-.06-4.06.8-1.04.76-1.63,1.84-1.67,3.04,0,0,0,.01,0,.02.69-.68,1.65-1.14,2.77-1.31,1.73-.28,3.61.14,4.92,1.1,2.75,2.05,4.45,5.08,4.94,8.76.61,4.6-.81,9.75-3.7,13.44-.09.17-.3.3-.53.3ZM112.21,89.44s-.01.01-.01.02c0,0,0-.01.01-.02ZM88.42,89.14s0,0,0,.01c0,0,0,0,0-.01ZM88.07,89.1s0,0,0,.01c0,0,0,0,0-.01ZM106.01,68.74c1.28,0,2.6.52,3.49,1.36,3.13,3.2,3.42,8.05,3.44,12.74-.06,1.95-.21,3.92-.36,5.83l-.02.31c2.57-3.54,3.79-8.24,3.23-12.46-.46-3.48-2.07-6.33-4.64-8.25-1.14-.83-2.81-1.2-4.35-.96-1.18.19-2.15.73-2.73,1.53-.04.05-.08.09-.14.12,0,.06,0,.11-.04.16-.06.1-.11.2-.15.29.67-.46,1.47-.67,2.28-.67ZM98.92,66.68c-.92,0-1.86.2-2.71.6-5.96,3.09-8.59,10.2-7.84,21.14.8-1.87,1.37-3.67,1.92-5.41.2-.63.4-1.24.6-1.84l.08-.22c1.44-4.18,3.61-10.49,7.68-12.37,1.37-.63,2.85-.71,4.41-.23-.04-.04-.07-.07-.1-.11,0,0-.02-.02-.03-.03-1.01-1.01-2.48-1.54-4-1.54ZM108.47,63.13c.46,0,.91.06,1.34.18,3.54.87,5.38,4.23,6.15,6.15,2.28,5.31,3.07,11.16,3.6,16.75.95-2.49,1.4-5.32,1.34-8.63-.08-4.36-1.5-10.68-5.21-14.16-1.92-1.8-4.24-2.66-6.89-2.52-1.49.07-3.06.83-4.19,2.02-.12.13-.32.16-.47.06-.15-.1-.21-.29-.15-.45.67-1.74,1.98-3.04,3.68-3.66,2.08-.76,4.52-.47,6.87.82,2.27,1.27,4.12,3.41,5.2,6.05.82,1.97,1.35,4.27,1.66,7.18,1.03-2.63,1.22-5.38.58-8.18,0,0,0,0,0,0-1.17-5.22-5.98-9.27-11-9.27-.09,0-.17,0-.26,0-3.31,0-6.29,1.83-7.47,4.6-.06.14-.19.23-.34.23h0c-.15,0-.29-.09-.34-.24-.99-2.47-3.18-5.05-6.31-4.88-4.85.37-7.85,4.64-9.16,13.06,1.13-1.28,2.01-2.64,2.8-3.86.38-.59.74-1.15,1.11-1.66,1.28-1.85,2.82-3.67,5.29-4.48,2.36-.66,4.35.99,6.02,2.58.14.14.16.36.03.51-.13.15-.35.18-.51.06-1.57-1.14-3.68-1.47-5.5-.85-4.95,1.91-6.16,8.05-6.46,11.14.97-1.07,1.78-2.12,2.57-3.14,1.32-1.71,2.57-3.32,4.31-4.69.55-.51,1.06-.81,1.92-1.12.85-.31,2.06-.6,3.81-.11.15.04.26.18.27.33.05.72.22,1.43.5,2.1.03.07.04.15.02.23-.14.58-.14,1.15-.02,1.71.24-1.08.88-2.05,1.87-2.77.97-.72,2.17-1.1,3.35-1.1ZM97.86,83.16s0,0,0,0c0,0,0,0,0,0ZM102.63,70.32c-.44.03-1.19.18-1.36.28-3.96,2.33-3.98,7.6-3.46,12.09,2.26-2.72,3.41-5.55,3.71-9.1.01-1.17.11-2.18,1.11-3.27ZM121.48,73.64s0,0,0,0c0,0,0,0,0,0ZM89.83,72.22s0,.01,0,.02c0,0,0-.01,0-.02ZM89.49,72.09s0,0,0,.01c0,0,0,0,0-.01ZM109.32,60.14c2.64,0,4.96.92,6.89,2.73,1.62,1.52,2.82,3.51,3.68,5.66-.24-.9-.51-1.74-.84-2.51-1.02-2.48-2.75-4.49-4.87-5.68-2.15-1.18-4.37-1.46-6.25-.77-.9.33-1.66.86-2.26,1.56.97-.58,2.04-.92,3.09-.98.18,0,.37-.01.55-.01ZM100.69,63.12c-.73,0-1.31.16-1.76.32-.76.28-1.19.53-1.69.99-1.28,1-2.28,2.15-3.26,3.37.59-.44,1.22-.84,1.89-1.19,2.15-1.02,4.74-.86,6.59.3-.08-.54-.07-1.1.05-1.67-.25-.63-.41-1.29-.48-1.95-.5-.12-.95-.17-1.35-.17Z"/>
        </g>
      </g>
    </g>
  </g>
</svg>