<?xml version="1.0" encoding="UTF-8"?>
<svg id="_圖層_2" data-name="圖層 2" xmlns="http://www.w3.org/2000/svg" viewBox="0 0 142.4 115.42">
  <defs>
    <style>
      .cls-1 {
        fill: #6f6f6f;
      }

      .cls-1, .cls-2, .cls-3, .cls-4, .cls-5, .cls-6 {
        stroke-width: 0px;
      }

      .cls-2 {
        fill: #fda87e;
      }

      .cls-3 {
        fill: #000;
      }

      .cls-4 {
        fill: #fff;
      }

      .cls-5 {
        fill: #00ff86;
      }

      .cls-6 {
        fill: #fd8453;
      }
    </style>
  </defs>
  <g id="_圖層_5" data-name="圖層 5">
    <g>
      <g>
        <polygon class="cls-3" points="140.36 52.46 116.8 66.06 116.8 105.38 140.36 91.77 140.36 52.46"/>
        <path class="cls-3" d="M116.8,105.75c-.06,0-.13-.02-.19-.05-.12-.07-.19-.19-.19-.33v-39.31c0-.13.07-.26.19-.33l23.56-13.6c.12-.07.26-.07.38,0,.12.07.19.19.19.33v39.31c0,.13-.07.26-.19.33l-23.56,13.6c-.06.03-.12.05-.19.05ZM117.17,66.28v38.45l22.81-13.17v-38.44l-22.81,13.17Z"/>
      </g>
      <g>
        <polygon class="cls-1" points="116.8 100.88 30.31 50.96 30.31 19.5 116.8 69.25 116.8 100.88"/>
        <path class="cls-3" d="M116.8,101.25c-.06,0-.13-.02-.19-.05L30.13,51.29c-.12-.07-.19-.19-.19-.33v-31.46c0-.13.07-.26.19-.32.12-.07.26-.07.38,0l86.48,49.75c.12.07.19.19.19.33v31.62c0,.13-.07.26-.19.33-.06.03-.12.05-.19.05ZM30.69,50.74l85.73,49.48v-30.76L30.69,20.15v30.59Z"/>
      </g>
      <g>
        <path class="cls-6" d="M25.71,27.7v13.24l.9.52v-1.65c0-3.12,1.88-4.56,4.2-3.22,2.32,1.34,4.2,4.96,4.2,8.08v1.65l3.69,2.13v-1.65c0-3.12,1.88-4.56,4.2-3.22s4.2,4.96,4.2,8.08v1.65l3.78,2.18v-1.65c0-3.12,1.88-4.56,4.2-3.22s4.2,4.96,4.2,8.08v1.65l3.83,2.21c.75-3.75,3.54-5.24,6.88-3.32,3.34,1.93,6.13,6.65,6.88,11.26l3.83,2.21v-1.65c0-3.12,1.88-4.56,4.2-3.22,2.32,1.34,4.2,4.96,4.2,8.08v1.65l3.78,2.18v-1.65c0-3.12,1.88-4.56,4.2-3.22s4.2,4.96,4.2,8.08v1.65l3.69,2.13v-1.65c0-3.12,1.88-4.56,4.2-3.22,2.32,1.34,4.2,4.96,4.2,8.08v1.65l1.77,1.02v-13.24L25.71,27.7Z"/>
        <path class="cls-3" d="M115.16,92.96c-.06,0-.13-.02-.19-.05l-1.77-1.02c-.12-.07-.19-.19-.19-.32v-1.65c0-2.99-1.8-6.47-4.02-7.75-.88-.51-1.72-.59-2.36-.22-.81.47-1.28,1.6-1.28,3.12v1.65c0,.13-.07.26-.19.33-.12.07-.26.07-.38,0l-3.69-2.13c-.12-.07-.19-.19-.19-.33v-1.65c0-3-1.8-6.47-4.02-7.75-.88-.51-1.72-.59-2.36-.22-.81.47-1.28,1.6-1.28,3.12v1.65c0,.13-.07.26-.19.33-.12.07-.26.07-.38,0l-3.78-2.18c-.12-.07-.19-.19-.19-.33v-1.65c0-3-1.8-6.47-4.02-7.75-.88-.51-1.72-.59-2.36-.22-.81.47-1.28,1.6-1.28,3.12v1.65c0,.13-.07.26-.19.33-.12.07-.26.07-.38,0l-3.83-2.21c-.1-.06-.16-.15-.18-.27-.75-4.63-3.5-9.15-6.69-10.99-1.46-.84-2.83-1.02-3.95-.51-1.18.53-2.02,1.8-2.37,3.57-.02.12-.1.22-.21.27-.11.05-.24.04-.34-.02l-3.83-2.21c-.12-.07-.19-.19-.19-.33v-1.65c0-3-1.8-6.47-4.02-7.75-.88-.51-1.72-.59-2.36-.22-.81.47-1.28,1.6-1.28,3.12v1.65c0,.13-.07.26-.19.33-.12.07-.26.07-.38,0l-3.78-2.18c-.12-.07-.19-.19-.19-.33v-1.65c0-3-1.8-6.47-4.02-7.75-.88-.51-1.72-.59-2.36-.22-.81.47-1.28,1.6-1.28,3.12v1.65c0,.13-.07.26-.19.33-.12.07-.26.07-.38,0l-3.69-2.13c-.12-.07-.19-.19-.19-.33v-1.65c0-3-1.8-6.47-4.02-7.75-.88-.51-1.72-.59-2.36-.22-.81.47-1.28,1.6-1.28,3.12v1.65c0,.13-.07.26-.19.33-.12.07-.26.07-.38,0l-.9-.52c-.12-.07-.19-.19-.19-.32v-13.24c0-.13.07-.26.19-.33.12-.07.26-.07.38,0l89.45,51.64c.12.07.19.19.19.33v13.24c0,.13-.07.26-.19.33-.06.03-.12.05-.19.05ZM113.76,91.34l1.02.59v-12.38L26.08,28.35v12.38l.15.08v-1c0-1.79.6-3.16,1.65-3.77.88-.51,1.99-.43,3.11.22,2.42,1.4,4.39,5.17,4.39,8.4v1.43l2.94,1.7v-1c0-1.79.6-3.16,1.65-3.76.88-.51,1.99-.43,3.11.22,2.42,1.4,4.39,5.17,4.39,8.4v1.43l3.03,1.75v-1c0-1.79.6-3.16,1.65-3.77.88-.51,1.99-.43,3.11.22,2.42,1.4,4.39,5.17,4.39,8.4v1.43l3.21,1.85c.46-1.75,1.4-3.03,2.68-3.61,1.36-.61,2.96-.43,4.64.54,3.33,1.92,6.2,6.57,7.03,11.35l3.12,1.8v-1c0-1.79.6-3.16,1.65-3.77.88-.51,1.99-.43,3.11.22,2.42,1.4,4.39,5.17,4.39,8.4v1.43l3.03,1.75v-1c0-1.79.6-3.16,1.65-3.76.88-.51,1.99-.43,3.11.22,2.42,1.4,4.39,5.17,4.39,8.4v1.43l2.94,1.7v-1c0-1.79.6-3.16,1.65-3.77.88-.51,1.99-.43,3.11.22,2.42,1.4,4.39,5.17,4.39,8.4v1.43Z"/>
      </g>
      <g>
        <path class="cls-3" d="M22.51,12.29v37.47l3.24,2.94,1.02-.47v-27.85c0-3.12,1.88-4.56,4.2-3.22,2.32,1.34,4.2,4.96,4.2,8.08v27.85l2.66,2.6,1.02-.47v-27.85c0-3.12,1.88-4.56,4.2-3.22s4.2,4.96,4.2,8.08v27.85l2.75,2.65,1.02-.47v-27.85c0-3.12,1.88-4.56,4.2-3.22,2.32,1.34,4.2,4.96,4.2,8.08v27.85l2.6,2.57,1.02-.47v-37.47L22.51,12.29Z"/>
        <path class="cls-3" d="M62.06,74.04c-.1,0-.19-.04-.26-.11l-2.6-2.57c-.07-.07-.11-.17-.11-.27v-27.85c0-3-1.8-6.47-4.02-7.75-.88-.51-1.72-.59-2.36-.22-.81.47-1.28,1.6-1.28,3.12v27.85c0,.15-.08.28-.22.34l-1.02.47c-.14.07-.31.04-.42-.07l-2.75-2.66c-.07-.07-.11-.17-.11-.27v-27.85c0-3-1.8-6.47-4.02-7.75-.88-.51-1.73-.59-2.36-.22-.81.47-1.28,1.6-1.28,3.12v27.85c0,.15-.08.28-.22.34l-1.02.47c-.14.06-.31.04-.42-.07l-2.66-2.6c-.07-.07-.11-.17-.11-.27v-27.85c0-3-1.8-6.47-4.02-7.75-.88-.51-1.72-.59-2.36-.22-.81.47-1.28,1.6-1.28,3.12v27.85c0,.15-.08.28-.22.34l-1.02.47c-.14.06-.3.04-.41-.06l-3.24-2.94c-.08-.07-.12-.17-.12-.28V12.29c0-.13.07-.26.19-.33.12-.07.26-.07.38,0l40.58,23.43c.12.07.19.19.19.33v37.47c0,.15-.08.28-.22.34l-1.02.47c-.05.02-.1.04-.16.04ZM59.83,70.94l2.31,2.28.57-.26v-37.02L22.88,12.94v36.66l2.93,2.66.58-.27v-27.61c0-1.79.6-3.16,1.65-3.77.88-.51,1.99-.43,3.11.22,2.42,1.4,4.39,5.17,4.39,8.4v27.69l2.37,2.31.57-.26v-27.61c0-1.79.6-3.16,1.65-3.76.88-.51,1.99-.43,3.11.22,2.42,1.4,4.39,5.17,4.39,8.4v27.69l2.45,2.37.57-.27v-27.61c0-1.79.6-3.16,1.65-3.77.88-.51,1.99-.43,3.11.22,2.42,1.4,4.39,5.17,4.39,8.4v27.69Z"/>
      </g>
      <g>
        <path class="cls-3" d="M117.8,67.29v37.47s-1.01.5-1.01.5l-3.26-2.96v-27.85c0-3.12-1.88-6.74-4.2-8.08s-4.2.1-4.2,3.22v27.85s-1.01.5-1.01.5l-2.68-2.63v-27.85c0-3.12-1.88-6.74-4.2-8.08-2.32-1.34-4.2.1-4.2,3.22v27.85s-1.01.5-1.01.5l-2.77-2.68v-27.85c0-3.12-1.88-6.74-4.2-8.08-2.32-1.34-4.2.1-4.2,3.22v27.85s-1.01.5-1.01.5l-2.62-2.59v-37.47s40.58,23.43,40.58,23.43Z"/>
        <path class="cls-3" d="M116.8,105.64c-.09,0-.18-.03-.25-.1l-3.26-2.96c-.08-.07-.12-.17-.12-.28v-27.85c0-3-1.8-6.47-4.02-7.75-.88-.51-1.72-.59-2.36-.22-.81.47-1.28,1.6-1.28,3.12v27.85c0,.14-.08.27-.21.34l-1.01.5c-.14.07-.31.04-.43-.07l-2.68-2.63c-.07-.07-.11-.17-.11-.27v-27.85c0-3-1.8-6.47-4.02-7.75-.88-.51-1.72-.59-2.36-.22-.81.47-1.28,1.6-1.28,3.12v27.85c0,.14-.08.27-.21.34l-1.01.5c-.14.07-.31.04-.43-.07l-2.77-2.68c-.07-.07-.11-.17-.11-.27v-27.85c0-2.99-1.8-6.47-4.02-7.75-.88-.51-1.72-.59-2.36-.22-.81.47-1.28,1.6-1.28,3.12v27.85c0,.14-.08.27-.21.34l-1.01.5c-.14.07-.32.04-.43-.07l-2.62-2.59c-.07-.07-.11-.17-.11-.27v-37.47c0-.13.07-.26.19-.33.12-.07.26-.07.38,0l40.58,23.43c.12.07.19.19.19.33v37.48c0,.14-.08.27-.21.34l-1.01.5c-.05.03-.11.04-.17.04ZM113.91,102.14l2.95,2.68.57-.28v-37.03l-39.83-22.99v36.67l2.32,2.29.56-.28v-27.62c0-1.79.6-3.16,1.65-3.77.88-.51,1.99-.43,3.11.22,2.42,1.4,4.39,5.17,4.39,8.4v27.69l2.46,2.39.56-.28v-27.62c0-1.79.6-3.16,1.65-3.76.88-.51,1.99-.43,3.11.22,2.42,1.4,4.39,5.17,4.39,8.4v27.69l2.38,2.33.56-.28v-27.62c0-1.79.6-3.16,1.65-3.77.88-.51,1.99-.43,3.11.22,2.42,1.4,4.39,5.17,4.39,8.4v27.69Z"/>
      </g>
      <g>
        <path class="cls-6" d="M21.48,12.76v37.47l4.27,2.46v-27.85c0-3.12,1.88-4.56,4.2-3.22s4.2,4.96,4.2,8.08v27.85l3.69,2.13v-27.85c0-3.12,1.88-4.56,4.2-3.22,2.32,1.34,4.2,4.96,4.2,8.08v27.85l3.78,2.18v-27.85c0-3.12,1.88-4.56,4.2-3.22,2.32,1.34,4.2,4.96,4.2,8.08v27.85l3.63,2.09v-37.47L21.48,12.76Z"/>
        <path class="cls-3" d="M62.06,74.04c-.06,0-.13-.02-.19-.05l-3.63-2.1c-.12-.07-.19-.19-.19-.33v-27.85c0-3-1.8-6.47-4.02-7.75-.88-.51-1.72-.59-2.36-.22-.81.47-1.28,1.6-1.28,3.12v27.85c0,.13-.07.26-.19.33-.12.07-.26.07-.38,0l-3.78-2.18c-.12-.07-.19-.19-.19-.33v-27.85c0-3-1.8-6.47-4.02-7.75-.88-.51-1.72-.59-2.36-.22-.81.47-1.28,1.6-1.28,3.12v27.85c0,.13-.07.26-.19.33-.12.07-.26.07-.38,0l-3.69-2.13c-.12-.07-.19-.19-.19-.33v-27.85c0-3-1.8-6.47-4.02-7.75-.88-.51-1.72-.59-2.36-.22-.81.47-1.28,1.6-1.28,3.12v27.85c0,.13-.07.26-.19.33-.12.07-.26.07-.38,0l-4.27-2.46c-.12-.07-.19-.19-.19-.33V12.76c0-.13.07-.26.19-.33.12-.07.26-.07.38,0l40.58,23.43c.12.07.19.19.19.33v37.48c0,.13-.07.26-.19.33-.06.03-.12.05-.19.05ZM58.81,71.35l2.88,1.66v-36.61L21.86,13.41v36.61l3.52,2.03v-27.2c0-1.79.6-3.16,1.65-3.76.88-.51,1.99-.43,3.11.22,2.42,1.4,4.39,5.17,4.39,8.4v27.63l2.94,1.7v-27.2c0-1.79.6-3.16,1.65-3.77.88-.51,1.99-.43,3.11.22,2.42,1.4,4.39,5.17,4.39,8.4v27.63l3.03,1.75v-27.2c0-1.79.6-3.16,1.65-3.76.88-.51,1.99-.43,3.11.22,2.42,1.4,4.39,5.17,4.39,8.4v27.63Z"/>
      </g>
      <g>
        <path class="cls-6" d="M116.8,67.79v37.47s-4.27-2.46-4.27-2.46v-27.85c0-3.12-1.88-6.74-4.2-8.08-2.32-1.34-4.2.1-4.2,3.22v27.85s-3.69-2.13-3.69-2.13v-27.85c0-3.12-1.88-6.74-4.2-8.08s-4.2.1-4.2,3.22v27.85s-3.78-2.18-3.78-2.18v-27.85c0-3.12-1.88-6.74-4.2-8.08-2.32-1.34-4.2.1-4.2,3.22v27.85s-3.63-2.09-3.63-2.09v-37.47s40.58,23.43,40.58,23.43Z"/>
        <path class="cls-3" d="M116.8,105.64c-.06,0-.13-.02-.19-.05l-4.27-2.46c-.12-.07-.19-.19-.19-.33v-27.85c0-3-1.8-6.47-4.02-7.75-.88-.51-1.72-.59-2.36-.22-.81.47-1.28,1.6-1.28,3.12v27.85c0,.13-.07.26-.19.33-.12.07-.26.07-.38,0l-3.69-2.13c-.12-.07-.19-.19-.19-.33v-27.85c0-2.99-1.8-6.47-4.02-7.75-.88-.51-1.72-.59-2.36-.22-.81.47-1.28,1.61-1.28,3.12v27.85c0,.13-.07.26-.19.33-.12.07-.26.07-.38,0l-3.78-2.18c-.12-.07-.19-.19-.19-.33v-27.85c0-3-1.8-6.47-4.02-7.75-.88-.51-1.72-.59-2.36-.22-.81.47-1.28,1.6-1.28,3.12v27.85c0,.13-.07.26-.19.33-.12.07-.26.07-.38,0l-3.63-2.09c-.12-.07-.19-.19-.19-.33v-37.47c0-.13.07-.26.19-.33.12-.07.26-.07.38,0l40.58,23.43c.12.07.19.19.19.33v37.47c0,.13-.07.26-.19.33-.06.03-.12.05-.19.05ZM112.91,102.59l3.52,2.03v-36.61l-39.83-22.99v36.61l2.88,1.66v-27.2c0-1.79.6-3.16,1.65-3.77.88-.51,1.99-.43,3.11.22,2.42,1.4,4.39,5.17,4.39,8.4v27.63l3.03,1.75v-27.2c0-1.79.6-3.16,1.65-3.77.88-.51,1.99-.43,3.11.22,2.42,1.4,4.39,5.17,4.39,8.4v27.63l2.94,1.7v-27.2c0-1.79.6-3.16,1.65-3.77.88-.51,1.99-.43,3.11.22,2.42,1.4,4.39,5.17,4.39,8.4v27.63Z"/>
      </g>
      <g>
        <polygon class="cls-2" points="51.68 3.37 65.44 .38 107.14 20.99 142.03 54.04 117.8 67.44 97.52 36.34 51.68 3.37"/>
        <path class="cls-3" d="M117.8,67.82c-.12,0-.24-.06-.31-.17l-20.25-31.04L51.46,3.68c-.12-.09-.18-.24-.15-.38s.14-.26.29-.29L65.36,0c.08-.02.17,0,.25.03l41.7,20.62s.06.04.09.06l34.88,33.05c.09.08.13.2.11.32-.02.12-.09.22-.19.28l-24.22,13.4c-.06.03-.12.05-.18.05ZM52.58,3.56l45.15,32.48s.07.06.1.1l20.1,30.81,23.47-12.98-34.47-32.66L65.39.77l-12.81,2.79Z"/>
      </g>
      <g>
        <polygon class="cls-2" points="117.8 67.44 96.51 27.7 51.68 3.37 20.7 11.66 117.8 67.44"/>
        <path class="cls-3" d="M117.8,67.82c-.06,0-.13-.02-.19-.05L20.52,11.98c-.13-.08-.2-.22-.19-.37.02-.15.13-.27.28-.31L51.58,3.01c.09-.03.19-.01.28.03l44.83,24.32c.06.04.12.09.15.15l21.3,39.74c.08.15.05.33-.07.45-.07.07-.17.11-.26.11ZM21.68,11.78l95.18,54.68-20.62-38.49L51.63,3.77l-29.95,8.01Z"/>
      </g>
      <g>
        <polygon class="cls-3" points="59.01 32.92 57.39 32.92 57.39 23.89 59.01 24.63 59.01 32.92"/>
        <path class="cls-3" d="M59.01,33.29h-1.62c-.21,0-.38-.17-.38-.38v-9.03c0-.13.06-.25.17-.32.11-.07.24-.08.36-.03l1.62.74c.13.06.22.19.22.34v8.29c0,.21-.17.38-.38.38ZM57.76,32.54h.87v-7.67l-.87-.4v8.07Z"/>
      </g>
      <g>
        <polygon class="cls-3" points="79.58 42.44 77.96 42.44 77.96 33.41 79.58 34.15 79.58 42.44"/>
        <path class="cls-3" d="M79.59,42.81h-1.62c-.21,0-.38-.17-.38-.38v-9.03c0-.13.06-.25.17-.32.11-.07.24-.08.36-.03l1.62.74c.13.06.22.19.22.34v8.29c0,.21-.17.38-.38.38ZM78.34,42.06h.87v-7.67l-.87-.4v8.07Z"/>
      </g>
      <g>
        <path class="cls-3" d="M77.82,40.97c0-2.57-1.68-5.63-3.75-6.83v-1.56l-1.17-.68c-.15-2.7-1.77-5.69-3.75-6.83-1.98-1.14-3.6-.02-3.75,2.5l-6.96,4.54v39.41l1.74,2.92,1.89-.82v-27.57c0-5.26,3.17-7.69,7.08-5.43s7.08,8.35,7.08,13.6v27.57l1.74,2.92,1.89-.82v-41.75l-2.04-1.18Z"/>
        <path class="cls-3" d="M77.96,85.1c-.13,0-.25-.07-.32-.18l-1.74-2.92c-.03-.06-.05-.12-.05-.19v-27.57c0-5.13-3.09-11.08-6.89-13.28-1.57-.91-3.08-1.04-4.24-.37-1.45.84-2.28,2.83-2.28,5.47v27.57c0,.15-.09.28-.23.34l-1.89.82c-.17.08-.37.01-.47-.15l-1.74-2.92c-.03-.06-.05-.12-.05-.19v-39.41c0-.13.06-.25.17-.31l6.81-4.44c.12-1.37.66-2.37,1.53-2.84.79-.42,1.77-.34,2.76.23,2.04,1.18,3.7,4.13,3.92,6.93l1,.58c.12.07.19.19.19.33v1.35c2.03,1.3,3.65,4.26,3.74,6.82l1.86,1.07c.12.07.19.19.19.33v41.75c0,.15-.09.28-.23.34l-1.89.82s-.1.03-.15.03ZM76.6,81.7l1.51,2.54,1.36-.59v-41.29l-1.85-1.07c-.12-.07-.19-.19-.19-.33,0-2.44-1.6-5.36-3.56-6.51-.12-.07-.19-.19-.19-.32v-1.34l-.98-.57c-.11-.06-.18-.18-.19-.3-.14-2.59-1.71-5.46-3.56-6.53-.77-.44-1.47-.52-2.03-.22-.66.36-1.08,1.24-1.15,2.42,0,.12-.07.23-.17.29l-6.79,4.43v39.11l1.51,2.54,1.36-.59v-27.32c0-2.92.97-5.15,2.66-6.12,1.4-.81,3.17-.68,4.99.37,4.01,2.31,7.27,8.56,7.27,13.93v27.46ZM78.19,40.97h0,0Z"/>
      </g>
      <g>
        <path class="cls-6" d="M75.92,41.8c0-2.57-1.68-5.63-3.75-6.83v-1.56l-1.17-.68c-.15-2.7-1.77-5.69-3.75-6.83-1.98-1.14-3.6-.02-3.75,2.5l-1.17-.68v1.56c-2.08-1.2-3.76-.08-3.76,2.5l-2.03-1.17v41.75l3.63,2.09v-27.57c0-5.26,3.17-7.69,7.08-5.43,3.91,2.26,7.08,8.35,7.08,13.6v27.57l3.63,2.09v-41.75l-2.04-1.18Z"/>
        <path class="cls-3" d="M77.96,85.1c-.06,0-.13-.02-.19-.05l-3.63-2.09c-.12-.07-.19-.19-.19-.33v-27.57c0-5.13-3.09-11.08-6.89-13.28-1.57-.91-3.08-1.04-4.24-.37-1.45.84-2.28,2.83-2.28,5.47v27.57c0,.13-.07.26-.19.33-.12.07-.26.07-.38,0l-3.63-2.09c-.12-.07-.19-.19-.19-.33V30.61c0-.13.07-.26.19-.33.12-.07.26-.07.38,0l1.5.87c.12-1.13.59-1.98,1.35-2.42.67-.39,1.5-.4,2.38-.05v-.95c0-.13.07-.26.19-.33.12-.07.26-.07.38,0l.67.39c.18-1.17.7-2.02,1.48-2.44.79-.43,1.77-.35,2.76.23,2.04,1.18,3.7,4.13,3.92,6.93l1,.58c.12.07.19.19.19.33v1.35c2.03,1.3,3.65,4.26,3.74,6.82l1.86,1.07c.12.07.19.19.19.33v41.75c0,.13-.07.26-.19.33-.06.03-.12.05-.19.05ZM74.71,82.41l2.88,1.66v-40.88l-1.85-1.07c-.12-.07-.19-.19-.19-.33,0-2.44-1.6-5.36-3.56-6.51-.12-.07-.19-.19-.19-.32v-1.34l-.98-.57c-.11-.06-.18-.18-.19-.3-.14-2.59-1.71-5.46-3.56-6.53-.77-.44-1.47-.52-2.03-.22-.66.36-1.08,1.24-1.15,2.42,0,.13-.08.25-.2.31-.11.06-.25.06-.37,0l-.61-.35v.91c0,.13-.07.26-.19.33-.12.07-.26.07-.38,0-.83-.48-1.61-.56-2.19-.23-.64.37-1.01,1.25-1.01,2.4,0,.13-.07.26-.19.33-.12.07-.26.07-.38,0l-1.46-.85v40.88l2.88,1.66v-26.92c0-2.92.97-5.15,2.66-6.12,1.4-.81,3.17-.68,4.99.37,4.01,2.31,7.27,8.56,7.27,13.93v27.35ZM76.3,41.8h0,0Z"/>
      </g>
      <path class="cls-3" d="M98.72,26.29c-.14,0-.27-.07-.33-.2-.1-.18-.02-.41.16-.51l6.7-3.48c.18-.09.41-.02.51.16.1.18.02.41-.16.51l-6.7,3.48c-.06.03-.11.04-.17.04Z"/>
      <g>
        <g>
          <path class="cls-4" d="M18.3,67.82c-.62,0-1.13-.52-1.17-1.18-.82-14.46-.7-29.17-.58-43.39,0-.73.53-1.29,1.17-1.29.66,0,1.18.58,1.17,1.27-.12,14.19-.24,28.87.58,43.25.04.69-.45,1.29-1.09,1.34,0,0-.07,0-.08,0Z"/>
          <path class="cls-3" d="M17.73,22.33c.44,0,.79.41.79.9-.12,14.2-.24,28.88.58,43.28.03.49-.31.91-.74.94-.02,0-.03,0-.05,0-.42,0-.77-.36-.79-.83-.82-14.46-.7-29.17-.58-43.41,0-.49.36-.88.8-.88h0M17.73,21.58h0c-.85,0-1.54.73-1.55,1.62-.12,14.26-.24,28.98.58,43.45.05.86.73,1.54,1.54,1.54.03,0,.07,0,.1,0,.85-.06,1.49-.84,1.44-1.73-.82-14.37-.7-29.04-.58-43.22,0-.9-.68-1.65-1.53-1.65,0,0,0,0,0,0h0Z"/>
        </g>
        <g>
          <path class="cls-5" d="M26.44,42.94c-.24,0-.51-.17-.54-.55l.07-1c.15-1.9.3-3.86.36-5.78-.03-4.53-.29-9.21-3.22-12.2-.76-.71-1.86-1.15-2.94-1.15-.64,0-1.56.16-2.29.89-.1.09-.19.14-.29.16-.05.06-.1.11-.13.14-.96.95-1.04,1.79-1.06,2.95-.33,3.85-1.66,7-4.2,9.92-.1.12-.25.18-.4.18-.28,0-.52-.21-.54-.48-.6-4.8-.71-10.66,3.74-13.27.24-.21,1.31-.39,1.85-.39.05,0,.1,0,.15,0,.04-.15.1-.3.18-.47-.64-.21-1.32-.34-1.96-.34-5.12,0-7.8,7.77-9.4,12.41l-.08.22c-.2.59-.39,1.2-.59,1.82-.63,1.98-1.28,4.02-2.26,6.17-.08.19-.28.33-.51.33-.31,0-.56-.23-.57-.53-.57-6.96.18-12.48,2.24-16.5-.08.05-.18.07-.28.07-.16,0-.32-.07-.43-.19-.1-.12-.15-.27-.13-.42.21-2.96,1.31-10.14,6.99-12.33.7-.24,1.42-.36,2.16-.36.5,0,1.01.06,1.5.16-.75-.48-1.54-.81-2.36-.81-.29,0-.57.04-.85.12-2.25.73-3.68,2.45-4.9,4.19-.36.51-.72,1.06-1.09,1.64-.89,1.38-1.9,2.95-3.31,4.38-.06.09-.25.24-.48.24-.15,0-.29-.06-.39-.17-.08-.08-.11-.2-.1-.31C1.65,12.47,5.01,7.6,10.35,7.19c.12,0,.22,0,.33,0,3.05,0,5.24,2.27,6.4,4.62,1.48-2.61,4.5-4.32,7.79-4.32h.27c5.43,0,10.47,4.24,11.73,9.86.74,3.21.43,6.34-.91,9.32-.08.18-.24.3-.43.33.16,1.1.25,2.22.28,3.34.08,3.73-.49,6.89-1.74,9.66-.07.23-.3.41-.55.41-.06,0-.19-.03-.25-.06-.12-.06-.19-.17-.21-.3-.54-5.83-1.26-11.99-3.64-17.53-.73-1.8-2.43-4.92-5.65-5.71-.38-.1-.77-.16-1.17-.16-2.13,0-4.48,1.53-4.56,3.99v.02c.91-.89,2.27-1.39,3.83-1.39,1.42,0,2.83.43,3.85,1.18,2.75,2.05,4.45,5.07,4.94,8.76.61,4.6-.81,9.75-3.71,13.44-.08.16-.3.3-.53.3ZM23.46,12.91c3.94,0,7.21,2.09,9.46,6.06.42.74.8,1.54,1.13,2.39-.24-.92-.52-1.77-.85-2.57-1.02-2.48-2.75-4.49-4.87-5.68-1.35-.74-2.77-1.13-4.11-1.13-1.79,0-3.33.69-4.38,1.91.96-.57,2.04-.92,3.08-.97.18,0,.36-.01.54-.01ZM14.84,15.89c-.78,0-1.38.18-1.77.32-.76.28-1.19.52-1.69.98-1.27,1-2.28,2.15-3.25,3.37.59-.44,1.22-.84,1.89-1.19.94-.44,1.99-.68,3.06-.68,1.3,0,2.53.35,3.54.98-.08-.54-.07-1.1.05-1.67-.25-.63-.41-1.28-.48-1.95-.47-.11-.92-.17-1.34-.17Z"/>
          <path class="cls-3" d="M10.68,7.56c3.04,0,5.29,2.42,6.38,5.13,1.2-2.81,4.26-4.82,7.81-4.82.05,0,.11,0,.16,0,.04,0,.08,0,.12,0,5.46,0,10.21,4.39,11.36,9.57.73,3.19.38,6.28-.88,9.09-.03.07-.1.11-.17.11-.09,0-.18-.06-.19-.17-.24-2.68-.69-5.35-1.71-7.81-1-2.45-2.75-4.59-5.04-5.86-1.46-.8-2.93-1.18-4.29-1.18-2.59,0-4.77,1.37-5.73,3.84,1.16-1.22,2.81-2.06,4.44-2.14.18,0,.35-.01.52-.01,8.52,0,11.84,9.96,11.97,17.05.07,3.21-.33,6.45-1.7,9.5-.03.09-.11.19-.21.19-.02,0-.05,0-.08-.02-.54-5.89-1.29-12.1-3.67-17.64-1.08-2.66-3.03-5.22-5.91-5.93-.41-.11-.83-.17-1.26-.17-2.43,0-4.85,1.77-4.94,4.35-.02.12-.09.18-.18.18-.05,0-.1-.02-.14-.05.19.2.38.41.54.64.87-1.2,2.4-1.76,3.98-1.76,1.31,0,2.65.39,3.63,1.11,6.78,5.05,5.98,15.54,1.16,21.66-.05.09-.15.15-.23.15s-.16-.06-.17-.2c.17-2.25.37-4.5.43-6.74-.02-4.24-.23-9.31-3.32-12.47-.83-.79-2.04-1.26-3.21-1.26-.94,0-1.87.31-2.55,1.01-.05.04-.1.06-.14.06s-.08-.02-.12-.05c.01.07-.03.16-.16.28-1.08,1.07-1.16,2.02-1.17,3.21-.31,3.58-1.49,6.66-4.11,9.68-.03.04-.08.05-.12.05-.08,0-.16-.06-.17-.14-.54-4.36-.79-10.36,3.56-12.91.16-.14,1.07-.34,1.66-.34.23,0,.4.03.48.1-.03-.06-.04-.13-.01-.21.09-.34.23-.65.39-.93-.03,0-.07-.01-.1-.04-.85-.33-1.65-.48-2.39-.48-5.48,0-8.2,8.15-9.83,12.88-.82,2.45-1.55,5.14-2.83,7.96-.03.07-.1.11-.17.11-.09,0-.19-.06-.19-.17-.64-7.87.1-18.16,8-22.25.89-.42,1.89-.63,2.88-.63,1.58,0,3.15.54,4.26,1.65-.03-.03-.06-.07-.07-.12-.37-.89-.41-1.79-.21-2.64-.31-.75-.47-1.49-.52-2.22-.63-.18-1.19-.24-1.69-.24-.75,0-1.37.16-1.89.35-.8.29-1.28.56-1.82,1.06-2.86,2.25-4.37,5.19-7.22,8.2-.03.04-.08.05-.12.05-.1,0-.2-.08-.19-.19.32-4.63,1.99-10.2,6.75-12.03.66-.22,1.34-.33,2.02-.33,1.37,0,2.73.43,3.82,1.23-1.4-1.34-2.94-2.63-4.69-2.63-.31,0-.63.04-.95.13-2.24.73-3.71,2.33-5.1,4.34-1.22,1.7-2.39,3.97-4.36,5.96-.05.07-.13.13-.22.13-.04,0-.08-.02-.12-.05.77-5.57,2.76-13.64,9.62-14.16.1,0,.2,0,.3,0M10.68,6.81v.75s0-.75,0-.75c-.11,0-.23,0-.34,0C4.78,7.24,1.31,12.22,0,21.63c-.03.22.04.45.19.61.18.19.41.29.67.29.29,0,.58-.14.78-.38.89-.91,1.62-1.87,2.27-2.8-.52,1.53-.91,3.36-1.07,5.57-.03.22.05.48.23.68.1.12.23.21.38.26-1.88,4.03-2.55,9.43-2,16.16.01.47.43.86.94.86.38,0,.72-.23.86-.58.97-2.14,1.63-4.19,2.26-6.18.2-.62.39-1.23.59-1.82l.07-.21c1.57-4.55,4.19-12.16,9.05-12.16.32,0,.65.03.99.1-.51.07-1.1.2-1.41.4-4.68,2.75-4.47,9.11-3.91,13.65.04.45.44.8.91.8.26,0,.51-.11.68-.31,2.6-2.99,3.96-6.2,4.29-10.11,0-.02,0-.04,0-.06.01-1.1.06-1.81.95-2.69.02-.02.05-.05.07-.07.11-.04.22-.11.31-.19.01-.01.03-.02.04-.04.63-.65,1.45-.78,2.02-.78.97,0,2.01.4,2.7,1.05,2.8,2.87,3.06,7.47,3.09,11.93-.05,1.88-.21,3.83-.36,5.72l-.07.96s0,.07,0,.11c.03.52.42.9.91.9.34,0,.66-.18.85-.48,2.94-3.76,4.38-9,3.75-13.68-.07-.51-.16-1.01-.27-1.49,1.07,4.08,1.54,8.33,1.92,12.42.02.26.18.49.41.6.13.06.27.1.41.1.4,0,.75-.26.9-.66,1.26-2.81,1.84-6.02,1.76-9.8-.02-1.04-.1-2.07-.24-3.1.16-.1.29-.24.36-.42,1.37-3.05,1.68-6.26.92-9.55-1.29-5.78-6.49-10.15-12.09-10.15h-.12s-.15,0-.15,0c-3.18,0-6.13,1.54-7.77,3.94-1.27-2.24-3.46-4.25-6.42-4.25h0ZM22.6,12.57c.51-.14,1.05-.22,1.62-.22,1.27,0,2.63.38,3.93,1.09.84.47,1.63,1.08,2.32,1.8-1.97-1.78-4.34-2.7-7.01-2.7-.18,0-.37,0-.56.01-.1,0-.2.01-.3.02h0ZM9.99,18.98c.5-.52,1.02-1.01,1.61-1.47.02-.01.03-.02.04-.04.46-.43.84-.65,1.57-.91.36-.13.92-.3,1.64-.3.33,0,.66.03,1.01.1.08.57.23,1.13.43,1.67-.06.33-.09.65-.09.98-.93-.45-2-.69-3.11-.69-1.08,0-2.14.23-3.09.65h0ZM18.56,19.78c.52-1.72,2.36-2.75,4.04-2.75.36,0,.72.05,1.06.14,3.08.76,4.71,3.76,5.41,5.49.53,1.22.97,2.48,1.35,3.75-.84-2.56-2.36-4.69-4.46-6.26-1.09-.8-2.58-1.25-4.08-1.26-1.27,0-2.41.31-3.31.88h0Z"/>
        </g>
      </g>
      <g>
        <g>
          <path class="cls-4" d="M104.53,115.04c-.62,0-1.13-.52-1.17-1.19-.82-14.46-.7-29.17-.58-43.39,0-.73.53-1.29,1.17-1.29.66,0,1.18.58,1.17,1.27-.12,14.19-.24,28.85.58,43.25.04.69-.45,1.29-1.09,1.34,0,0-.07,0-.08,0Z"/>
          <path class="cls-3" d="M103.95,69.55c.44,0,.79.41.79.9-.12,14.2-.24,28.88.58,43.28.03.49-.31.91-.74.94-.02,0-.03,0-.05,0-.42,0-.77-.36-.79-.83-.82-14.46-.7-29.17-.58-43.41,0-.49.36-.88.8-.88h0M103.95,68.8h0c-.85,0-1.54.73-1.55,1.62-.12,14.26-.24,28.98.58,43.45.05.86.73,1.54,1.54,1.54.03,0,.07,0,.1,0,.85-.06,1.49-.84,1.44-1.73-.82-14.37-.7-29.04-.58-43.22,0-.9-.68-1.65-1.53-1.65,0,0,0,0,0,0h0Z"/>
        </g>
        <g>
          <path class="cls-5" d="M112.67,90.16c-.24,0-.51-.17-.54-.55l.08-1.07c.15-1.88.3-3.81.35-5.71-.03-4.53-.3-9.21-3.22-12.2-.76-.71-1.86-1.15-2.94-1.15-.64,0-1.56.16-2.28.89-.1.09-.19.14-.29.16-.05.06-.1.11-.13.14-.96.95-1.04,1.79-1.06,2.95-.33,3.85-1.66,7-4.2,9.92-.1.12-.25.18-.4.18-.28,0-.52-.21-.54-.48-.6-4.8-.71-10.66,3.74-13.27.25-.21,1.31-.39,1.85-.39.05,0,.1,0,.15,0,.04-.15.1-.31.18-.47-.64-.21-1.32-.34-1.96-.34-5.13,0-7.8,7.77-9.4,12.41l-.08.22c-.2.59-.39,1.21-.59,1.83-.63,1.97-1.28,4.01-2.25,6.16-.08.19-.28.33-.51.33-.31,0-.56-.23-.57-.53-.57-6.96.18-12.48,2.24-16.5-.08.05-.18.07-.28.07-.16,0-.32-.07-.43-.19-.1-.12-.15-.27-.13-.42.21-2.96,1.3-10.14,6.99-12.33.7-.24,1.42-.36,2.16-.36.5,0,1.01.06,1.5.16-.74-.48-1.54-.81-2.36-.81-.29,0-.57.04-.85.12-2.25.73-3.68,2.45-4.9,4.19-.36.51-.72,1.06-1.09,1.64-.89,1.38-1.9,2.95-3.31,4.38-.1.14-.29.24-.48.24-.15,0-.29-.06-.39-.17-.08-.08-.11-.19-.1-.31,1.28-9.21,4.63-14.08,9.97-14.49.12,0,.23,0,.33,0,3.05,0,5.24,2.27,6.39,4.62,1.48-2.61,4.5-4.32,7.79-4.32h.27c5.43,0,10.47,4.24,11.73,9.86.74,3.21.43,6.34-.91,9.32-.08.18-.24.3-.43.33.16,1.1.25,2.22.28,3.34.08,3.73-.49,6.89-1.74,9.66-.07.23-.3.41-.55.41-.06,0-.19-.03-.24-.06-.12-.06-.2-.17-.21-.3-.54-5.83-1.26-11.99-3.64-17.53-.73-1.8-2.43-4.92-5.65-5.71-.38-.1-.77-.16-1.17-.16-2.13,0-4.48,1.53-4.56,3.99,0,0,0,.01,0,.02.91-.89,2.27-1.39,3.84-1.39,1.42,0,2.83.43,3.85,1.18,2.75,2.05,4.45,5.08,4.94,8.76.61,4.6-.81,9.75-3.7,13.44-.08.16-.3.3-.53.3ZM109.69,60.14c3.95,0,7.21,2.09,9.46,6.06.42.74.8,1.54,1.13,2.39-.24-.93-.52-1.77-.85-2.57-1.02-2.48-2.75-4.49-4.87-5.68-1.35-.74-2.77-1.13-4.11-1.13-1.79,0-3.33.69-4.38,1.91.96-.57,2.04-.92,3.08-.97.19,0,.37-.01.54-.01ZM101.07,63.12c-.78,0-1.38.19-1.77.32-.76.28-1.19.52-1.69.98-1.27,1-2.28,2.15-3.25,3.36.59-.44,1.22-.84,1.89-1.18.94-.44,1.99-.68,3.06-.68,1.3,0,2.53.35,3.54.98-.08-.54-.07-1.1.05-1.67-.25-.63-.41-1.29-.48-1.95-.47-.11-.92-.17-1.34-.17Z"/>
          <path class="cls-3" d="M96.91,54.78c3.04,0,5.29,2.42,6.38,5.13,1.2-2.81,4.26-4.82,7.81-4.82.05,0,.11,0,.16,0,.04,0,.08,0,.12,0,5.46,0,10.21,4.39,11.36,9.57.73,3.19.38,6.28-.88,9.09-.03.07-.1.11-.17.11-.09,0-.18-.06-.19-.17-.24-2.68-.69-5.35-1.71-7.81-1-2.45-2.75-4.59-5.04-5.86-1.46-.8-2.93-1.18-4.29-1.18-2.59,0-4.77,1.37-5.73,3.84,1.16-1.22,2.81-2.06,4.44-2.14.18,0,.35-.01.52-.01,8.52,0,11.84,9.96,11.97,17.05.07,3.21-.33,6.45-1.7,9.5-.03.09-.11.19-.21.19-.02,0-.05,0-.08-.02-.54-5.89-1.29-12.1-3.67-17.64-1.08-2.66-3.03-5.22-5.91-5.93-.41-.11-.83-.17-1.26-.17-2.43,0-4.85,1.77-4.94,4.35-.02.12-.09.18-.18.18-.05,0-.1-.02-.14-.05.19.2.38.41.54.64.87-1.2,2.4-1.76,3.98-1.76,1.31,0,2.65.39,3.63,1.11,6.78,5.05,5.98,15.54,1.16,21.66-.05.09-.15.15-.23.15s-.16-.06-.17-.2c.17-2.25.37-4.5.43-6.74-.02-4.24-.23-9.31-3.32-12.47-.83-.79-2.04-1.26-3.21-1.26-.94,0-1.87.31-2.55,1.01-.05.04-.1.06-.14.06s-.08-.02-.12-.05c.01.07-.03.16-.16.28-1.08,1.07-1.16,2.02-1.17,3.21-.31,3.58-1.49,6.66-4.11,9.68-.03.04-.08.05-.12.05-.08,0-.16-.06-.17-.14-.54-4.36-.79-10.36,3.56-12.91.16-.14,1.07-.34,1.66-.34.23,0,.4.03.48.1-.03-.06-.04-.13-.01-.21.09-.34.23-.65.39-.93-.03,0-.07-.01-.1-.04-.85-.33-1.65-.48-2.39-.48-5.48,0-8.2,8.15-9.83,12.88-.82,2.45-1.55,5.14-2.83,7.96-.03.07-.1.11-.17.11-.09,0-.19-.06-.19-.17-.64-7.87.1-18.16,8-22.25.89-.42,1.89-.63,2.88-.63,1.58,0,3.15.54,4.26,1.65-.03-.03-.06-.07-.07-.12-.37-.89-.41-1.79-.21-2.64-.31-.75-.47-1.49-.52-2.22-.63-.18-1.19-.24-1.69-.24-.75,0-1.37.16-1.89.35-.8.29-1.28.56-1.82,1.06-2.86,2.25-4.37,5.19-7.22,8.2-.03.04-.08.05-.12.05-.1,0-.2-.08-.19-.19.32-4.63,1.99-10.2,6.75-12.03.66-.22,1.34-.33,2.02-.33,1.37,0,2.73.43,3.82,1.23-1.4-1.34-2.94-2.63-4.69-2.63-.31,0-.63.04-.95.13-2.24.73-3.71,2.33-5.1,4.34-1.22,1.7-2.39,3.97-4.36,5.96-.05.07-.13.13-.22.13-.04,0-.08-.02-.12-.05.77-5.57,2.76-13.64,9.62-14.16.1,0,.2,0,.3,0M96.91,54.03v.75s0-.75,0-.75c-.11,0-.23,0-.34,0-5.56.42-9.03,5.4-10.33,14.81-.03.22.04.45.19.61.18.19.41.29.67.29.29,0,.58-.14.78-.38.89-.91,1.62-1.87,2.27-2.8-.52,1.53-.91,3.36-1.07,5.57-.03.22.05.48.23.68.1.12.23.21.38.26-1.88,4.03-2.55,9.43-2,16.16.01.47.43.86.94.86.38,0,.72-.23.86-.58.97-2.14,1.63-4.19,2.26-6.18.2-.62.39-1.23.59-1.82l.07-.21c1.57-4.55,4.19-12.16,9.05-12.16.32,0,.65.03.99.1-.51.07-1.1.2-1.41.4-4.68,2.75-4.47,9.11-3.91,13.65.04.45.44.8.91.8.26,0,.51-.11.68-.31,2.6-2.99,3.96-6.2,4.29-10.11,0-.02,0-.04,0-.06.01-1.1.06-1.81.95-2.69.02-.02.05-.05.07-.07.11-.04.22-.11.31-.19.01-.01.03-.02.04-.04.63-.65,1.45-.78,2.02-.78.97,0,2.01.4,2.7,1.05,2.8,2.87,3.06,7.47,3.09,11.93-.05,1.88-.21,3.83-.36,5.72l-.07.96s0,.07,0,.11c.03.52.42.9.91.9.34,0,.66-.18.85-.48,2.94-3.76,4.38-9,3.75-13.68-.07-.51-.16-1.01-.27-1.49,1.07,4.08,1.54,8.33,1.92,12.42.02.26.18.49.41.6.13.06.27.1.41.1.4,0,.75-.26.9-.66,1.26-2.81,1.84-6.02,1.76-9.8-.02-1.04-.1-2.07-.24-3.1.16-.1.29-.24.36-.42,1.37-3.05,1.68-6.26.92-9.55-1.29-5.78-6.49-10.15-12.09-10.15h-.12s-.15,0-.15,0c-3.18,0-6.13,1.54-7.77,3.94-1.27-2.24-3.46-4.25-6.42-4.25h0ZM108.83,59.8c.51-.14,1.05-.22,1.62-.22,1.27,0,2.63.38,3.93,1.09.84.47,1.63,1.08,2.32,1.8-1.97-1.78-4.34-2.7-7.01-2.7-.18,0-.37,0-.56.01-.1,0-.2.01-.3.02h0ZM96.22,66.21c.5-.52,1.02-1.01,1.61-1.47.02-.01.03-.02.04-.04.46-.43.84-.65,1.57-.91.36-.13.92-.3,1.64-.3.33,0,.66.03,1.01.1.08.57.23,1.13.43,1.67-.06.33-.09.65-.09.98-.93-.45-2-.69-3.11-.69-1.08,0-2.14.23-3.09.65h0ZM104.79,67c.52-1.72,2.36-2.75,4.04-2.75.36,0,.72.05,1.06.14,3.08.76,4.71,3.76,5.41,5.49.53,1.22.97,2.48,1.35,3.75-.84-2.56-2.36-4.69-4.46-6.26-1.09-.8-2.58-1.25-4.08-1.26-1.27,0-2.41.31-3.31.88h0Z"/>
        </g>
      </g>
    </g>
  </g>
</svg>