<?xml version="1.0" encoding="UTF-8"?>
<svg id="_圖層_2" data-name="圖層 2" xmlns="http://www.w3.org/2000/svg" viewBox="0 0 41.46 67.21">
  <defs>
    <style>
      .cls-1 {
        fill: #914c24;
      }

      .cls-1, .cls-2, .cls-3, .cls-4, .cls-5, .cls-6 {
        stroke-width: 0px;
      }

      .cls-2 {
        fill: #a26846;
      }

      .cls-3 {
        fill: #000;
      }

      .cls-4 {
        fill: #ffe9ce;
      }

      .cls-5 {
        fill: #f1c9bb;
      }

      .cls-6 {
        fill: #fff;
      }
    </style>
  </defs>
  <g id="_圖層_5" data-name="圖層 5">
    <g>
      <g>
        <g>
          <polygon class="cls-5" points="15.83 14.23 15.8 23.64 11.07 23.71 11.13 13.78 11.13 9.58 15.83 10.02 15.83 14.23"/>
          <path class="cls-3" d="M11.07,24.08c-.1,0-.19-.04-.26-.11-.07-.07-.11-.17-.11-.27l.06-14.13c0-.11.04-.21.12-.28s.18-.1.29-.1l4.7.45c.19.02.34.18.34.37v4.21h0s-.03,9.41-.03,9.41c0,.21-.17.37-.37.37l-4.72.06h0ZM11.51,9.99v3.79l-.06,9.54,3.97-.05.03-12.91-3.95-.38ZM15.83,14.23h0,0Z"/>
        </g>
        <g>
          <path class="cls-4" d="M12.1,16.39s2.94,1.38,4.05-.81l.51,4.27-.82,6.52-3.68.55-1.23-10.05,1.16-.48Z"/>
          <path class="cls-3" d="M12.17,27.29c-.08,0-.16-.03-.23-.08-.08-.06-.13-.15-.15-.25l-1.23-10.05c-.02-.17.07-.33.23-.39l1.16-.48c.1-.04.21-.04.3,0,.11.05,2.62,1.19,3.56-.64.07-.15.23-.23.4-.2.16.03.29.16.31.32l.51,4.27-.82,6.61c-.02.17-.15.3-.32.32l-3.68.55s-.04,0-.06,0ZM11.35,17.1l1.15,9.39,3.02-.45.78-6.24-.4-3.27c-1.11.99-2.82.68-3.8.26l-.75.31Z"/>
        </g>
        <g>
          <path class="cls-5" d="M18.42,7.12c.1,3.36-1.76,6.14-4.73,6.23s-5.9-2.55-6-5.91S9.91,1.29,12.87,1.2s5.45,2.56,5.55,5.92Z"/>
          <path class="cls-3" d="M13.54,13.73c-3.24,0-6.12-2.89-6.23-6.27-.11-3.56,2.38-6.54,5.55-6.63,1.55-.04,3.01.59,4.13,1.79,1.11,1.18,1.75,2.78,1.8,4.5h0c.05,1.74-.4,3.37-1.29,4.57-.93,1.27-2.28,2-3.8,2.04-.05,0-.11,0-.16,0ZM13.02,1.57s-.09,0-.13,0c-2.75.08-4.91,2.71-4.82,5.86.09,3.04,2.69,5.64,5.62,5.54,1.31-.04,2.42-.64,3.22-1.73.78-1.07,1.19-2.53,1.14-4.11h0c-.05-1.53-.61-2.96-1.6-4.01-.94-1-2.15-1.55-3.43-1.55Z"/>
        </g>
        <g>
          <g>
            <path class="cls-5" d="M11.27,9.39c.48.02.91,0,1.29-.03.93-.08,1.59-.94,1.44-1.86l-.03-.2c-.06-.36-.34-.64-.7-.68-.68-.09-1.83-.17-2.96.1-.42.1-.69.52-.61.95l.07.4c.13.74.76,1.3,1.52,1.33Z"/>
            <path class="cls-3" d="M11.64,9.77c-.13,0-.25,0-.38,0h0c-.93-.03-1.72-.72-1.88-1.64l-.07-.4c-.11-.63.29-1.24.9-1.38,1.22-.29,2.46-.19,3.1-.11.52.07.93.47,1.02.99l.03.2c.09.54-.05,1.1-.38,1.54-.34.43-.84.71-1.39.76-.31.03-.63.04-.95.04ZM11.28,9.02c.43.01.84,0,1.25-.03.35-.03.65-.2.86-.47.21-.27.3-.61.24-.95l-.03-.2c-.03-.2-.19-.35-.38-.37-.58-.08-1.72-.17-2.83.09-.22.05-.37.29-.33.52l.07.4c.1.57.59,1,1.16,1.02Z"/>
          </g>
          <g>
            <path class="cls-5" d="M17.44,9.07c-.39.06-.75.09-1.06.09-.77,0-1.39-.78-1.35-1.71v-.2c.02-.36.23-.67.52-.75.55-.15,1.48-.34,2.43-.18.36.06.61.45.59.89l-.02.4c-.03.75-.5,1.37-1.12,1.47Z"/>
            <path class="cls-3" d="M16.37,9.53c-.42,0-.82-.18-1.14-.5-.39-.41-.61-.99-.58-1.6v-.2c.03-.53.35-.97.79-1.09.63-.18,1.6-.36,2.6-.19.54.09.94.65.91,1.27l-.02.4c-.04.93-.64,1.7-1.43,1.82h0c-.37.06-.75.09-1.11.1h-.02ZM17.23,6.63c-.65,0-1.24.13-1.58.23-.13.04-.23.21-.24.4v.2c-.03.4.11.79.36,1.05.12.13.32.27.6.27h0c.33,0,.67-.03,1.01-.09h0c.44-.07.77-.54.8-1.11l.02-.4c.01-.27-.14-.48-.28-.5-.23-.04-.46-.05-.69-.05Z"/>
          </g>
          <path class="cls-3" d="M13.98,7.77c-.2,0-.36-.16-.37-.36-.01-.21.15-.38.35-.39l1-.05c.22-.02.38.15.39.35.01.21-.15.38-.35.39l-1,.05s-.01,0-.02,0Z"/>
        </g>
        <path class="cls-3" d="M12.09,3.63c.44-.54.93-.77,1.65-.76.31,0,.63,0,.94-.03.4-.03.65-.31.96.02.29.3.41.77.63,1.11.3.46.72.81,1.11,1.19.66.66.88,1.32.92,2.23.04.98,0,1.97-.35,2.89-.21.55-.53,1.06-.95,1.46-.22.2-.46.38-.72.51-.21.11-.55.22-.55.51,0,.07.02.13.06.18.14.23.41.33.67.38,1.05.2,1.97-.34,2.62-1.14.49-.61.76-1.4.79-2.19.05-1.66-.25-3.33-.89-4.87-.28-.68-.63-1.28-.84-1.97s-.72-1.39-1.29-1.82c-.38-.29-.85-.47-1.32-.51-.23-.02-.45,0-.67.06-.28.06-.26.02-.48-.17C13.84.24,13.13.01,12.43,0c-1.31-.02-2.55.68-3.48,1.63s-1.59,2.17-2.2,3.38c-.39.78-.76,1.57-.99,2.42s-.3,1.75-.08,2.6c.17.65.5,1.25.9,1.78.49.66,1.09,1.24,1.81,1.61s1.55.51,2.32.29c.18-.05.36-.13.45-.3.34-.68-.54-1.05-.91-1.44-.64-.69-1.02-1.32-1.05-2.29-.02-.71.04-1.43.3-2.09.38-.93,1.13-1.65,1.67-2.5.27-.43.49-.9.79-1.32.04-.05.08-.1.11-.15Z"/>
        <g>
          <polygon class="cls-3" points="11.4 13.02 15.62 30.6 15.78 12.83 19.88 13.74 23.89 20.81 6.88 29.93 4.73 16.04 11.4 13.02"/>
          <path class="cls-3" d="M15.62,30.98c-.17,0-.32-.12-.36-.29l-1.03-4.28-7.18,3.84c-.11.06-.23.06-.34,0-.11-.05-.18-.16-.2-.28l-2.15-13.89c-.03-.17.06-.33.22-.4l6.68-3.02c.1-.05.22-.04.32,0,.1.05.17.14.2.25l2.97,12.36.56-.3.11-12.16c0-.11.05-.22.14-.29.09-.07.21-.1.31-.07l4.1.92c.1.02.19.09.24.18l4.01,7.07c.05.09.06.19.03.29-.03.1-.09.18-.18.23l-8.03,4.3-.04,5.17c0,.19-.14.35-.33.37-.01,0-.03,0-.04,0ZM5.14,16.26l2.03,13.08,6.88-3.69-2.91-12.11-6,2.71ZM14.91,26.05l.36,1.5v-1.7s-.36.2-.36.2ZM16.15,13.3l-.1,11.29,7.33-3.92-3.74-6.59-3.49-.78Z"/>
        </g>
      </g>
      <g>
        <g>
          <polygon class="cls-2" points="39.54 54.75 18.59 66.83 18.59 39.48 39.54 27.38 39.54 54.75"/>
          <path class="cls-3" d="M18.59,67.21c-.06,0-.13-.02-.19-.05-.12-.07-.19-.19-.19-.33v-27.36c0-.13.07-.26.19-.33l20.95-12.09c.12-.07.26-.07.38,0,.12.07.19.19.19.33v27.37c0,.13-.07.26-.19.33l-20.95,12.08c-.06.03-.12.05-.19.05ZM18.97,39.69v26.49l20.2-11.65v-26.5l-20.2,11.66ZM39.54,54.75h0,0Z"/>
        </g>
        <g>
          <polygon class="cls-1" points="18.59 39.46 2.87 30.39 2.87 57.75 18.59 66.83 18.59 39.46"/>
          <path class="cls-3" d="M18.59,67.21c-.06,0-.13-.02-.19-.05l-15.72-9.08c-.12-.07-.19-.19-.19-.33v-27.37c0-.13.07-.26.19-.33.12-.07.26-.07.38,0l15.72,9.08c.12.07.19.19.19.33v27.37c0,.13-.07.26-.19.33-.06.03-.12.05-.19.05ZM3.25,57.54l14.97,8.64v-26.5L3.25,31.04v26.5Z"/>
        </g>
        <g>
          <polygon class="cls-2" points="41.09 30.69 17.83 44.12 17.83 40.13 41.09 26.7 41.09 30.69"/>
          <path class="cls-3" d="M17.83,44.5c-.06,0-.13-.02-.19-.05-.12-.07-.19-.19-.19-.33v-3.99c0-.13.07-.26.19-.33l23.26-13.43c.12-.07.26-.07.38,0,.12.07.19.19.19.33v3.99c0,.13-.07.26-.19.33l-23.26,13.43c-.06.03-.12.05-.19.05ZM18.2,40.34v3.13l22.51-13v-3.13l-22.51,13ZM41.09,30.69h0,0Z"/>
        </g>
        <g>
          <polygon class="cls-3" points="17.83 40.11 .38 30.04 .38 34.03 17.83 44.11 17.83 40.11"/>
          <path class="cls-3" d="M17.83,44.48c-.06,0-.13-.02-.19-.05L.19,34.35c-.12-.07-.19-.19-.19-.33v-3.99c0-.13.07-.26.19-.33.12-.07.26-.07.38,0l17.46,10.08c.12.07.19.19.19.33v3.99c0,.13-.07.26-.19.33-.06.03-.12.05-.19.05ZM.75,33.81l16.71,9.65v-3.13L.75,30.68v3.13Z"/>
        </g>
        <g>
          <polygon class="cls-2" points=".4 30.02 17.86 40.18 41.04 26.67 23.44 17.16 .4 30.02"/>
          <path class="cls-3" d="M17.86,40.55c-.06,0-.13-.02-.19-.05L.21,30.34c-.12-.07-.19-.19-.19-.33,0-.13.07-.26.19-.32l23.04-12.85c.11-.06.25-.06.36,0l17.6,9.51c.12.06.19.19.2.32,0,.14-.07.26-.19.33l-23.18,13.51c-.06.03-.12.05-.19.05ZM1.15,30.02l16.7,9.72,22.42-13.06-16.83-9.09L1.15,30.02Z"/>
        </g>
      </g>
      <g>
        <polygon class="cls-6" points="10.22 28.78 19.72 34.31 32.34 26.95 22.76 21.78 10.22 28.78"/>
        <path class="cls-3" d="M19.72,34.68c-.06,0-.13-.02-.19-.05l-9.51-5.53c-.12-.07-.19-.19-.19-.33,0-.13.07-.26.19-.32l12.54-7c.11-.06.25-.06.36,0l9.58,5.18c.12.06.19.19.2.32,0,.14-.07.26-.19.33l-12.62,7.35c-.06.03-.12.05-.19.05ZM10.97,28.78l8.75,5.09,11.85-6.91-8.81-4.76-11.79,6.58Z"/>
      </g>
      <g>
        <polygon class="cls-5" points="8 28.51 9.8 29.57 12.61 28.98 14.39 31.27 11.41 33.1 6.34 31.01 8 28.51"/>
        <path class="cls-3" d="M11.41,33.48s-.1,0-.14-.03l-5.07-2.09c-.1-.04-.18-.13-.22-.24s-.02-.22.05-.32l1.66-2.5c.11-.17.33-.22.5-.12l1.68.99,2.66-.56c.14-.02.29.02.37.14l1.78,2.28c.07.08.09.19.07.3-.02.11-.08.2-.17.25l-2.98,1.84c-.06.04-.13.06-.2.06ZM6.9,30.84l4.47,1.84,2.46-1.52-1.38-1.77-2.58.54c-.09.02-.19,0-.27-.04l-1.5-.88-1.21,1.82Z"/>
      </g>
      <g>
        <polygon class="cls-3" points="4.73 16.04 7.87 19.86 5.92 26.53 9.38 28.69 7.54 31.83 1.95 28.55 4.73 16.04"/>
        <path class="cls-3" d="M7.54,32.2c-.07,0-.13-.02-.19-.05l-5.59-3.28c-.14-.08-.21-.25-.18-.4l2.77-12.51c.03-.14.14-.25.28-.28.14-.04.29.01.38.13l3.14,3.82c.08.1.1.22.07.34l-1.87,6.4,3.22,2.01c.17.11.23.33.12.51l-1.84,3.14c-.05.09-.13.15-.23.17-.03,0-.06.01-.09.01ZM2.38,28.36l5.03,2.95,1.47-2.5-3.15-1.97c-.14-.09-.21-.26-.16-.42l1.89-6.48-2.53-3.07-2.55,11.49Z"/>
      </g>
      <g>
        <g>
          <ellipse class="cls-3" cx="32.31" cy="26.63" rx="2.43" ry="1.63"/>
          <path class="cls-3" d="M32.31,28.64c-1.57,0-2.8-.88-2.8-2.01s1.23-2,2.8-2,2.8.88,2.8,2-1.23,2.01-2.8,2.01ZM32.31,25.38c-1.11,0-2.05.57-2.05,1.25s.94,1.26,2.05,1.26,2.05-.58,2.05-1.26-.94-1.25-2.05-1.25Z"/>
        </g>
        <path class="cls-3" d="M32.45,26.49c-.21,0-.38-.17-.38-.38v-6.5c0-2.05-1.13-3.93-2.95-4.89l-4.21-2.22c-.18-.1-.25-.32-.16-.51.1-.18.32-.25.51-.16l4.21,2.22c2.06,1.09,3.34,3.22,3.34,5.55v6.5c0,.21-.17.38-.38.38Z"/>
        <path class="cls-3" d="M24.34,11.79h0c.34-.62,1.13-.83,1.73-.44l1.21.78c.48.31.65.94.37,1.45h0c-.27.5-.88.71-1.41.48l-1.32-.57c-.65-.28-.93-1.07-.58-1.7Z"/>
      </g>
      <path class="cls-6" d="M27.67,56.41c-.21,0-.41-.05-.59-.14-.94-.46-1.25-1.97-.8-3.62-.23-.08-.43-.23-.61-.44-.5-.59-.66-1.64-.43-2.8.32-1.64,1.3-3.05,2.36-3.43.14-1.61,1.01-3.23,2.1-3.86.54-.31,1.09-.35,1.54-.1.42.24.72.7.86,1.31.44-.26.89-.35,1.3-.23.54.15.94.63,1.12,1.34.33,1.31-.13,3.13-1.07,4.34.48,1.11.25,2.88-.6,4.28-.58.96-1.33,1.54-2.06,1.58-.28.02-.54-.04-.77-.17-.47.9-1.11,1.56-1.77,1.81-.19.07-.39.11-.57.11ZM26.76,51.98c.12,0,.23.06.3.16.07.1.09.23.05.34-.54,1.52-.28,2.84.29,3.12.16.08.36.08.57,0,.58-.22,1.17-.93,1.56-1.86.05-.12.16-.21.29-.23.13-.02.26.03.35.14.15.19.34.28.56.26.47-.03,1.03-.5,1.47-1.22.75-1.24.97-2.92.48-3.75-.08-.14-.07-.32.04-.44.88-1,1.36-2.73,1.07-3.86h0c-.11-.44-.32-.73-.6-.8-.32-.09-.72.08-1.13.48-.11.1-.26.13-.4.08-.14-.05-.23-.19-.24-.33-.02-.68-.23-1.19-.56-1.37-.28-.15-.59-.04-.8.09-.91.53-1.69,2.1-1.74,3.51,0,.18-.13.33-.31.36-.73.13-1.73,1.29-2.05,2.92-.18.92-.08,1.76.27,2.17.14.17.31.25.51.25h0Z"/>
    </g>
  </g>
</svg>