<?xml version="1.0" encoding="UTF-8"?>
<svg id="_圖層_2" data-name="圖層 2" xmlns="http://www.w3.org/2000/svg" viewBox="0 0 103.02 109.96">
  <defs>
    <style>
      .cls-1 {
        fill: #ffff86;
      }

      .cls-1, .cls-2, .cls-3, .cls-4, .cls-5 {
        stroke-width: 0px;
      }

      .cls-2 {
        fill: #000;
      }

      .cls-3 {
        fill: #84ffb7;
      }

      .cls-4 {
        fill: #fff;
      }

      .cls-5 {
        fill: #e5e5e5;
      }
    </style>
  </defs>
  <g id="_圖層_5" data-name="圖層 5">
    <g>
      <g>
        <g>
          <path class="cls-3" d="M61.88,93.03c-1.23,0-2.25-.96-2.33-2.19-.78-12.88-7.84-25.46-18.42-32.83-.51-.36-.85-.89-.96-1.5-.11-.61.03-1.23.38-1.74.44-.63,1.15-1,1.92-1,.48,0,.94.14,1.33.42,7.91,5.51,14.25,13.9,17.66,23.28-.2-6.72-.24-14.37.44-22.11-1.74-9.71-5.59-19.24-11.14-27.47-.23-.34-.32-.76-.24-1.16.08-.41.31-.76.66-.99.26-.17.56-.26.87-.26.52,0,1,.26,1.29.68,4.24,6.28,7.49,13.17,9.67,20.5,1.09-6.45,2.7-12.22,4.93-17.58.36-.87,1.21-1.44,2.16-1.44.31,0,.61.06.9.18,1.19.49,1.75,1.86,1.26,3.05-3.8,9.15-5.77,19.73-6.16,33.2.74-1.17,1.67-2.19,2.71-3.01-.05-.05-.08-.12-.09-.19-.02-.11.01-.22.08-.3l.98-1.17-1.04-1.11c-.07-.08-.11-.18-.1-.29,0-.11.06-.2.15-.27l1.21-.91-.78-1.3c-.05-.09-.07-.2-.04-.3s.1-.18.2-.23l1.38-.64-.49-1.44c-.03-.1-.02-.21.03-.31.05-.09.14-.16.25-.18l1.49-.33-.13-1.52c0-.11.03-.21.1-.29.07-.07.17-.12.27-.12,0,0,1.55.07,1.55.07l.31-1.5c.04-.18.19-.3.37-.3.02,0,.04,0,.06,0l2.02.35,1.2-1.65c.07-.1.19-.15.3-.15.05,0,.09,0,.14.03l1.89.76,1.47-1.41c.07-.07.17-.1.26-.1.07,0,.13.02.19.05l1.75,1.04,1.64-1.2c.07-.05.14-.07.22-.07s.16.03.23.08l1.62,1.23,1.75-1.02c.06-.03.12-.05.19-.05.09,0,.18.03.25.1l1.49,1.37,1.83-.87c.05-.02.11-.04.16-.04.1,0,.2.04.28.12l1.4,1.52,2.32-.44s.05,0,.07,0c.14,0,.26.07.33.2.08.14.05.32-.06.44l-1.65,1.69.5,2c.04.16-.03.33-.17.41l-1.72,1.06.35,1.99c.03.16-.05.32-.2.4l-1.8.93.19,2.01c.02.17-.08.32-.23.38l-1.88.76-.03,2.03c0,.17-.12.31-.28.36l-1.96.52-.33,2.01c-.03.17-.17.3-.34.31l-2.03.16-.77,1.9c-.06.15-.2.23-.35.23-.04,0-.09,0-.13-.02l-1.43-.54-.75,1.33c-.05.09-.15.16-.25.18-.02,0-.05,0-.07,0-.08,0-.16-.03-.23-.08l-1.21-.93-1.07,1.08c-.07.07-.17.11-.27.11,0,0-.01,0-.02,0-.11,0-.21-.06-.27-.14l-.95-1.18-1.27.82c-.06.04-.13.06-.2.06-.03,0-.07,0-.1-.01-.1-.03-.19-.1-.24-.19l-.69-1.35-1.41.55s-.09.03-.14.03c-.06,0-.12-.01-.17-.04-.09-.05-.17-.13-.19-.24l-.39-1.47-1.51.21s-.04,0-.05,0c-.09,0-.18-.03-.25-.09-.08-.07-.13-.17-.13-.28v-1.53l-1.51-.27c-.11-.02-.21-.09-.26-.19-.05-.08-.06-.18-.04-.27-.61.58-1.17,1.26-1.63,2.01-.9,1.46-1.52,3.22-1.9,5.36-.01.07-.03.12-.05.17.04,5.87.28,14.54.5,19.58.05,1.29-.95,2.38-2.23,2.43,0,0-.29,0-.29,0-.35,0-1.12,0-1.97.06h-.14Z"/>
          <path class="cls-2" d="M52.04,25.84c.38,0,.75.18.98.52,4.52,6.7,7.94,14.2,10.09,22.02.99-6.53,2.6-12.97,5.17-19.16.31-.75,1.04-1.21,1.81-1.21.25,0,.51.05.75.15,1,.41,1.47,1.56,1.06,2.56-4.57,10.99-5.99,23.02-6.23,34.87.2-.41.41-.81.64-1.18.84-1.37,1.92-2.52,3.14-3.37l-.38-.23,1.19-1.42-1.27-1.35,1.48-1.11-.95-1.59,1.68-.78-.6-1.76,1.81-.4-.16-1.85,1.85.09.37-1.82,2.25.39,1.34-1.84,2.12.85,1.65-1.57,1.96,1.16,1.84-1.34,1.82,1.38,1.97-1.15,1.68,1.54,2.06-.98,1.54,1.67,2.53-.47-1.8,1.84.55,2.21-1.94,1.19.39,2.24-2.02,1.04.21,2.27-2.11.85-.03,2.28-2.2.59-.37,2.25-2.26.18-.85,2.11-1.73-.66-.91,1.61-1.47-1.13-1.3,1.32-1.16-1.45-1.56,1-.84-1.65-1.73.67-.48-1.79-1.84.26v-1.85s-1.82-.33-1.82-.33l.5-1.26c-1.08.73-2.06,1.75-2.81,2.98-.92,1.5-1.56,3.3-1.95,5.49-.01.06-.04.1-.06.16.04,5.61.27,14.34.5,19.67.05,1.08-.79,1.99-1.87,2.04-.03,0-.06,0-.09,0-.03,0-.09,0-.18,0-.36,0-1.13,0-1.99.06-.04,0-.08,0-.12,0-1.03,0-1.89-.8-1.95-1.84-.79-12.99-7.91-25.68-18.58-33.12-.89-.62-1.11-1.84-.49-2.73.38-.55.99-.84,1.61-.84.39,0,.78.11,1.12.35,8.7,6.06,15.23,15.33,18.33,25.53-.28-8.01-.38-16.34.35-24.64-1.75-9.86-5.61-19.41-11.21-27.71-.36-.54-.22-1.27.32-1.63.2-.14.43-.2.66-.2M97.22,48.46h0M52.04,25.09h0c-.38,0-.76.11-1.08.33-.88.59-1.11,1.79-.52,2.67,5.5,8.16,9.33,17.6,11.07,27.33-.6,6.91-.63,13.75-.49,19.9-3.58-8.63-9.61-16.29-17.01-21.45-.46-.32-.99-.49-1.55-.49-.89,0-1.72.43-2.22,1.16-.41.59-.57,1.31-.44,2.02.13.71.52,1.33,1.12,1.75,10.49,7.31,17.49,19.78,18.26,32.55.09,1.43,1.27,2.54,2.7,2.54.05,0,.11,0,.16,0,.77-.05,1.48-.06,1.95-.06h.13s.17,0,.17,0c1.49-.06,2.66-1.33,2.59-2.82-.22-5-.46-13.62-.5-19.49.02-.05.03-.11.04-.17.38-2.1.98-3.81,1.85-5.23.35-.56.74-1.08,1.18-1.55.1.09.22.15.36.17l1.21.22v1.22c0,.22.09.42.26.57.14.12.31.18.49.18.04,0,.07,0,.11,0l1.18-.17.31,1.15c.05.21.19.38.38.47.11.05.22.08.34.08.09,0,.18-.02.27-.05l1.1-.42.53,1.05c.1.19.27.33.47.38.06.02.13.03.2.03.14,0,.28-.04.41-.12l.99-.64.74.92c.13.17.33.27.55.28.01,0,.03,0,.04,0,.2,0,.39-.08.53-.22l.84-.85.94.73c.13.1.29.16.46.16.05,0,.1,0,.15-.01.21-.04.4-.18.5-.36l.6-1.05,1.13.43c.09.03.18.05.27.05.3,0,.58-.18.7-.47l.68-1.68,1.8-.14c.34-.03.62-.29.68-.63l.29-1.77,1.73-.46c.32-.09.55-.38.56-.71l.02-1.78,1.65-.67c.31-.12.5-.43.47-.76l-.16-1.76,1.57-.81c.29-.15.45-.47.39-.8l-.31-1.74,1.5-.92c.28-.17.41-.5.33-.82l-.45-1.8,1.48-1.52c.15-.14.24-.33.24-.55,0-.41-.33-.75-.74-.75,0,0,0,0,0,0-.02,0-.03,0-.05,0-.04,0-.07,0-.11.01l-2.1.4-1.26-1.37c-.15-.16-.35-.24-.55-.24-.11,0-.22.02-.32.07l-1.6.76-1.31-1.2c-.14-.13-.32-.2-.51-.2-.13,0-.26.03-.38.1l-1.53.89-1.42-1.08c-.13-.1-.29-.15-.45-.15-.15,0-.31.05-.44.14l-1.44,1.05-1.54-.91c-.12-.07-.25-.11-.38-.11-.19,0-.37.07-.52.21l-1.3,1.24-1.67-.67c-.09-.04-.19-.05-.28-.05-.23,0-.46.11-.61.31l-1.06,1.46-1.79-.31s-.09-.01-.13-.01c-.35,0-.66.25-.73.6l-.24,1.19-1.21-.06s-.02,0-.04,0c-.2,0-.4.08-.54.23-.15.16-.23.37-.21.59l.11,1.19-1.17.25c-.21.05-.39.18-.49.36-.11.19-.13.41-.06.61l.38,1.12-1.07.5c-.19.09-.34.26-.4.46-.06.2-.04.42.07.6l.6,1.01-.94.71c-.17.13-.28.32-.3.53-.02.21.05.42.2.58l.81.87-.76.91c-.14.17-.2.39-.16.6,0,0,0,.01,0,.02-.67.55-1.29,1.18-1.83,1.88.47-12.83,2.42-23,6.09-31.82.28-.67.28-1.4,0-2.07-.28-.67-.8-1.19-1.46-1.47-.33-.14-.68-.21-1.04-.21-1.1,0-2.08.66-2.5,1.67-2.06,4.96-3.6,10.26-4.68,16.13-2.18-6.81-5.29-13.23-9.26-19.12-.36-.53-.96-.85-1.6-.85h0Z"/>
        </g>
        <g>
          <g>
            <path class="cls-4" d="M48.3,3.74c-.3-.35-.6-.7-.97-.98-.67-.5-1.58-.72-2.38-.49-.99.28-1.71,1.19-2.01,2.18s-.24,2.04-.1,3.06c.19,1.41.53,2.79,1,4.13.1.28.21.57.43.76.23.21.55.29.86.34,1.31.24,2.67.18,3.96-.16,4.87-1.29,1.12-6.65-.79-8.86Z"/>
            <path class="cls-2" d="M46.75,13.28c-.57,0-1.13-.05-1.69-.15-.36-.07-.74-.16-1.04-.43-.28-.25-.42-.59-.53-.92-.48-1.36-.83-2.78-1.02-4.21-.13-.97-.23-2.12.11-3.22.36-1.2,1.23-2.13,2.26-2.43.89-.26,1.91-.05,2.71.55.4.3.74.69,1.03,1.03,1.2,1.39,3.91,4.9,3.14,7.38-.32,1.02-1.17,1.72-2.54,2.09-.79.21-1.61.32-2.43.32ZM45.62,2.56c-.19,0-.39.03-.57.08-.79.23-1.46.96-1.75,1.93-.29.97-.21,2.01-.08,2.9.19,1.38.52,2.75.99,4.06.09.24.18.47.33.61.16.14.42.21.67.25,1.25.23,2.56.18,3.79-.15,1.12-.3,1.78-.82,2.02-1.59.54-1.73-1.2-4.58-2.99-6.67h0c-.28-.33-.57-.67-.91-.92-.44-.33-.97-.5-1.49-.5Z"/>
          </g>
          <g>
            <path class="cls-4" d="M43.81,5.08c-1.38-.33-2.9-.28-4.08-1.06.61,2.05.92,4.19.92,6.33,0,2.04-.3,4.12.18,6.11s2.01,3.93,4.05,4.04c1.61.09,3.1-1,3.94-2.38,2.79-4.59.54-11.73-5-13.04Z"/>
            <path class="cls-2" d="M45.05,20.88c-.06,0-.13,0-.19,0-2.34-.13-3.92-2.33-4.39-4.33-.36-1.5-.3-3.05-.23-4.55.02-.55.05-1.1.05-1.65,0-2.11-.29-4.2-.9-6.22-.04-.15,0-.31.14-.41.13-.09.3-.1.43-.01.75.49,1.65.62,2.62.77.45.07.9.13,1.34.24h0c2.53.6,4.61,2.44,5.7,5.06,1.19,2.84,1.01,6.12-.47,8.55-.96,1.58-2.54,2.56-4.09,2.56ZM40.33,4.74c.47,1.83.71,3.72.7,5.61,0,.56-.02,1.12-.05,1.68-.06,1.45-.12,2.95.21,4.34.42,1.73,1.75,3.65,3.7,3.75,1.33.03,2.74-.79,3.6-2.2,1.35-2.23,1.52-5.25.42-7.87-1-2.39-2.89-4.07-5.19-4.62-.42-.1-.85-.16-1.28-.23-.71-.11-1.44-.21-2.12-.48Z"/>
          </g>
          <g>
            <path class="cls-4" d="M40.75,21.95c3.54,10.13,19.57,10.09,21.27-1.17.49-3.25-.75-7.55-2.99-9.99-1.14-1.25-2.49-2.29-3.58-3.57-1.62-1.91-2.61-4.34-2.79-6.83-1.22.07-2.12,1.14-2.72,2.2-.59,1.06-1.07,2.26-2.05,2.98-1.18.87-2.97.96-3.71,2.23-.39.67-.36,1.49-.55,2.24-.37,1.49-1.56,2.6-2.46,3.85-1.59,2.21-1.26,5.61-.4,8.06Z"/>
            <path class="cls-2" d="M51.73,29.76c-4.36,0-9.45-2.3-11.33-7.69-.88-2.53-1.23-6.07.45-8.4.24-.33.5-.66.76-.98.71-.89,1.39-1.73,1.64-2.74.06-.24.1-.49.14-.75.08-.54.16-1.09.46-1.59.52-.88,1.44-1.25,2.33-1.61.54-.22,1.06-.42,1.48-.73.72-.53,1.15-1.35,1.6-2.22.11-.22.23-.44.35-.65.84-1.5,1.88-2.33,3.02-2.39.2-.03.38.14.4.35.18,2.42,1.14,4.77,2.71,6.62.58.69,1.26,1.32,1.92,1.94.55.52,1.13,1.05,1.65,1.62,2.27,2.48,3.6,6.91,3.09,10.3-.9,5.97-5.52,8.5-9.54,8.88-.36.03-.74.05-1.11.05ZM52.31.81c-.92.24-1.61,1.17-2.05,1.95-.12.21-.23.42-.34.63-.47.9-.96,1.84-1.82,2.47-.5.37-1.08.6-1.65.83-.81.32-1.58.63-1.96,1.29-.22.38-.29.84-.36,1.33-.04.28-.08.55-.15.82-.3,1.18-1.05,2.12-1.78,3.03-.25.31-.5.63-.73.95-1.51,2.1-1.18,5.37-.35,7.72h0c1.91,5.48,7.39,7.55,11.67,7.14,3.74-.35,8.04-2.7,8.87-8.25.48-3.19-.77-7.36-2.9-9.69-.5-.55-1.07-1.08-1.61-1.58-.67-.63-1.37-1.28-1.98-2-1.58-1.87-2.58-4.21-2.85-6.64Z"/>
          </g>
          <g>
            <path class="cls-4" d="M53.8,20.4c-1.05-.4-2.2-.59-3.16-1.17-.9-.55-1.61-1.42-2.6-1.78-1.42-.51-2.96.15-4.45.4-2.55.42-5.13-.43-7.57-1.29.71,1.54,1.41,3.08,2.12,4.61.46,1.01.93,2.02,1.44,3.01,1.44,2.8,3.22,5.22,6.37,6.14,3.2.93,6.68.4,9.72-.84,1.04-.42,2.13-.97,2.87-1.85.78-.92.5-1.62.05-2.66-.91-2.07-2.65-3.78-4.78-4.58Z"/>
            <path class="cls-2" d="M49.36,31.17c-1.23,0-2.42-.16-3.52-.48-3.46-1.01-5.27-3.76-6.59-6.33-.51-.99-.98-2.01-1.43-3l-2.13-4.64c-.06-.14-.04-.3.06-.41.1-.11.26-.15.4-.1,2.64.92,5.02,1.66,7.39,1.27.38-.06.77-.16,1.16-.25,1.15-.27,2.33-.55,3.48-.14.66.24,1.19.67,1.71,1.09.32.26.63.51.96.71.59.36,1.26.56,1.97.77.38.12.76.23,1.13.37h0c2.2.83,4.02,2.57,4.99,4.78.43.99.84,1.93-.11,3.05-.83.98-2.05,1.56-3.01,1.95-2.18.88-4.38,1.33-6.45,1.33ZM36.72,17.21l1.75,3.82c.46,1.01.93,2.02,1.43,3,1.25,2.42,2.95,5.02,6.14,5.95,2.79.82,6.16.52,9.47-.83.89-.36,2-.89,2.72-1.74.62-.74.45-1.23,0-2.27-.87-1.99-2.58-3.63-4.56-4.38h0c-.35-.13-.72-.24-1.08-.35-.72-.22-1.47-.44-2.14-.85-.38-.23-.72-.51-1.05-.77-.49-.4-.95-.77-1.49-.97-.94-.34-1.97-.1-3.05.16-.4.1-.81.19-1.21.26-2.28.37-4.51-.2-6.93-1.02Z"/>
          </g>
        </g>
        <g>
          <g>
            <path class="cls-4" d="M58.92,16.47c-.37.36-.7.76-.94,1.22-.32.61-.47,1.3-.62,1.97-.27,1.19-.59,2.36-.95,3.52-.03.11-.07.23-.11.34-.21.57.05,1.21.6,1.46.85.38,1.6,1.03,2.23,1.72.96,1.05,1.76,2.26,2.86,3.16,1.39,1.12,3.17,1.68,4.95,1.83.82.07,1.66.06,2.44-.2,2.02-.67,3.22-2.88,3.31-5.01s-.69-4.19-1.55-6.14c-.45-1.04-.95-2.1-1.8-2.85-.84-.74-1.91-1.18-2.81-1.85-.56-.42-1.06-.89-1.76-1.05-2.02-.46-4.42.49-5.86,1.89Z"/>
            <path class="cls-2" d="M67.72,32.1c-.26,0-.53-.01-.82-.04-2.05-.17-3.83-.83-5.15-1.91-.76-.62-1.38-1.38-1.98-2.11-.3-.37-.6-.74-.92-1.08-.7-.77-1.41-1.32-2.11-1.64-.73-.33-1.08-1.16-.8-1.93.04-.11.07-.21.11-.32.35-1.14.67-2.32.95-3.5l.03-.13c.15-.65.3-1.32.63-1.94.24-.45.57-.88,1.01-1.31h0c1.36-1.32,3.89-2.5,6.2-1.98.66.15,1.15.53,1.62.9l.28.22c.37.28.77.51,1.2.76.56.33,1.13.66,1.63,1.11.89.79,1.41,1.86,1.9,2.98.81,1.87,1.68,4.05,1.58,6.3-.09,2.04-1.25,4.58-3.57,5.35-.52.17-1.09.25-1.77.25ZM59.18,16.74c-.39.38-.67.74-.87,1.12-.28.53-.42,1.12-.56,1.75l-.03.13c-.28,1.2-.6,2.39-.96,3.55-.04.12-.07.24-.12.35-.14.4.03.82.4.99.79.36,1.58.97,2.35,1.81.33.36.64.74.95,1.12.6.74,1.17,1.43,1.88,2,1.53,1.24,3.42,1.63,4.75,1.74.94.08,1.67.02,2.29-.18,1.98-.65,2.97-2.88,3.05-4.67.09-2.1-.73-4.18-1.51-5.97-.45-1.04-.93-2.03-1.71-2.72-.45-.4-.96-.7-1.51-1.02-.42-.25-.86-.51-1.27-.81l-.29-.23c-.42-.33-.83-.65-1.32-.76-1.75-.4-4.02.34-5.51,1.79h0Z"/>
          </g>
          <g>
            <path class="cls-4" d="M64.18,19.18c-.71-1.88-.19-4.06.9-5.75s2.68-2.99,4.28-4.2c1.71-1.3,3.49-2.55,4.81-4.25.14-.18.26-.37.34-.58.16-.42.14-.79,0-1.11-.3-.74.24-1.55,1.04-1.57,2.08-.07,4.16,0,6.18.49,2.89.71,5.68,2.44,6.93,5.14.53,1.14.76,2.41.77,3.67,0,.72-.06,1.44-.31,2.11-.76,2.01-2.95,3-4.85,3.99-1.52.8-2.98,1.72-4.36,2.75-1.63,1.22-3.19,2.62-5.1,3.32-.61.22-1.25.37-1.85.64-.5.22-.98.61-1.54.68-.92.11-1.97-.7-2.75-1.1-1.82-.95-3.73-2.21-4.48-4.21Z"/>
            <path class="cls-2" d="M71.22,24.88c-.76,0-1.52-.45-2.19-.84-.19-.11-.38-.22-.55-.31-1.74-.9-3.83-2.22-4.66-4.42h0c-.69-1.83-.34-4.11.93-6.08,1.14-1.78,2.78-3.1,4.37-4.3l.52-.39c1.5-1.13,3.06-2.3,4.22-3.79.13-.17.22-.33.28-.48.11-.31.12-.58,0-.83-.19-.46-.14-.96.13-1.39.27-.42.74-.69,1.24-.71,1.75-.05,4.03-.05,6.28.5,3.37.82,5.99,2.77,7.18,5.35.52,1.13.79,2.41.8,3.82,0,.91-.1,1.62-.34,2.25-.75,1.98-2.79,3.03-4.58,3.96l-.45.23c-1.5.79-2.95,1.7-4.31,2.71-.32.24-.63.48-.94.72-1.31,1.02-2.66,2.07-4.26,2.64-.24.09-.49.16-.73.24-.38.12-.75.23-1.09.39-.15.07-.3.15-.46.24-.35.2-.74.42-1.19.47-.08,0-.15.01-.23.01ZM76.84,2.06c-.45,0-.88,0-1.28.02-.26,0-.5.14-.64.36-.14.21-.16.46-.07.69.18.43.18.89,0,1.38-.08.23-.21.45-.39.69-1.22,1.56-2.82,2.76-4.36,3.92l-.52.39c-1.53,1.16-3.12,2.44-4.19,4.11-1.14,1.78-1.46,3.81-.86,5.42h0c.73,1.96,2.68,3.17,4.3,4.01.18.09.38.21.58.33.64.38,1.35.81,1.95.73.3-.04.6-.2.91-.38.17-.1.35-.19.52-.27.39-.17.79-.3,1.18-.42.23-.07.47-.15.7-.23,1.49-.54,2.79-1.55,4.05-2.53.32-.25.63-.49.95-.73,1.39-1.04,2.87-1.97,4.41-2.78l.45-.24c1.75-.91,3.57-1.84,4.22-3.56.21-.54.3-1.17.29-1.98-.01-1.3-.26-2.48-.73-3.51-1.08-2.33-3.57-4.17-6.67-4.93-1.65-.4-3.34-.5-4.8-.5Z"/>
          </g>
          <g>
            <path class="cls-4" d="M82.76,10.55c1.22-.63,2.63-.83,4-.87s2.75.08,4.13.05c.75-.02,1.56-.1,2.14-.57.18-.14.32-.31.45-.5.25-.38.8-.4,1.05-.02.85,1.31,2.21,2.34,2.89,3.77.77,1.63.56,3.61-.25,5.22s-2.15,2.9-3.61,3.97c-.95.7-1.97,1.32-3.09,1.7-1.2.41-2.48.53-3.75.62-1.08.07-2.17.12-3.23-.07s-2.1-.66-2.82-1.47c-.66-.75-.99-1.74-1.24-2.71-.35-1.34-.6-2.85-.12-4.19.23-.64.78-1.11.97-1.75s.24-1.09.63-1.63c.48-.66,1.13-1.18,1.85-1.55Z"/>
            <path class="cls-2" d="M85.16,24.36c-.58,0-1.16-.04-1.74-.14-.89-.16-2.14-.57-3.03-1.59-.72-.82-1.06-1.86-1.32-2.86-.33-1.27-.65-2.91-.11-4.42.13-.35.33-.65.52-.93.18-.27.36-.52.44-.8.04-.13.07-.26.11-.39.12-.46.24-.89.58-1.36.49-.68,1.18-1.25,1.98-1.67h0c1.12-.57,2.44-.86,4.16-.91.71-.02,1.41,0,2.12.02.67.02,1.34.04,2.01.03.7-.02,1.42-.09,1.91-.49.14-.11.26-.25.37-.42.19-.29.51-.46.85-.46h0c.33,0,.64.17.82.45.34.53.77,1,1.22,1.51.63.7,1.27,1.43,1.69,2.31.77,1.62.68,3.7-.25,5.55-.73,1.46-1.95,2.8-3.72,4.1-1.16.85-2.17,1.41-3.19,1.75-1.26.43-2.59.55-3.84.64-.52.04-1.05.07-1.58.07ZM82.93,10.89h0c-.7.36-1.29.85-1.71,1.44-.26.36-.35.69-.46,1.11-.04.13-.07.27-.11.41-.12.39-.33.7-.54,1.01-.17.25-.34.5-.43.76-.46,1.31-.17,2.81.13,3.97.24.91.55,1.85,1.16,2.55.75.86,1.83,1.21,2.6,1.35,1.02.19,2.11.14,3.13.07,1.2-.08,2.48-.2,3.65-.6.94-.32,1.89-.85,2.99-1.65,1.67-1.23,2.82-2.48,3.49-3.83.83-1.65.92-3.48.25-4.89-.37-.78-.95-1.44-1.57-2.13-.45-.5-.91-1.03-1.29-1.6-.06-.09-.15-.11-.19-.11h0c-.09,0-.17.05-.22.12-.15.23-.33.43-.52.59-.67.55-1.58.64-2.37.66-.68.02-1.37,0-2.05-.03-.69-.02-1.39-.04-2.08-.02-1.61.04-2.83.3-3.84.82Z"/>
          </g>
          <g>
            <path class="cls-4" d="M75.07,17.97c.54-.58,1.19-1.05,1.73-1.62.69-.73,1.2-1.61,1.81-2.41.61-.8,1.35-1.55,2.31-1.87.75-.25,1.57-.21,2.35-.06,2.46.48,4.67,2.1,5.87,4.3.44.81.76,1.72.72,2.64-.04,1.16-.64,2.25-1.45,3.08s-1.82,1.44-2.84,1.99c-2.86,1.53-6.2,2.66-9.31,1.75-.69-.2-1.37-.52-1.87-1.04-1.82-1.91-.94-5.08.67-6.78Z"/>
            <path class="cls-2" d="M78.62,26.49c-.86,0-1.68-.12-2.46-.35-.89-.26-1.55-.63-2.03-1.14-1.93-2.03-1.15-5.36.67-7.29h0c.28-.3.59-.57.9-.84.29-.25.57-.5.84-.78.43-.46.79-.97,1.17-1.51.2-.29.4-.58.62-.86.81-1.07,1.6-1.7,2.49-2,.72-.24,1.55-.26,2.54-.07,2.58.5,4.87,2.18,6.13,4.49.54,1,.8,1.95.77,2.84-.04,1.16-.59,2.34-1.55,3.33-.87.9-1.97,1.55-2.94,2.06-2.66,1.42-5.01,2.12-7.13,2.12ZM75.34,18.23h0c-1.38,1.47-2.39,4.46-.67,6.26.39.41.95.72,1.7.94,2.52.74,5.47.18,9.02-1.72.91-.49,1.95-1.09,2.75-1.92.83-.86,1.31-1.86,1.34-2.84.03-.75-.2-1.58-.68-2.45-1.15-2.11-3.25-3.65-5.62-4.11-.86-.17-1.56-.15-2.16.04-.73.25-1.41.8-2.12,1.74-.21.27-.4.55-.6.83-.38.54-.77,1.11-1.24,1.6-.28.29-.58.56-.88.83-.29.26-.58.51-.85.79Z"/>
          </g>
          <g>
            <path class="cls-4" d="M101.5,19.54c.35.22.69.47.97.77.33.35.17.92-.3,1.04-.25.06-.5.13-.73.26-.5.27-.84.77-1.13,1.26-.81,1.41-1.39,2.99-2.5,4.18-1.43,1.53-3.56,2.19-5.64,2.45-1.9.23-3.84.18-5.72-.17-.14-.03-.29-.06-.37-.18-.12-.18,0-.42.13-.6.4-.58.8-1.16,1.21-1.73.69-1,1.39-2,2.08-2.99,1.01-1.45,2.02-2.9,3.21-4.2,2.17-2.39,6.32-1.64,8.79-.08Z"/>
            <path class="cls-2" d="M89.87,30.01c-1.17,0-2.33-.11-3.48-.32-.14-.03-.44-.08-.61-.33-.19-.28-.15-.62.13-1.02l3.29-4.73c1-1.43,2.03-2.92,3.24-4.24,2.39-2.63,6.86-1.67,9.27-.14h0c.43.27.77.54,1.04.83.25.26.33.63.23.97-.1.34-.37.6-.71.68-.23.06-.45.12-.64.22-.43.23-.72.67-.98,1.12-.25.43-.47.87-.69,1.31-.52,1.02-1.05,2.08-1.86,2.94-1.29,1.38-3.27,2.24-5.86,2.56-.78.1-1.57.14-2.35.14ZM86.44,28.94s.05,0,.08.01c1.85.34,3.74.4,5.61.17,2.42-.3,4.24-1.08,5.41-2.33.74-.79,1.22-1.75,1.74-2.77.23-.46.46-.91.71-1.35.3-.51.68-1.08,1.27-1.4.27-.14.55-.22.82-.29.12-.03.16-.13.18-.17.01-.04.03-.15-.06-.25-.23-.24-.52-.47-.9-.71h0c-2.19-1.38-6.21-2.29-8.31.01-1.17,1.29-2.19,2.75-3.17,4.17l-3.29,4.73c-.06.09-.09.15-.1.18,0,0,.01,0,.02,0Z"/>
          </g>
          <g>
            <path class="cls-4" d="M86.8,38.27c-.54-1.14-1.91-1.64-1.96-2.92-.06-1.43-.83-2.71-.6-4.2.05-.29.13-.58.28-.83.96-1.57,4-1.41,5.57-1.42,1.9-.02,3.81.33,5.54,1.14.93.44,1.8,1.02,2.46,1.8.54.64.93,1.4,1.22,2.19.74,1.99.3,3.25-.87,4.81-.16.21-.42.3-.67.23-1.28-.37-2.68-.24-3.99.09-1.55.39-4.35,2.11-5.88,1.03-.61-.43-.78-1.23-1.1-1.91Z"/>
            <path class="cls-2" d="M89.14,40.91c-.53,0-1.03-.12-1.46-.42-.55-.38-.79-1-1.01-1.55-.07-.17-.14-.34-.21-.5-.19-.41-.52-.74-.86-1.08-.54-.54-1.09-1.09-1.13-1.99-.02-.55-.16-1.09-.31-1.65-.21-.82-.44-1.68-.28-2.63.06-.39.17-.71.33-.97.98-1.6,3.65-1.6,5.41-1.6h.47c2.08-.05,4,.37,5.7,1.18,1.09.52,1.96,1.16,2.59,1.9.52.61.94,1.36,1.29,2.3.81,2.18.25,3.6-.92,5.17-.25.33-.68.48-1.08.37-1.05-.31-2.33-.27-3.79.09-.39.1-.89.29-1.41.5-1.04.41-2.25.89-3.32.89ZM90.25,29.27c-.05,0-.11,0-.16,0h-.48c-1.5,0-4.01,0-4.77,1.25-.11.18-.18.4-.23.69-.13.8.07,1.54.27,2.32.15.58.31,1.17.33,1.81.02.61.44,1.02.91,1.49.38.37.76.76,1.01,1.29h0c.08.18.16.36.23.55.2.49.38.96.75,1.21.96.67,2.68,0,4.07-.55.55-.22,1.07-.42,1.51-.53,1.6-.4,3-.43,4.19-.08.1.03.2,0,.27-.09,1.07-1.44,1.52-2.57.82-4.45-.32-.86-.7-1.54-1.16-2.08-.56-.66-1.34-1.23-2.34-1.7-1.55-.74-3.3-1.11-5.21-1.11Z"/>
          </g>
          <g>
            <path class="cls-4" d="M79.34,40.26c-.13.9-.9,1.65-.63,2.61.23.82,1.13,1.24,1.95,1.47,3.21.92,6.67.46,9.25-1.81.73-.64,1.37-1.5,1.38-2.48,0-.65-.27-1.28-.58-1.86-1.25-2.35-3.09-4.38-5.32-5.83-1.45-.94-3.16-1.66-4.88-1.47-.7.08-1.65.42-1.78,1.22-.1.56.3,1.16.29,1.74-.02,1.08-.17,2.1-.07,3.19.09.98.52,2.19.41,3.16,0,.02,0,.04,0,.06Z"/>
            <path class="cls-2" d="M83.77,45.17c-1.05,0-2.13-.15-3.21-.46-1.24-.35-1.99-.94-2.21-1.73-.2-.73.07-1.34.31-1.88.14-.3.26-.59.31-.88l.37.05-.37-.05.37.05-.36-.1c.06-.55-.07-1.22-.21-1.87-.08-.4-.17-.82-.2-1.21-.07-.74-.02-1.45.02-2.14.02-.36.05-.72.05-1.09,0-.21-.06-.44-.14-.68-.1-.34-.21-.72-.14-1.11.17-.97,1.2-1.42,2.11-1.52,1.58-.17,3.3.34,5.13,1.53,2.28,1.48,4.17,3.55,5.45,5.97.31.59.63,1.29.62,2.03-.01,1.2-.82,2.16-1.5,2.76-1.76,1.55-3.99,2.35-6.39,2.35ZM81.07,31.24c-.17,0-.35,0-.52.03-.61.07-1.36.34-1.46.91-.04.22.04.49.12.77.08.29.17.59.17.91,0,.38-.03.75-.05,1.12-.04.69-.08,1.34-.02,2.03.03.35.11.73.19,1.13.15.71.29,1.44.22,2.11,0,0,0,.07,0,.07-.06.39-.21.74-.36,1.08-.22.49-.4.91-.27,1.38.15.53.72.93,1.69,1.21,3.33.95,6.57.32,8.9-1.73.56-.5,1.24-1.28,1.25-2.2,0-.58-.25-1.15-.53-1.67-1.22-2.31-3.02-4.28-5.2-5.69-1.47-.96-2.86-1.44-4.12-1.44Z"/>
          </g>
          <g>
            <path class="cls-4" d="M62.73,30.94c-.79.34-1.58.82-1.98,1.58-.28.55-.32,1.2-.26,1.82.21,1.91,1.43,3.59,2.9,4.83.9.75,1.91,1.38,2.66,2.28.43.52.75,1.16.86,1.81s.76,1.12,1.43.96c3.14-.76,6.52-.75,9.33-2.33,1.9-1.07,3.39-2.84,4.11-4.9.32-.91.5-1.92.23-2.84-.16-.57-.49-1.08-.85-1.55-.4-.52-.88-.99-1.46-1.29-.61-.31-1.3-.39-1.98-.48-4.77-.58-10.39-1.92-15,.1Z"/>
            <path class="cls-2" d="M68.07,44.62c-.3,0-.59-.09-.84-.25-.36-.24-.61-.62-.68-1.05-.09-.56-.37-1.14-.78-1.64-.49-.59-1.1-1.06-1.75-1.55-.29-.22-.58-.44-.86-.68-1.76-1.47-2.84-3.27-3.04-5.07-.09-.79.01-1.47.29-2.03.37-.72,1.08-1.3,2.16-1.76,3.95-1.73,8.64-1.05,12.79-.46.82.12,1.62.23,2.41.33.67.08,1.43.17,2.1.51.56.28,1.06.72,1.59,1.39.47.6.76,1.13.92,1.67.25.88.18,1.91-.23,3.07-.75,2.13-2.31,3.99-4.28,5.1-1.95,1.1-4.18,1.45-6.33,1.79-1.02.16-2.08.33-3.09.57-.12.03-.25.04-.37.04ZM68.6,30.24c-2,0-3.95.26-5.72,1.04,0,0,0,0,0,0-.92.39-1.5.85-1.79,1.41-.22.42-.29.96-.22,1.61.18,1.61,1.16,3.24,2.77,4.58.27.23.55.44.83.66.65.5,1.33,1.01,1.87,1.67.5.6.83,1.31.94,1.99.04.23.16.42.35.55.18.12.4.16.62.11,1.04-.25,2.11-.42,3.15-.59,2.19-.34,4.25-.67,6.08-1.7,1.81-1.02,3.25-2.73,3.94-4.69.36-1.01.43-1.89.22-2.62-.13-.45-.38-.9-.79-1.42-.45-.58-.88-.95-1.33-1.18-.56-.28-1.22-.36-1.86-.44-.79-.1-1.6-.21-2.42-.33-2.14-.31-4.42-.64-6.66-.64ZM62.73,30.93h0,0Z"/>
          </g>
          <g>
            <path class="cls-4" d="M79.73,18.19c.54-.95,1.12-1.91,1.97-2.6,1.29-1.05,3.05-1.32,4.71-1.35,1.67-.03,3.35.13,4.98-.21.08,1.57.11,3.15.09,4.72-.01,1.03-.06,2.1-.51,3.04-.66,1.37-2.09,2.21-3.5,2.77-2.01.8-4.17,1.2-6.13,2.1-1.73.79-5.27,2.38-4.72-.97.44-2.68,1.78-5.17,3.11-7.5Z"/>
            <path class="cls-2" d="M77.91,28.1c-.43,0-.82-.09-1.12-.32-.52-.4-.7-1.13-.53-2.16.46-2.74,1.81-5.27,3.15-7.62h0c.58-1.02,1.18-2,2.06-2.71,1.15-.93,2.72-1.39,4.94-1.43.47,0,.94,0,1.41,0,1.16.01,2.37.03,3.51-.21.11-.02.22,0,.31.07.09.07.14.17.15.28.08,1.57.11,3.17.09,4.75-.02,1.12-.07,2.2-.55,3.2-.6,1.24-1.81,2.21-3.7,2.96-.9.36-1.84.64-2.74.91-1.13.34-2.3.69-3.37,1.18-.92.42-2.41,1.1-3.59,1.1ZM86.91,14.61c-.17,0-.33,0-.5,0-2.04.04-3.47.44-4.49,1.26-.78.63-1.31,1.5-1.88,2.5h0c-1.31,2.29-2.63,4.75-3.06,7.37-.12.73-.04,1.22.25,1.44.77.59,2.99-.43,3.94-.87,1.12-.51,2.32-.87,3.47-1.22.89-.27,1.81-.54,2.68-.89,1.71-.68,2.79-1.52,3.3-2.59.41-.85.46-1.85.47-2.88.02-1.42,0-2.85-.07-4.27-1.08.17-2.17.16-3.24.14-.3,0-.59,0-.89,0ZM79.73,18.19h0,0Z"/>
          </g>
          <g>
            <path class="cls-4" d="M79.67,30.6c-1.09-.4-1.76-1.2-1.38-2.38.31-.94,1.3-1.42,2.06-1.94,1.26-.85,2.67-1.46,4.08-2,3.02-1.13,6.26-1.95,9.45-1.68.46.04.58.65.18.88-1.79,1-3.37,2.38-4.59,4.03-.51.69-.96,1.43-1.59,2.01-.78.72-1.78,1.15-2.81,1.4-1.78.43-3.69.32-5.41-.31Z"/>
            <path class="cls-2" d="M82.91,31.54c-1.15,0-2.3-.2-3.37-.59h0c-1.41-.52-2.01-1.58-1.6-2.85.3-.91,1.11-1.43,1.83-1.88.13-.08.26-.17.38-.25,1.4-.94,2.96-1.58,4.16-2.04,3.67-1.38,6.81-1.94,9.61-1.7.37.03.67.29.75.66.08.37-.09.74-.42.92-1.75.97-3.29,2.33-4.47,3.93-.12.17-.24.33-.36.5-.38.54-.77,1.09-1.28,1.56-.75.69-1.75,1.2-2.98,1.49-.74.18-1.5.27-2.26.27ZM79.8,30.25c1.65.6,3.49.71,5.19.3,1.1-.26,1.99-.71,2.64-1.31.45-.41.8-.91,1.17-1.44.12-.17.24-.34.37-.51,1.24-1.68,2.87-3.11,4.71-4.13.05-.03.06-.08.05-.11-.01-.06-.06-.07-.08-.07-2.68-.22-5.72.32-9.29,1.66-1.17.44-2.67,1.06-4.01,1.96-.13.09-.26.17-.4.26-.64.41-1.3.83-1.52,1.49-.36,1.1.43,1.65,1.15,1.91h0Z"/>
          </g>
          <g>
            <path class="cls-4" d="M70.23,18.74c.24-1.04.71-2.06,1.4-2.88.61-.73,1.8-.43,1.99.5.59,2.91,1.55,5.74,2.85,8.4.27.55.59,1.07.97,1.55.96,1.22,2.09,2.64,3.62,2.86,4.06.59,7.05,1.27,6.18,2.43-1.36.09-2.33.34-3.68.23-1.36-.11-2.86.07-3.82,1.04-.27.27-.48.59-.75.86-1.05,1.08-2.75,1.24-4.23.99-1.21-.21-2.38-.66-3.35-1.41-.97-.75-1.7-1.82-1.95-3.02-.43-2.12.72-4.09.73-6.18,0-1.83-.39-3.54.03-5.38Z"/>
            <path class="cls-2" d="M75.97,35.21c-.41,0-.83-.04-1.27-.11-1.36-.24-2.57-.75-3.52-1.48-1.09-.85-1.83-2-2.08-3.24-.26-1.31.03-2.55.32-3.75.21-.86.4-1.67.4-2.51,0-.59-.04-1.19-.08-1.77-.08-1.19-.17-2.41.12-3.69h0c.27-1.16.77-2.21,1.47-3.04.38-.45.97-.64,1.54-.49.57.15.99.59,1.1,1.16.58,2.88,1.53,5.68,2.82,8.31.26.53.57,1.03.93,1.49.88,1.12,1.97,2.52,3.38,2.72,4.44.65,6.23,1.21,6.59,2.08.09.21.13.55-.16.94-.07.09-.17.14-.27.15-.45.03-.85.08-1.24.12-.8.1-1.56.18-2.5.1-1.09-.09-2.59,0-3.52.93-.13.13-.24.27-.36.42-.12.15-.25.3-.38.44-.77.79-1.93,1.21-3.3,1.21ZM72.5,15.83c-.22,0-.43.1-.58.28-.62.74-1.08,1.68-1.32,2.72h0c-.27,1.17-.19,2.29-.11,3.47.04.59.08,1.2.08,1.82,0,.92-.22,1.82-.43,2.68-.28,1.17-.55,2.28-.32,3.42.21,1.05.87,2.07,1.81,2.8.85.66,1.95,1.12,3.18,1.33.78.13,2.73.32,3.9-.88.12-.12.23-.26.34-.39.13-.16.26-.32.41-.47,1.13-1.14,2.86-1.25,4.11-1.15.87.08,1.56,0,2.35-.1.34-.04.69-.08,1.07-.11.01-.04,0-.06,0-.07-.22-.53-2.24-1.08-6-1.63-1.71-.25-2.96-1.84-3.86-3-.39-.49-.73-1.04-1.01-1.62-1.32-2.69-2.29-5.55-2.88-8.49-.06-.29-.27-.51-.56-.58-.07-.02-.13-.03-.2-.03ZM70.23,18.74h0,0Z"/>
          </g>
          <g>
            <path class="cls-4" d="M78.47,14.19c-1,2.32-.58,4.65-1.54,9.94"/>
            <path class="cls-2" d="M76.93,24.5s-.04,0-.07,0c-.2-.04-.34-.23-.3-.44.42-2.32.57-4.07.7-5.49.16-1.85.28-3.18.86-4.54.08-.19.3-.28.49-.2.19.08.28.3.2.49-.54,1.24-.65,2.53-.81,4.31-.12,1.43-.28,3.21-.71,5.55-.03.18-.19.31-.37.31Z"/>
          </g>
          <path class="cls-2" d="M80.79,26.29h0c-.21,0-.37-.17-.37-.38.01-1.84.85-3.66,2.25-4.86.51-.44,1.01-.73,1.53-.87.55-.16,1.05-.11,1.42.14.53.35.67.99.76,1.55.09.6.22,1.43-.17,2.13-.1.18-.33.25-.51.14-.18-.1-.25-.33-.15-.51.24-.44.18-1.01.08-1.65-.07-.43-.15-.86-.43-1.04-.25-.17-.61-.1-.8-.04-.41.12-.81.35-1.24.72-1.23,1.06-1.98,2.67-1.99,4.3,0,.21-.17.37-.38.37Z"/>
          <path class="cls-2" d="M84.28,27.38c-.25,0-.5-.01-.74-.04-.36-.04-.73-.09-1.1-.16-1.07-.17-2.09-.34-2.94.1-.19.09-.41.02-.51-.16-.1-.18-.02-.41.16-.51,1.07-.56,2.26-.36,3.41-.18.35.06.71.12,1.06.15,1.87.18,3.76-.4,5.2-1.59.34-.28.67-.62.99-.95.88-.9,1.79-1.84,3.13-1.87.22,0,.38.16.39.37,0,.21-.16.38-.36.38-1.03.03-1.8.81-2.61,1.65-.33.34-.68.7-1.05,1-1.4,1.16-3.2,1.8-5.01,1.8Z"/>
          <path class="cls-2" d="M78.59,27.92s-.07,0-.1-.01c-.2-.06-.32-.26-.26-.46.1-.37.32-1.06.54-1.75.22-.68.43-1.35.53-1.71.37-1.3.74-2.64,1.45-3.86.81-1.39,1.95-2.36,3.21-2.74,1.52-.45,3.22.07,4.03,1.25.12.17.07.4-.1.52-.17.12-.4.07-.52-.1-.63-.92-1.97-1.32-3.19-.96-1.08.32-2.06,1.17-2.77,2.4-.66,1.13-1.02,2.43-1.37,3.68-.1.37-.32,1.05-.54,1.74-.22.68-.43,1.36-.54,1.73-.05.17-.2.27-.36.27Z"/>
          <g>
            <path class="cls-4" d="M79.23,8.26c.74,1.47.71,3.3.09,4.83"/>
            <path class="cls-2" d="M79.32,13.47s-.09,0-.14-.03c-.19-.08-.29-.3-.21-.49.61-1.52.58-3.21-.08-4.52-.09-.19-.02-.41.17-.5.18-.09.41-.02.5.17.76,1.5.79,3.42.1,5.14-.06.15-.2.24-.35.24Z"/>
          </g>
        </g>
        <g>
          <g>
            <path class="cls-4" d="M53.59,47.27c.38.49.71,1.03.92,1.62.28.79.34,1.64.41,2.47.13,1.47.31,2.93.55,4.39.02.14.05.28.08.42.15.72-.26,1.44-.97,1.65-1.08.32-2.09.96-2.97,1.69-1.33,1.1-2.49,2.41-3.97,3.3-1.86,1.11-4.09,1.47-6.25,1.35-.99-.06-2-.21-2.9-.65-2.31-1.14-3.37-4-3.12-6.57.25-2.57,1.54-4.91,2.89-7.1.72-1.17,1.5-2.36,2.65-3.12,1.13-.75,2.49-1.09,3.68-1.75.74-.41,1.42-.89,2.29-.96,2.5-.2,5.22,1.34,6.71,3.26Z"/>
            <path class="cls-2" d="M42.18,64.57c-.27,0-.54,0-.81-.02-1.26-.07-2.23-.29-3.04-.69-2.62-1.29-3.57-4.51-3.33-6.94.26-2.71,1.66-5.17,2.95-7.26.77-1.25,1.56-2.44,2.76-3.23.67-.44,1.41-.75,2.13-1.05.53-.22,1.08-.44,1.57-.72l.38-.21c.62-.36,1.26-.73,2.07-.8,2.84-.21,5.64,1.6,7.03,3.4h0c.45.58.77,1.15.98,1.72.28.79.35,1.61.42,2.41v.16c.14,1.45.32,2.92.56,4.36.02.13.05.27.07.41.19.93-.34,1.82-1.23,2.09-.9.26-1.85.81-2.83,1.62-.44.37-.87.76-1.29,1.15-.84.78-1.71,1.58-2.73,2.19-1.57.94-3.51,1.43-5.65,1.43ZM47.33,44.37c-.14,0-.28,0-.42.02-.63.05-1.18.37-1.75.7l-.39.22c-.53.29-1.1.53-1.65.75-.72.29-1.4.57-2,.98-1.07.71-1.81,1.82-2.53,3-1.25,2.02-2.6,4.4-2.84,6.94-.21,2.19.61,5.06,2.92,6.2.72.36,1.6.55,2.75.62,1.62.09,3.97-.06,6.04-1.3.95-.57,1.75-1.31,2.6-2.1.43-.4.87-.8,1.32-1.17,1.06-.88,2.11-1.47,3.1-1.76.52-.15.82-.67.71-1.21-.03-.15-.06-.29-.08-.44-.24-1.46-.42-2.95-.55-4.42v-.16c-.08-.75-.14-1.53-.39-2.22-.18-.5-.46-.99-.87-1.51h0c-1.46-1.89-3.86-3.13-5.97-3.13Z"/>
          </g>
          <g>
            <path class="cls-4" d="M46.81,49.62c1.17-2.14.91-4.84-.1-7.05s-2.71-4.04-4.43-5.77c-1.83-1.85-3.75-3.65-5.06-5.91-.14-.24-.25-.49-.31-.76-.11-.53-.03-.97.18-1.33.49-.83-.03-1.9-.98-2.06-2.49-.43-5-.71-7.5-.46-3.59.36-7.23,1.96-9.18,4.99-.83,1.28-1.32,2.76-1.54,4.27-.13.86-.17,1.74.02,2.59.58,2.54,3.03,4.1,5.15,5.61,1.69,1.21,3.29,2.56,4.77,4.03,1.75,1.74,3.38,3.69,5.56,4.85.7.37,1.44.66,2.11,1.08.56.35,1.08.9,1.73,1.08,1.09.29,2.48-.5,3.49-.86,2.35-.83,4.85-2.02,6.09-4.3Z"/>
            <path class="cls-2" d="M37.75,55.22c-.21,0-.41-.02-.61-.08-.51-.14-.92-.45-1.32-.75-.17-.13-.34-.26-.51-.37-.4-.25-.81-.45-1.26-.66-.28-.13-.56-.26-.83-.41-1.81-.96-3.25-2.45-4.64-3.88-.33-.34-.67-.69-1.01-1.03-1.46-1.45-3.05-2.8-4.72-4l-.5-.36c-1.98-1.41-4.23-3-4.79-5.48-.18-.79-.19-1.65-.02-2.73.25-1.68.79-3.16,1.6-4.42,1.85-2.87,5.3-4.75,9.46-5.16,2.79-.28,5.53.1,7.6.46.58.1,1.07.48,1.31,1.01.24.53.22,1.12-.08,1.61-.18.31-.23.65-.14,1.06.04.21.13.42.26.65,1.15,1.99,2.82,3.66,4.44,5.28l.56.56c1.7,1.71,3.44,3.57,4.5,5.88,1.18,2.57,1.21,5.33.09,7.39h0c-1.35,2.47-4.07,3.69-6.29,4.47-.22.08-.46.18-.71.28-.76.31-1.59.66-2.39.66ZM30.59,26.55c-.63,0-1.28.03-1.92.09-3.88.39-7.21,2.19-8.9,4.82-.75,1.17-1.25,2.55-1.49,4.12-.15.98-.14,1.76.01,2.45.5,2.2,2.53,3.64,4.49,5.03l.51.36c1.71,1.22,3.33,2.59,4.81,4.07.34.34.68.69,1.02,1.04,1.35,1.4,2.75,2.84,4.46,3.75.26.14.53.27.8.39.44.21.9.43,1.33.7.19.12.38.26.57.41.35.27.69.53,1.06.63.72.2,1.67-.2,2.51-.55.27-.11.52-.21.75-.3,2.1-.74,4.66-1.87,5.88-4.12h0c1.01-1.85.97-4.36-.11-6.72-1.01-2.2-2.7-4.01-4.35-5.66l-.56-.56c-1.65-1.65-3.36-3.36-4.56-5.43-.17-.3-.29-.58-.35-.87-.13-.59-.05-1.13.23-1.6.17-.28.18-.62.04-.92-.14-.31-.43-.53-.76-.59-1.54-.27-3.46-.55-5.48-.55Z"/>
          </g>
          <g>
            <path class="cls-4" d="M25.97,36.12c-1.36-.96-3.01-1.44-4.66-1.72s-3.32-.37-4.96-.64c-.9-.15-1.85-.38-2.47-1.05-.19-.2-.33-.43-.45-.68-.23-.5-.89-.61-1.25-.2-1.25,1.43-3.04,2.44-4.1,4.04-1.21,1.82-1.28,4.24-.58,6.31s2.09,3.84,3.66,5.37c1.02,1,2.14,1.92,3.41,2.57,1.37.7,2.89,1.06,4.39,1.37,1.28.27,2.58.52,3.88.46s2.64-.43,3.63-1.28c.92-.79,1.48-1.92,1.95-3.04.65-1.55,1.2-3.32.86-5.01-.16-.81-.74-1.46-.87-2.26s-.1-1.35-.48-2.07c-.46-.87-1.15-1.61-1.95-2.18Z"/>
            <path class="cls-2" d="M22.48,52.34c-1.23,0-2.45-.23-3.6-.48-1.48-.31-3.05-.68-4.48-1.41-1.15-.59-2.27-1.42-3.51-2.63-1.9-1.85-3.12-3.66-3.75-5.52-.79-2.36-.56-4.84.63-6.63.64-.97,1.54-1.73,2.41-2.47.63-.53,1.22-1.04,1.73-1.61.25-.28.62-.42.99-.37.39.05.72.3.88.65.11.23.24.42.39.59.54.58,1.41.8,2.26.94.8.13,1.63.22,2.43.31.83.09,1.69.19,2.54.33,2.05.35,3.58.91,4.81,1.78h0c.88.62,1.6,1.42,2.07,2.31.33.61.39,1.14.46,1.7.02.16.04.31.06.48.05.36.22.7.4,1.06.18.37.37.75.46,1.19.38,1.87-.27,3.78-.88,5.23-.48,1.15-1.06,2.33-2.05,3.18-1.23,1.05-2.78,1.33-3.86,1.37-.13,0-.25,0-.38,0ZM12.73,31.96c-.08,0-.18.02-.27.12-.54.62-1.18,1.17-1.81,1.69-.86.73-1.68,1.42-2.26,2.31-1.06,1.61-1.26,3.84-.54,5.98.59,1.75,1.76,3.46,3.56,5.22,1.19,1.16,2.24,1.95,3.32,2.5,1.35.69,2.86,1.04,4.3,1.34,1.28.27,2.53.5,3.79.46.96-.04,2.33-.28,3.4-1.19.87-.75,1.4-1.83,1.85-2.9.57-1.35,1.17-3.12.83-4.79-.07-.34-.23-.66-.4-1-.2-.4-.4-.81-.47-1.28-.03-.18-.05-.34-.07-.51-.06-.53-.12-.95-.38-1.44-.42-.78-1.05-1.49-1.84-2.04h0c-1.14-.8-2.57-1.33-4.5-1.65-.82-.14-1.67-.23-2.49-.32-.81-.09-1.65-.18-2.47-.32-.94-.16-1.99-.42-2.69-1.17-.2-.22-.37-.47-.52-.78-.06-.12-.17-.21-.31-.23-.02,0-.03,0-.05,0Z"/>
          </g>
          <g>
            <path class="cls-4" d="M33.95,46.33c-.55-.78-1.25-1.46-1.81-2.24-.71-.99-1.17-2.13-1.76-3.19s-1.36-2.09-2.45-2.63c-.86-.43-1.85-.52-2.81-.47-3.03.16-5.96,1.73-7.78,4.17-.67.9-1.2,1.94-1.32,3.05-.14,1.4.39,2.81,1.21,3.95.83,1.14,1.94,2.04,3.07,2.87,3.17,2.32,6.99,4.25,10.87,3.67.86-.13,1.73-.39,2.42-.93,2.5-1.99,1.98-5.93.34-8.25Z"/>
            <path class="cls-2" d="M29.77,55.99c-2.96,0-6.14-1.27-9.67-3.85-1.06-.78-2.27-1.73-3.16-2.95-.97-1.33-1.43-2.83-1.28-4.21.11-1.06.58-2.15,1.39-3.24,1.89-2.54,4.9-4.15,8.06-4.32,1.2-.07,2.18.1,2.99.5,1,.5,1.83,1.38,2.61,2.79.21.37.4.75.59,1.13.36.72.71,1.4,1.15,2.03.27.37.58.74.88,1.08.31.37.64.75.93,1.15,1.84,2.6,2.2,6.68-.42,8.76-.65.52-1.5.85-2.6,1.01-.49.07-.98.11-1.47.11ZM25.59,38.16c-.15,0-.3,0-.45.01-2.94.16-5.74,1.66-7.5,4.02-.73.98-1.15,1.94-1.24,2.87-.12,1.2.28,2.51,1.14,3.69.83,1.14,1.98,2.05,2.99,2.79,3.96,2.89,7.43,4.08,10.6,3.61.96-.14,1.69-.42,2.24-.85,2.4-1.91,1.7-5.72.27-7.74h0c-.27-.38-.57-.73-.89-1.1-.31-.36-.63-.74-.92-1.14-.48-.67-.85-1.41-1.21-2.13-.19-.37-.37-.74-.58-1.1-.71-1.27-1.43-2.05-2.29-2.48-.59-.29-1.31-.44-2.17-.44Z"/>
          </g>
          <g>
            <path class="cls-4" d="M1.96,43.73c-.46.21-.91.45-1.3.76-.45.36-.35,1.08.18,1.3.29.12.58.24.84.43.56.41.88,1.06,1.14,1.7.74,1.83,1.16,3.83,2.29,5.45,1.46,2.07,3.9,3.23,6.35,3.89,2.24.6,4.58.86,6.9.76.17,0,.36-.02.47-.15.18-.19.07-.5-.05-.74-.38-.76-.77-1.52-1.15-2.28-.66-1.32-1.33-2.63-1.99-3.95-.96-1.91-1.93-3.82-3.13-5.59-2.2-3.23-7.31-3.04-10.54-1.58Z"/>
            <path class="cls-2" d="M17.38,58.42c-2.03,0-4.05-.27-6.02-.8-3.04-.82-5.25-2.18-6.56-4.04-.82-1.17-1.28-2.52-1.72-3.83-.19-.57-.39-1.14-.61-1.7-.24-.59-.52-1.18-1.01-1.54-.22-.16-.48-.28-.75-.39-.37-.15-.63-.48-.69-.88-.06-.41.1-.8.41-1.06.37-.29.82-.56,1.38-.81h0c3.12-1.41,8.6-1.81,11,1.71,1.22,1.79,2.21,3.74,3.16,5.63l3.15,6.23c.25.5.25.89,0,1.16-.23.25-.57.26-.73.27-.33.01-.66.02-.99.02ZM6.73,43.1c-1.67,0-3.35.4-4.62.97h0c-.5.23-.9.46-1.21.71-.11.09-.16.22-.14.36,0,.06.05.22.23.29.31.12.63.26.92.48.64.47,1,1.21,1.26,1.87.23.57.43,1.15.62,1.73.45,1.32.87,2.56,1.63,3.64,1.2,1.71,3.27,2.97,6.14,3.74,2.21.6,4.5.85,6.78.75.14,0,.19-.02.21-.03,0,0,0-.09-.11-.32l-3.15-6.23c-.94-1.87-1.92-3.79-3.11-5.55-1.21-1.77-3.32-2.42-5.45-2.42ZM1.96,43.73h0,0Z"/>
          </g>
          <g>
            <path class="cls-4" d="M16.43,68.71c.84-1.28,2.57-1.64,2.85-3.18.31-1.71,1.46-3.11,1.43-4.94,0-.36-.05-.72-.19-1.04-.89-2.05-4.56-2.37-6.44-2.65-2.28-.35-4.63-.25-6.84.43-1.19.37-2.33.92-3.26,1.74-.76.68-1.35,1.53-1.84,2.42-1.23,2.27-.91,3.85.23,5.92.15.28.46.43.77.39,1.6-.23,3.26.17,4.77.78,1.79.73,4.86,3.27,6.89,2.23.8-.41,1.15-1.35,1.64-2.1Z"/>
            <path class="cls-2" d="M13.71,71.43c-1.41,0-3-.9-4.33-1.66-.6-.34-1.17-.66-1.62-.85-1.71-.69-3.25-.95-4.58-.76-.46.07-.92-.17-1.15-.58-1.15-2.11-1.56-3.81-.23-6.28.57-1.06,1.2-1.88,1.92-2.52.87-.77,2.01-1.39,3.4-1.82,2.16-.68,4.52-.83,7-.45l.56.08c2.1.3,5.27.74,6.17,2.79.14.33.22.72.23,1.19.02,1.15-.39,2.13-.78,3.07-.27.66-.53,1.27-.65,1.94-.19,1.04-.94,1.61-1.66,2.15-.48.36-.93.7-1.24,1.17h0c-.12.18-.23.38-.34.58-.36.64-.74,1.3-1.44,1.66-.39.2-.81.29-1.25.29ZM4.07,67.36c1.21,0,2.55.29,3.98.87.5.2,1.09.54,1.71.89,1.59.9,3.56,2.02,4.86,1.35.5-.26.81-.79,1.13-1.36.12-.21.24-.42.37-.61.38-.58.91-.98,1.42-1.36.66-.5,1.24-.93,1.38-1.68.14-.75.42-1.43.7-2.1.38-.91.74-1.78.72-2.77,0-.37-.06-.66-.16-.9-.72-1.66-3.77-2.09-5.58-2.35l-.57-.08c-2.38-.36-4.62-.22-6.67.42-1.29.4-2.34.96-3.12,1.67-.65.58-1.22,1.34-1.76,2.32-1.18,2.17-.83,3.63.23,5.56.08.14.24.21.38.2.32-.05.65-.07.99-.07ZM16.43,68.71h0,0Z"/>
          </g>
          <g>
            <path class="cls-4" d="M25.05,72.36c0,1.1.8,2.13.31,3.24-.42.95-1.57,1.29-2.59,1.43-4.01.56-8.09-.57-10.8-3.74-.77-.9-1.38-2.04-1.23-3.21.1-.79.54-1.49,1.01-2.13,1.89-2.61,4.46-4.73,7.38-6.09,1.91-.89,4.07-1.46,6.11-.94.82.21,1.91.78,1.94,1.76.02.69-.55,1.34-.64,2.04-.16,1.3-.15,2.55-.45,3.84-.28,1.17-1,2.54-1.03,3.73,0,.02,0,.05,0,.07Z"/>
            <path class="cls-2" d="M20.79,77.54c-3.64,0-6.88-1.41-9.11-4.01-.7-.82-1.5-2.09-1.32-3.5.12-.88.61-1.66,1.07-2.3,1.94-2.68,4.54-4.83,7.52-6.21,2.38-1.11,4.52-1.43,6.36-.96,1.05.27,2.18.96,2.22,2.11.01.46-.17.87-.35,1.27-.13.29-.25.56-.29.82-.05.44-.09.88-.12,1.32-.06.83-.13,1.69-.34,2.56-.11.46-.28.94-.45,1.41-.27.76-.55,1.55-.57,2.24l-.38.06h.38c0,.37.11.74.22,1.13.19.68.41,1.45.06,2.26-.4.9-1.34,1.44-2.88,1.65-.68.1-1.36.14-2.02.14ZM23.6,61.1c-1.31,0-2.76.37-4.33,1.1-2.86,1.33-5.36,3.4-7.23,5.98-.43.59-.84,1.24-.94,1.96-.15,1.13.54,2.21,1.14,2.91,2.47,2.88,6.28,4.19,10.46,3.61,1.25-.17,2.02-.58,2.3-1.21.25-.56.09-1.11-.09-1.75-.12-.43-.25-.87-.25-1.34h0s0-.08,0-.08c.02-.81.32-1.66.61-2.48.17-.47.33-.92.42-1.33.19-.81.25-1.61.32-2.45.03-.45.07-.9.12-1.35.05-.37.2-.71.35-1.04.15-.34.3-.65.29-.94-.02-.74-.9-1.22-1.65-1.41-.49-.12-1-.18-1.53-.18Z"/>
          </g>
          <g>
            <path class="cls-4" d="M46.56,63.98c.9.54,1.76,1.25,2.1,2.24.24.71.19,1.5,0,2.23-.58,2.26-2.32,4.07-4.3,5.3-1.2.75-2.53,1.33-3.58,2.28-.6.55-1.1,1.26-1.34,2.03s-1.1,1.21-1.88.91c-3.63-1.45-7.7-2-10.8-4.37-2.1-1.61-3.58-3.99-4.11-6.57-.23-1.15-.27-2.38.21-3.45.29-.66.77-1.21,1.29-1.71.57-.55,1.22-1.04,1.97-1.3.78-.26,1.63-.25,2.46-.24,5.82.11,12.8-.54,17.99,2.66Z"/>
            <path class="cls-2" d="M38.09,79.44c-.22,0-.45-.04-.67-.13-1.17-.47-2.41-.85-3.62-1.21-2.52-.77-5.13-1.57-7.27-3.21-2.16-1.65-3.71-4.13-4.25-6.8-.29-1.44-.21-2.68.23-3.68.28-.62.71-1.2,1.37-1.83.74-.71,1.41-1.14,2.11-1.38.85-.29,1.77-.27,2.58-.25.95.02,1.94.02,2.94.01,5.07-.01,10.81-.03,15.24,2.7,1.21.73,1.95,1.52,2.26,2.43.24.7.24,1.52,0,2.44-.54,2.11-2.13,4.07-4.47,5.53-.37.23-.76.45-1.14.67-.86.49-1.68.94-2.38,1.58-.59.54-1.03,1.2-1.24,1.87-.15.48-.5.88-.95,1.1-.24.12-.5.17-.76.17ZM28,61.68c-.6,0-1.21.04-1.76.22-.6.2-1.18.59-1.83,1.21-.58.56-.97,1.07-1.2,1.6-.38.85-.44,1.94-.18,3.22.5,2.49,1.95,4.81,3.97,6.35,2.03,1.56,4.46,2.3,7.03,3.09,1.22.37,2.48.76,3.67,1.23.27.11.57.1.83-.02.27-.13.46-.36.56-.65.25-.79.76-1.57,1.45-2.2.76-.69,1.65-1.19,2.51-1.68.38-.21.75-.42,1.12-.65,2.18-1.35,3.65-3.15,4.14-5.08.2-.78.2-1.45,0-2.01-.25-.74-.89-1.4-1.94-2.04,0,0,0,0,0,0-4.25-2.62-9.88-2.59-14.84-2.59-1.01,0-2,0-2.95-.01-.19,0-.38,0-.57,0Z"/>
          </g>
          <g>
            <path class="cls-4" d="M28.32,45.8c-.49-1.23-1.02-2.49-1.92-3.46-1.38-1.48-3.44-2.1-5.43-2.42-1.99-.32-4.05-.41-5.94-1.1-.37,1.87-.67,3.76-.91,5.65-.16,1.24-.28,2.54.1,3.73.56,1.76,2.13,3.01,3.74,3.92,2.28,1.3,4.8,2.15,7.01,3.56,1.94,1.24,5.92,3.74,5.82-.37-.08-3.29-1.26-6.5-2.46-9.52Z"/>
            <path class="cls-2" d="M29.26,57.96c-1.46,0-3.38-1.23-4.51-1.95-1.21-.78-2.56-1.4-3.86-2-1.04-.48-2.11-.97-3.13-1.55-2.13-1.21-3.4-2.56-3.91-4.13-.4-1.25-.28-2.56-.11-3.89.24-1.9.55-3.81.91-5.68.02-.11.09-.2.18-.25.09-.05.21-.06.31-.03,1.33.48,2.78.67,4.19.85.56.07,1.13.14,1.69.23,2.64.42,4.43,1.23,5.64,2.53.92.99,1.45,2.21,2,3.58h0c1.21,3.05,2.4,6.3,2.48,9.65.03,1.23-.29,2.05-.96,2.43-.27.15-.59.22-.93.22ZM15.31,39.32c-.33,1.72-.6,3.47-.82,5.21-.16,1.25-.27,2.46.08,3.57.44,1.39,1.61,2.6,3.56,3.71.99.56,2.05,1.05,3.07,1.52,1.32.61,2.69,1.24,3.95,2.05,1.08.69,3.6,2.31,4.67,1.71.41-.23.6-.82.58-1.75-.08-3.23-1.24-6.41-2.43-9.39h0c-.52-1.3-1.01-2.44-1.85-3.34-1.09-1.17-2.75-1.91-5.21-2.3-.55-.09-1.11-.16-1.66-.23-1.31-.17-2.65-.34-3.94-.75Z"/>
          </g>
          <g>
            <path class="cls-4" d="M26.28,60.7c1.38-.3,2.32-1.14,2.05-2.63-.21-1.18-1.32-1.93-2.15-2.68-1.37-1.23-2.95-2.21-4.56-3.09-3.43-1.87-7.19-3.4-11.06-3.62-.56-.03-.81.68-.36,1.02,1.98,1.5,3.64,3.43,4.83,5.61.49.91.91,1.87,1.57,2.68.81.99,1.94,1.69,3.13,2.16,2.07.82,4.38,1.01,6.55.54Z"/>
            <path class="cls-2" d="M23.92,61.33c-1.48,0-2.96-.27-4.32-.81-1.41-.55-2.51-1.32-3.29-2.27-.52-.64-.9-1.37-1.26-2.07-.11-.22-.23-.44-.35-.66-1.15-2.12-2.79-4.02-4.73-5.5-.33-.25-.46-.69-.32-1.08.15-.39.51-.63.93-.61,3.39.19,7.06,1.39,11.22,3.66,1.36.75,3.12,1.78,4.63,3.14.13.12.28.24.42.36.77.66,1.65,1.41,1.85,2.53.27,1.54-.6,2.68-2.34,3.06-.8.17-1.62.26-2.44.26ZM10.53,49.07c-.11,0-.15.08-.17.12-.02.04-.04.15.07.23,2.02,1.54,3.73,3.52,4.93,5.74.12.22.24.45.35.67.36.7.7,1.37,1.17,1.94.69.85,1.7,1.54,2.98,2.05,1.99.79,4.24.97,6.33.52h0c.94-.2,2.02-.75,1.76-2.19-.15-.85-.88-1.48-1.6-2.09-.15-.13-.3-.25-.43-.38-1.45-1.31-3.16-2.31-4.49-3.04-4.06-2.22-7.63-3.39-10.9-3.57h-.01Z"/>
          </g>
          <g>
            <path class="cls-4" d="M39.62,48.07c-.11-1.29-.5-2.6-1.19-3.69-.61-.98-2.09-.83-2.48.26-1.2,3.39-2.83,6.63-4.85,9.6-.42.61-.89,1.19-1.43,1.7-1.35,1.31-2.96,2.82-4.83,2.82-4.98.02-8.68.33-7.83,1.87,1.62.34,2.73.81,4.38.9,1.65.09,3.42.57,4.4,1.89.28.37.48.79.75,1.16,1.08,1.47,3.09,1.96,4.91,1.9,1.48-.05,2.97-.38,4.26-1.12s2.35-1.9,2.85-3.3c.87-2.47-.18-5.03.17-7.54.3-2.2,1.07-4.18.87-6.46Z"/>
            <path class="cls-2" d="M31.18,66.87c-2.18,0-3.96-.74-4.93-2.06-.14-.19-.26-.39-.39-.6-.11-.19-.23-.38-.36-.56-.97-1.3-2.78-1.67-4.12-1.75-1.14-.06-2.03-.3-2.97-.55-.46-.12-.94-.25-1.47-.36-.11-.02-.2-.09-.25-.19-.27-.49-.17-.86-.04-1.08.55-.95,2.85-1.32,8.19-1.34,1.76,0,3.32-1.51,4.57-2.72.51-.49.97-1.04,1.38-1.64,2-2.94,3.62-6.15,4.8-9.52.22-.64.78-1.08,1.46-1.15.68-.08,1.33.24,1.69.82.69,1.11,1.12,2.44,1.24,3.86h0c.13,1.57-.18,3.02-.48,4.43-.15.69-.3,1.4-.4,2.11-.14,1.01-.04,2.03.06,3.1.14,1.48.29,3.01-.24,4.52-.5,1.43-1.57,2.67-3.01,3.5-1.24.72-2.78,1.12-4.43,1.17-.1,0-.2,0-.3,0ZM17.29,60.31c.47.1.9.22,1.32.33.9.24,1.76.46,2.82.52,1.5.08,3.54.51,4.68,2.04.15.2.28.41.4.62.11.18.22.37.35.54,1.22,1.67,3.63,1.78,4.6,1.75,1.53-.05,2.94-.42,4.08-1.07,1.27-.73,2.24-1.86,2.68-3.09.48-1.36.34-2.74.21-4.2-.1-1.07-.21-2.17-.06-3.27.1-.74.26-1.47.41-2.17.3-1.41.59-2.75.46-4.21h0c-.11-1.3-.5-2.52-1.13-3.53-.21-.34-.58-.5-.97-.47-.39.04-.7.29-.83.66-1.21,3.43-2.85,6.69-4.89,9.69-.44.64-.93,1.23-1.48,1.76-1.28,1.23-3.03,2.92-5.09,2.93-1.73,0-6.99.03-7.55.97-.02.03-.05.08-.02.2Z"/>
          </g>
          <g>
            <path class="cls-4" d="M30.51,41.21c.81,2.96-.1,5.68.16,12.19"/>
            <path class="cls-2" d="M30.67,53.78c-.2,0-.37-.16-.37-.36-.11-2.89,0-5.04.09-6.78.12-2.17.2-3.73-.24-5.33-.05-.2.06-.41.26-.46.2-.06.41.06.46.26.47,1.71.38,3.33.27,5.57-.09,1.72-.21,3.86-.09,6.71,0,.21-.15.38-.36.39h-.02Z"/>
          </g>
          <path class="cls-2" d="M25.73,55.26s-.03,0-.05,0c-.21-.03-.35-.22-.32-.42.27-1.98-.36-4.06-1.68-5.56-.46-.52-.92-.88-1.4-1.1-.24-.1-.68-.25-1.04-.08-.39.19-.58.71-.74,1.23-.23.77-.41,1.45-.18,2.04.07.19-.02.41-.21.48-.19.08-.41-.02-.48-.21-.34-.88-.05-1.83.16-2.53.2-.65.46-1.37,1.13-1.69.46-.22,1.05-.2,1.66.07.58.26,1.12.68,1.66,1.29,1.46,1.66,2.15,3.96,1.86,6.16-.03.19-.19.33-.37.33Z"/>
          <path class="cls-2" d="M27.33,56.77c-.08,0-.15-.02-.22-.07-.97-.69-2.23-.66-3.56-.64-.45,0-.9.02-1.34,0-2.49-.11-4.87-1.23-6.55-3.06-.39-.43-.74-.91-1.08-1.38-.84-1.15-1.64-2.23-2.9-2.45-.2-.04-.34-.23-.31-.43.03-.2.23-.33.43-.31,1.56.27,2.49,1.53,3.38,2.74.33.45.67.91,1.03,1.31,1.54,1.69,3.74,2.72,6.03,2.82.42.02.86,0,1.29,0,1.39-.03,2.84-.06,4.01.77.17.12.21.35.09.52-.07.1-.19.16-.31.16Z"/>
          <path class="cls-2" d="M28.1,57.59c-.19,0-.35-.14-.37-.33-.06-.45-.21-1.31-.35-2.16-.15-.86-.29-1.72-.35-2.18-.21-1.57-.43-3.19-1.03-4.67-.65-1.61-1.71-2.81-2.96-3.39-1.43-.66-3.15-.4-4.09.62-.14.15-.38.16-.53.02-.15-.14-.16-.38-.02-.53,1.15-1.25,3.23-1.59,4.95-.8,1.43.66,2.62,2,3.34,3.79.64,1.57.86,3.24,1.08,4.86.06.45.21,1.3.35,2.15.15.87.29,1.73.35,2.19.03.21-.12.39-.32.42-.02,0-.03,0-.05,0Z"/>
          <g>
            <path class="cls-4" d="M30.6,33.97c-1.14,1.64-1.41,3.84-.93,5.78"/>
            <path class="cls-2" d="M29.67,40.12c-.17,0-.32-.11-.36-.29-.53-2.16-.16-4.43.98-6.08.12-.17.35-.21.52-.09.17.12.21.35.09.52-1.03,1.48-1.35,3.53-.87,5.48.05.2-.07.4-.27.45-.03,0-.06.01-.09.01Z"/>
          </g>
        </g>
        <path class="cls-2" d="M71.8,60.95c-.13,0-.26-.07-.33-.19-.1-.18-.04-.41.14-.51,5.63-3.16,11.54-5.92,17.57-8.22.19-.07.41.02.48.22.07.19-.02.41-.22.48-5.99,2.28-11.87,5.03-17.47,8.17-.06.03-.12.05-.18.05Z"/>
        <path class="cls-2" d="M83.89,61.23s-.07,0-.11-.02l-7.94-2.45c-.2-.06-.31-.27-.25-.47s.27-.31.47-.25l7.94,2.45c.2.06.31.27.25.47-.05.16-.2.26-.36.26Z"/>
        <path class="cls-2" d="M88.79,57.98s-.08,0-.12-.02c-2.25-.77-4.57-1.4-6.9-1.88-.2-.04-.33-.24-.29-.44s.24-.34.44-.29c2.36.48,4.72,1.12,6.99,1.9.2.07.3.28.23.48-.05.16-.2.25-.35.25Z"/>
        <path class="cls-2" d="M78.65,57.22c-.07,0-.13-.02-.19-.05-.18-.11-.23-.34-.12-.52l3.08-5.04c.11-.18.34-.23.52-.12.18.11.23.34.12.52l-3.08,5.04c-.07.12-.19.18-.32.18Z"/>
      </g>
      <g>
        <g>
          <path class="cls-5" d="M53.51,89.4h-15.66v12.63h0s0,.02,0,.04c0,2.56,3.51,4.63,7.83,4.63s7.83-2.07,7.83-4.63c0-.01,0-.02,0-.04h0v-12.63Z"/>
          <path class="cls-2" d="M45.68,107.07c-4.52,0-8.2-2.25-8.2-5.01h0s0-.03,0-.04v-12.63c0-.21.17-.38.38-.38h15.66c.21,0,.38.17.38.38v12.63s0,.04,0,.05c-.04,2.77-3.71,4.99-8.2,4.99ZM38.22,101.98s0,.03,0,.05c0,2.39,3.34,4.3,7.45,4.3s7.45-1.91,7.45-4.26c0-.01,0-.03,0-.04h0v-12.25h-14.91v12.2Z"/>
        </g>
        <g>
          <ellipse class="cls-4" cx="45.68" cy="89.22" rx="7.83" ry="4.63"/>
          <path class="cls-2" d="M45.68,94.23c-4.52,0-8.2-2.25-8.2-5.01s3.68-5.01,8.2-5.01,8.2,2.25,8.2,5.01-3.68,5.01-8.2,5.01ZM45.68,84.96c-4.11,0-7.45,1.91-7.45,4.26s3.34,4.26,7.45,4.26,7.45-1.91,7.45-4.26-3.34-4.26-7.45-4.26Z"/>
        </g>
        <g>
          <path class="cls-1" d="M49.09,86.75c.02.25,0,.51-.06.77-.34,1.47-1.66,2.53-3.12,2.53-2.09,0-3.48-2.05-3.28-4.09.17-1.72,1.4-3.11,1.96-4.74.23-.68.36-1.4.68-2.04.24-.47.6-.89.7-1.42-.03,1.57.9,2.95,1.59,4.36.44.9.78,1.85,1.07,2.81.19.61.41,1.2.46,1.82Z"/>
          <path class="cls-2" d="M45.92,90.42c-.98,0-1.9-.41-2.58-1.17-.79-.87-1.19-2.12-1.07-3.33.11-1.12.64-2.1,1.14-3.04.31-.58.63-1.17.84-1.78.08-.23.15-.47.21-.71.13-.46.26-.93.49-1.38.08-.15.17-.3.26-.45.18-.29.35-.57.4-.86.04-.19.21-.32.41-.31.19.02.34.19.34.38-.02,1.16.53,2.22,1.12,3.34.15.28.3.56.43.85.4.83.75,1.74,1.09,2.86l.11.34c.16.5.33,1.02.37,1.57h0c.02.31,0,.6-.07.89-.38,1.63-1.85,2.82-3.49,2.82ZM45.77,79.08c-.05.09-.11.18-.16.28-.2.38-.31.79-.44,1.24-.07.25-.14.5-.23.75-.23.66-.56,1.29-.89,1.89-.49.92-.96,1.79-1.06,2.76-.1,1.01.23,2.04.88,2.76.38.42,1.04.92,2.03.92,1.29,0,2.45-.94,2.76-2.24.05-.21.07-.43.05-.66-.03-.46-.18-.91-.33-1.39l-.11-.34c-.33-1.09-.67-1.96-1.05-2.75-.13-.28-.28-.55-.42-.83-.4-.77-.81-1.55-1.03-2.38Z"/>
        </g>
      </g>
      <g>
        <g>
          <path class="cls-5" d="M78.34,92.28h-15.66v12.63h0s0,.02,0,.04c0,2.56,3.51,4.63,7.83,4.63s7.83-2.07,7.83-4.63c0-.01,0-.02,0-.04h0v-12.63Z"/>
          <path class="cls-2" d="M70.51,109.96c-4.52,0-8.21-2.25-8.21-5.01h0s0-.02,0-.04v-12.63c0-.21.17-.38.38-.38h15.66c.21,0,.38.17.38.38v12.63s0,.04,0,.05c-.04,2.77-3.71,4.99-8.2,4.99ZM63.05,104.86s0,.03,0,.05c0,2.39,3.34,4.3,7.45,4.3s7.45-1.91,7.45-4.26c0-.01,0-.02,0-.04h0v-12.25h-14.91v12.2Z"/>
        </g>
        <g>
          <ellipse class="cls-4" cx="70.51" cy="92.11" rx="7.83" ry="4.63"/>
          <path class="cls-2" d="M70.51,97.12c-4.52,0-8.21-2.25-8.21-5.01s3.68-5.01,8.21-5.01,8.2,2.25,8.2,5.01-3.68,5.01-8.2,5.01ZM70.51,87.85c-4.11,0-7.46,1.91-7.46,4.26s3.34,4.26,7.46,4.26,7.45-1.91,7.45-4.26-3.34-4.26-7.45-4.26Z"/>
        </g>
        <g>
          <path class="cls-1" d="M73.89,89.21c.02.25,0,.51-.06.77-.34,1.47-1.66,2.53-3.12,2.53-2.09,0-3.48-2.05-3.28-4.09.17-1.72,1.4-3.11,1.96-4.74.23-.68.36-1.4.68-2.04.24-.47.6-.89.7-1.42-.03,1.57.9,2.95,1.59,4.36.44.9.78,1.85,1.07,2.81.19.61.41,1.2.46,1.82Z"/>
          <path class="cls-2" d="M70.71,92.88c-.98,0-1.9-.41-2.58-1.17-.79-.87-1.19-2.12-1.07-3.33.11-1.12.64-2.1,1.14-3.05.31-.58.63-1.17.84-1.78.08-.23.15-.47.21-.71.13-.46.26-.94.49-1.38.08-.15.17-.3.26-.44.18-.29.35-.57.4-.87.03-.19.21-.32.41-.31.19.02.34.19.34.38-.02,1.16.53,2.22,1.11,3.34.15.28.3.57.43.85.4.82.75,1.73,1.09,2.86l.11.34c.16.5.33,1.02.36,1.56h0c.02.31,0,.6-.07.89-.38,1.63-1.85,2.82-3.49,2.82ZM70.56,81.54c-.05.09-.11.18-.16.28-.2.38-.31.79-.44,1.24-.07.25-.14.5-.23.75-.23.66-.56,1.29-.89,1.89-.49.92-.96,1.79-1.06,2.77-.1,1.01.23,2.04.88,2.76.38.42,1.04.92,2.03.92,1.29,0,2.45-.94,2.76-2.24.05-.21.06-.43.05-.66-.03-.45-.18-.9-.33-1.38l-.11-.35c-.33-1.09-.67-1.97-1.05-2.75-.13-.28-.28-.55-.42-.83-.4-.76-.81-1.54-1.03-2.38Z"/>
        </g>
      </g>
      <g>
        <g>
          <path class="cls-5" d="M99.47,80.7h-15.66v12.63h0s0,.02,0,.04c0,2.56,3.51,4.63,7.83,4.63s7.83-2.07,7.83-4.63c0-.01,0-.02,0-.04h0v-12.63Z"/>
          <path class="cls-2" d="M91.64,98.37c-4.52,0-8.21-2.25-8.21-5.01h0s0-.02,0-.04v-12.63c0-.21.17-.38.38-.38h15.66c.21,0,.38.17.38.38v12.63s0,.04,0,.05c-.04,2.77-3.71,4.99-8.2,4.99ZM84.18,93.27s0,.04,0,.06c0,2.37,3.34,4.28,7.45,4.28s7.45-1.91,7.45-4.26c0-.01,0-.02,0-.04h0v-12.25h-14.91v12.2Z"/>
        </g>
        <g>
          <ellipse class="cls-4" cx="91.64" cy="80.52" rx="7.83" ry="4.63"/>
          <path class="cls-2" d="M91.64,85.53c-4.52,0-8.21-2.25-8.21-5.01s3.68-5.01,8.21-5.01,8.2,2.25,8.2,5.01-3.68,5.01-8.2,5.01ZM91.64,76.26c-4.11,0-7.46,1.91-7.46,4.26s3.34,4.26,7.46,4.26,7.45-1.91,7.45-4.26-3.34-4.26-7.45-4.26Z"/>
        </g>
        <g>
          <path class="cls-1" d="M95.05,77.01c.02.25,0,.51-.06.77-.34,1.47-1.66,2.53-3.12,2.53-2.09,0-3.48-2.05-3.28-4.09.17-1.72,1.4-3.11,1.96-4.74.23-.68.36-1.4.68-2.04.24-.47.6-.89.7-1.42-.03,1.57.9,2.95,1.59,4.36.44.9.78,1.85,1.07,2.81.19.61.41,1.2.46,1.82Z"/>
          <path class="cls-2" d="M91.87,80.69c-.98,0-1.9-.41-2.58-1.17-.79-.87-1.19-2.12-1.07-3.33.11-1.12.64-2.1,1.14-3.05.31-.58.63-1.17.84-1.78.08-.23.15-.47.21-.71.13-.46.26-.94.49-1.38.08-.15.17-.3.26-.44.18-.29.35-.57.4-.87.03-.19.22-.32.41-.31.19.02.34.19.34.38-.02,1.16.53,2.22,1.11,3.34.15.28.3.57.43.85.4.83.75,1.74,1.09,2.86l.11.34c.16.5.33,1.02.37,1.56h0c.02.31,0,.6-.07.89-.38,1.63-1.85,2.82-3.49,2.82ZM91.73,69.34c-.05.09-.11.18-.16.28-.2.38-.31.79-.44,1.24-.07.25-.14.5-.23.75-.23.66-.56,1.29-.89,1.89-.49.92-.96,1.79-1.06,2.77-.1,1.01.23,2.04.88,2.76.38.42,1.04.92,2.03.92,1.29,0,2.45-.94,2.76-2.24.05-.21.07-.43.05-.66-.03-.45-.18-.91-.33-1.39l-.11-.35c-.33-1.09-.67-1.96-1.05-2.75-.13-.28-.28-.55-.42-.83-.4-.76-.81-1.55-1.03-2.38Z"/>
        </g>
      </g>
    </g>
  </g>
</svg>