<?xml version="1.0" encoding="UTF-8"?>
<svg id="_圖層_2" data-name="圖層 2" xmlns="http://www.w3.org/2000/svg" viewBox="0 0 40.58 67.74">
  <defs>
    <style>
      .cls-1 {
        fill: #6fb7ff;
      }

      .cls-1, .cls-2, .cls-3, .cls-4, .cls-5, .cls-6 {
        stroke-width: 0px;
      }

      .cls-2 {
        fill: #3e3e3e;
      }

      .cls-3 {
        fill: #000;
      }

      .cls-4 {
        fill: #fecfa9;
      }

      .cls-5 {
        fill: #fff;
      }

      .cls-6 {
        fill: #00ff86;
      }
    </style>
  </defs>
  <g id="_圖層_5" data-name="圖層 5">
    <g>
      <g>
        <polyline class="cls-4" points="16.06 18.39 17.48 22.3 22.51 22.02 21.14 24.24 15.99 25.6 12.48 18.36"/>
        <path class="cls-3" d="M15.99,25.97c-.14,0-.27-.08-.34-.21l-3.51-7.24c-.09-.19-.01-.41.17-.5.19-.09.41-.01.5.17l3.37,6.96,4.7-1.23.92-1.49-4.31.24c-.17.02-.32-.09-.37-.25l-1.42-3.9c-.07-.19.03-.41.22-.48.2-.07.41.03.48.22l1.33,3.64,4.75-.26c.14,0,.27.06.34.18s.07.27,0,.39l-1.37,2.23c-.05.08-.13.14-.22.17l-5.15,1.35s-.06.01-.1.01Z"/>
      </g>
      <g>
        <path class="cls-2" d="M3.91,28.48l-1.37,2.45c-.47.85-.59,1.85-.33,2.79h0c.37,1.34,1.47,2.35,2.84,2.62l7.33,4.91,10.3-7.52-8.2-6.29-10.56,1.04Z"/>
        <path class="cls-3" d="M12.37,41.63c-.07,0-.15-.02-.21-.06l-7.27-4.87c-1.48-.32-2.64-1.41-3.05-2.87-.29-1.04-.16-2.13.37-3.07l1.37-2.45c.06-.11.17-.18.29-.19l10.56-1.04c.1,0,.19.02.27.08l8.2,6.29c.09.07.15.18.15.3s-.06.23-.15.3l-10.3,7.52c-.07.05-.14.07-.22.07ZM4.14,28.83l-1.28,2.28c-.43.77-.53,1.66-.3,2.5.34,1.21,1.32,2.11,2.55,2.35.05,0,.1.03.14.06l7.11,4.76,9.68-7.07-7.69-5.9-10.22,1.01Z"/>
      </g>
      <g>
        <path class="cls-5" d="M8.19,12.53l-5.27,2.75,1.92,8.31s.03,1.04.4,3.8c1.53,1.64,7.9,2.84,10.06.69l-.27-6.56,2.85-1.48-3-6.61-2.18-.54-4.52-.36Z"/>
        <path class="cls-3" d="M11.46,29.61c-.08,0-.16,0-.24,0-2.52-.05-5.26-.91-6.25-1.96-.05-.06-.09-.13-.1-.21-.37-2.75-.4-3.79-.4-3.84l-1.91-8.23c-.04-.17.04-.34.19-.42l5.27-2.75c.06-.03.13-.05.2-.04l4.52.36,2.24.55c.11.03.2.1.25.21l3,6.6c.08.18,0,.4-.17.49l-2.64,1.37.26,6.33c0,.11-.04.21-.11.28-1.04,1.03-2.77,1.26-4.12,1.26ZM5.6,27.21c.92.87,3.4,1.6,5.63,1.65,1.65.02,2.95-.3,3.7-.94l-.26-6.39c0-.15.07-.28.2-.35l2.53-1.32-2.78-6.12-2-.49-4.35-.35-4.91,2.57,1.85,8.03c0,.08.04,1.1.39,3.71Z"/>
      </g>
      <g>
        <path class="cls-6" d="M9.8,20.94c-.08,0-.16-.03-.23-.08-.09-.07-.15-.18-.15-.3v-5.52c0-.21.17-.38.38-.38h1.84c.21,0,.38.17.38.38v5.01c0,.17-.11.32-.27.36l-1.84.51s-.07.01-.1.01Z"/>
        <path class="cls-3" d="M11.63,15.04v5.01l-1.84.51v-5.52h1.84M11.63,14.29h-1.84c-.41,0-.75.34-.75.75v5.52c0,.23.11.46.3.6.13.1.29.15.45.15.07,0,.14,0,.2-.03l1.84-.51c.32-.09.55-.39.55-.72v-5.01c0-.41-.34-.75-.75-.75h0Z"/>
      </g>
      <g>
        <path class="cls-6" d="M7.12,17.93s-.09,0-.14-.03c-.12-.05-.2-.15-.23-.27l-.89-4.01c-.04-.17.04-.33.19-.41l1.96-1.02c.05-.03.11-.04.17-.04,0,0,3.84.13,3.84.13l2.58.69c.18.05.3.23.27.42l-.49,3.4c-.02.12-.09.22-.2.28-.05.03-.11.04-.17.04s-.12-.01-.17-.04l-2.97-1.56-3.54,2.36c-.06.04-.13.06-.21.06Z"/>
        <path class="cls-3" d="M8.19,12.53l3.83.13,2.5.68-.49,3.4-3.17-1.66-3.73,2.48-.89-4.01,1.96-1.02M8.19,11.78c-.12,0-.24.03-.35.09l-1.96,1.02c-.3.16-.46.5-.38.83l.89,4.01c.05.24.22.44.45.53.09.04.19.05.28.05.15,0,.29-.04.42-.13l3.36-2.23,2.78,1.45c.11.06.23.09.35.09s.23-.03.34-.08c.22-.11.37-.32.4-.56l.49-3.4c.05-.38-.18-.73-.55-.83l-2.5-.68c-.06-.02-.11-.02-.17-.03l-3.83-.13s-.02,0-.03,0h0Z"/>
      </g>
      <g>
        <path class="cls-4" d="M12.02,12.84l-.09-1.6-4.1-.1-.25,1.75s1.72,2.14,3.28,2.19c0,0,1.14-.86,1.16-2.24Z"/>
        <path class="cls-3" d="M10.85,15.45h-.01c-1.72-.05-3.49-2.23-3.56-2.33-.06-.08-.09-.18-.08-.29l.25-1.75c.03-.19.19-.32.38-.32l4.1.1c.2,0,.35.16.37.35l.09,1.6s0,.02,0,.03c-.03,1.54-1.26,2.49-1.31,2.53-.06.05-.14.08-.23.08ZM7.97,12.78c.51.6,1.72,1.78,2.76,1.91.25-.23.89-.91.92-1.84l-.07-1.25-3.42-.08-.18,1.26Z"/>
      </g>
      <g>
        <path class="cls-4" d="M14.69,7.66c.1,3.2-1.68,5.85-4.5,5.93-2.82.08-5.62-2.43-5.72-5.63-.1-3.2,2.11-5.86,4.94-5.95s5.19,2.44,5.28,5.64Z"/>
        <path class="cls-3" d="M10.05,13.97c-1.42,0-2.87-.61-4-1.69-1.21-1.16-1.9-2.69-1.95-4.31-.1-3.4,2.27-6.24,5.3-6.33,1.47-.02,2.88.56,3.95,1.71,1.06,1.13,1.67,2.66,1.72,4.3.11,3.58-1.94,6.23-4.87,6.32-.05,0-.1,0-.15,0ZM9.54,2.39s-.08,0-.13,0c-2.61.08-4.66,2.57-4.57,5.56.04,1.42.65,2.77,1.72,3.79,1.02.98,2.34,1.51,3.61,1.48,2.49-.08,4.23-2.41,4.14-5.55-.04-1.46-.58-2.81-1.52-3.81-.89-.95-2.04-1.47-3.25-1.47Z"/>
      </g>
      <g>
        <path class="cls-4" d="M2.12,19.49l-.8,5.37c-.2,1.35.36,2.7,1.45,3.51l5.82,4.34,3.19-.87-6.59-6.2.6-3.88"/>
        <path class="cls-3" d="M8.6,33.09c-.08,0-.16-.03-.22-.07l-5.82-4.34c-1.2-.9-1.82-2.38-1.6-3.87l.8-5.37c.03-.21.22-.35.43-.32.2.03.35.22.32.43l-.8,5.37c-.18,1.21.32,2.42,1.3,3.15l5.67,4.23,2.37-.64-6.1-5.74c-.09-.08-.13-.21-.11-.33l.6-3.88c.03-.2.23-.35.43-.31.2.03.34.22.31.43l-.57,3.68,6.44,6.06c.1.09.14.23.11.36s-.13.24-.27.27l-3.19.87s-.07.01-.1.01Z"/>
      </g>
      <g>
        <path class="cls-3" d="M2.65,40.2c-.07,0-.14-.02-.2-.06-.17-.11-.23-.34-.12-.52l10.95-17.23c.11-.17.34-.23.52-.12.17.11.23.34.12.52L2.97,40.03c-.07.11-.19.17-.32.17Z"/>
        <path class="cls-3" d="M32.34,24.76s-.03,0-.05,0l-20.03-2.6c-.21-.03-.35-.21-.32-.42.03-.21.21-.34.42-.32l20.03,2.6c.21.03.35.21.32.42-.02.19-.19.33-.37.33Z"/>
        <g>
          <path class="cls-1" d="M20.2,23.16c.12-1.48,3.55-1.37,4.79-.55,3.88,2.56,10.01,8.05,11.51,13.61,1.34,4.99-1.12,10.68,1.21,15.29.47.93,1.13,1.73,1.8,2.53.53.62.92,1.28.53,2.11-.33.71-1.03,1.16-1.73,1.51-.7.35-1.45.63-2.03,1.14-.68.6-1.07,1.46-1.69,2.13-1.02,1.12-2.54,1.61-4.01,1.96s-3.01.6-4.29,1.4c-.8.49-1.46,1.16-2.23,1.7-1.22.86-2.7,1.33-4.19,1.38-.7.02-1.41-.19-2.1-.16-.53.03-.9.21-1.45.04-1.98-.62-3.04-3.21-3.79-4.94-1.02-2.33-1.49-4.9-1.33-7.44.17-2.54.94-5.05.78-7.59-.17-2.65-1.35-5.05-2.87-7.18-.84-1.18-1.26-2.61-1.23-4.05.09-4.51-.81-6.07,2.18-8.67,1.85-1.61,9.29,5.72,10.13-4.21Z"/>
          <path class="cls-3" d="M19.77,67.74c-.33,0-.66-.04-.97-.08-.35-.05-.69-.09-1-.07-.15,0-.29.03-.43.05-.34.06-.69.11-1.15-.03-2.06-.65-3.14-3.12-3.93-4.93l-.09-.21c-1.06-2.42-1.53-5.05-1.36-7.62.07-1.02.23-2.04.39-3.03.24-1.48.48-3.01.39-4.51-.15-2.26-1.06-4.55-2.8-6.99-.87-1.22-1.34-2.74-1.3-4.28.02-.97,0-1.81-.03-2.55-.09-2.74-.14-4.24,2.34-6.4.75-.65,2-.23,3.45.27,1.62.55,3.46,1.18,4.75.34,1-.66,1.61-2.19,1.81-4.57h0c.03-.34.2-.82.88-1.15,1.24-.6,3.51-.33,4.5.32,3.59,2.37,10.08,7.94,11.67,13.83.61,2.27.46,4.68.3,7.02-.19,2.95-.37,5.73.88,8.21.45.88,1.08,1.66,1.75,2.45.56.66,1.07,1.48.59,2.51-.41.87-1.28,1.38-1.9,1.68-.15.08-.31.15-.46.22-.55.26-1.07.5-1.49.87-.35.31-.63.71-.92,1.13-.23.33-.46.66-.74.97-1.11,1.21-2.75,1.73-4.21,2.07l-.67.15c-1.22.27-2.48.56-3.52,1.2-.43.27-.82.59-1.24.93-.32.26-.64.52-.97.76-1.26.88-2.82,1.39-4.39,1.44-.04,0-.08,0-.12,0ZM17.94,66.83c.33,0,.65.04.96.08.34.04.66.08.97.08,1.43-.05,2.85-.51,3.98-1.31.32-.22.62-.47.93-.72.41-.34.84-.69,1.32-.99,1.15-.71,2.47-1,3.75-1.29l.66-.15c1.35-.32,2.85-.78,3.82-1.85.24-.27.45-.57.67-.89.3-.44.62-.9,1.04-1.27.5-.44,1.09-.72,1.67-.98.15-.07.3-.14.45-.21.52-.26,1.25-.67,1.56-1.33.29-.61.03-1.11-.48-1.71-.7-.82-1.37-1.64-1.85-2.6-1.34-2.66-1.15-5.67-.96-8.59.15-2.27.3-4.62-.28-6.77-1.53-5.67-7.86-11.09-11.35-13.39-.8-.53-2.76-.75-3.75-.27-.43.21-.45.46-.46.54h0c-.22,2.66-.93,4.34-2.15,5.14-1.59,1.04-3.7.32-5.4-.26-1.17-.4-2.29-.78-2.71-.41-2.21,1.92-2.17,3.14-2.08,5.81.02.75.05,1.59.03,2.59-.03,1.37.38,2.73,1.16,3.83,1.82,2.55,2.78,4.96,2.94,7.37.1,1.58-.15,3.16-.39,4.68-.16.97-.32,1.97-.38,2.96-.16,2.45.29,4.96,1.3,7.27l.09.22c.73,1.68,1.73,3.97,3.47,4.52.29.09.51.06.81,0,.16-.03.32-.05.51-.06.06,0,.12,0,.18,0ZM20.2,23.16h0,0Z"/>
        </g>
        <path class="cls-3" d="M12.54,37.5s-.07,0-.1-.01l-3.35-.93c-.2-.05-.32-.26-.26-.46s.26-.32.46-.26l3.35.93c.2.06.32.26.26.46-.05.17-.2.27-.36.27Z"/>
        <path class="cls-3" d="M14.14,40.27s-.1,0-.15-.03c-1.05-.45-2.15-.81-3.28-1.06-.2-.04-.33-.25-.28-.45.04-.2.25-.33.45-.29,1.17.26,2.31.63,3.41,1.1.19.08.28.3.2.49-.06.14-.2.23-.34.23Z"/>
        <path class="cls-3" d="M16.48,43.74c-.05,0-.11-.01-.16-.04-1.26-.58-2.59-1.04-3.95-1.37-.2-.05-.33-.25-.28-.45.05-.2.25-.33.45-.28,1.41.33,2.78.81,4.09,1.42.19.09.27.31.18.5-.06.14-.2.22-.34.22Z"/>
        <path class="cls-3" d="M17.15,46.49s-.09,0-.14-.03c-1.19-.47-2.41-.87-3.64-1.2-.2-.05-.32-.26-.27-.46.05-.2.26-.32.46-.27,1.25.33,2.5.75,3.72,1.23.19.08.29.29.21.49-.06.15-.2.24-.35.24Z"/>
        <path class="cls-3" d="M17.89,49.08s-.07,0-.11-.02l-3.96-1.23c-.2-.06-.31-.27-.25-.47.06-.2.27-.3.47-.25l3.96,1.23c.2.06.31.27.25.47-.05.16-.2.26-.36.26Z"/>
        <path class="cls-3" d="M17.28,52.24s-.1,0-.14-.03l-3.15-1.32c-.19-.08-.28-.3-.2-.49.08-.19.3-.29.49-.2l3.15,1.32c.19.08.28.3.2.49-.06.14-.2.23-.35.23Z"/>
        <path class="cls-3" d="M17.62,55.24s-.05,0-.07,0c-1.11-.21-2.2-.54-3.24-.99-.19-.08-.28-.3-.2-.49.08-.19.3-.28.49-.2.99.43,2.02.74,3.08.94.2.04.34.23.3.44-.03.18-.19.3-.37.3Z"/>
        <path class="cls-3" d="M17.62,59.06s-.09,0-.13-.02l-4.22-1.59c-.19-.07-.29-.29-.22-.48.07-.19.29-.29.48-.22l4.22,1.59c.19.07.29.29.22.48-.06.15-.2.24-.35.24Z"/>
        <path class="cls-3" d="M18.15,61.33h0c-1.36-.03-2.71-.2-4.03-.52-.2-.05-.33-.25-.28-.45s.25-.33.45-.28c1.27.3,2.57.47,3.87.5.21,0,.37.18.37.38,0,.2-.17.37-.38.37Z"/>
        <path class="cls-3" d="M19.83,63.96s-.02,0-.03,0l-3.81-.33c-.21-.02-.36-.2-.34-.41.02-.21.2-.36.41-.34l3.81.33c.21.02.36.2.34.41-.02.2-.18.34-.37.34Z"/>
        <path class="cls-3" d="M10.79,33.86c-.21,0-.38-.17-.38-.38v-2.01c0-.21.17-.38.38-.38s.38.17.38.38v2.01c0,.21-.17.38-.38.38Z"/>
        <path class="cls-3" d="M14.81,37.38h0c-.21,0-.37-.17-.37-.38l.07-3.95c0-.2.17-.37.38-.37h0c.21,0,.37.17.37.38l-.07,3.95c0,.2-.17.37-.38.37Z"/>
        <path class="cls-3" d="M12.84,35.02h0c-.21,0-.37-.17-.37-.38l.07-3.95c0-.21.17-.37.38-.37h0c.21,0,.37.17.37.38l-.07,3.95c0,.2-.17.37-.38.37Z"/>
        <path class="cls-3" d="M16.61,39.59h-.01c-.21,0-.37-.18-.36-.39l.12-3.81c0-.21.17-.38.39-.36.21,0,.37.18.36.39l-.12,3.81c0,.2-.17.36-.38.36Z"/>
        <path class="cls-3" d="M18.1,41.87s-.01,0-.02,0c-.21-.01-.37-.19-.35-.4l.2-3.55c.01-.21.2-.39.4-.35.21.01.37.19.35.4l-.2,3.55c-.01.2-.18.35-.37.35Z"/>
        <path class="cls-3" d="M19.09,46.02s-.02,0-.03,0c-.21-.01-.36-.19-.35-.4.08-1.21.26-2.43.55-3.61.05-.2.25-.33.45-.28.2.05.33.25.28.45-.27,1.14-.45,2.31-.53,3.48-.01.2-.18.35-.37.35Z"/>
        <path class="cls-3" d="M19.1,50.3c-.05,0-.11-.01-.16-.03-.19-.09-.27-.31-.18-.5.51-1.11,1.04-2.21,1.58-3.3.09-.19.32-.26.5-.17.19.09.26.32.17.5-.54,1.09-1.06,2.18-1.57,3.29-.06.14-.2.22-.34.22Z"/>
        <path class="cls-3" d="M19.22,53.98c-.06,0-.11-.01-.17-.04-.19-.09-.26-.32-.17-.5l1.48-2.94c.09-.18.32-.26.5-.17.19.09.26.32.17.5l-1.48,2.94c-.07.13-.2.21-.34.21Z"/>
        <path class="cls-3" d="M19.72,56.85c-.05,0-.11-.01-.16-.04-.19-.09-.27-.31-.18-.5.58-1.21,1.22-2.42,1.9-3.57.11-.18.34-.24.51-.13.18.11.24.34.13.51-.68,1.14-1.31,2.32-1.87,3.51-.06.13-.2.21-.34.21Z"/>
        <path class="cls-3" d="M20.37,59.02c-.08,0-.16-.02-.22-.07-.17-.12-.2-.36-.08-.53l1.75-2.35c.12-.17.36-.2.52-.08.17.12.2.36.08.52l-1.75,2.35c-.07.1-.19.15-.3.15Z"/>
        <path class="cls-3" d="M21.37,62.05s-.03,0-.05,0c-.21-.03-.35-.21-.33-.42.12-.99.44-1.97.93-2.85.1-.18.33-.25.51-.14.18.1.25.33.15.51-.44.79-.73,1.68-.84,2.57-.02.19-.19.33-.37.33Z"/>
        <path class="cls-3" d="M22.73,64.55s-.06,0-.09-.01c-.2-.05-.32-.25-.28-.45.25-1.05.46-2.12.61-3.19.03-.21.22-.35.42-.32.21.03.35.22.32.42-.16,1.09-.37,2.18-.63,3.26-.04.17-.19.29-.36.29Z"/>
        <path class="cls-3" d="M20.3,31.62s-.03,0-.05,0c-1.2-.15-2.41-.36-3.59-.62-.2-.04-.33-.24-.29-.45.04-.2.25-.33.45-.29,1.16.25,2.35.46,3.53.61.21.03.35.21.32.42-.02.19-.19.33-.37.33Z"/>
        <path class="cls-3" d="M21.64,33.62s-.04,0-.06,0l-4.02-.7c-.2-.04-.34-.23-.31-.43.04-.21.23-.34.43-.3l4.02.7c.2.04.34.23.31.43-.03.18-.19.31-.37.31Z"/>
        <path class="cls-3" d="M22.37,36.25s-.02,0-.04,0l-3.55-.33c-.21-.02-.36-.2-.34-.41.02-.21.2-.36.41-.34l3.55.33c.21.02.36.2.34.41-.02.19-.18.34-.37.34Z"/>
        <path class="cls-3" d="M23.51,39.18h-.01c-1.11-.04-2.2-.24-3.26-.58-.2-.06-.3-.28-.24-.47.06-.2.28-.3.47-.24.99.32,2.01.51,3.05.55.21,0,.37.18.36.39,0,.2-.17.36-.37.36Z"/>
        <path class="cls-3" d="M24.31,42.06s-.06,0-.1-.01l-3.28-.87c-.2-.05-.32-.26-.27-.46s.26-.32.46-.27l3.28.87c.2.05.32.26.27.46-.04.17-.2.28-.36.28Z"/>
        <path class="cls-3" d="M25.72,44.86s-.08,0-.12-.02l-3.7-1.23c-.2-.07-.3-.28-.24-.47.07-.2.28-.3.47-.24l3.7,1.23c.2.07.3.28.24.47-.05.16-.2.26-.36.26Z"/>
        <path class="cls-3" d="M25.38,47.63s-.08,0-.12-.02l-3.21-1.07c-.2-.07-.3-.28-.24-.47.06-.2.28-.31.47-.24l3.21,1.07c.2.07.3.28.24.47-.05.16-.2.26-.36.26Z"/>
        <path class="cls-3" d="M25.98,50.23s-.08,0-.12-.02c-1.01-.35-2.06-.63-3.1-.85-.2-.04-.33-.24-.29-.44s.25-.33.44-.29c1.08.23,2.15.52,3.19.88.2.07.3.28.23.48-.05.16-.2.25-.35.25Z"/>
        <path class="cls-3" d="M26.39,52.43s-.04,0-.05,0c-1.16-.17-2.32-.46-3.43-.87-.19-.07-.29-.29-.22-.48.07-.19.29-.29.48-.22,1.06.39,2.16.67,3.27.83.21.03.35.22.32.43-.03.19-.19.32-.37.32Z"/>
        <path class="cls-3" d="M25.82,54.19c-.8,0-1.61-.03-2.4-.08-.21-.01-.36-.19-.35-.4.01-.21.2-.36.4-.35,1.08.07,2.17.09,3.25.07.22,0,.38.16.38.37,0,.21-.16.38-.37.38-.3,0-.6.01-.91.01Z"/>
        <path class="cls-3" d="M27.86,56.38s-.02,0-.04,0c-1.26-.12-2.53-.3-3.78-.53-.2-.04-.34-.23-.3-.44.04-.2.24-.33.44-.3,1.23.23,2.48.4,3.72.52.21.02.36.2.34.41-.02.19-.18.34-.37.34Z"/>
        <path class="cls-3" d="M28.46,59.13s-.04,0-.06,0c-1.49-.22-2.99-.54-4.46-.94-.2-.05-.32-.26-.26-.46.05-.2.26-.32.46-.26,1.44.39,2.91.7,4.38.92.2.03.35.22.32.43-.03.19-.19.32-.37.32Z"/>
        <path class="cls-3" d="M30.4,61.33s-.03,0-.05,0l-5.09-.65c-.21-.03-.35-.21-.32-.42.03-.21.21-.35.42-.33l5.09.65c.21.03.35.21.32.42-.02.19-.19.33-.37.33Z"/>
        <path class="cls-3" d="M21.44,30.43s-.02,0-.03,0c-.21-.01-.36-.19-.35-.4.06-.9.19-1.8.39-2.67.05-.2.25-.33.45-.28.2.05.33.25.28.45-.19.84-.32,1.7-.38,2.55-.01.2-.18.35-.37.35Z"/>
        <path class="cls-3" d="M23.32,32.63s-.02,0-.03,0c-.21-.02-.36-.2-.34-.4.09-1.16.31-2.32.65-3.43.06-.2.27-.31.47-.25.2.06.31.27.25.47-.32,1.06-.53,2.17-.62,3.28-.02.2-.18.35-.37.35Z"/>
        <path class="cls-3" d="M24.17,35.11s-.07,0-.1-.01c-.2-.06-.31-.26-.26-.46l1.07-3.75c.06-.2.26-.31.46-.26.2.06.31.26.26.46l-1.07,3.75c-.05.16-.2.27-.36.27Z"/>
        <path class="cls-3" d="M25.52,37.52s-.03,0-.04,0c-.21-.02-.35-.21-.33-.41.13-1.19.38-2.36.75-3.49.06-.2.28-.3.47-.24.2.06.3.28.24.47-.35,1.08-.6,2.2-.72,3.34-.02.19-.18.33-.37.33Z"/>
        <path class="cls-3" d="M26.66,40.53s-.07,0-.11-.02c-.2-.06-.31-.27-.25-.47.45-1.45.93-2.9,1.44-4.31.07-.2.28-.3.48-.23.19.07.3.29.23.48-.51,1.41-.99,2.84-1.43,4.28-.05.16-.2.26-.36.26Z"/>
        <path class="cls-3" d="M27.18,44.01s-.07,0-.1-.01c-.2-.06-.31-.27-.26-.46.41-1.41.89-2.82,1.43-4.18.08-.19.29-.28.49-.21.19.08.29.29.21.49-.53,1.34-1.01,2.72-1.41,4.11-.05.17-.2.27-.36.27Z"/>
        <path class="cls-3" d="M28.34,47.22s-.07,0-.1-.01c-.2-.05-.32-.26-.26-.46l1.18-4.29c.06-.2.26-.32.46-.26.2.05.32.26.26.46l-1.18,4.29c-.05.17-.2.28-.36.28Z"/>
        <path class="cls-3" d="M28.86,51.91s-.06,0-.09,0c-.2-.05-.33-.25-.28-.45.41-1.72,1.04-3.38,1.88-4.93.1-.18.33-.25.51-.15.18.1.25.33.15.51-.81,1.49-1.41,3.09-1.81,4.75-.04.17-.19.29-.36.29Z"/>
        <path class="cls-3" d="M29.94,55.99s-.05,0-.07,0c-.2-.04-.34-.24-.3-.44.29-1.5.62-3.02.98-4.51.05-.2.25-.33.45-.28.2.05.32.25.28.45-.36,1.48-.68,2.98-.97,4.47-.03.18-.19.3-.37.3Z"/>
        <path class="cls-3" d="M31.79,59.27c-.18,0-.34-.13-.37-.31-.22-1.33-.17-2.72.14-4.03.05-.2.25-.33.45-.28.2.05.33.25.28.45-.29,1.21-.33,2.51-.13,3.74.03.2-.1.4-.31.43-.02,0-.04,0-.06,0Z"/>
        <path class="cls-3" d="M26.85,26.48s-.03,0-.04,0c-1.11-.13-2.24-.17-3.36-.13-.18,0-.38-.15-.39-.36s.15-.38.36-.39c1.15-.04,2.32,0,3.47.14.21.02.35.21.33.42-.02.19-.18.33-.37.33Z"/>
        <path class="cls-3" d="M29.46,29.01s-.04,0-.06,0c-1.53-.25-3.09-.4-4.63-.44-.21,0-.37-.18-.37-.38,0-.2.17-.37.38-.37h0c1.58.04,3.18.19,4.74.45.2.03.34.23.31.43-.03.18-.19.31-.37.31Z"/>
        <path class="cls-3" d="M30.67,31.42s-.04,0-.05,0l-3.75-.54c-.21-.03-.35-.22-.32-.42.03-.21.22-.36.42-.32l3.75.54c.21.03.35.22.32.42-.03.19-.19.32-.37.32Z"/>
        <path class="cls-3" d="M32.07,33.83h0c-1.3-.03-2.61-.16-3.88-.39-.2-.04-.34-.23-.3-.44.04-.2.23-.33.44-.3,1.23.22,2.5.35,3.76.38.21,0,.37.18.37.38,0,.2-.17.37-.38.37Z"/>
        <path class="cls-3" d="M33.68,36.58s-.03,0-.04,0l-3.48-.39c-.21-.02-.35-.21-.33-.42.02-.21.21-.34.41-.33l3.48.39c.21.02.35.21.33.42-.02.19-.18.33-.37.33Z"/>
        <path class="cls-3" d="M34.75,39.59s-.04,0-.06,0c-1.41-.22-2.83-.49-4.24-.79-.2-.04-.33-.24-.29-.45.04-.2.25-.33.45-.29,1.39.3,2.8.56,4.2.79.2.03.34.22.31.43-.03.18-.19.32-.37.32Z"/>
        <path class="cls-3" d="M34.41,41.67s-.03,0-.04,0c-1.09-.13-2.19-.33-3.26-.61-.2-.05-.32-.26-.27-.46.05-.2.26-.32.46-.27,1.04.27,2.1.47,3.16.59.21.02.35.21.33.42-.02.19-.18.33-.37.33Z"/>
        <path class="cls-3" d="M34.75,44s-.04,0-.05,0c-.97-.14-1.9-.42-2.78-.83-.19-.09-.27-.31-.18-.5.09-.19.31-.27.5-.18.81.38,1.68.63,2.57.76.21.03.35.22.32.42-.03.19-.19.32-.37.32Z"/>
        <path class="cls-3" d="M34.88,46.29h-.01c-.78-.03-1.55-.2-2.27-.5-.19-.08-.28-.3-.2-.49.08-.19.3-.28.49-.2.64.27,1.31.42,2.01.44.21,0,.37.18.36.39,0,.2-.17.36-.37.36Z"/>
        <path class="cls-3" d="M35.69,48.82s-.02,0-.03,0c-.97-.08-1.94-.24-2.87-.47-.2-.05-.32-.25-.27-.46.05-.2.26-.32.46-.27.9.23,1.82.38,2.75.45.21.02.36.2.34.4-.02.2-.18.35-.37.35Z"/>
        <path class="cls-3" d="M36.35,51.77s-.05,0-.07,0c-1.06-.2-2.14-.34-3.23-.41-.21-.01-.36-.19-.35-.4.01-.21.19-.38.4-.35,1.12.07,2.24.21,3.32.42.2.04.34.23.3.44-.03.18-.19.3-.37.3Z"/>
        <path class="cls-3" d="M37.56,54.71s-.04,0-.05,0l-4.08-.58c-.21-.03-.35-.22-.32-.42s.22-.36.42-.32l4.08.58c.2.03.35.22.32.42-.03.19-.19.32-.37.32Z"/>
        <circle class="cls-3" cx="1.96" cy="40.77" r="1.6"/>
        <circle class="cls-3" cx="32.97" cy="24.55" r="1.6"/>
      </g>
      <g>
        <polyline class="cls-5" points="3.44 15.04 2.76 15.37 .38 23.63 6.54 24.75 6.98 21.08"/>
        <path class="cls-3" d="M6.54,25.13s-.04,0-.07,0l-6.16-1.12c-.1-.02-.2-.08-.25-.17-.06-.09-.07-.2-.04-.3l2.38-8.26c.03-.1.1-.19.2-.23l.68-.33c.19-.09.41-.01.5.17.09.19.01.41-.17.5l-.53.26-2.22,7.7,5.36.97.4-3.28c.02-.21.21-.35.42-.33.21.02.35.21.33.42l-.44,3.67c-.01.1-.07.2-.15.26-.06.05-.14.07-.22.07Z"/>
      </g>
      <g>
        <path class="cls-4" d="M11.97,26.69c.24.09.49.19.67.37s.27.48.15.7c-.18.34-.69.34-.96.61-.26.26-.25.72-.52.97-.17.16-.43.21-.66.24-.37.06-.74.11-1.11.13-.59.03-1.27-.1-1.52-.7-.22-.51-.06-.92.33-1.27.44-.4.94-.94,1.48-1.19.69-.33,1.48-.12,2.16.13Z"/>
        <path class="cls-3" d="M9.4,30.1c-.86,0-1.47-.33-1.73-.93-.19-.43-.26-1.08.42-1.7l.27-.25c.38-.36.82-.77,1.3-1,.82-.39,1.74-.14,2.45.12.28.1.57.22.81.46.31.32.4.79.21,1.14-.17.31-.47.44-.71.53-.13.05-.26.1-.32.17s-.12.2-.17.34c-.08.21-.16.45-.36.64-.27.25-.63.3-.86.34-.38.06-.76.11-1.15.13-.05,0-.1,0-.15,0ZM10.61,26.77c-.22,0-.43.04-.63.13-.37.18-.76.54-1.1.87l-.28.26c-.36.33-.35.57-.24.85.18.42.74.5,1.16.47.36-.02.71-.07,1.07-.12.2-.03.37-.06.46-.15.07-.07.12-.2.17-.34.07-.2.15-.43.34-.62.17-.17.38-.26.57-.33.15-.06.29-.12.33-.19.03-.06,0-.19-.09-.27-.12-.13-.32-.21-.52-.28t0,0c-.39-.14-.83-.28-1.24-.28Z"/>
      </g>
      <g>
        <path class="cls-4" d="M20.36,22.34c-.15.21-.3.42-.35.68s.04.55.26.67c.34.19.76-.09,1.14-.01.36.08.6.46.97.53.24.04.47-.06.69-.16.34-.15.68-.31,1-.5.51-.3,1-.78.89-1.42-.1-.55-.45-.8-.97-.88-.59-.09-1.3-.27-1.89-.19-.75.1-1.3.71-1.73,1.29Z"/>
        <path class="cls-3" d="M22.49,24.58c-.06,0-.11,0-.17-.01-.27-.05-.48-.2-.65-.33-.12-.09-.23-.17-.33-.19-.09-.02-.22,0-.36.03-.26.05-.57.11-.88-.06-.35-.19-.53-.63-.45-1.07.06-.33.24-.59.42-.83h0c.45-.61,1.08-1.32,1.98-1.44.53-.08,1.12.03,1.64.13l.36.06c.91.14,1.2.73,1.28,1.19.12.68-.26,1.33-1.07,1.81-.33.2-.68.36-1.03.52-.18.08-.44.2-.73.2ZM21.26,23.28c.07,0,.15,0,.23.02.26.05.45.2.63.33.12.09.23.18.33.19.12.02.28-.05.47-.13.33-.15.65-.3.96-.48.37-.22.79-.58.71-1.03-.05-.29-.18-.5-.66-.58l-.38-.07c-.47-.08-.99-.18-1.4-.12-.62.08-1.1.63-1.48,1.14-.13.18-.25.35-.28.52-.02.12.02.24.07.27.07.04.22.01.38-.02.13-.03.28-.05.43-.05Z"/>
      </g>
      <g>
        <path class="cls-3" d="M4.58,8.94s-.22-1.95-.25-3.22c-.09-4.5,3.91-4.97,4.95-5.35l.07.31c.7-.04,1.4-.12,2.09-.23,0,.16,0,.55.01.57.03.05,1.75.14,2.33.17l-.62.82c.42.33,1.3.87,1.73,1.2-.24.06-.57.24-.78.36.35.4.74.77,1.14,1.11l-1,.18.57,1.07c-.32-.06-2.49-.84-2.81-.9.04.16.13.84.21.99,0,0-5.11-.91-5.69-.99v2.22s-.8-.85-1.5,0c-.9,1.08.66,2.43.66,2.43l-1.11-.74Z"/>
        <path class="cls-3" d="M5.7,10.06c-.07,0-.14-.02-.21-.06l-1.11-.74c-.09-.06-.15-.16-.17-.27,0-.08-.22-1.98-.25-3.25C3.87,1.49,7.24.56,8.68.17c.2-.05.36-.1.48-.14.1-.04.21-.03.31.02.09.05.16.14.19.24.58-.04,1.16-.11,1.74-.21.11-.01.22.01.31.08.08.07.13.18.13.29,0,.06,0,.15,0,.24.46.04,1.39.09,1.98.12.14,0,.26.09.32.22s.04.27-.04.38l-.39.52c.17.11.35.24.54.37.33.22.67.45.88.61.11.09.17.23.14.37-.03.14-.13.25-.27.29-.08.02-.17.06-.27.1.25.25.51.5.78.72.11.09.16.24.12.38-.04.14-.15.25-.29.27l-.49.09.33.61c.07.13.06.28-.03.4-.08.12-.23.18-.37.15-.18-.03-.67-.2-1.46-.47-.25-.09-.55-.19-.81-.27.02.13.05.24.07.29.05.13.04.28-.05.39-.09.11-.22.17-.35.15-.04,0-3.88-.69-5.25-.92v1.78c.01.15-.08.29-.22.35-.14.06-.3.02-.41-.09-.07-.08-.29-.3-.56-.26-.14,0-.27.08-.4.24-.65.78.61,1.9.62,1.91.15.13.17.35.05.51-.07.1-.19.15-.3.15ZM9.02.85s-.1.03-.15.04c-1.48.41-4.24,1.17-4.17,4.83,0,.38.03.82.07,1.26.33-.37.67-.46.91-.47.17,0,.34.03.48.08v-1.55c-.01-.11.04-.21.12-.28.08-.07.19-.1.3-.09.47.06,3.79.65,5.15.89-.01-.06-.02-.13-.04-.21-.02-.1-.03-.18-.04-.23-.03-.12,0-.25.1-.34.09-.09.21-.13.34-.11.18.03.67.2,1.46.47.16.06.35.12.52.18l-.14-.26c-.06-.11-.06-.23,0-.34.05-.11.15-.18.27-.21l.25-.04c-.21-.2-.41-.41-.6-.63-.07-.08-.11-.2-.09-.31.02-.11.08-.21.18-.26.03-.02.11-.06.21-.12-.1-.07-.21-.14-.31-.21-.33-.22-.67-.45-.88-.61-.16-.12-.19-.36-.07-.52l.19-.26c-1.77-.09-1.81-.14-1.91-.31-.05-.07-.07-.12-.07-.34-.56.08-1.13.14-1.7.17-.15.03-.29-.08-.36-.21Z"/>
      </g>
    </g>
  </g>
</svg>