<svg width="201" height="40" viewBox="0 0 201 40" fill="none" xmlns="http://www.w3.org/2000/svg">
<path d="M54.7761 31.4217C54.7761 31.0146 54.768 30.9984 54.5197 30.9984H53.9824C53.1033 30.9984 52.8469 31.1042 52.4928 31.8857C52.4276 31.9426 52.2241 31.9141 52.1875 31.8205C52.3503 31.2996 52.4928 30.6972 52.5579 30.3593C52.5782 30.3309 52.6149 30.3186 52.6637 30.3186C52.7003 30.3186 52.737 30.3268 52.7573 30.3593C52.8062 30.5995 52.9364 30.6117 53.5876 30.6117H57.4787C57.9427 30.6117 58.0892 30.5832 58.2032 30.3593C58.2398 30.339 58.2765 30.3186 58.3172 30.3186C58.3741 30.3186 58.423 30.339 58.4393 30.3675C58.3457 30.7664 58.2683 31.5967 58.2968 31.906C58.248 31.9833 58.0852 32.0037 57.9997 31.9345C57.8735 31.1815 57.6944 30.9984 56.6728 30.9984H56.1315C55.8832 30.9984 55.871 31.0187 55.871 31.4217V35.5976C55.871 36.6233 55.9565 36.6518 56.4083 36.7007L56.7501 36.7373C56.8153 36.8065 56.8071 36.9815 56.7298 37.0181C56.1763 36.9978 55.7448 36.9896 55.3256 36.9896C54.9064 36.9896 54.4587 36.9978 53.8481 37.0181C53.7708 36.9815 53.7627 36.7861 53.8278 36.7373L54.2266 36.6884C54.6744 36.6518 54.7598 36.6193 54.7598 35.5976V31.4217H54.7761Z" fill="#E50057"/>
<path d="M61.0524 33.3428C61.0524 33.4608 61.0686 33.5097 61.1378 33.5097C61.4716 33.2573 61.8827 33.0457 62.3589 33.0457C63.1811 33.0457 63.5799 33.5788 63.5799 34.401V35.8419C63.5799 36.5582 63.6206 36.664 63.9422 36.7129L64.162 36.7414C64.2474 36.8106 64.2393 36.9856 64.1416 37.0222C63.7427 37.0019 63.4171 36.9937 63.063 36.9937C62.7496 36.9937 62.424 37.0019 62.0903 37.0222C62.0129 36.9856 62.0048 36.8106 62.0699 36.7414L62.2164 36.721C62.538 36.664 62.5787 36.5582 62.5787 35.8419V34.4743C62.5787 34.0103 62.3792 33.6236 61.8176 33.6236C61.5001 33.6236 61.2844 33.7783 61.1704 33.9045C61.0646 34.0225 61.0564 34.1649 61.0564 34.5435V35.8378C61.0564 36.5541 61.0931 36.66 61.4187 36.7169L61.5611 36.7373C61.6263 36.8065 61.6181 36.9815 61.5408 37.0181C61.207 36.9978 60.8814 36.9896 60.5314 36.9896C60.2261 36.9896 59.9005 36.9978 59.5016 37.0181C59.4243 36.9815 59.4162 36.8065 59.4813 36.7373L59.6929 36.7088C60.0145 36.66 60.0552 36.5541 60.0552 35.8378V31.6903C60.0552 31.0431 60.043 30.9739 59.8354 30.8518L59.7011 30.7664C59.6441 30.7297 59.6319 30.571 59.7011 30.5425C60.0714 30.4367 60.5599 30.2332 60.9506 30.0785C61.0076 30.0704 61.0646 30.107 61.0849 30.1558C61.0646 30.5425 61.0564 31.1408 61.0564 31.56V33.3428H61.0524Z" fill="#E50057"/>
<path d="M66.4383 34.6981C66.2592 34.6981 66.2389 34.7063 66.2389 34.8243C66.2389 35.6953 66.829 36.3913 67.6756 36.3913C68.0582 36.3913 68.3716 36.2651 68.5914 35.907C68.6891 35.8785 68.7908 35.9762 68.8031 36.0616C68.4774 36.835 67.7733 37.1239 67.1913 37.1239C66.0842 37.1239 65.3516 36.2936 65.3516 35.1906C65.3516 34.0998 66.0842 33.0456 67.3622 33.0456C68.0704 33.0456 68.7908 33.5096 68.7908 34.3522C68.7908 34.4376 68.7827 34.4987 68.742 34.576C68.685 34.6615 68.4652 34.7022 68.0867 34.7022H66.4383V34.6981ZM67.3134 34.3115C67.5901 34.3115 67.7123 34.283 67.7814 34.2423C67.8384 34.2016 67.8791 34.1242 67.8791 34.0388C67.8791 33.6887 67.6593 33.412 67.2483 33.412C66.6092 33.412 66.3121 34.0388 66.3121 34.2423C66.3121 34.2789 66.3325 34.3115 66.4464 34.3115H67.3134Z" fill="#E50057"/>
<path d="M79.1776 35.9843C79.1776 36.3221 79.2264 36.5745 79.4096 36.6599C79.434 36.7007 79.434 36.778 79.3974 36.8065C79.2916 36.8065 79.1206 36.835 78.9375 36.8838C78.3473 37.0181 77.6309 37.1443 77.0896 37.1443C75.9459 37.1443 74.8673 36.835 74.151 36.082C73.5893 35.4918 73.3125 34.6819 73.3125 33.8678C73.3125 33.0538 73.5893 32.2235 74.1917 31.5967C74.8673 30.8722 75.9093 30.457 77.2321 30.457C77.6798 30.457 78.1682 30.5344 78.502 30.6035C78.7217 30.6524 78.9985 30.689 79.1125 30.689C79.1206 30.978 79.1898 31.4705 79.2387 32.2275C79.1898 32.3252 78.9822 32.3334 78.9334 32.2479C78.7217 31.3077 78.0461 30.8437 77.1018 30.8437C75.4249 30.8437 74.615 32.0729 74.615 33.7172C74.615 34.4906 74.7859 35.3209 75.2987 35.9395C75.8156 36.5582 76.5768 36.7617 77.1425 36.7617C77.5984 36.7617 77.8751 36.6844 77.9891 36.5378C78.0461 36.4524 78.0746 36.2774 78.0746 35.9273V35.5814C78.0746 34.8935 78.0664 34.8365 77.4274 34.7307L77.0855 34.6737C77.0163 34.6045 77.0163 34.4417 77.0937 34.3929C77.4681 34.4132 77.924 34.4214 78.5834 34.4214C79.0107 34.4214 79.3363 34.4132 79.7474 34.3929C79.8451 34.4417 79.8533 34.6045 79.7678 34.6737L79.5968 34.7022C79.2427 34.751 79.1857 34.8365 79.1857 35.4267V35.9843H79.1776Z" fill="#E50057"/>
<path d="M83.0304 36.1268C83.0222 36.3588 82.9123 36.5948 82.5704 36.5948C82.2082 36.5948 82.0372 36.2855 82.0372 36.0332C82.0372 35.618 82.2855 35.4837 82.5542 35.386C82.7292 35.3168 82.9001 35.272 82.9734 35.272C83.0222 35.272 83.0466 35.329 83.0466 35.4348L83.0304 36.1268ZM84.052 34.2504C84.0886 33.3998 83.6246 33.0416 82.8716 33.0416C82.3832 33.0416 81.6994 33.3713 81.4023 33.6521C81.0889 33.9492 81.0319 34.1527 81.0319 34.2708C81.0319 34.3562 81.0889 34.4254 81.2151 34.4254C81.4267 34.4254 81.6913 34.34 81.8256 34.2504C81.9314 34.1853 81.9884 34.0876 82.0047 33.9045C82.0413 33.6236 82.2448 33.4771 82.5094 33.4771C82.9774 33.4771 83.1118 33.9045 83.0914 34.397L83.0792 34.6493C83.0792 34.747 83.0507 34.8325 82.8594 34.9017C82.5053 35.036 82.1431 35.1703 81.8093 35.2883C81.1499 35.5203 81.0156 35.8378 81.0156 36.1878C81.0156 36.6722 81.3412 37.124 81.9884 37.124C82.3303 37.124 82.6152 36.9896 82.7984 36.8716C82.9408 36.7861 83.01 36.7373 83.0588 36.7373C83.1077 36.7373 83.1443 36.7861 83.2094 36.8553C83.3926 37.0588 83.6612 37.124 83.8973 37.124C84.1944 37.124 84.6625 36.9693 84.8497 36.6966C84.8782 36.6111 84.809 36.5012 84.7642 36.5012C84.7358 36.5012 84.6014 36.6071 84.4427 36.6071C84.1008 36.6071 83.9543 36.3181 83.9868 35.7564L84.052 34.2504Z" fill="#E50057"/>
<path d="M86.3297 34.4173C86.3297 33.9818 86.3297 33.8678 86.0896 33.7213L85.9756 33.6521C85.9471 33.6114 85.9471 33.4771 85.9878 33.4282C86.3989 33.2939 86.9036 33.0823 87.1885 32.9073C87.2455 32.9073 87.3025 32.9358 87.3228 32.9927C87.3106 33.1759 87.3025 33.3428 87.3025 33.4282C87.3025 33.4974 87.3391 33.5463 87.3961 33.5463C87.6932 33.3346 88.0066 33.0416 88.3322 33.0416C88.666 33.0416 88.8573 33.2654 88.8573 33.5178C88.8573 33.8963 88.5805 34.0795 88.3241 34.0795C88.2264 34.0795 88.1409 34.051 88.0677 34.0021C87.8316 33.8393 87.6647 33.819 87.6118 33.819C87.392 33.819 87.335 34.0428 87.335 34.515V35.8378C87.335 36.5541 87.3717 36.66 87.7054 36.6966L88.0758 36.7332C88.1409 36.8024 88.1328 36.9774 88.0554 37.0141C87.4815 36.9937 87.16 36.9856 86.8059 36.9856C86.4925 36.9856 86.175 36.9937 85.8128 37.0141C85.7395 36.9774 85.7273 36.8024 85.7924 36.7332L85.9634 36.7047C86.289 36.6559 86.3256 36.5501 86.3256 35.8337V34.4173H86.3297Z" fill="#E50057"/>
<path d="M92.5739 36.0616C92.5739 36.196 92.5535 36.2855 92.5047 36.3303C92.4314 36.4198 92.1709 36.5419 91.943 36.5419C91.2633 36.5419 90.7505 35.8866 90.7505 34.8894C90.7505 34.0754 91.1616 33.4282 91.8087 33.4282C92.1058 33.4282 92.3175 33.5748 92.4477 33.7579C92.5413 33.8922 92.5698 34.0266 92.5698 34.2219V36.0616H92.5739ZM93.5752 31.556C93.5752 31.1408 93.5833 30.5425 93.6036 30.1518C93.5833 30.1029 93.5263 30.0663 93.4693 30.0744C93.0867 30.2291 92.5902 30.4326 92.2198 30.5384C92.1506 30.5669 92.1628 30.7216 92.2198 30.7623L92.35 30.8478C92.5617 30.9739 92.5698 31.0391 92.5698 31.6862V32.952C92.5698 33.0579 92.5495 33.0986 92.5128 33.1067C92.3907 33.0701 92.2076 33.0375 91.9634 33.0375C90.7708 33.0375 89.6719 33.8678 89.6719 35.2639C89.6719 36.2285 90.3475 37.1199 91.4342 37.1199C91.8942 37.1199 92.2483 36.896 92.5332 36.6844L92.578 36.6925C92.5983 36.7414 92.5983 36.8187 92.5861 36.9652L92.5698 37.1077C92.5861 37.1647 92.635 37.2054 92.6838 37.2135C93.0298 37.0588 93.7054 36.892 94.1898 36.8472C94.2956 36.7902 94.2752 36.5582 94.1979 36.4971C94.0554 36.5541 93.9048 36.5867 93.799 36.5867C93.6362 36.5867 93.5711 36.2855 93.5711 35.4063V31.556H93.5752Z" fill="#E50057"/>
<path d="M96.4271 34.3115C96.3131 34.3115 96.2928 34.283 96.2928 34.2423C96.2928 34.0388 96.5858 33.412 97.2289 33.412C97.64 33.412 97.8598 33.6928 97.8598 34.0388C97.8598 34.1242 97.8231 34.2016 97.7621 34.2423C97.697 34.2789 97.5708 34.3115 97.2981 34.3115H96.4271ZM98.0673 34.6981C98.4499 34.6981 98.6657 34.6574 98.7226 34.572C98.7593 34.4946 98.7715 34.4377 98.7715 34.3481C98.7715 33.5056 98.047 33.0416 97.3429 33.0416C96.0648 33.0416 95.3281 34.0958 95.3281 35.1866C95.3281 36.2896 96.0648 37.1199 97.1678 37.1199C97.7499 37.1199 98.454 36.8309 98.7796 36.0576C98.7674 35.968 98.6657 35.8744 98.568 35.9029C98.3482 36.2611 98.0348 36.3873 97.6522 36.3873C96.8056 36.3873 96.2154 35.6913 96.2154 34.8202C96.2154 34.7022 96.2317 34.6941 96.4149 34.6941H98.0673V34.6981Z" fill="#E50057"/>
<path d="M101.541 35.8378C101.541 36.5541 101.577 36.66 101.903 36.7169L102.046 36.7373C102.111 36.8065 102.102 36.9815 102.025 37.0181C101.691 36.9978 101.37 36.9896 101.016 36.9896C100.71 36.9896 100.389 36.9978 99.986 37.0181C99.9087 36.9815 99.9005 36.8065 99.9657 36.7373L100.177 36.7088C100.503 36.66 100.54 36.5541 100.54 35.8378V34.4173C100.54 33.9818 100.54 33.8678 100.299 33.7213L100.185 33.6521C100.157 33.6114 100.157 33.4771 100.194 33.4282C100.605 33.3143 101.126 33.0823 101.435 32.9073C101.5 32.9073 101.541 32.9439 101.557 32.9846C101.541 33.1678 101.541 33.3509 101.541 33.4282C101.541 33.4974 101.569 33.5178 101.626 33.5259C102.078 33.2736 102.343 33.0416 102.933 33.0416C103.706 33.0416 104.068 33.5829 104.068 34.3359V35.8337C104.068 36.5501 104.105 36.6559 104.431 36.7047L104.65 36.7332C104.716 36.8024 104.707 36.9774 104.63 37.0141C104.231 36.9937 103.906 36.9856 103.551 36.9856C103.238 36.9856 102.912 36.9937 102.579 37.0141C102.505 36.9774 102.493 36.8024 102.562 36.7332L102.705 36.7129C103.026 36.6559 103.067 36.5501 103.067 35.8337V34.4987C103.067 34.0062 102.88 33.6195 102.302 33.6195C102.009 33.6195 101.769 33.7742 101.671 33.9207C101.549 34.0958 101.537 34.1812 101.537 34.5394V35.8378H101.541Z" fill="#E50057"/>
<path d="M110.162 35.0075C110.162 33.933 110.541 33.4323 111.029 33.4323C111.734 33.4323 112.01 34.3888 112.01 35.2028C112.01 35.9477 111.819 36.7414 111.164 36.7414C110.476 36.7373 110.162 35.8866 110.162 35.0075ZM111.127 33.0416C110.008 33.0416 109.039 33.8556 109.039 35.1499C109.039 36.4158 109.955 37.1199 111.054 37.1199C112.185 37.1199 113.142 36.4035 113.142 35.0319C113.138 33.7783 112.202 33.0416 111.127 33.0416Z" fill="#E50057"/>
<path d="M116.234 33.6318C116.035 33.6318 116.035 33.6521 116.035 33.9329V35.8378C116.035 36.5541 116.075 36.66 116.409 36.6966L116.784 36.7332C116.849 36.8024 116.841 36.9774 116.763 37.0141C116.336 36.9937 115.961 36.9856 115.514 36.9856C115.2 36.9856 114.875 36.9937 114.484 37.0141C114.411 36.9774 114.398 36.8024 114.468 36.7332L114.675 36.7047C115.001 36.6559 115.042 36.5501 115.042 35.8337V33.9207C115.042 33.6602 115.033 33.6318 114.871 33.6318H114.525C114.447 33.5951 114.427 33.4689 114.496 33.4079L114.907 33.1962C114.972 33.1555 115.042 33.0986 115.042 32.9846V32.8096C115.042 32.3944 115.078 31.9182 115.241 31.4257C115.489 30.6605 116.132 30.0704 117.028 30.0704C117.687 30.0704 118.115 30.3716 118.115 30.7745C118.115 31.0472 117.874 31.2385 117.646 31.2385C117.504 31.2385 117.431 31.1815 117.37 31.1042C117.064 30.6605 116.853 30.4652 116.625 30.4652C116.303 30.4652 116.043 31.1245 116.043 32.5735V32.8625C116.043 33.1515 116.051 33.1718 116.254 33.1718H117.256C117.292 33.2003 117.309 33.2573 117.309 33.3265C117.309 33.4893 117.256 33.5788 117.174 33.6277H116.234V33.6318Z" fill="#E50057"/>
<path d="M123.782 33.8963C123.293 33.8963 123.269 33.9167 123.269 34.1772V35.5976C123.269 36.6233 123.354 36.6518 123.802 36.7007L124.091 36.7373C124.156 36.8065 124.148 36.9815 124.07 37.0181C123.574 36.9978 123.147 36.9896 122.727 36.9896C122.308 36.9896 121.877 36.9978 121.514 37.0181C121.437 36.9815 121.429 36.8065 121.494 36.7373L121.628 36.7169C122.076 36.6518 122.162 36.6193 122.162 35.5976V31.9996C122.162 30.9739 122.076 30.9454 121.628 30.8885L121.421 30.86C121.352 30.8111 121.364 30.6198 121.437 30.5791C121.856 30.5995 122.304 30.6076 122.723 30.6076C123.142 30.6076 123.574 30.5995 123.944 30.5791C124.022 30.6198 124.03 30.8111 123.961 30.86L123.798 30.8885C123.35 30.9454 123.265 30.9739 123.265 31.9996V33.1678C123.265 33.4405 123.293 33.4567 123.777 33.4567H126.012C126.5 33.4567 126.525 33.4364 126.525 33.1678V31.9996C126.525 30.9739 126.439 30.9454 125.992 30.8885L125.78 30.86C125.715 30.8111 125.723 30.6198 125.8 30.5791C126.24 30.5995 126.667 30.6076 127.086 30.6076C127.506 30.6076 127.933 30.5995 128.316 30.5791C128.389 30.6198 128.401 30.8111 128.336 30.86L128.165 30.8885C127.717 30.9454 127.632 30.9739 127.632 31.9996V35.5976C127.632 36.6233 127.717 36.6518 128.165 36.7088L128.373 36.7373C128.438 36.8065 128.43 36.9815 128.356 37.0181C127.937 36.9978 127.506 36.9896 127.091 36.9896C126.651 36.9896 126.224 36.9978 125.804 37.0181C125.727 36.9815 125.719 36.8065 125.784 36.7373L125.996 36.7088C126.443 36.6518 126.529 36.6233 126.529 35.5976V34.1772C126.529 33.9167 126.5 33.8963 126.016 33.8963H123.782Z" fill="#E50057"/>
<path d="M130.838 35.0075C130.838 33.933 131.221 33.4323 131.705 33.4323C132.414 33.4323 132.69 34.3888 132.69 35.2028C132.69 35.9477 132.499 36.7414 131.84 36.7414C131.152 36.7373 130.838 35.8866 130.838 35.0075ZM131.799 33.0416C130.684 33.0416 129.711 33.8556 129.711 35.1499C129.711 36.4158 130.627 37.1199 131.722 37.1199C132.857 37.1199 133.81 36.4035 133.81 35.0319C133.814 33.7783 132.882 33.0416 131.799 33.0416Z" fill="#E50057"/>
<path d="M136.605 34.4539C136.605 34.0469 136.633 33.8841 136.707 33.7986C136.821 33.6806 137.004 33.6033 137.224 33.6033C137.968 33.6033 138.432 34.2301 138.432 35.1499C138.432 36.0372 138.074 36.7332 137.415 36.7332C137.272 36.7332 137.032 36.6477 136.91 36.5378C136.707 36.3628 136.609 36.2204 136.609 35.9192V34.4539H136.605ZM135.6 38.3043C135.6 39.0206 135.563 39.1265 135.233 39.1753L134.989 39.2038C134.924 39.273 134.932 39.4439 135.009 39.4846C135.392 39.4643 135.762 39.4562 136.076 39.4562C136.426 39.4562 136.8 39.4643 137.297 39.4846C137.37 39.4439 137.382 39.273 137.313 39.2038L136.971 39.1672C136.633 39.1265 136.601 39.0206 136.601 38.3084V37.36C136.601 37.1687 136.654 37.1077 136.743 37.0873C136.829 37.1077 137.049 37.128 137.163 37.128C138.567 37.128 139.499 36.1797 139.499 34.8365C139.499 33.8434 138.901 33.0497 137.859 33.0497C137.362 33.0497 136.8 33.4079 136.674 33.4649C136.629 33.4567 136.601 33.3957 136.601 33.3387C136.601 33.2492 136.617 33.1352 136.65 32.9602C136.629 32.9032 136.572 32.8625 136.495 32.8625C136.21 33.0579 135.636 33.3265 135.254 33.4323C135.205 33.4812 135.205 33.5992 135.246 33.6562L135.359 33.7335C135.596 33.9085 135.596 33.9859 135.596 34.4214V38.3043H135.6Z" fill="#E50057"/>
<path d="M141.954 34.3115C141.84 34.3115 141.824 34.283 141.824 34.2423C141.824 34.0388 142.117 33.412 142.756 33.412C143.163 33.412 143.387 33.6928 143.387 34.0388C143.387 34.1242 143.346 34.2016 143.289 34.2423C143.224 34.2789 143.098 34.3115 142.821 34.3115H141.954ZM143.59 34.6981C143.973 34.6981 144.193 34.6574 144.25 34.572C144.286 34.4946 144.299 34.4377 144.299 34.3481C144.299 33.5056 143.574 33.0416 142.87 33.0416C141.592 33.0416 140.859 34.0958 140.859 35.1866C140.859 36.2896 141.592 37.1199 142.699 37.1199C143.281 37.1199 143.989 36.8309 144.311 36.0576C144.303 35.968 144.197 35.8744 144.099 35.9029C143.879 36.2611 143.566 36.3873 143.183 36.3873C142.333 36.3873 141.743 35.6913 141.743 34.8202C141.743 34.7022 141.763 34.6941 141.942 34.6941H143.59V34.6981Z" fill="#E50057"/>
<path d="M151.891 30.6076C152.502 30.6076 153.039 30.5995 153.238 30.5791C153.238 30.7908 153.238 31.5153 153.255 31.9711C153.218 32.0485 153.043 32.0688 152.949 32.0118C152.856 31.4502 152.701 31.1693 152.339 31.0757C152.082 31.0065 151.842 30.9984 151.537 30.9984H151.049C150.65 30.9984 150.65 31.0187 150.65 31.56V33.2899C150.65 33.53 150.658 33.5504 150.878 33.5504H151.439C152.27 33.5504 152.42 33.53 152.506 33.123L152.579 32.7933C152.636 32.7241 152.819 32.7241 152.868 32.8055C152.86 33.0579 152.84 33.416 152.84 33.7742C152.84 34.1324 152.856 34.4783 152.868 34.7795C152.819 34.8569 152.64 34.8569 152.579 34.7877L152.506 34.4092C152.42 34.0021 152.27 33.9818 151.439 33.9818H150.878C150.658 33.9818 150.65 34.0021 150.65 34.2423V35.5976C150.65 36.6233 150.735 36.6518 151.183 36.6884L151.582 36.7373C151.647 36.8065 151.635 36.9815 151.561 37.0181C150.951 36.9978 150.52 36.9896 150.1 36.9896C149.681 36.9896 149.25 36.9978 148.814 37.0181C148.737 36.9815 148.729 36.8065 148.794 36.7373L149.001 36.7088C149.449 36.6518 149.535 36.6233 149.535 35.5976V31.9996C149.535 30.9739 149.449 30.9454 149.001 30.8763L148.879 30.8559C148.81 30.7867 148.822 30.6158 148.9 30.5751C149.233 30.5954 149.661 30.6036 150.08 30.6036H151.891V30.6076Z" fill="#E50057"/>
<path d="M155.338 35.0075C155.338 33.933 155.721 33.4323 156.205 33.4323C156.914 33.4323 157.19 34.3888 157.19 35.2028C157.19 35.9477 156.999 36.7414 156.34 36.7414C155.652 36.7373 155.338 35.8866 155.338 35.0075ZM156.299 33.0416C155.184 33.0416 154.211 33.8556 154.211 35.1499C154.211 36.4158 155.127 37.1199 156.226 37.1199C157.361 37.1199 158.314 36.4035 158.314 35.0319C158.314 33.7783 157.378 33.0416 156.299 33.0416Z" fill="#E50057"/>
<path d="M163.622 35.5691C163.622 36.1105 163.63 36.5948 163.858 36.5948C163.992 36.5948 164.135 36.5663 164.269 36.5256C164.346 36.5745 164.367 36.778 164.24 36.8553C163.821 36.9042 163.085 37.0303 162.673 37.2216C162.625 37.2094 162.596 37.1728 162.588 37.124C162.604 37.0059 162.625 36.8635 162.616 36.7658C162.604 36.6884 162.576 36.6559 162.519 36.6559C162.12 36.9001 161.701 37.1199 161.22 37.1199C160.362 37.1199 160.085 36.6355 160.085 35.8337V34.3237C160.085 33.648 160.048 33.5788 159.808 33.5015L159.674 33.4608C159.617 33.412 159.617 33.2369 159.69 33.2085C160.264 33.2003 160.809 33.1108 161.017 33.0334C161.066 33.0416 161.102 33.0741 161.115 33.1189C161.094 33.2369 161.082 33.4689 161.082 33.9411V35.4308C161.082 36.0006 161.188 36.5338 161.868 36.5338C162.087 36.5338 162.336 36.4483 162.494 36.2936C162.592 36.196 162.608 36.1105 162.608 35.7523V34.2911C162.608 33.6725 162.551 33.6236 162.189 33.5178L162.034 33.4689C161.969 33.4201 161.969 33.2451 162.043 33.2085C162.682 33.2003 163.349 33.1311 163.54 33.0334C163.585 33.0416 163.626 33.0741 163.634 33.1189C163.614 33.3021 163.605 33.5829 163.605 33.9411V35.5691H163.622Z" fill="#E50057"/>
<path d="M166.938 35.8378C166.938 36.5541 166.975 36.66 167.3 36.7169L167.443 36.7373C167.512 36.8065 167.504 36.9815 167.426 37.0181C167.093 36.9978 166.767 36.9896 166.413 36.9896C166.108 36.9896 165.786 36.9978 165.383 37.0181C165.31 36.9815 165.298 36.8065 165.363 36.7373L165.57 36.7088C165.9 36.66 165.933 36.5541 165.933 35.8378V34.4173C165.933 33.9818 165.933 33.8678 165.692 33.7213L165.578 33.6521C165.55 33.6114 165.55 33.4771 165.587 33.4282C165.998 33.3143 166.523 33.0823 166.828 32.9073C166.897 32.9073 166.934 32.9439 166.954 32.9846C166.934 33.1678 166.934 33.3509 166.934 33.4282C166.934 33.4974 166.962 33.5178 167.019 33.5259C167.467 33.2736 167.732 33.0416 168.326 33.0416C169.099 33.0416 169.457 33.5829 169.457 34.3359V35.8337C169.457 36.5501 169.498 36.6559 169.82 36.7047L170.039 36.7332C170.109 36.8024 170.1 36.9774 170.023 37.0141C169.62 36.9937 169.299 36.9856 168.944 36.9856C168.631 36.9856 168.305 36.9937 167.972 37.0141C167.898 36.9774 167.886 36.8024 167.955 36.7332L168.098 36.7129C168.424 36.6559 168.46 36.5501 168.46 35.8337V34.4987C168.46 34.0062 168.269 33.6195 167.699 33.6195C167.402 33.6195 167.162 33.7742 167.068 33.9207C166.942 34.0958 166.934 34.1812 166.934 34.5394V35.8378H166.938Z" fill="#E50057"/>
<path d="M174.136 36.0616C174.136 36.196 174.116 36.2855 174.067 36.3303C173.994 36.4198 173.733 36.5419 173.505 36.5419C172.83 36.5419 172.313 35.8866 172.313 34.8894C172.313 34.0754 172.724 33.4282 173.371 33.4282C173.668 33.4282 173.876 33.5748 174.01 33.7579C174.108 33.8922 174.132 34.0266 174.132 34.2219V36.0616H174.136ZM175.137 31.556C175.137 31.1408 175.145 30.5425 175.166 30.1518C175.145 30.1029 175.093 30.0663 175.032 30.0744C174.653 30.2291 174.156 30.4326 173.782 30.5384C173.717 30.5669 173.725 30.7216 173.782 30.7623L173.916 30.8478C174.124 30.9739 174.136 31.0391 174.136 31.6862V32.952C174.136 33.0579 174.116 33.0986 174.079 33.1067C173.957 33.0701 173.778 33.0375 173.53 33.0375C172.337 33.0375 171.242 33.8678 171.242 35.2639C171.242 36.2285 171.918 37.1199 173.005 37.1199C173.464 37.1199 173.815 36.896 174.104 36.6844L174.152 36.6925C174.169 36.7414 174.169 36.8187 174.16 36.9652L174.14 37.1077C174.16 37.1647 174.209 37.2054 174.254 37.2135C174.596 37.0588 175.272 36.892 175.76 36.8472C175.866 36.7902 175.846 36.5582 175.768 36.4971C175.626 36.5541 175.471 36.5867 175.369 36.5867C175.207 36.5867 175.141 36.2855 175.141 35.4063V31.556H175.137Z" fill="#E50057"/>
<path d="M178.913 36.1268C178.905 36.3588 178.8 36.5948 178.458 36.5948C178.095 36.5948 177.92 36.2855 177.92 36.0332C177.92 35.618 178.169 35.4837 178.437 35.386C178.608 35.3168 178.779 35.272 178.857 35.272C178.905 35.272 178.934 35.329 178.934 35.4348L178.913 36.1268ZM179.931 34.2504C179.968 33.3998 179.504 33.0416 178.747 33.0416C178.258 33.0416 177.574 33.3713 177.277 33.6521C176.96 33.9492 176.903 34.1527 176.903 34.2708C176.903 34.3562 176.96 34.4254 177.082 34.4254C177.29 34.4254 177.558 34.34 177.692 34.2504C177.798 34.1853 177.855 34.0876 177.872 33.9045C177.912 33.6236 178.112 33.4771 178.38 33.4771C178.848 33.4771 178.983 33.9045 178.962 34.397L178.954 34.6493C178.954 34.747 178.926 34.8325 178.734 34.9017C178.38 35.036 178.022 35.1703 177.684 35.2883C177.025 35.5203 176.891 35.8378 176.891 36.1878C176.891 36.6722 177.216 37.124 177.863 37.124C178.205 37.124 178.494 36.9896 178.673 36.8716C178.816 36.7861 178.881 36.7373 178.93 36.7373C178.979 36.7373 179.015 36.7861 179.084 36.8553C179.264 37.0588 179.532 37.124 179.772 37.124C180.069 37.124 180.533 36.9693 180.725 36.6966C180.753 36.6111 180.688 36.5012 180.639 36.5012C180.611 36.5012 180.476 36.6071 180.318 36.6071C179.976 36.6071 179.833 36.3181 179.858 35.7564L179.931 34.2504Z" fill="#E50057"/>
<path d="M183.349 33.6033C183.174 33.6033 183.17 33.6236 183.17 33.9329V35.4226C183.17 36.0331 183.256 36.5745 183.862 36.5745C184.053 36.5745 184.171 36.5053 184.318 36.3995C184.403 36.4076 184.464 36.4849 184.444 36.5948C184.253 36.8635 183.817 37.124 183.235 37.124C182.328 37.124 182.169 36.5948 182.169 35.9151V33.9533C182.169 33.6155 182.148 33.6073 181.994 33.6073H181.66C181.566 33.5585 181.546 33.4038 181.636 33.3468C181.957 33.2207 182.177 33.0945 182.385 32.9398C182.568 32.8055 182.775 32.602 182.91 32.3415C182.995 32.2845 183.129 32.313 183.178 32.3904V32.9683C183.178 33.123 183.178 33.1515 183.357 33.1515H184.302C184.363 33.18 184.379 33.2573 184.379 33.355C184.367 33.4689 184.33 33.5585 184.253 33.6073H183.349V33.6033Z" fill="#E50057"/>
<path d="M187.035 35.8378C187.035 36.5541 187.072 36.6599 187.394 36.7088L187.565 36.7373C187.63 36.8065 187.622 36.9815 187.548 37.0181C187.194 36.9978 186.869 36.9896 186.519 36.9896C186.205 36.9896 185.88 36.9978 185.517 37.0181C185.44 36.9815 185.432 36.8065 185.497 36.7373L185.672 36.7088C185.993 36.6599 186.034 36.5541 186.034 35.8378V34.4173C186.034 33.9818 186.034 33.8678 185.794 33.7213L185.676 33.6521C185.647 33.6114 185.647 33.4771 185.688 33.4282C186.181 33.2858 186.657 33.0701 186.926 32.9073C186.983 32.9154 187.031 32.9357 187.06 32.9846C187.044 33.3021 187.031 33.7661 187.031 34.1649V35.8378H187.035ZM185.92 31.1571C185.92 30.8111 186.168 30.5466 186.531 30.5466C186.893 30.5466 187.141 30.8071 187.141 31.1571C187.141 31.5071 186.893 31.7676 186.531 31.7676C186.168 31.7676 185.92 31.5071 185.92 31.1571Z" fill="#E50057"/>
<path d="M189.928 35.0075C189.928 33.933 190.311 33.4323 190.795 33.4323C191.503 33.4323 191.78 34.3888 191.78 35.2028C191.78 35.9477 191.589 36.7414 190.929 36.7414C190.241 36.7373 189.928 35.8866 189.928 35.0075ZM190.893 33.0416C189.777 33.0416 188.805 33.8556 188.805 35.1499C188.805 36.4158 189.72 37.1199 190.819 37.1199C191.951 37.1199 192.907 36.4035 192.907 35.0319C192.903 33.7783 191.971 33.0416 190.893 33.0416Z" fill="#E50057"/>
<path d="M195.809 35.8378C195.809 36.5541 195.845 36.66 196.171 36.7169L196.318 36.7373C196.387 36.8065 196.375 36.9815 196.297 37.0181C195.963 36.9978 195.638 36.9896 195.288 36.9896C194.983 36.9896 194.661 36.9978 194.258 37.0181C194.185 36.9815 194.173 36.8065 194.238 36.7373L194.449 36.7088C194.771 36.66 194.812 36.5541 194.812 35.8378V34.4173C194.812 33.9818 194.812 33.8678 194.572 33.7213L194.458 33.6521C194.429 33.6114 194.429 33.4771 194.47 33.4282C194.881 33.3143 195.402 33.0823 195.707 32.9073C195.772 32.9073 195.813 32.9439 195.833 32.9846C195.813 33.1678 195.813 33.3509 195.813 33.4282C195.813 33.4974 195.841 33.5178 195.898 33.5259C196.346 33.2736 196.615 33.0416 197.205 33.0416C197.978 33.0416 198.34 33.5829 198.34 34.3359V35.8337C198.34 36.5501 198.377 36.6559 198.703 36.7047L198.918 36.7332C198.984 36.8024 198.979 36.9774 198.902 37.0141C198.503 36.9937 198.178 36.9856 197.824 36.9856C197.51 36.9856 197.185 36.9937 196.851 37.0141C196.773 36.9774 196.765 36.8024 196.83 36.7332L196.973 36.7129C197.294 36.6559 197.335 36.5501 197.335 35.8337V34.4987C197.335 34.0062 197.148 33.6195 196.57 33.6195C196.277 33.6195 196.037 33.7742 195.943 33.9207C195.821 34.0958 195.809 34.1812 195.809 34.5394V35.8378Z" fill="#E50057"/>
<path d="M44.8495 20.5787C46.6322 20.6724 46.2578 19.4554 45.1303 18.8937C41.7318 17.1924 38.378 15.8899 37.2627 15.4992C35.7771 14.9741 35.3294 15.9265 35.3294 15.9265C35.3294 15.9265 30.9947 21.5556 30.5592 22.337C29.6515 23.961 31.4343 23.6761 31.4343 23.6761L35.7486 21.3317C36.6522 22.3778 38.3495 26.1874 35.9888 29.061C35.1137 30.1233 33.1722 32.4962 28.4142 33.8027C23.4201 35.1743 19.8302 34.2463 18.0231 33.1515C17.2172 32.663 18.8982 28.6499 14.0791 29.3052C9.95601 29.8668 10.7863 27.8969 10.6194 27.4125C10.538 27.1805 10.6276 26.6433 10.2328 26.4642C9.82169 26.277 9.56935 25.9758 9.56935 25.9758C9.07686 25.1007 10.477 24.7384 10.477 24.7384C8.09595 25.0844 9.2885 23.8104 9.45945 23.3831C9.56527 23.1145 9.75657 23.0697 8.59251 22.7481C7.21272 22.3655 7.39181 21.9463 8.2384 21.0265C9.10942 20.0862 9.27629 19.0565 9.31699 18.9995C9.4798 18.6943 8.51517 12.589 14.364 10.6679C17.1154 9.76432 20.4652 9.6992 24.6859 10.2365C30.9051 11.0301 30.6121 7.5705 30.6121 7.5705C23.0986 6.21514 19.8506 6.15002 16.4316 6.42272C9.67517 6.96405 4.99448 9.15787 2.30004 12.5727C-0.390341 15.9876 -0.923532 21.6044 1.79127 26.1427C1.86453 26.2607 4.51827 30.7012 7.34297 33.0497C10.5258 35.6994 13.9081 36.8635 15.0885 37.299C22.1461 39.7777 30.2905 39.4806 36.522 36.2692C47.2835 29.9116 41.0561 21.7998 40.3438 20.2043C40.3479 20.2043 42.3016 20.4444 44.8495 20.5787Z" fill="#E50057"/>
<path d="M33.9827 3.8463L27.9141 4.20855L34.235 4.95339L37.1045 13.863L36.0015 5.0063L42.0701 4.64405L35.7491 3.89922L33.9705 0L33.9827 3.8463Z" fill="#E50057"/>
<path d="M56.6179 8.21766V8.89738C56.6179 9.08867 56.6953 9.18229 56.8459 9.18229H59.1414V10.0248C59.1414 10.212 59.2758 10.3016 59.5647 10.3016H60.4398C60.741 10.3016 60.8916 10.212 60.8916 10.0248V9.18229H63.9198V10.0248C63.9198 10.212 64.0663 10.3016 64.3635 10.3016H65.2263C65.5235 10.3016 65.67 10.212 65.67 10.0248V9.18229H68.3034C68.4336 9.18229 68.4947 9.08867 68.4947 8.89738V8.21766C68.4947 8.04671 68.4336 7.96124 68.3034 7.96124H65.67V7.70889C65.67 7.46468 65.7432 7.33443 65.8979 7.31001C66.0444 7.28152 66.1177 7.1757 66.1177 7.00882C66.1177 6.91114 65.5316 6.87043 64.3635 6.87043C64.0663 6.87043 63.9198 6.91114 63.9198 7.00882V7.96124H60.8916V7.62748C60.8916 7.38327 60.9649 7.25303 61.1195 7.22861C61.2661 7.19605 61.3434 7.09022 61.3434 6.92335C61.3434 6.81345 60.7492 6.76054 59.5688 6.76054C59.2839 6.76054 59.1455 6.81345 59.1455 6.92335V7.96124H56.8499C56.6953 7.96124 56.6179 8.04264 56.6179 8.21766ZM68.861 6.42272C69.0197 6.42272 69.0848 6.30061 69.0848 6.0564V5.40111C69.0848 5.23423 69.0156 5.14469 68.861 5.14469H54.2247C54.0049 5.14469 53.8869 5.23423 53.8869 5.40111V12.243C53.8869 14.1438 53.8177 15.7475 53.6874 17.0581C53.5979 18.3198 53.4066 19.5286 53.1298 20.6642C52.8652 21.7713 52.5681 22.6301 52.2344 23.2691C52.2344 23.379 52.2832 23.4686 52.3728 23.5459C52.7513 23.6924 53.081 23.8756 53.3781 24.0791C53.4351 24.1116 53.5328 24.132 53.6549 24.132C54.0537 23.4441 54.359 22.7237 54.5829 21.9748C54.998 20.7456 55.2789 19.5083 55.4335 18.2547C55.633 16.7853 55.7347 14.7788 55.7347 12.243V6.42272H68.861ZM57.2814 11.2296V16.4312C57.2814 16.6185 57.432 16.708 57.7291 16.708H61.5266V17.8232H56.508C56.2801 17.8232 56.1702 17.9006 56.1702 18.043V24.0465C56.1702 24.2134 56.2801 24.2948 56.508 24.2948H57.6029C57.8878 24.2948 58.0262 24.2175 58.0262 24.0465V19.0972H61.5306V21.2544C60.2811 21.4375 59.1903 21.5678 58.2541 21.6451C58.6489 22.5772 58.9094 23.0493 59.0356 23.0493C59.2066 23.0493 59.4182 22.8987 59.6828 22.5975C61.5591 22.3208 63.4192 22.0074 65.263 21.6736C65.3525 21.9341 65.4258 22.158 65.4583 22.3452C66.3334 22.158 66.773 22.0521 66.773 22.0114C66.6427 21.6044 66.484 21.2218 66.3009 20.8637C66.1096 20.4526 65.8735 20.013 65.5764 19.5531C64.8397 19.8095 64.4815 19.9845 64.4815 20.0578C64.6321 20.2613 64.7501 20.4811 64.8437 20.7253C64.3431 20.8189 63.814 20.9044 63.2767 20.9817V19.1053H67.0945V22.4958C67.0945 22.6057 66.9643 22.6708 66.7038 22.6912C66.4759 22.7441 65.7758 22.7685 64.5792 22.7685H64.3553C64.7501 23.3668 64.9618 23.8023 64.9984 24.0872C65.0147 24.2378 65.1286 24.307 65.3322 24.307C66.3985 24.2948 67.2533 24.2378 67.9126 24.1401C68.6046 24.0099 68.9465 23.8389 68.9465 23.611V18.1366C68.9465 17.9331 68.7714 17.8273 68.4173 17.8273H63.2727V16.7121H67.3103C67.5952 16.7121 67.7254 16.6225 67.7254 16.4353V11.2296C67.7254 11.0668 67.5911 10.9772 67.3103 10.9772H57.721C57.432 10.9813 57.2814 11.0708 57.2814 11.2296ZM63.2727 15.5928V14.4287H65.9834V15.5928H63.2727ZM59.0315 15.5928V14.4287H61.5266V15.5928H59.0315ZM59.0315 12.1006H61.5266V13.3176H59.0315V12.1006ZM65.9834 12.1006V13.3176H63.2727V12.1006H65.9834ZM69.2884 9.53639V10.1998C69.2884 10.4359 69.4023 10.5539 69.6262 10.5539H71.8648C71.8078 12.9106 71.6938 14.7014 71.531 15.9306C71.3397 17.7418 71.0426 19.2193 70.6356 20.3793C70.2774 21.5474 69.789 22.6301 69.1785 23.6192C69.1785 23.7331 69.2232 23.8023 69.3168 23.8471C69.8175 24.014 70.3507 24.1646 70.9123 24.2948H71.1077C71.6124 23.3424 72.0357 22.2923 72.3939 21.1364C72.9149 19.492 73.273 17.5709 73.4562 15.3689C73.5864 14.1601 73.6719 12.5565 73.7045 10.5539H76.057C76.0041 13.9688 75.9105 16.4068 75.7803 17.8599C75.6663 19.6263 75.5238 20.823 75.361 21.4416C75.2064 22.2109 74.8604 22.5894 74.3231 22.5894C73.8754 22.5894 73.4033 22.5406 72.8986 22.4469V22.5894C73.1021 23.0534 73.2323 23.4523 73.2934 23.7942C73.3137 24.0913 73.6556 24.2378 74.3231 24.2378C75.65 24.2378 76.46 23.7006 76.7571 22.6138C77.0786 21.6288 77.3269 20.0985 77.5142 18.0267C77.6851 16.2969 77.7828 13.4641 77.8194 9.53639C77.8194 9.36951 77.7095 9.28404 77.4897 9.28404H73.737C73.7493 8.24208 73.7615 7.10243 73.7615 5.87324C73.7615 5.61275 73.8998 5.44995 74.1848 5.37261C74.3313 5.31156 74.4086 5.19353 74.4086 5.01037C74.4086 4.92897 74.2947 4.86384 74.0749 4.81093L72.2311 4.67255C72.0235 4.67255 71.9177 4.72139 71.9177 4.83535V6.37387C71.9177 7.39548 71.9095 8.36418 71.8933 9.27997H69.6262C69.4023 9.28404 69.2884 9.36951 69.2884 9.53639Z" fill="#E50057"/>
<path d="M83.6172 5.76741V6.27211C83.6172 6.43899 83.6946 6.52446 83.8411 6.52446H89.2992V7.63562H84.5127C84.3662 7.63562 84.2848 7.6926 84.2848 7.80249V8.31126C84.2848 8.50256 84.3662 8.59618 84.5127 8.59618H95.4004C95.555 8.59618 95.6242 8.50663 95.6242 8.31126V7.80249C95.6242 7.6926 95.555 7.63562 95.4004 7.63562H91.1511V6.52446H96.4952C96.6418 6.52446 96.715 6.43899 96.715 6.27211V5.76741C96.715 5.63717 96.6418 5.56798 96.4952 5.56798H91.1511V5.4825C91.1511 5.24643 91.2244 5.11619 91.375 5.09584C91.5052 5.09584 91.5744 4.99815 91.5744 4.81499C91.5744 4.64812 90.9273 4.56264 89.6289 4.56264C89.4091 4.56264 89.2992 4.61556 89.2992 4.72545V5.56798H83.8411C83.6905 5.56798 83.6172 5.63717 83.6172 5.76741ZM84.472 9.65849V11.0423C84.472 11.5837 84.3743 12.068 84.1911 12.4995C83.8899 13.0978 83.2469 13.6106 82.2578 14.0421C82.2578 14.1316 82.3107 14.213 82.4247 14.2944C82.6689 14.502 82.9009 14.7136 83.1248 14.9375C83.2387 15.0311 83.3893 15.0759 83.5725 15.0759C84.1342 14.8154 84.5737 14.563 84.8871 14.3229C85.3918 13.9322 85.7337 13.4926 85.9291 13.0082C85.9413 12.9553 85.9617 12.8983 85.9779 12.8454H95.266C95.5672 12.8454 95.7138 12.7559 95.7138 12.5931V9.7521C95.7138 9.58522 95.5672 9.50382 95.266 9.50382H84.8871C84.6104 9.49975 84.472 9.55266 84.472 9.65849ZM86.2221 11.1563V10.4522H89.2992V11.8849H86.1896C86.214 11.6366 86.2221 11.3964 86.2221 11.1563ZM91.0494 10.4522H93.9677V11.8849H91.0494V10.4522ZM98.6524 5.23422V5.91394C98.6524 6.19478 98.5751 6.44713 98.4245 6.67099C98.164 6.96811 97.586 7.2286 96.6865 7.45246C96.6865 7.52979 96.7476 7.6112 96.8575 7.70481C97.0813 7.89204 97.3052 8.10776 97.5291 8.35197C97.6593 8.4293 97.814 8.46186 98.0053 8.46186C98.51 8.31533 98.9048 8.1566 99.206 8.01821C99.67 7.78621 99.9834 7.52979 100.13 7.2286C100.313 6.89892 100.411 6.52446 100.411 6.11338V6.00348H102.816V8.05077C102.816 8.16067 102.902 8.24207 103.073 8.2787C103.353 8.3479 103.789 8.3886 104.375 8.3886H105.999C106.785 8.3886 107.302 8.25835 107.538 7.99786C107.855 7.59492 108.148 7.04951 108.413 6.36166C108.413 6.19478 108.299 6.08896 108.075 6.05639C107.782 5.98313 107.513 5.9058 107.285 5.83254C107.159 5.7959 107.057 5.77555 106.984 5.77555C106.797 5.77555 106.699 5.80404 106.699 5.86103C106.553 6.38608 106.386 6.72797 106.199 6.89485C106.064 7.04544 105.787 7.11871 105.356 7.11871H105.136C104.896 7.11871 104.717 7.11057 104.603 7.09429C104.513 7.06986 104.465 7.0373 104.465 6.98032V5.24643C104.465 5.15282 104.322 5.10805 104.041 5.10805H99.1001C98.803 5.09584 98.6524 5.14061 98.6524 5.23422ZM96.8249 9.16193V9.66663C96.8249 9.83757 96.8982 9.91898 97.0447 9.91898H98.1925C98.4774 10.3748 98.7908 10.7208 99.1449 10.9813C99.3281 11.1889 99.5886 11.3964 99.9264 11.6C99.7392 11.6366 99.5641 11.6773 99.3973 11.7139C98.4123 11.9215 97.4395 12.0843 96.4912 12.2186C96.4179 12.239 96.3772 12.2756 96.3772 12.3326C96.3772 12.3651 96.4179 12.3977 96.4912 12.414C96.7191 12.6338 96.9348 12.8821 97.1627 13.1425C97.1994 13.2362 97.2726 13.2809 97.3866 13.2809C98.746 12.9513 99.9467 12.6297 100.997 12.3326C101.086 12.3122 101.18 12.2878 101.282 12.2471C101.615 12.3814 101.994 12.5157 102.43 12.6623C103.134 12.8698 103.911 13.0571 104.745 13.224C105.478 13.342 106.125 13.4397 106.711 13.5292C106.919 13.5658 107.045 13.5903 107.098 13.5903C107.179 13.5903 107.261 13.5414 107.35 13.4478C107.635 13.2036 107.912 12.992 108.197 12.8047C108.27 12.7274 108.303 12.6541 108.303 12.5849C108.303 12.5605 108.238 12.5483 108.107 12.5239C106.842 12.414 105.808 12.2878 104.998 12.1331C104.184 12.007 103.492 11.8523 102.934 11.6854C103.215 11.5552 103.471 11.4371 103.712 11.3273C104.705 10.8917 105.718 10.2934 106.768 9.50789C106.768 9.41428 106.549 9.26368 106.125 9.06017C106.052 8.99912 105.861 8.97877 105.564 8.97877H97.0569C96.8982 8.97063 96.8249 9.03575 96.8249 9.16193ZM104.322 9.91898C103.744 10.2772 103.13 10.5621 102.474 10.7859C102.141 10.9202 101.803 11.0423 101.469 11.1522C101.412 11.1156 101.355 11.0912 101.298 11.0708C100.777 10.8103 100.354 10.5336 100.04 10.2568C99.9101 10.1632 99.7921 10.0574 99.7025 9.91898H104.322ZM103.496 14.2741C103.647 14.2741 103.724 14.2252 103.724 14.1072C103.724 13.9566 103.329 13.6065 102.543 13.0734C102.474 13.0123 102.348 12.9879 102.181 12.9879C102.108 12.9879 102.01 13.0042 101.88 13.0449C100.797 13.2321 99.4746 13.3908 97.9076 13.517C96.5197 13.631 95.1439 13.7083 93.7845 13.7409C92.2908 13.8182 90.4999 13.8548 88.4078 13.8548H87.0972C86.9629 13.8548 86.9019 13.9077 86.9019 14.0217C87.1176 14.2659 87.3333 14.4979 87.5409 14.7258C87.5816 14.8927 87.7281 14.9782 87.9886 14.9782C89.5353 14.9782 91.2325 14.9375 93.0804 14.8642C93.6258 14.8195 94.1793 14.7991 94.7614 14.7747V15.6457H84.4801C84.3255 15.6457 84.2563 15.7271 84.2563 15.8899V16.3946C84.2563 16.6429 84.3255 16.7609 84.4801 16.7609H93.1374C92.4291 17.111 91.8105 17.3959 91.2854 17.5994C90.0318 18.0634 88.7741 18.4297 87.5083 18.6902C86.2547 18.971 84.7325 19.2396 82.9416 19.5001C82.9416 19.5368 83.0067 19.61 83.141 19.724C83.4748 19.9886 83.776 20.2246 84.0324 20.4241C84.1504 20.5909 84.2563 20.6764 84.3702 20.6764C84.5941 20.6764 85.518 20.4933 87.142 20.1147C87.5694 20.0048 87.9886 19.9031 88.3997 19.8054V24.1198C88.3997 24.2744 88.5055 24.3436 88.7334 24.3436H89.8242C90.1132 24.3436 90.272 24.2704 90.272 24.1198H101.392V24.2052C101.392 24.3558 101.502 24.421 101.725 24.421H102.824C103.109 24.421 103.252 24.3558 103.252 24.2052V19.7077C104.542 20.0048 105.857 20.245 107.2 20.4322C107.383 20.4322 107.509 20.3956 107.558 20.3264C107.786 20.1188 108.148 19.8542 108.649 19.5408C108.779 19.4839 108.844 19.4106 108.844 19.317C107.428 19.2234 105.975 19.0158 104.481 18.6983C103.195 18.4175 101.884 18.0674 100.549 17.6319C99.8124 17.4081 98.9902 17.115 98.0989 16.765H106.752C106.903 16.765 106.98 16.647 106.98 16.3987V15.894C106.98 15.7312 106.903 15.6498 106.752 15.6498H96.6255V14.6689C97.1465 14.6404 97.6756 14.5956 98.221 14.5549C99.7717 14.445 101.107 14.3148 102.222 14.1642C102.503 14.1316 102.714 14.1112 102.865 14.1112L103.496 14.2741ZM90.2557 22.1213H101.388V23.1796H90.2557V22.1213ZM90.2557 20.1025H101.388V21.2137H90.2557V20.1025ZM90.7319 19.0931C91.6843 18.739 92.6123 18.3401 93.4996 17.8884C93.9351 17.7052 94.3503 17.4854 94.7614 17.2208V19.146H90.5324C90.5894 19.1298 90.6546 19.1135 90.7319 19.0931ZM96.6173 17.4976C98.1111 18.1488 99.3281 18.6088 100.285 18.8693C100.578 18.9629 100.883 19.0524 101.204 19.146H96.6173V17.4976Z" fill="#E50057"/>
<path d="M115.998 6.43085V7.09836C115.998 7.34257 116.072 7.4606 116.218 7.4606H120.59V14.4613H114.383C114.228 14.4613 114.155 14.5427 114.155 14.7096V15.3974C114.155 15.6213 114.228 15.7352 114.383 15.7352H120.284C119.539 16.5167 118.929 17.1028 118.465 17.4935C117.569 18.2221 116.711 18.7919 115.897 19.203C115.335 19.5164 114.602 19.838 113.711 20.1839C113.711 20.2206 113.739 20.2938 113.792 20.4037C114.142 20.6235 114.496 20.8718 114.851 21.1323C114.985 21.2381 115.156 21.2992 115.359 21.2992C116.295 20.8921 117.215 20.3874 118.131 19.7932C118.949 19.2478 119.706 18.6535 120.398 17.9983C121.013 17.461 121.737 16.7039 122.576 15.7352H131.266C132.071 16.7731 132.784 17.5994 133.423 18.1936C134.184 18.9385 135.026 19.5693 135.938 20.0944C136.585 20.5014 137.411 20.8759 138.401 21.2096C138.49 21.2096 138.588 21.1486 138.677 21.0142C138.999 20.77 139.369 20.5217 139.797 20.2613C139.894 20.188 139.939 20.1025 139.939 20.0089C139.939 19.9316 139.858 19.8868 139.687 19.8665C138.401 19.4798 137.298 18.9629 136.386 18.332C135.714 17.9413 135.047 17.4162 134.367 16.765C134.07 16.4475 133.765 16.1016 133.472 15.7312H138.962C139.088 15.7312 139.162 15.6172 139.162 15.3933V14.7055C139.162 14.5386 139.088 14.4572 138.962 14.4572H133.06V7.45653H137.306C137.46 7.45653 137.534 7.3385 137.534 7.09429V6.43085C137.534 6.26397 137.46 6.18664 137.306 6.18664H133.06V5.56798C133.06 5.30748 133.142 5.16503 133.313 5.14875C133.5 5.11619 133.594 5.00222 133.594 4.81499C133.594 4.64812 132.91 4.56264 131.542 4.56264C131.245 4.56264 131.099 4.64812 131.099 4.81499V6.18664H122.564V5.56798C122.564 5.30748 122.649 5.16503 122.812 5.14875C122.999 5.11619 123.093 5.00222 123.093 4.81499C123.093 4.64812 122.405 4.56264 121.037 4.56264C120.74 4.56264 120.598 4.64812 120.598 4.81499V6.18664H116.226C116.068 6.18664 115.998 6.26804 115.998 6.43085ZM122.551 12.9757H131.086V14.4613H122.551V12.9757ZM122.551 10.2772H131.086V11.7058H122.551V10.2772ZM122.551 7.46467H131.086V8.94621H122.551V7.46467ZM120.463 18.9507V19.6467C120.463 19.8665 120.537 19.9804 120.687 19.9804H125.836V22.3126H117.411C117.268 22.3126 117.191 22.39 117.191 22.5528V23.2488C117.191 23.4645 117.268 23.5825 117.411 23.5825H136.557C136.683 23.5825 136.752 23.4645 136.752 23.2488V22.5528C136.752 22.3859 136.683 22.3126 136.557 22.3126H127.798V19.9804H133.056C133.187 19.9804 133.252 19.8665 133.252 19.6467V18.9507C133.252 18.7879 133.187 18.7065 133.056 18.7065H127.798V17.7825C127.798 17.5017 127.887 17.3389 128.075 17.3104C128.258 17.29 128.355 17.1761 128.355 16.9726C128.355 16.822 127.651 16.7446 126.247 16.7446C125.974 16.7446 125.832 16.822 125.832 16.9726V18.7105H120.683C120.537 18.7065 120.463 18.7838 120.463 18.9507Z" fill="#E50057"/>
<path d="M162.699 18.4256C162.511 18.9303 162.222 19.4228 161.828 19.9072C161.588 20.302 161.201 20.7375 160.676 21.2259C160.623 21.2951 160.594 21.3561 160.594 21.3928C160.594 21.409 160.664 21.4375 160.814 21.4782C161.148 21.5881 161.502 21.7062 161.881 21.8364C162.06 21.93 162.218 21.9748 162.328 21.9748C162.402 21.9748 162.507 21.926 162.638 21.8079C163.195 21.2503 163.761 20.4648 164.347 19.4594C164.38 19.3251 164.502 19.2641 164.709 19.2641C164.872 19.2274 164.962 19.1623 164.962 19.0687C164.962 18.9547 164.815 18.853 164.542 18.7634L162.89 18.1977C162.817 18.2018 162.756 18.2791 162.699 18.4256ZM156.581 4.57486C156.04 5.32784 155.421 6.02383 154.733 6.67913C154.139 7.25709 153.354 7.85948 152.385 8.49442C150.948 9.46719 149.507 10.2772 148.075 10.9284C147.069 11.3964 145.775 11.8645 144.188 12.3285C144.061 12.3692 143.992 12.3936 143.992 12.414C143.992 12.4873 144.094 12.5727 144.302 12.6623C144.639 12.9065 144.928 13.1873 145.168 13.5048C145.303 13.6513 145.453 13.7287 145.649 13.7287C146.337 13.4885 147.232 13.1018 148.331 12.5809C148.962 12.2837 149.597 11.9541 150.236 11.604V12.2756C150.236 12.4954 150.333 12.6094 150.541 12.6094H155.8V15.898H148.25C148.042 15.898 147.94 16.012 147.94 16.2399V16.94C147.94 17.1639 148.046 17.2778 148.25 17.2778H155.8V22.2149H145.726C145.523 22.2149 145.417 22.3248 145.417 22.5528V23.2528C145.417 23.4808 145.523 23.5907 145.726 23.5907H167.921C168.149 23.5907 168.254 23.4808 168.254 23.2528V22.5487C168.254 22.3208 168.149 22.2109 167.921 22.2109H157.762V17.2738H165.202C165.43 17.2738 165.536 17.1598 165.536 16.9359V16.2359C165.536 16.0079 165.43 15.894 165.202 15.894H157.762V12.6053H163.012C163.224 12.6053 163.325 12.4913 163.325 12.2715V11.9093C164.713 12.7111 166.134 13.3501 167.603 13.8141C167.827 13.8141 167.978 13.7653 168.055 13.6717C168.311 13.4234 168.743 13.11 169.341 12.7192C169.492 12.6663 169.569 12.5646 169.569 12.4181C168.218 12.2105 166.838 11.7465 165.426 11.0179C164.192 10.4196 162.935 9.65442 161.649 8.72235C160.66 8.03449 159.528 7.05358 158.262 5.78369C158.466 5.72264 158.698 5.70229 158.958 5.70229C159.329 5.70229 159.516 5.60868 159.516 5.42145C159.516 5.34412 159.426 5.2505 159.239 5.14061L157.11 4.30215C156.968 4.30215 156.781 4.3917 156.581 4.57486ZM151.64 10.7534C152.763 10.0859 153.704 9.43056 154.469 8.79154C155.25 8.23393 156.064 7.56642 156.899 6.77681C158.616 8.53512 159.984 9.74803 161.014 10.4155C161.404 10.6964 161.799 10.965 162.214 11.2296H150.822C151.107 11.079 151.384 10.9243 151.64 10.7534ZM149.32 18.9832C149.914 19.8258 150.541 20.8759 151.192 22.1457C151.587 22.1457 152.104 21.9707 152.759 21.6126C152.873 21.6126 152.926 21.5149 152.926 21.3073C152.308 20.2613 151.62 19.2966 150.854 18.4012C150.818 18.3442 150.708 18.3157 150.517 18.3157C149.723 18.6088 149.32 18.8367 149.32 18.9832Z" fill="#E50057"/>
<path d="M184.332 7.51759C185.191 7.08615 186.079 6.57331 186.99 5.97906C188.781 7.15941 190.218 7.97751 191.301 8.44558C191.504 8.53513 191.699 8.62874 191.891 8.72642H181.784C182.778 8.3072 183.624 7.91239 184.332 7.51759ZM186.457 4.19633C185.92 4.70103 185.297 5.18131 184.609 5.62496C183.995 6.03605 183.205 6.45527 182.232 6.88264C180.779 7.53387 179.33 8.08741 177.889 8.53513C176.868 8.84853 175.557 9.166 173.97 9.48347C173.827 9.50383 173.75 9.53232 173.75 9.56895C173.75 9.62186 173.852 9.7114 174.059 9.8213C174.413 10.0411 174.706 10.326 174.951 10.6638C175.065 10.7941 175.219 10.8633 175.407 10.8633C176.094 10.7086 176.998 10.4522 178.121 10.0777C179.147 9.73989 180.173 9.36951 181.202 8.95842V9.65442C181.202 9.87828 181.276 9.99224 181.422 9.99224H192.562C192.709 9.99224 192.786 9.87828 192.786 9.65442V9.10088C194.536 9.80909 196.36 10.3586 198.24 10.7452C198.444 10.7452 198.578 10.7167 198.631 10.6638C198.875 10.44 199.258 10.151 199.783 9.79281C199.929 9.76025 200.003 9.68291 200.003 9.57302C198.566 9.42242 197.105 9.10495 195.611 8.6206C194.308 8.20544 192.973 7.6926 191.606 7.05359C190.735 6.6425 189.734 6.09303 188.61 5.4011C188.683 5.38075 188.765 5.37261 188.83 5.37261C189.208 5.37261 189.4 5.29935 189.4 5.15282C189.4 5.05921 189.302 4.95338 189.119 4.83942L186.986 4.02946C186.84 4.03353 186.661 4.09051 186.457 4.19633ZM177.051 11.3028V15.9469C177.051 16.1097 177.201 16.2033 177.499 16.2033H196.523C196.799 16.2033 196.946 16.1097 196.946 15.9469V11.3028C196.946 11.1441 196.799 11.0546 196.523 11.0546H177.499C177.201 11.0546 177.051 11.14 177.051 11.3028ZM192.465 14.9253C192.68 14.4776 192.904 13.9403 193.136 13.3135C193.169 13.1792 193.266 13.1141 193.417 13.1141C193.507 13.0774 193.555 13.0123 193.555 12.9187C193.555 12.8047 193.429 12.7111 193.193 12.6378L192.241 12.3244H194.984V14.9212H192.465V14.9253ZM187.873 14.9253V12.3285H191.569V12.3855C191.455 12.8576 191.268 13.3379 191.007 13.8263C190.861 14.1479 190.641 14.5142 190.356 14.9253H187.873ZM183.702 14.9253C183.555 14.5264 183.384 14.152 183.197 13.7978C182.969 13.3461 182.672 12.8576 182.297 12.3285H185.903V14.9253H183.702ZM179.017 14.9253V12.3285H181.728C181.08 12.5931 180.755 12.76 180.755 12.8373C181.125 13.3786 181.426 13.924 181.65 14.4735C181.719 14.62 181.789 14.7706 181.846 14.9212H179.017V14.9253ZM179.017 17.3267V24.1808C179.017 24.3233 179.151 24.4006 179.432 24.4006H180.523C180.824 24.4006 180.979 24.3233 180.979 24.1808V23.7331H193.022V24.1808C193.022 24.3233 193.161 24.4006 193.433 24.4006H194.528C194.829 24.4006 194.984 24.3233 194.984 24.1808V17.3267C194.984 17.1394 194.829 17.0499 194.528 17.0499H179.432C179.151 17.0499 179.017 17.1394 179.017 17.3267ZM180.979 20.9735H193.022V22.4551H180.979V20.9735ZM180.979 18.3727H193.022V19.8583H180.979V18.3727Z" fill="#E50057"/>
</svg>
