<?xml version="1.0" encoding="UTF-8"?>
<svg id="_圖層_1" data-name="圖層 1" xmlns="http://www.w3.org/2000/svg" xmlns:xlink="http://www.w3.org/1999/xlink" viewBox="0 0 117 117">
  <defs>
    <style>
      .cls-1 {
        fill: #231815;
      }

      .cls-1, .cls-2 {
        stroke-width: 0px;
      }

      .cls-3 {
        fill: url(#_未命名漸層_4);
      }

      .cls-3, .cls-4 {
        stroke: #231815;
        stroke-miterlimit: 10;
        stroke-width: 2.21px;
      }

      .cls-4 {
        fill: none;
      }

      .cls-2 {
        fill: #00ff93;
      }
    </style>
    <linearGradient id="_未命名漸層_4" data-name="未命名漸層 4" x1="68.64" y1="62.3" x2="25.92" y2="62.3" gradientUnits="userSpaceOnUse">
      <stop offset=".46" stop-color="#fff"/>
      <stop offset=".51" stop-color="#f1fff9"/>
      <stop offset=".61" stop-color="#ccffe9"/>
      <stop offset=".73" stop-color="#90ffd0"/>
      <stop offset=".89" stop-color="#3fffae"/>
      <stop offset="1" stop-color="#00ff93"/>
    </linearGradient>
  </defs>
  <circle class="cls-2" cx="58.5" cy="58.5" r="58.5"/>
  <path class="cls-3" d="M26.82,87.89h3.73c6.26,0,7.18,1.31,12.9,3.84l8.22,3.64c4.9,2.17,10.19,3.29,15.55,3.29h9.15c3.53,0,6.81-2.24,7.75-5.64.52-1.9.29-3.68-.41-5.22,4.03-.52,7.09-4.1,6.69-8.36-.1-1.03-.41-1.98-.89-2.84,3.42-.79,5.98-3.84,5.98-7.5,0-2.16-.89-4.1-2.32-5.5,1.43-1.4,2.32-3.34,2.32-5.5,0-4.26-3.45-7.71-7.71-7.71h-23.43c1.55-2.89,2.45-6.13,2.45-9.54v-7.13c0-2.37-1.08-4.61-2.94-6.08-4.2-3.33-10.44-1.5-12.17,3.57l-2.87,8.41c-2.19,6.44-8.24,10.76-15.04,10.76h-6.97"/>
  <line class="cls-4" x1="93.47" y1="63.53" x2="76.03" y2="63.53"/>
  <line class="cls-4" x1="89.68" y1="76.71" x2="76.03" y2="76.71"/>
  <line class="cls-4" x1="83.91" y1="87.96" x2="76.03" y2="87.96"/>
  <path class="cls-1" d="M81.91,20.78c-6.95,1.23-7.94,2.22-9.17,9.17-1.23-6.95-2.22-7.94-9.17-9.17,6.95-1.23,7.94-2.22,9.17-9.17,1.23,6.95,2.22,7.94,9.17,9.17Z"/>
  <path class="cls-1" d="M93.55,34.96c-4.41.78-5.04,1.41-5.82,5.82-.78-4.41-1.41-5.04-5.82-5.82,4.41-.78,5.04-1.41,5.82-5.82.78,4.41,1.41,5.04,5.82,5.82Z"/>
  <path class="cls-1" d="M48.61,20.78c-4.41.78-5.04,1.41-5.82,5.82-.78-4.41-1.41-5.04-5.82-5.82,4.41-.78,5.04-1.41,5.82-5.82.78,4.41,1.41,5.04,5.82,5.82Z"/>
</svg>