<?xml version="1.0" encoding="UTF-8"?>
<svg id="_圖層_1" data-name="圖層 1" xmlns="http://www.w3.org/2000/svg" xmlns:xlink="http://www.w3.org/1999/xlink" viewBox="0 0 117 117">
  <defs>
    <style>
      .cls-1 {
        fill: #231815;
      }

      .cls-1, .cls-2 {
        stroke-width: 0px;
      }

      .cls-2 {
        fill: #ff78b9;
      }

      .cls-3 {
        fill: url(#_未命名漸層_5);
      }

      .cls-3, .cls-4 {
        stroke: #231815;
        stroke-miterlimit: 10;
        stroke-width: 2.21px;
      }

      .cls-4 {
        fill: none;
      }
    </style>
    <linearGradient id="_未命名漸層_5" data-name="未命名漸層 5" x1="215.54" y1="-225.41" x2="172.82" y2="-225.41" gradientTransform="translate(268.4 -166.91) rotate(-180)" gradientUnits="userSpaceOnUse">
      <stop offset=".46" stop-color="#fff"/>
      <stop offset=".55" stop-color="#fff1f7"/>
      <stop offset=".7" stop-color="#ffcce4"/>
      <stop offset=".91" stop-color="#ff91c6"/>
      <stop offset="1" stop-color="#ff78b9"/>
    </linearGradient>
  </defs>
  <circle class="cls-2" cx="58.5" cy="58.5" r="58.5"/>
  <path class="cls-3" d="M94.68,32.91h-3.73c-6.26,0-7.18-1.31-12.9-3.84l-8.22-3.64c-4.9-2.17-10.19-3.29-15.55-3.29h-9.15c-3.53,0-6.81,2.24-7.75,5.64-.52,1.9-.29,3.68.41,5.22-4.03.52-7.09,4.1-6.69,8.36.1,1.03.41,1.98.89,2.84-3.42.79-5.98,3.84-5.98,7.5,0,2.16.89,4.1,2.32,5.5-1.43,1.4-2.32,3.34-2.32,5.5,0,4.26,3.45,7.71,7.71,7.71h23.43c-1.55,2.89-2.45,6.13-2.45,9.54v7.13c0,2.37,1.08,4.61,2.94,6.08,4.2,3.33,10.44,1.5,12.17-3.57l2.87-8.41c2.19-6.44,8.24-10.76,15.04-10.76h6.97"/>
  <line class="cls-4" x1="28.04" y1="57.27" x2="45.48" y2="57.27"/>
  <line class="cls-4" x1="31.82" y1="44.09" x2="45.48" y2="44.09"/>
  <line class="cls-4" x1="37.59" y1="32.84" x2="45.48" y2="32.84"/>
  <g>
    <path class="cls-1" d="M31.64,85.51h-2.13v-2.65h2.13c2.11,0,3.82-1.72,3.82-3.82v-2.13h2.65v2.13c0,3.57-2.9,6.47-6.47,6.47Z"/>
    <path class="cls-1" d="M47.25,85.16h-1.77c-3.09,0-5.61-2.52-5.61-5.61v-1.78h2.65v1.78c0,1.63,1.33,2.96,2.96,2.96h1.77v2.65Z"/>
    <path class="cls-1" d="M41.29,95.75h-2.65v-2.13c0-3.57,2.9-6.47,6.47-6.47h2.13v2.65h-2.13c-2.11,0-3.82,1.72-3.82,3.82v2.13Z"/>
    <path class="cls-1" d="M37.5,94.53h-2.65v-1.78c0-1.63-1.33-2.96-2.96-2.96h-1.78v-2.65h1.78c3.09,0,5.61,2.52,5.61,5.61v1.78Z"/>
  </g>
</svg>